<?xml version="1.0" encoding="UTF-8"?>
<svg id="Capa_1" data-name="Capa 1" xmlns="http://www.w3.org/2000/svg" viewBox="0 0 1024 1024">
  <defs>
    <style>
      .cls-1 {
        opacity: .75;
      }
    </style>
  </defs>
  <g class="cls-1">
    <g>
      <path d="M541.04,85.96c.24.24,6.25,1.71,6.59,1.74,1.97.18,4.14-1.14,6.81-.69,3.82.63,14.56,6.49,17.08,6.97,7.69,1.47,19.02-2.55,25.53-.53,11.38,3.52,13.16,37.76,4.47,44.57-5,3.92-15.4-.61-21.05.93-1.38,8.17-3.03,16.23-2.55,24.59.25,2.12,6.87,4.25,8.85,8.2,3.23,6.43,1.97,14.56,3.47,20.53.46,1.85,2.99,3.89,3.54,6.46,1.97,9.2,1.04,20.59,2.51,30.49,3.16,21.21,16.92,62.96,6.91,82.49-.69,1.34-10.62,14.96-11.81,16.19-18.92,19.52-69.93,3.21-93.38-1.89,1.12,3.9,7.71,30.99,9.13,31.86,3.33,2.06,8.24-2.8,12.64,6.86,4.08,8.95,9.5,38.24,8.13,47.69-1.61,11.12-18.96,12.9-27.9,11.6l5.07,62.48c-2.26,10.34-.05,29.49-6.07,38.02-5.14,7.29-18.58,9.7-27.01,9.49-.75,25.05,20.44,45.97,33.82,65.69,9.02,13.3,17.53,27.09,26.78,40.22,10.66,15.14,25.21,31.06,34.82,46.18,8.05,12.67,7.39,25.12,10.87,39.13,8.36,33.68,24.26,67.62,33.25,102.75,2.08,8.12,4.2,27.1,7.48,33.26,1.03,1.94,4.87,2.78,6.51,7.75,3.03,9.21,4.29,16.02,4.83,25.37.32,5.66,5.85,16.86,8.85,21.95.97,1.64,5.47,8.98,6.31,9.69,4.27,3.56,16.75-2.63,22.25-3.74,11.74-2.36,31.72-3.56,43.79-3.29,2.66.06,12.21,1,14.2,1.8,7.07,2.83,11.79,29.32,12.25,36.75,1.36,22.11-7.01,16.29-23.47,18.5-19.51,2.62-25.94,9.62-42.52,15.48-14.36,5.07-28.73,2.25-43.39,4.61-5.93.96-12.37,4.28-18.1,4.91-32.45,3.54-21.65-23.48-23.52-44.49-2.07-23.23-21.36-53.74-29.44-76.56-6.77-19.13-10.83-39.72-21.69-57.31-1.97-3.19-6.12-5.62-8.29-8.71-8.95-12.71-4.47-30.7-11.03-43.97-3.36-6.81-9.79-10.85-14.51-16.49-18.32-21.88-34.1-45.69-49.02-69.98l-4.9,4.02c-10.12-1.93-17.34-10.47-24.1-17.51.52,20.15,2.42,42.4.98,62.49-4.87,67.85-59.08,98.21-74.5,159.5-2.04,8.13-3.52,17.11-4.52,25.46,4.43.44,7.83,2.39,11.7,4.38,14.67,7.53,29.07,19.29,44.3,26.7,5.85,2.85,26.32,8.17,28.77,10.72,1.89,1.96,1.86,23.58.52,26.51-1.45,3.18-12.21,4.78-15.88,5.12-17.94,1.63-38.68-2.87-56.89-3.87-20.56-1.13-42.67-.01-62.98-2.02-8.53-.84-14.28-4.91-12.29-14.27,1.64-7.73,1.89-5.22,1.73-14.18-.13-7.59,1.04-18.03.09-25.09-.41-3.03-2.78-4.92-2.87-7.92-.29-10.04,6.9-28.05,8.71-39.15,2.5-15.33,2.78-31.21,5.43-46.57,8.14-47.24,39.76-77.34,42.68-126.32,1.53-25.76-6.23-50.4-4.91-73.91.11-2.04,1.74-3.87,1.64-5.92-.21-4.17-3.99-13.88-5.05-18.83-5.98-28.15-9.71-58.51-10.71-87.29-.49-13.86,2.22-17.67,3.98-29.1.79-5.17-.45-11.55.08-16.92,2.75-27.99,7.24-54.6,7.02-83.06-.29-39.77-1.59-79.12,1.97-118.95,2.19-24.6,5.19-68.43,16.82-89.18,6.5-11.6,16.16-19.14,27.64-25.36.26-9.8,5.9-21.34,6.54-30.47.15-2.09.29-1.43-1.02-1.02-5.99,1.87-24.54,12.28-28.49,3.49-1.77-3.93,4.38-18.13,6.69-22.28,5.06-9.08,16.39-17.17,17.72-27.28,2.35-17.95-4.45-29.71,13.78-42.22,8.82-6.05,41.97-20.16,52.26-21.74,17.4-2.68,28.42,2.74,34.81,19.29,2.61,6.76,2.81,12.88,4.21,19.79,11.98,5.32,48.8,6.67,56.1,17.9,1.69,2.6.52,7.08.97,7.54ZM455,45.5c.96,3.41-.7,10.56,0,14.5,6.52-.22,12.29-3.01,19-2-1.92-14.91-6.61-29.67-24.49-27.98-8.55.81-51.21,18.51-56.52,24.75-3.69,4.34-6.58,13.8.04,16.76,2.26,1.01,8.41-3.97,11.62-5.39,12.09-5.34,23.35-8.82,35.05-15.95,2.58-1.57,13.05-12.72,15.3-4.7ZM397,84.99c18.08.1,32.89-12.42,48.55-19.94,2.09-1.13,2.25-7.3-.59-6.63-5.57,1.33-15.94,9.04-22.28,11.75-9.76,4.18-19.56,4.36-25.68,14.81ZM530,82.01c-.52-.68-14.02-4.81-16.17-5.34-14.8-3.66-30.28-5.61-45.08-9.43-2.73,1.34-9.76,1.62-11.73,3.27-1.61,1.36-2.44,7.67-6.08,8.92l-20.93,9.56c3.99,0,8.89-.58,12.25,1.98,5.95,4.54,1.44,12.46,12.28,11.05,13.28-1.73,24.64-12.47,38.01-12.06,8.95.27,13.4.78,22.68-1.24,1.54-.33,17.03-3.74,14.77-6.71ZM416.99,91c-.68-.66-14.73,3.79-18.5,3.99-2.88.15-11.9-1.29-12.4-.92-.28.21-2.09,4.68-3.26,6.26-6.36,8.61-15.48,16.34-16.82,27.67,22.97-10.54,47.63-16.15,72.01-22.51,2.89-10.08-9.19-5.12-15.07-6.93-5.02-1.55-5.29-6.91-5.96-7.56ZM541.99,95c-2.33-2.38-2.07,3.48-1.97,4.48.49,4.99,5.9,15.33,0,17.11-7.46,2.24-7.23-9.7-8.74-14.42-.54-1.69.43-2.64-2.27-2.18-3.5,8.54,11.32,35.41-4,32,.21,10.96,12.12,12.49,17.4,21.09,2.62,4.27,3.16,7.82,4.53,12.5l21.06-1.59c-1.27-6.83,1.47-13.21,1.98-19.52.86-10.69-3.07-20.93-3.99-31.48-5.12,3.74-7.85,1.4-9.48-4-10.87,16.39-11.53-10.95-14.52-14ZM520.99,97.01l-11.99,2.98c3.51-.7,11.59,2.27,11.99-2.98ZM584,102c-2.37.3-8.29-.89-9.57.93-1.1,1.56,2.5,23.02,3.76,25.45.78,1.51,3.64,1.71,5.28,1.63s-1.36-11.67-1.37-13.41c0-2.26,2.63-13.86,1.9-14.6ZM488,104c-11.25-.32-22.01,9.27-31.75,10.77-3.9.6-11.94-2.2-13.78.21-.63.82-3.37,14.42-3.51,16.48-.82,11.77,6.63,25.16-3.95,34.04l12.46,9.5c3.6-6.42,11.92-9.01,19.01-9.08,3.02-.03,21.51,3.04,21.51-.42v-29c0-2.72,4.83-7.17,5.03-9.03.41-3.83-5.03-7.37-5.03-8.97v-14.5ZM597,127v-16.5c0-.61-1.56-5.39-2.99-5.5-.19,7.23-2.67,16.2,2.99,22ZM519.99,109.01c-.62-.65-14.52.39-16.03,1.45-1.4.98-1.46,9.25-.52,10.6,1.02,1.46,15.37,1.14,18.56,1.93l-2.01-13.98ZM424.99,119l-29.86,8.13-2.13,20.86,14.68-10.8c8.86-3.69,18.06-6.55,17.3-18.19ZM509,131.01c-18.49,1.87-9.62,20.12-11.11,32.38-2.65,21.9-26.3,7.47-38.6,13.4-8.3,4.01-3.13,15.33-1.52,21.94,1.79,7.34-1.58,7.33,7.54,11.46,25.98,11.77,35.12-11.85,38.4-32.99,2.39-15.38-.1-31.23,5.29-46.2ZM429.99,136.01l-22.47,13.02c-4.61,4.03-8.43,8.7-11.52,13.97,9.38.63,23.51,3.34,31.52-2.97,7.12-5.61,1.17-16.43,2.47-24.02ZM496,237.01l36.95,20.6c1.13.3,6.03-4.71,6.02-5.11,0-.29-2.28-2.07-2.83-3.15-4.56-9.04-1.43-33.38-2.1-44.89-.46-7.82-4.77-24.13-2.84-30.75.78-2.67,4.45-3.32,5.33-4.72,1.18-1.89-.79-8.83-2.07-10.95-1-1.66-12.42-11.37-13.98-12.03-2.42-1.03-1.55,5.35-1.47,6.48.73,10.91,4.66,22.76,5.03,33.97.64,19.37-5.11,47.4-28.04,50.55ZM505.64,224.64c13.68-13.4,10.88-42.37,8.35-59.64-1.45-.2-1.53,2.72-1.71,3.77-4.07,24.11-7.95,57.12-41.28,51.23,8.42,9.27,24.68,14.39,34.64,4.63ZM446.99,198.99c.09-7.44-7.93-21.39-14.94-23.55-12.5-3.86-33.66,7.1-48.1,2.1-2.27-.79-4.51-4.19-5.44-4.26-2.6-.22-12.51,8.86-14.5,11.24-19.58,23.57-21.31,93.6-23.03,124.97-2.56,46.46,1.17,93.01-3,139-1.13,12.47-3.29,25.1-4.99,37.5,7.23-1.77,12.79-3.6,20.48-2.97,3.59.29,7.52,2.08,11.02,2.06,4.21-.03,7.98-2.99,12.5-2.07l1.01-39.3c-4.5-2.9-10.66-9.63-10.84-15.17s3.91-12.29,3.85-17.06c-.04-3.31-2.65-5.62-3.52-8.48-4.76-15.72,1.63-34.33,1.53-50.54-.11-17.82-3.81-37.01-5.03-54.96-.56-8.28-.54-16.73-1.08-25.03.02-3.55,7.16-1.87,8.07-2.47-15.82-30.17.72-68.62,36.46-71.03,8.73-.59,16.94,1.24,25.53,2.03l-11.22-5.27c-10.54-2.89-19.21-3.31-29.98-1.43-4.89.86-17.77,6.93-20.31,2.72-3.9-6.48,8.11-9.63,12.31-10.72,16.1-4.18,35.14-3.15,50.08,4.33l13.12,8.37ZM580,187c-.23-3.22-.5-11.44-3.72-12.78-5.19-2.15-34.88-.1-36.2,4.41,1.19,10.19,3.35,20.64,3.91,30.88.46,8.34-1.65,28.2.45,34.55,1.43,4.33,15.68,8.86,20.45,13.55,2.94,2.88,9.62,12.32,5.86,16.15-5.02,5.11-21.58-12.83-27.74-12.75-3.33,3.66,15.67,20.11,12.84,28.33-.4,1.16-1.71,1.9-2.81,2.25-8.91,2.84-16.35-17.13-20.6-22.52-6.95-8.8-41.78-22.45-53.76-30.24-21.47-13.97-30.13-27.78-59.3-30.7-41.3-4.13-56.52,35.57-34.82,66.82,17.35,24.97,67.68,29.97,95.16,37.85,7.77-6.41,6.32.46,10,1.99,16.89,2.66,33.18,8.32,50.08,10.92,13.73,2.12,36.28,6.08,46.21-6.21.72-.9,4.32-5.94,1.48-6.5-1.41-.28-10.03,9.81-14.76,11.22-12.81,3.8-16.91-3.98-26.68-6.76-4.43-1.26-9.7-.96-14.1-1.9-7.12-1.53-13.13-4.93-20.72-6.28-11.22-1.99-19.43.31-28.75-8.25-5.03-4.62-9.01-14.33-16.2-15.8-6.35-1.29-15.03.59-21.28,2.26-4.46,1.19-18.55,8.16-20.49,8.15-5.24-.02-5.91-5.84-.82-9.46,8.54-6.09,31.51-11.3,41.84-10.18,16.98,1.85,17.19,17.81,29.22,21.78,7.18,2.37,16.01,1.79,23.49,3.51,5.07,1.17,9.81,4.11,14.73,5.27s10.69.96,15.7,2.3c6.57,1.76,13.22,8.07,19.77,7.11,8.37-1.23,17.14-24.08,26.07-10.98,1.28.06,2.35-7.78,2.49-9.49,1.9-23-7.94-47.47-10.87-70.1-.6-4.67-.52-26.35-3.73-27.32-1.06-.32-4.01.94-5.84.98-4.83.11-16.41.57-17.38-5.77-1.37-9.03,15.81-6.53,20.84-6.27ZM479.9,322.1c-26.79-5.74-55.69-11.15-80.57-22.93-10.82-5.12-17.21-13.82-25.32-22.17.27,13.03,4.13,26.7,4.98,39.51,1.18,17.84,1.32,36.1,2.05,53.95.35,8.44-1.68,28.31.33,34.86,3.05,9.92,46.71,36.09,11.63,37.69,3.75,9.91,2.31,27.99,6.5,36.99,2.52,5.42,11.16,2.03,16.49,4,.93-9.79,1.03-19.7,2.01-29.49,1.57-15.64,3.06-38.93,6.44-53.56,3.08-13.35,13.74-9.23,17.05,2.05,5.28,18.02-11.33,32.52-5.97,48.97,1.81,5.57,10.33,17.55,15.14,20.86,4.46,3.07,14.41,5.34,16.57,10.42,5.8,13.6-14.87,10.73-22.78,10.7-2.05,0-3.93,1.01-5.86.96-5.4-.14-13.89-4.75-8.61-10.43s7.62-.27,11.56.48c2.58.49,6.85.18,9.45-.45-11.66-5.25-15.67-16.18-23.99-24.5l-2.05,38.34c4.69,2.27,9.77,2.17,14.73,4.47,7.74,3.59,13.18,11.17,18.14,17.86,1.21,1.64,4.55,9.74,5.17,4.85.33-2.58-.97-13.92,1.66-14.56,10.85-2.64,5.22,11.66,8.98,12.9,3.41,1.13,14.89-1.87,17.33-4.39,4.51-4.65,4.35-40.1,4.02-47.96-.86-20.34-3.05-43.59-5-64-2.72-28.57-8.26-56.79-10.1-85.41ZM494.01,361c.79.52,3.65-.19,3.83-1.46-2.05-5.55-3.06-11.42-4.82-17.05-.56-1.79-1.24-5.72-3.01-6.48.77,3.24,2.95,24.29,4,24.99ZM500.01,417c3.56-3.16,17.54-1.86,18.86-6.71.17-.62-.8-10-.99-11.67-.52-4.41-5.23-30.71-8.47-31.47-2.03-.47-11.15,3.63-14.41,2.85l5.01,47ZM393,432.99l-13.99-13.99c-1.66,5.82-4.08,11.28,2.44,15.06,4.12,2.39,7.1-1.6,11.55-1.07ZM414,499.99c-.32-10.17-8.76-5.91-15.27-7.22-3.89-.78-7.3-4.05-8.01-7.99l-3.71-14.77c-2.41,10.29,1.13,18.74,1.13,28.86,8.08,3.4,17.42,2.49,25.86,1.13ZM421,647v-14.5c0-1.29,3.67-8.94,3-9.49-5.27.88-6.49-1.81-9.02-5.48-9.33-13.51-19.58-32.92-28.39-47.61-2.1-3.49-10.83-17.08-11.12-19.81-.76-7.1,26.57-32.23,31.54-39.1-10,.03-26.87-1.31-34.95-7.56-2.11-1.64-2.82-3.85-4.7-5.3-9.15-7.1-15.72-1.52-24.4,2.42,4.93,13.17,2.82,27.29,4.32,40.66,4.7,41.69,48.09,76.1,73.72,105.78ZM333.92,505.07c-2.6-1.67-3.56,1.42-3.81,3.51-2.8,22.56,2.78,66.58,7.19,89.63,7.13,37.29,26.87,75.51,32.46,111.53,1.31,8.45-2.78,13.12-9.18,6.19l-12.57-42.92c2.61,29.23,1.09,58.4-9.53,85.98-8.45,21.94-22.75,40.99-28.98,64.02-5.24,19.37-5.57,39.64-8.64,59.36-1.99,12.72-5.96,24.92-7.85,37.64,5.61.83,11.09-1.06,16.5-1.06,4.75,0,22.59,3.01,25.27-.18,1.59-1.9,4.62-21.5,5.69-25.8,9.22-36.8,27.64-60.48,48.35-90.65,29.82-43.42,28.83-78.64,26.23-129.86-.2-4.02-.54-14.81-1.28-17.72-1.42-5.5-36.02-39.24-42.73-47.27-13.76-16.47-30.29-41.53-32.75-63.25-.65-5.8-.22-36.5-4.36-39.15ZM574.01,895c11.86-9.6,35.82-5.81,36.88-25.39-6.03-29.25-13.04-58.25-22.44-86.57-5.14-15.5-12.58-31.41-17.18-46.82-4.02-13.47-4.12-31.83-10.87-43.13-9.35-15.64-25.32-33.19-36.23-48.77-16.01-22.87-35.86-49.47-50.21-72.79-8.75-14.21-13.27-29.77-23.56-44.44-6.44-9.17-13.03-17.98-25.41-18.08,1.7,2.13.15,7.23,1.97,8.56,1.6,1.17,4.96-2.83,8.49,1.47l37.53,67.56c.61,5.9-3.24,5.38-5.05,7.85-1.11,1.52-.9,3.6-2.37,5.63-1.7,2.35-6.85,5.4-9.54,8.46-10.65,12.06-11.22,22.24-10.02,37.96,1.14,14.86,3.55,14.53,10.82,25.18,16.64,24.38,30.35,48.62,49.2,71.8,6.91,8.5,17.15,15.69,20.7,26.3,3.39,10.14,2.74,31.01,8.79,38.21,2.26,2.68,4.91,1.74,7.47,3.53,1.86,1.3,3.15,4.61,5.51,6.49,6.02,4.8,18.26,7.21,22.05,14.94,6.35,12.94-9.74,8.91-16.06,5.06-2.11-.69,3.21,9.56,3.53,10.47,5.29,15.47,8.24,31.69,15.99,46.52ZM411.99,518.98c.63-.88-.64-2.38-1.49-2.96-1.02,1.47-10.87,9.6-9.49,10.97,3.41-.72,6.01-4.64,8.52-7.02.83-.78,2.39-.88,2.47-.99ZM407,530.99c3.57-1.69,8.94-4.19,11.94-6.55,3.45-2.71,1.53-5.24-.95-3.96s-8.75,8.02-10.98,10.51ZM431.99,524l-47.91,28.6,38.42,63.44c6.56.58,27.79-18.25,34.17-22.87,2.22-1.61,9.29-4.36,9.34-6.63l-34.03-62.54ZM436.99,652c-.46-9.61-2.3-19.51,0-29-8.3,7.25-10.28,22.28,0,29ZM441,671.99c.12-2.33-9.46-13.49-11-11.98.58,1.75,9.29,13.62,11,11.98ZM617.99,883c-1.85-1.4-6.13,7.87-7.99,8.99l10-2c-.32-1.11-1.73-6.76-2.02-6.98ZM707.5,967c5.44-.55,12.35,0,18,0,3.85,0,2.69-10.21,2.38-13.38-.4-4.09-3.72-22.62-6.88-24.12-2.43-1.16-26.03-.75-30.49-.48-4.85.29-14.17,1.33-18.91,2.09-14.61,2.35-25.43,13.18-36.43-2.78-5.83-8.46-10.47-19.61-13.7-29.34-1.83.35-3.41,1.41-5.25,1.75-9.95,1.85-16.91,2.36-26.7,2.21-3.7-.06-6.98,1.16-10.52.06-1.1,1.29,10.6,27.27,12.01,31.48,2.61,7.82,5.51,17.8,6.03,25.97.44,6.97-3.36,26.96,2.39,30.61s26.15-4.21,34.19-4.94c8.83-.8,17.79.23,26.62-1.38,16.44-3,29.28-15.93,47.25-17.75ZM382,946.02c-.12-.12-2.26-.5-3.3-1.17-7.68-4.95-18.75-12.65-26.66-16.38-1.63-.77-3.11-1.74-5.04-1.45,7.22,12.03,19.58,19.38,33.59,20.92,1.94.21,2.11-1.2,1.41-1.91ZM355,947.99c-3.31-1.65-14.91-16.59-16.49-16.72-.77-.06-4.01,2.27-6.08,2.67-5.61,1.1-11.79.18-17.43.07l14.47,7.02c8.41,2.57,16.65,6.17,25.53,6.96ZM296,936v26c0,.35,2.99,1.18,4.81,4.69,2.36,4.55.59,8.55,5.76,9.21,25.13,3.23,51.57,2.49,76.88,3.15,8.14.21,16.47.16,24.56-.55-5.26-5.98-10.03-.24-15.39-.8-1.14-.12-2.25-1.33-3.34-1.48-4.72-.63-14.75-.09-14.01-7.58.68-6.85,7.78-2.01,11.2-1.61,4.95.58,9.61-1.54,14.54-1.03,1.06-6.53-3.03-8.37-8.45-10.05-7.57-2.34-4.75.68-8.57,3.53-4.33,3.24-15.79.19-21.17-.8-23.52-4.34-45.12-13.05-66.82-22.68ZM414.91,962.09c-.35-.51-5.52-1.47-5.9-1.09.36,3.9-1.85,8.53,3.3,6.81,2.03-.68,3.72-4.07,2.6-5.71Z"/>
      <path d="M840.76,268.76c-5.21,5.23-17.69-9.19-22.63-12.38-11.05-7.15-24.33-9.63-32.63-21.37-.36,3.55,4.14,10.91,6.86,13.64,4.84,4.85,14.13,7.58,19.97,11.53,7.3,4.94,25.28,26.08,28.87,34.13,7.04,15.79,5.16,42.47,6.81,60.19.42,4.51,5.3,32.25,3.99,33.51l-4.06-.44c-6.88-29.36-3.77-60.11-10.75-89.25-3.2-8.39-20.42-29.02-27.88-34.12-9.01-6.15-17.49-7.08-24.15-16.85-7.51-11.03-8.28-20.25-22.9-26.1-4.87-1.94-25.33-4.94-26.81-8.21-1.17-2.58,1.45-3.24,3.78-2.8,6.57,1.23,20.04,4.55,26.03,7.01,3.62,1.49,6.56,3.59,9.73,5.76l-27-48.99c-1.9-.19-.8,2.01-.51,3.01,2.09,7.08,13.34,24.52,11.36,30.32-1.59,4.65-13.86,2.94-17.69,2.02-9.75-2.35-17.97-9.23-28.14-10.34l15.04,8.44c1.74,1.34,2.74,3.51,1.48,5.57s-23.29,4.95-27.53,5.97c.17-1.31-.64-3.21.6-4.1,2.47-1.78,13.26-3.31,16.89-3.93.83-.14,3.58.55,2.51-1.45s-18.33-7.44-20.54-11.51c-4.73-8.68,16.66-3.16,20.09-2.05,5.21,1.68,28.62,14.43,32.37,8.94,1.2-1.75-6.79-16.11-8.08-19.23-1.42-3.44-10.88-25.36.16-20.18,8.49,3.98,28.06,46.41,35.21,56.81,12.66,18.43,20.83,18.56,38.11,28.89,6.57,3.93,10.98,10.15,17.69,12.8-3.13-27.3-11.75-53.2-18.94-79.55-6.24-10.43-18.11-15.84-25.46-25.54-1.17-1.55-11.09-17.55-4.1-15.91.88.21,6.01,10.55,7.51,12.5,7.29,9.44,23.05,17.95,27.19,28.81,6.52,17.15,17.78,59.51,18.82,77.22.11,1.94.13,5.84-1.25,7.22Z"/>
      <path d="M765.96,85.04c.4.49.06,3.12-.45,3.98-.71,1.2-10.95,3.6-7.53,5.5,1.78.99,10.36.62,14.23,1.77,1.94.57,3.68,1.61,5.45,2.55,2.42,1.29,21.47,13.65,22.32,14.67.94,1.13,1.66,3.29.92,4.4-2.65,3.96-25.56-3.28-30.51-3.8s-9.88.28-14.77-.23c-8.59-.89-16.12-7.43-24.15.1-2.16,2.03-4.75,9.21-6.14,10.1-6.45,4.16-24.72-6.79-22.95-14.13,1.18-4.88,16.14-4.75,19.99-7.86,2.93-2.36-4.73-5.86-6.92-8.05-3.49-3.49-5.63-8.02-9.46-11.54-6.57-6.03-12.41-7.69-17.54-16.46-1.64-2.8-7.59-13.61-1.96-14.08,2.61-.22,17.06,9.04,21.13,10.91,6.72,3.08,17.8,5.25,22.85,10.15,1.98,1.92,3.08,4.85,5,7,10.64,11.97,9.93,1.99,18,1.95.8,0,12.07,2.59,12.48,3.09ZM755,87.01c-7.03,1.14-8.18,6.06-16,2.5-6.8-3.1-8.96-11.08-13.63-14.36-4.24-2.98-15.06-5.61-20.71-8.29-4.71-2.23-9.13-5.25-13.63-7.86,1.56,9.99,11.59,13.69,18,19.49,4.18,3.78,6.36,8.39,9.96,12.04,4.04,4.09,12.37,6.07,8.81,12.74-2.74,5.14-14.43,6.49-19.78,7.74-1.53,1.65,9.11,10.92,13.99,8.53,2.31-1.13,3.88-8.4,8.05-11,10.63-6.63,15.64-.7,25.58.34,4.56.47,9.2-.27,13.76.24,6.45.73,13.08,3.45,19.62,3.87-5.72-4.47-14.38-11.79-21.58-12.91-4.55-.71-16.24,1.21-15.41-6.53.26-2.44,3.28-3.86,2.98-6.55Z"/>
      <path d="M810,127.5c.7-2.43,3.89-1.93,5.24.76,3.64,7.24,2.25,20.79,4,29,2.01,9.42,8.79,16.61,13.14,24.86,2.67,5.07,4.19,11.58,7.61,15.88l19.02-147,4.87,1.58-19.98,148.82c-8.33,8.04-11.54-8.81-14.52-14.27-5.69-10.4-14.17-19.8-15.39-32.13l-1.97,1-2.02-12.5c.77-4.28-1.06-12.33,0-16Z"/>
      <path d="M806.99,58c1.44-3.92,2.85-25.4,5.15-26.85,6.99-4.41,4.54,14.88,4.83,18.4.6,7.52,1.68,17.04,3.78,24.22,5.24,17.89,27.45,33.7,26.25,55.25-1.13-.17-3.07.39-3.86-.14-.61-.42-3.42-11.76-4.38-14.12-7.96-19.63-26.72-33.15-25.77-56.73-2.19,1.08-1.27,3.84-4.26,5.27-.71.34-1.43.65-2.24.65-6.96-.04-25.26-26.18-31.97-30.95-1.27-3.1-.94-5.27,2.48-3.48,6.94,3.65,18.03,20.7,24.98,26.02,1.52,1.16,2.87,2.58,5.01,2.48Z"/>
      <path d="M669.64,936.25c2.6-.26,12.81,4.09,13.36,7.29,2.1,12.27-18.31,2.96-17.79-2.88.17-1.92,2.52-4.21,4.43-4.41Z"/>
      <path d="M433,605.5c-.95,3.07-8.77,1.26-9.81-2.19-.73-2.45.08-5.71-.2-8.3-.79-.89-5.08,4.12-5.99.48s5.1-5.05,5.84-7.15c1.1-3.13-.91-6.66-.87-9.78.03-2.04,1.76-13.54,2.28-15.81,1.84-7.99,10.14-3.65,15.76-3.74,1.63,3.8-2.97,4.92-3.09,5.63-.53,3.09,6.68,11.24,1.09,16.36l11.47-4.99c7.6,7.28-16.47,10.59-16.47,13.5,0,3.46.71,13.7,0,16ZM431.99,562l-2.83,1.66c-.01,7.72-3.25,14.51-2.16,22.33,2.69-1.86,7.39-6.33,7.96-9.56,1.03-5.86-3.79-8.76-2.97-14.43Z"/>
      <path d="M425.75,533.14c4.04-.57,12.19,12.71,10.79,15.83-1.03,2.3-27.99,18.16-32.12,21.05-3.58.21-6.36-5.13-7.93-8-3.66-6.67-5.47-7.86,1.2-12.84,3.25-2.43,25.43-15.67,28.07-16.04ZM426.91,539.05c-1.26-.91-26.05,14.18-27.01,15.4-2.05,2.59,3.22,7.98,4.6,10.53,3.37-5.37,23.99-14.68,26.06-17.97.6-.95-3.29-7.71-3.64-7.96Z"/>
    </g>
  </g>
</svg>