<?xml version="1.0" encoding="UTF-8"?>
<svg id="Capa_1" data-name="Capa 1" xmlns="http://www.w3.org/2000/svg" viewBox="0 0 502.2 778.38">
  <defs>
    <style>
      .cls-1 {
        fill: #4a4a4a;
      }
    </style>
  </defs>
  <path class="cls-1" d="M427.83,227.06c2.76,11.75,3.86,27.83-3.17,38.33-1.56,2.32-4.92,4.43-5.89,6.11-3.89,6.78,3.1,37.54,3.05,47.05-.01,2.97-1.76,6.46-2.03,9.96-1.83,23.11,8.12,33.42,14.35,52.72.82,2.53.26,5.05.89,7.11.41,1.33,6.88,7.9,8.61,11.39,6.02,12.18,12.85,54.75,8.49,67.13-1.68,4.77-6.44,8.25-7.79,11.21-1.25,2.73-.68,20.06-.56,24.52.44,16.91,6.36,49.23-.09,63.83-1.76,3.99-8.22,9.74-8.67,11.33-.85,2.99.09,7.88-1.19,11.3,16.1-3.24,27.02-9.23,41.47,2.03,22.59,17.6,32.65,60.04,23.56,86.51-8.3,24.18-25,23.85-47.03,28.97-8.22,1.91-22.18,3.04-29.32,5.68-2.81,1.04-5.71,7.9-15.68,10.31-10.34,2.5-11.14-2.2-14.07-2.07-6.04.27-25.86,8.06-33.93,10.08-17.53,4.39-35.41,7.73-53,12-3.16.77-7.94.79-10.27,1.5-.58.18-5.76,7.3-8.38,8.85s-13.25,4.71-16.14,4.94c-4.42.35-8.02-2.57-12.03-2.15-14.4,1.52-37.68,12.02-52.97,16.07-28.19,7.46-51.65,14.16-71.63-12.8-6.13-8.27-6.63-17.1-10.5-23.26-.88-1.41-5.8-2.28-7.86-6.39-10.54-21.08-2.39-77.69,23.5-86.05l14.27-3.21c-11.08-3.58-35.45-5.8-43.4-14.11-4.6-4.8-4.67-11-7.17-15.83-1.02-1.98-3.66-3.95-5.14-6.86-2.28-4.49-2.22-9.74-3.84-13.16-.71-1.49-11.1-10.77-13.42-13.58-3.94-4.76-8.65-11.03-11.54-16.46-8.05-15.13-9.21-34.28-19.5-49.01-1.79-.24-.92,2.18-.74,3.24,4.37,26.68.41,41.32-9.23,66.27-1.99,5.14-7.34,20.06-12.73,21.27-6.22,1.39-26.2.8-27.11-7.53-.32-2.96,13.26-26.62,15.68-31.9,5.94-12.94,12.41-28.48,13.18-42.82.12-2.27-.35-16.83-1.05-17.53-.52-.52-8.27,1.1-12.83-5.67-4.91-7.29-7.41-31.47-2.03-38.7,1-1.35,2.9-1.87,3.41-2.65.77-1.19-1.49-19.03-1.59-22.44-.93-31.36,2.12-61.45-.97-93.03-2.39-24.42-10.29-49.3-9.03-74.05,2.4-47.11,33.5-99.3,87.03-90.45,1.93-17.08,15.72-44,30.09-53.42,13.22-8.67,31.59-9.06,46.91-9.59-1.08-3.24-4.47-4.76-6.82-7.67-7.4-9.16-17.9-29.25.6-32.05l70.54-9.46c3.65-4.11,5.87-9.44,9.27-13.73,2.19-2.77,5.29-4.92,7.39-7.61C264.86,22.19,272.36-.65,300.37.01c24.99.6,98.37,30.55,119.36,45.63,10.97,7.88,18.36,17.81,18.14,31.94-.36,23.42-7.63,47.31-8.87,70.75,10.48,17.59,23.27,33.74,33.62,51.42,5.88,10.03,16.77,23.43.48,30.1-12.02,4.92-23.53.44-35.29-2.78ZM422.48,59.4c-15.62-16.46-96.29-48.74-119.16-50.34-2.61-.18-6.02-.35-8.48.48,24.21,21.53,53.29,37.29,84.37,46.63,1.9.85,4.02,3.81,1.66,5.4-4.05,2.72-29.32-7.93-34.71-10.35-22.12-9.97-41.64-24.43-59.82-40.21-14.15,9.82-20.03,27.1-32.47,38.6-.3,1.35,11.55,9.75,13.65,11.25,13.75,9.83,31.13,19.04,46.3,26.7,35.05,17.7,69.93,28.95,108.58,36.44,2.1.25,1.21-.07,1.42-1.46,1.88-12.24,4.26-27.85,5.01-40.01.16-2.59.51-9.87-.14-11.84-1.01-3.08-4.21-.81-6.19-1.01-4.54-.48-14.58-3.04-18.42-5.34-1.97-1.18-1.83-3.77-.3-4.86,3.02-2.17,16.35,4.95,21.06,3.56.17-.13-1.84-3.1-2.35-3.64ZM421.7,132.18c-1.43-2.2-43.84-10.53-50.87-12.63-23.22-6.92-44.65-16.8-66.02-27.98-19.62-10.25-39.56-20.9-55.48-36.5-.99-.01-9.06,12.92-8.05,14.95.56,1.12,6.61,6.71,8.08,8,23.71,20.73,68.67,42.05,98.51,52.49,16.06,5.62,41.21,14.42,57.58,16.42,2.29.28,11.97,1.14,12.89.15,1.56-1.68,4.49-13.17,3.36-14.91ZM228.65,72.31c-14.37.74-32.66,3.75-47.18,5.88-3.16.46-19.18,2.38-20.23,3.8-3.66,4.95,12.42,21.91,16.12,25.02,20.76,17.45,48.3,19.57,71.49,32.51,19.51,10.89,36.65,30.21,56.72,38.28,22.88,9.2,48.48,6.23,72.05,13.95,22.3,7.31,40.21,24.85,63,30,4.86,1.1,18.67,3.15,21.77-1.7,1.62-2.55-7.28-15.9-9.14-18.92-9.57-15.55-20.82-30.1-30.43-45.64-14.62,2.08-29.23-1.85-43.2-5.73-42.66-11.85-100.25-35.16-134.26-63.74-2.65-2.23-11.69-13.09-12.52-13.5-1.74-.88-2.64-.29-4.18-.21ZM99.83,178.55c-.73,7.57,0,17.15,0,25,0,.57,1.5,1.47,2.43,1.49,2.63.05,10.96-3.44,15.19-3.86,19.49-1.95,34.77,3.18,50.29,14.46,4.18,3.04,20.02,16.25,22.14,19.86,2.44,4.16,1.14,6.15-3.09,3.09-7.85-5.68-13.67-13.56-21.83-19.17-15.31-10.54-32.51-16.43-51.19-12.92-1.59.3-11.54,3.12-11.91,3.62-.42.58,1.1,6.87,1.92,7.53.99.79,12.55-4.12,15.65-4.48,15.64-1.8,41.8,11.09,54.29,20.5,26.43,19.91,31.42,58.17,72.56,60.44,2.03.11,6.61.96,6.59-1.55-.01-1.04-.83-6.13-1.14-6.39-.53-.45-10.74-.81-13.91-1.6-11.52-2.87-21.31-11.28-29.02-19.98-3.66-4.12-9.19-8.89-7.97-14.52,1.22-.18,2.29.3,3.25.98,5.27,3.77,12.04,14.88,18.23,20.03,4.75,3.96,10.09,7.22,16.08,8.92,2.1.6,12.72,3.33,13.18.6-1.27-4.13-3.77-32.3-6.23-32.52-12.85,8.08-15.62-7.14-16.4-16.66-.84-10.29,7.86-6.78,9.77-9.49,1.3-1.85-4.66-19.07-5.86-22.4-8.14-22.51-35.31-70.14-59.07-77.93-6.94-2.27-30.24.76-37.72,3.17-18.25,5.87-34.47,35.55-36.22,53.78ZM262.83,216.04c-4.99-15.13-8.98-31.23-15.83-45.66-3.4-7.16-15.78-28.59-22.16-31.84-7.12-3.62-18.3-5.41-26.01-8.48,23.5,25.23,39.59,55.47,48.04,88.97l15.95-2.99ZM362.58,197.29c-1.93-1.66-37.58-5.2-43.96-6.53-10.36-2.16-19.64-5.9-28.72-11.28-4.81-2.85-44.95-34.53-47.07-32.42,3.39,6.99,7.57,13.56,10.85,20.64,7.13,15.37,12,31.87,16.23,48.27,9.76-1.01,12.63,2.69,15.19,11.31,2.57,8.64,3.87,17.76-8.28,15.79l5.99,36,90-13c3.93,3.36-15.57,7.44-16.79,7.7-23.19,4.98-48.6,7.56-72.21,9.29.16,2-.91,7.22,1.63,7.93l95.27-16.03-7.78-43.31c-9.09-.97-12.93.68-15.83-9.36-2.61-9.03-3.36-16.31,7.68-17.28.49-.68-1.48-7.08-2.2-7.7ZM90.83,181.05c-30.01-1.53-53.98,15.58-66.55,41.96-21.35,44.81-2.98,86.56-.47,132.56,1.65,30.2-2.74,63.24,1.02,92.98,3.17,25.01,17.52,34.43,24.69,4.72,6.44-26.67,12.03-78.36,11.29-105.69-1.15-42.53-20.82-90.07,5.03-128.99l6.97-6.51c-17.35-6.16-35.02,6.9-42.39,22.09-14.19,29.2,2.83,87.84,4.44,121.36,1.16,24.2-3.41,48.53-2.03,72.03.26,4.48,2.43,24.59,5.69,26.61.85.53,9.46.53,5.29,4.38-11.98,11.06-15.71-24.51-16.03-29.94-1.28-21.86,3.9-43.51,3.03-65.03-1.15-28.33-8.89-57.18-10.98-85.02-.55-7.29.96-17.09-.06-23.87-.12-.79-2.96-.46-2.71-4.84,1.05-18.4,19.41-43.57,38.5-46.54,14.03-2.19,25.09,2.94,37.26,8.75-2.83-10.12-1.88-20.59-1.99-31ZM400.83,220.05c-.86-6.35-1.03-9.76-7.97-11.53-9.63-2.45-20.47,2.53-30.01,3.55l2.05,11.91,20.43-3.93h15.5ZM42.83,481.04c17.61,8.36,32.16,22.55,42.5,39,1-1.39,7.32-6.65,7.33-7.47,0-.29-2.54-3.32-3.05-4.79-4.83-13.87-1.77-45.02,7.76-57.19-2.07-24.13-5.58-47.67-4.53-72.02.53-12.23,3.29-25.08,3.98-37.02,1.09-19.06-9.5-38.4-10.97-58.01s5.67-36.84,12.64-54.01c-3.36-4.05-13.22-13.23-18.36-13.28-3.86-.04-10.67,12.06-12.16,15.45-15.1,34.26-1.13,70.73.85,105.87,1.59,28.18-2.2,59.87-6.13,87.85-2.06,14.62-4.26,42.35-15.91,52.1-1.8,1.51-4.67.73-3.94,3.52ZM399.83,227.06c.79,3.12,5.03,28.03,6.5,27.98,5.66-6.66,7.96-17.87,8.48-26.49.41-6.78.3-8.99-6.98-10.49.49,6.48-.78,10.2-8,9ZM129.83,529.05v22.5c0,1.56-4,10.13-5.16,11.84-4.84,7.08-14.6,10.99-16.85.18l-.94-42.85-6.04-1.67c-.92,5.54.88,11.3,1.04,16.46.53,17.57-2.11,42.01,2.42,58.58,1.82,6.68,4.11,9.02,10.28,11.72,7.02,3.07,40.41,13.72,46.92,13.87,4.76.11,15.04-5.12,17.1-9.38,3.47-7.19-1.14-40.24,3.37-43.12s5.68,6.2,5.91,9.33c.36,4.78-.65,9.44-.66,13.87,0,8.41,2.56,20.33-3.72,27.32-19.98,22.22-45.6,1.45-68.22-2.6-2.38-.43-1.21.41-.6,1.61,3.18,6.2,14.55,8.23,20.95,10.05,17.49,4.98,64.44,17.15,80.6,15.17,4.7-.58,8.64-3.47,13.11-3.89,4.25-.4,7.53,1.15,10.96,1.04,13.44-.43,30.32-3.83,43.73-6.35,33.46-6.29,76.7-15.35,109.03-24.97,10.04-2.98,32.85-10.4,32.82-23.2,0-1.55.24-1.74-1.51-1.5-24.42,14.19-52.55,15.32-79.55,20.46-20.32,3.87-52.7,16.99-71.75,10.8-4.02-1.31-6.48-3.71-9.93-5.07-12.58-4.94-19.91-.52-24.79-17.21-5.15-17.59-.84-37.27-1.46-55.54-1.14-34.06-7.14-69.49-3.91-103.83,1.26-13.45,6.86-20.11,19.33-24.67,5.11-1.87,16.48-3.07,19.9-4.95,1.01-.56.94-1.78.63-2.5-.92-2.11-4.94-1.25-7.02-1.98-14.84-5.18-7.88-26.11-9.99-37.01-.49-2.54-2.53-2.9-3.41-4.59-4.13-8-1.16-22.58-3.64-31.41.23-5.78,5.89-7.21,6.12-8.22.67-2.9-2.38-10.41-1.05-14.3-20.69.41-38.84-7.21-52.99-22-5.69,40.07,2.19,80.49,4.98,120.51,2.17,31.16,5.79,69.27,4,99.98-1.37,23.63-7.68,45.9-6.03,70.05,1.47,21.54,12.15,32.04,4.32,56.24-1.26,3.89-8.21,15.69-13.24,12.19-3.87-2.69,5.82-8.7,7.02-11.41,9.22-20.73-2.72-37.09-5.81-56.31-4.23-26.36,4.82-55.02,5.8-81.7,2.38-65.28-18.28-143.24-7.77-206.77.36-2.18,2.66-7.22,2.52-8.1-.24-1.45-14.75-21.64-16.82-24.16-8.26-10.08-19.33-17.73-31.52-22.29-3.01.46-12.48,30.95-14.93,35.8-6.21,12.32-11.16,3.69-10.57-6.57.29-5.05,3.08-13.9,6.04-17.96s11.7-8.49,12.94-13.07c.56-2.05-.5-1.15-1.35-1.52-10.24-4.49-21.03-6.11-31.34-.67-3.85,10.4-8.72,21.26-11.52,31.99-13.43,51.53,29.65,95.67,31.3,145.31.21,6.25-3.7,12.51-7.24,5.16-3.83-7.96-6.09-29.07-9.29-39.7-1.68-5.58-3.96-12.46-6.22-17.78-.52-1.24-.54-2.95-2.27-3.22-.58,20.45-3.2,40.93-2,61.49.74,12.77,5.18,25.77,2,38.51,2.19-.93,4.33-1.79,6.79-1.31,8.76,1.7,20.37,10.24,30.19,12.82,10.79,2.84,21.77,2.06,32.38,3.62,13.71,2.01,14.38,6.09,13.57,19.33-.08,1.29-1.61,2.3-1.68,3.83-.71,15.33,3.54,35.66,1.78,50.27-.6,4.97-5.35,4.68-6.05.95l-1.01-48.5c-1.58,1.33-6.23,1.41-7.09,2.63-1.35,1.93-3.4,21.24-5.19,26.58-6.58,19.62-21.18,15.37-37.71,11.79ZM279.83,236.05c.07-4.01-1.29-11.52-5.26-13.25-3.58-1.56-16.99.95-21.57,1.92-5.79,1.23-11.6,3.4-17.15,5.4,1.27,2.34,1.63,12.5,3.54,12.89l23.93-6.96h16.5ZM392.82,227.05c-2.71,1.31-12.29.05-12.9,2.58-.3,1.26,4.92,21.36,5.59,25.24,1.98,11.45,2.64,23.38,4.58,34.46.97,5.53,8.16,1.02,12.75,1.15l-10.02-63.43ZM407.84,269.05c16.29-8.51,13.38-26.52,11.98-41.99l-5.21,23.27c-2.94,7.37-11.03,9.51-6.76,18.72ZM128.82,264.04l8-24.99c-5.35,3.56-8.27,12.31-8.98,18.51-.14,1.23-.81,6.25.98,6.48ZM269.72,243.16c-.71-.5-16.13,1.24-15.94,4.41,4.73,22.11,5.94,44.89,8.98,67.05,1.28.91,15.81-1.06,16.13-2.18-.23-8.59-4.95-66.31-9.17-69.28ZM410.82,277.06c-2.86-.61-2.09,1.36-1.98,3.48.14,2.6.67,9.2,2.98,10.52l-1-14ZM381.82,284.05l-96.91,16.08c.49,2.03.59,12.34,1.01,12.83,1.45,1.7,5.46-2.27,7.8,6.71,1.33,5.13,2.72,21.69,2.11,26.89-.48,4.12-3.5,7.09-3.51,9.59-.02,4.58,10.13,39.13,12.66,40.74l97.82-17.33c-1.65-4.79-5.06-2.92-8.8-4.19-12-4.08-11.62-13.56-11.17-24.81.16-3.88,2.49-13.92,2.03-16.83-.11-.69-1.74-.73-2.33-1.92-3.07-6.07-7.57-27.4-4.58-33.13,1.18-2.25,4.69-3.53,4.9-4.34.8-3.16-1.18-7.06-1.02-10.3ZM411.82,301.05c.48-.56.04-2.82-.97-3.52-4-2.74-21.61,3.17-26.98,3.56-.78,6.79,1.33,13.27,1.97,19.95,1.67.27,1.1-2.44,1.03-3.52-.14-2.37-1.07-4.45-.98-6.82.38-9.59,7.77-6.9,13.67-11.46,2.09-.37,11.86,2.28,12.26,1.81ZM406.82,306.05c-3.26-3.42-.56,8.86-3.62,9.88-7.76,2.6-4.65-7.18-5.37-7.89-.35-.34-3.81-.13-4.56.94-.58.82.7,18.03,1.54,18.63l13.92-2.67c.8-.94-1.25-18.21-1.91-18.9ZM258.83,352.05v-22.5c0-2.87,9.22-3.73,10.71-4.79,1.08-.77,1.2-3.77,3.79-3.75,1.8.01,2.63,2.36,4.2,2.85,6.27,1.95,10.57-1.35,10.3,9.69,1.34,1.63,1.08-1.21,1.05-2.02-.18-3.79-.76-9.36-2.71-12.51-2.75-.66-27.34,3-29.36,4.51s-.58,9.23-.97,12.01l2.99,16.51ZM283.72,350.95c1.03-1.21-1.52-19.5-2.83-20.46-5.74-4.22-.4,8.7-3.68,9.62-7,1.96-6.6-3.66-6.38-9.06-1.61.06-4.54-.48-5.58.94-.92,1.26,1.56,18.05,2.05,21.12.86,1.55,13.89-1.82,16.42-2.16ZM425.82,394.05c-.87-3.7,1.19-7.9.83-11.23-.47-4.3-6.94-15.15-8.84-20.25-3.56-9.55-6.37-19.56-8.45-29.55-1.58-2.41-10.48,2-13.53,1.03-1.55,1.51,5.64,23.92,6.99,27.52,4.21,11.26,10.64,28.74,23.01,32.48ZM396.82,368.05c-1.46-5.14-3.01-10.63-4.88-15.61-.48-1.27-.22-3.07-2.11-3.38.05,6.22-1.47,18.4,6.98,18.99ZM285.83,358.05c-5,1.12-10.59,1.23-15.49,2.01-1.09.18-1.86.37-2.34,1.46,2.5,9.55,5.31,18.99,8.57,28.3,4.44,12.71,7.1,26.9,22.27,30.23l2.59-14.04c-6.19-15.46-13.58-31.27-15.59-47.97ZM268.82,392.05c-.6-4.5-2.3-9.43-3.72-13.77-.4-1.22-.75-4.22-2.26-4.23-.01,6.52-.64,14.55,5.98,17.99ZM430.72,402.96c-2.85,1.98-16.73-6.45-19.44-8.86-2.16-1.92-2.64-5.4-5.89-5.1-32.01,6.13-64.22,11.9-96.52,16.1-3.33,11.28.41,27.89-16.27,20.68-6.79-2.94-12.76-7.8-15.42-14.81l-17.37,3.57-7.98,3.5c21.5,10.52,20.1,39.04,25.48,59.02,2.99,11.09,6.34,18.67,18.28,21.72,10.3,2.63,36.6-.51,47.45-3.01,3.89-.89,6.2-2.48,9.76-3.78-.66-8.35-6.3-35.27-.45-40.9.97-.94,2.13-1.28,3.4-1.6,3.1-.79,16.77-2.68,19.48-2.43,12.3,1.14,6.66,31.49,9.6,39.99,13.34-4.44,27.62-6.23,40.99-10.5,8.54-2.73,16.7-5.6,18.55-15.45,1.86-9.91-3.17-43.35-6.82-53.26-1.17-3.16-2.66-6.48-5.22-8.78-1.2.52-.86,3.39-1.6,3.9ZM258.82,439.05c-1.02-7.55-8.26-13.12-14.98-15.99-.1,2.35-2.95,7.93-1.84,9.82.91,1.55,15.17,7.78,16.83,6.18ZM346.83,504.05c-25.19,2.22-63.09,14.66-75.49-16.01-3.28-8.11-6.44-37.87-9-41-1.88-2.3-4.71.07-7.01.01-5-.12-10.44-3.28-14.49-6,.43,12.79-.6,25.75-.05,38.54.9,20.88,4.85,41.97,5.08,62.92.2,17.77-4.21,36.37,3.21,53.29l28.89,10.6c17.26,3.57,40.27-6.41,57.66-10.04,18.04-3.76,36.72-4.74,54.41-9.59,12.1-3.32,40-12.12,45.3-23.7,5.17-11.3.87-31.89.44-44.48-.4-11.81.39-23.73.03-35.54l-42.88,11.11c-1.28,1.82,5.37,29.29,1.38,35.88-1.23,2.04-5.23,1.42-5.55,2.62-1.77,6.55,2.38,16.65.57,24.4-.94,4.03-6.73,16.13-11.24,16.83-3.45.54-15.91-10.85-17.49-14.13-2.95-6.13-1.77-18.64-3.73-22.06-.69-1.19-3.26-.26-5.13-2.08-3.85-3.75-4.62-25.53-4.93-31.58ZM173.83,471.06c-17.13-.58-31.76-2.41-47.67-8.84-3.17-1.28-18-9.15-19.34-8.8-8.1,2.14-9.68,21.24-10.03,28.08-.55,10.69-2.84,27.09,11.04,29.55.96-4.57,1.5-20.05,6.5-21,4.47-.85,17.6,1.06,18.22,6.62l-2.72,23.37c8.8,1.46,23.29,9.01,28.52-1.98,6.64-13.96,1.67-35.26,15.49-47ZM356.97,456.19c-.69,11.34,1.13,22.65,2.33,33.91l18.59-1.53-1.49-33.59c-1.61-2.3-16.25.4-19.42,1.21ZM19.81,465.05c-1.43-1.38-1.84.11-2.01,1.5-.39,3.26,2.79,23.26,4.56,25.46,6.58,8.18.3-7.43-.24-9.76-.75-3.29-1.51-16.43-2.31-17.2ZM43.83,491.06c7.22,8.76,14.82,17.34,19.88,27.61,1.19,2.42,6.63,18.4,7.62,18.36l8.02-10.97c-5.9-9.24-12.7-17.81-21-25.04-1.46-1.27-13.58-10.85-14.53-9.96ZM388.61,526.85c1.01-.72.4-13.93.21-16.29-.22-2.67-1.55-15.1-2.93-16.07-4.79-.96-31.89,1.74-33.6,4.55-1.37,2.24,3.3,27.27,3.65,31.9,11.03.75,21.84-2.57,32.68-4.09ZM114.84,562.05c12.28-8.93,7.3-28.77,8-42.49.34-6.7,2.16-14.27,2.74-21.06-4.83-3.06-8.29-4.14-9.5,2.29-3.27,17.25-.46,33.73-.2,50.81.05,3.3-1.81,6.87-1.03,10.45ZM24.67,593.88c1.87-1.17,12.94-32.8,14.18-37.31,5.14-18.72,5.86-35.02-1.03-53.51-1.66-.27-1.07,2.42-1.03,3.53.14,3.81,1.14,6.88,1.05,10.94-.62,25.41-16.41,53.15-27.99,75.03,3.14.02,12.59,2.73,14.83,1.33ZM92.83,574.55c-.76-16.43.56-33.06,0-49.5-2.95,2.9-18.79,20.08-19.04,22.54-.71,7.12,14.07,22.76,18.55,28.45,3.06.24.51-1.03.49-1.49ZM381.82,534.05l-18.06,3.6c-.39,1.4,1.8,16.66,2.62,18.34.4.82,9.32,9.86,10.01,10.01,2.1.47,7.04-10.63,7.22-12.69.46-5.38-2.15-13.56-1.79-19.27ZM425.83,702.05c7.03-.77,14.11-2.05,21.03-3.46,7.95-1.61,26.75-5.33,33.23-8.77,17.78-9.44,13.39-49.5,7.77-65.3-4.63-13.02-16.78-32.35-32.4-31.34-3.01.19-24.17,3.99-25.87,4.89-1.16.61-1.44,2.48-2.8,3.43-4.19,2.94-8.78,5.18-12.96,8.12,3.29,5.46,6.54,10.93,9.17,16.76,1.57,3.47,2.41,9.26,4.01,11.99,1.21,2.06,3.65,2.24,5.03,4.97,2.37,4.71,3.76,20.14,2.77,25.21-.43,2.17-2.35,2.77-2.79,4.21-1.14,3.82-1.42,11.63-2.51,16.49-.98,4.38-2.55,8.5-3.68,12.81ZM418.83,641.04c1.18-1.11-8.97-24.77-11.54-27.02-1.52-1.33-12.22.29-9.47,4.53,4.86,7.49,10.46,15.08,11.01,24.5l10-2.01ZM396.58,710.8c4.48-8.73,9.71-23.5,8.77-33.29-.28-2.89-2.76-8.84-3.38-13.1-1.02-7.05-.42-14.85-1.59-21.41-.76-4.25-8.87-23.04-12.5-24.42l-100.05,22.48c-.56.62,5.36,10.44,6.17,12.32,1.41,3.25,3.73,12.45,4.9,14.1,1.29,1.82,3.58,1.18,5.17,3.83,3.1,5.16,4.87,23.27,3.55,29.04-.59,2.59-3.11,3.75-3.59,5.41-.89,3.12-.68,9.43-1.5,13.5-1.06,5.29-2.76,10.48-3.7,15.79,32.61-8.06,65.78-13.81,97.74-24.25ZM279.68,643.21c-1.56-.99-11.61,1.05-13.84,2.33,7.89,7.73,9.82,18.94,14.49,28.47l9.43-3.04c1-1.19-1.79-9.91-2.46-11.89s-6.82-15.37-7.61-15.88ZM257.68,646.15c-8.19,2.14-17.02.07-25.34.91-9.84.99-15.36,4.5-27.06,4.04-14.41-.57-26.33-7.95-40.45-5.04,4.46,4.04,10.24,6.69,14.55,10.94,22.11,21.84,30.13,66.73,19.21,95.31-2.03,5.3-5.53,9.61-7.75,14.74l73.27-21.22c5.16-2.55,12.22-29.31,11.8-35.27-.53-7.59-5.96-19.62-6.01-28.15-.03-4.18,1.86-3.96.44-10.37-2.1-9.52-7.24-18.02-12.66-25.89ZM424.82,648.06l-4,1c6.34,13.33-7.32,18.08-5.99,1.99-1.66.07-4.45-.53-5.55.99-.51.7,3.35,14.36,2.55,17.02l13.56-2.95c1.6-6.05-.58-12.02-.56-18.05ZM173.48,663.4c-8.16-8.19-25.61-17.53-36.58-9.78-16.14,11.41-20.86,56.06-12.58,73.42,4.93-6.39-.27-17.53-.48-25.5-.57-21.46,12.46-51.09,38.51-37.51,25.12,13.09,37.74,72.31,13.95,91-13.75,10.79-28.88,2.05-37.3-10.65l-6.17-11.32c2.31,25.82,36.73,53.56,54.41,22.91,14.63-25.36,6.76-71.96-13.77-92.57ZM138.83,725.06c2.29,12.93,19.36,36.65,33.54,23.04,17-16.32,5.43-68.51-16.16-77.93-6.68-2.92-11.05-2.97-15.91,2.87-9.58,11.52-9.28,32.16-6.47,46.02l4-1.01c-5.15-12.94-2.42-41.76,17.26-37.76,16.7,3.4,27.37,52.09,9.73,60.27-7.89,3.66-14.79-1.29-19.42-7.58-2.35-3.19-2.64-8.76-6.58-7.91ZM422.82,676.05c-1.58.65-9.51,1.65-9.89,2.1-.53.63.09,7.41-.12,9.39-1.01,9.63-4.3,17.73-7.98,26.51,6.93-.9,8.25-4.11,10.86-9.64,4.04-8.59,6.63-18.91,7.13-28.35ZM296.82,678.05c-8.08-1.08-.17,11.99-4.64,13.06-6.41,1.53-6.83-5.45-6.35-10.05-.44-.48-5.95,1.01-6.58,1.95-.51.76,3.73,15.36,3.65,17.98,3.2,0,14.13-1.26,15.45-3.91,2.12-4.25-.75-14.28-1.52-19.02ZM162.57,732.78c7.22-6.62.41-38.69-7.78-44.18-10.55-7.07-12.72,16.67-10.78,22.78,2.92,9.23,4.26-10.09,4.74-10.74,3.6-4.87,4.35,6.01,4,8.83-.51,4.09-4.84,9.22-4.53,11.6.59,4.64,9.15,16.49,14.36,11.71ZM295.83,709.06l-12,.99c.11,13.41-5.17,25.81-9.98,38,19.29-2.2,17.84-24.53,21.99-38.99Z"/>
  <path class="cls-1" d="M167.34,525.06c2.76-.87,3.3,1.4,3.54,3.44,1.76,15.09-2.98,33.57-2.04,49.04.16,2.64,3.49,13.85.47,14.51-3.9.86-5.33-10.05-5.52-12.46-1.3-16.54,3.21-34.37,1.99-51.09-.09-1.16.43-3.09,1.56-3.44Z"/>
  <path class="cls-1" d="M160.82,239.06c.62.59-3.25,14.22-3.72,16.77-.44,2.39-.37,14.94-3.76,14.22-3.21-.68-.73-16.87-.07-20.05.38-1.83,2.22-8.98,3.04-9.96.91-1.1,4.06-1.41,4.51-.98Z"/>
  <path class="cls-1" d="M157.61,291.28c1.02,1.26.68,4.21.2,5.75-9.39,1.17-4.02-10.46-.2-5.75Z"/>
  <path class="cls-1" d="M273.73,499.15l6.14,49.36c2.43,12.25-5.61,32.41-2.37,43.37.73,2.48,5.6,7.47,2.38,9.74s-7.55-2.31-8.9-5.22c-4.94-10.71.12-22.86.83-33.85,1.15-17.68-3.16-31.5-3.98-48-.14-2.85-.57-19.7,5.89-15.39Z"/>
  <path class="cls-1" d="M404.83,405.04c-.5.67-13.71,5.09-15.78,5.73-22.51,6.9-46,8.52-69.01,13.09-7.7-2.39-1.48-4.33,2.76-5.34,13.32-3.17,28.44-3.98,42.22-6.77,12.89-2.61,25.45-6.55,38.15-9.57,1.11.3,2.25,2.07,1.65,2.87Z"/>
  <path class="cls-1" d="M200.84,246.05c-.83-.59-2.82-16.88-3.5-20.01-5.2-23.84-10.59-43.77-30.03-59.97-6.32-5.27-22.54-15.14-30.43-16.57-4.05-.73-21.71,1.56-16.9-6.31.33-.54,3.38-1.05,4.34-1.14,27.53-2.59,57.92,22.22,68.68,46.33,5.17,11.58,12.26,38.87,11.92,51.18-.05,1.76-1.61,8.26-4.08,6.49Z"/>
  <path class="cls-1" d="M129.58,470.28c1.09.94,1.47,3.29-.34,3.73-2.75.68-21.3-5.22-23.4-7.48-3.71-3.99.62-3.76,4.03-3.03,2.23.48,18.84,6.02,19.71,6.77Z"/>
  <path class="cls-1" d="M272.67,301.2c4.77,2.91-6.12,10.47-5.52,2.51.23-2.98,3.36-3.83,5.52-2.51Z"/>
  <path class="cls-1" d="M281.59,372.79c-3.35,3.24-7.5-1.75-5.32-4.8,2.53-3.55,8.48,1.75,5.32,4.8Z"/>
  <path class="cls-1" d="M402.92,348.96c-2.2-1.32.79-8.42,4.97-5.47,3.57,2.52-1.23,7.7-4.97,5.47Z"/>
  <path class="cls-1" d="M398.74,284.96c-3.79,2.71-7.26-4.83-3.38-5.9,3.59-1,5.46,4.41,3.38,5.9Z"/>
  <path class="cls-1" d="M383.59,500.29c2.66,2.67,3.35,20.25,1.01,22.53-1.92,1.87-23.31,5.29-25.54,3s-3.26-19.81-1.32-22.36c2.72-3.57,10.13-.14,10.66-6.48,2.88,1.21,13.92,2.03,15.2,3.31ZM379.83,505.05h-5.01s.01,8,.01,8c-9.15,2.51-5.49-5.48-7.05-6.96-.59-.56-5.41-.27-5.84,1.53-.38,1.55,2.07,10.49.88,13.43l17-2v-14Z"/>
</svg>