<?xml version="1.0" encoding="UTF-8"?>
<svg id="Capa_1" data-name="Capa 1" xmlns="http://www.w3.org/2000/svg" viewBox="0 0 591.05 564.93">
  <defs>
    <style>
      .cls-1 {
        fill: #dadada;
      }

      .cls-2 {
        fill: gray;
      }

      .cls-3 {
        fill: #fff;
      }

      .cls-4 {
        fill: #b5b5b5;
      }

      .cls-5 {
        fill: #b3b3b3;
      }

      .cls-6 {
        fill: #7e7e7e;
      }

      .cls-7 {
        fill: #999;
      }

      .cls-8 {
        fill: #7d7d7d;
      }

      .cls-9 {
        fill: #4f4f4f;
      }

      .cls-10 {
        fill: #d1d1d1;
      }

      .cls-11 {
        fill: #cfcfcf;
      }

      .cls-12 {
        fill: #6a6a6a;
      }
    </style>
  </defs>
  <path class="cls-9" d="M453.41,149.9c-.04.69-2.7,4.47-.01,4.61,15.25-28.84,30.97-57.53,47.07-85.91,8.21-14.47,24.18-47.7,34.03-58.38,24.41-26.44,69.91,2.78,52.79,37.39l-94.83,130.02c31.26,15.23,79.75,34.2,86.11,73,2.19,13.36,1.09,35.36.15,49.22-14.81,217.91-261,334.63-444.56,220.63C43.03,463.9-5.74,367.3.54,259.72c2.06-35.24,26.69-51.66,54.95-67.24,1.96-2.3,2.03-12.07,3.11-16.4,3.12-12.51,12.66-24.11,24.13-29.79l-.62-2.1c-3.48-1.63-12.2-5.25-14.2-8.21-2.75-4.07,0-10.92,5.15-11.22,6.45-.37,19.22,13.54,25.6,16.17,5.02-4.45,8.53-10.46,13.94-14.55,15.25-11.54,37.36-11.95,53.29-1.63,1.23-22.59,12.24-44.53,33.2-54.6,24.79-11.9,35.55-4.73,58.22,2.72,10.15,3.33,15.77-.58,25.13-.58,19.31,0,34.63,9,47.24,22.67,1.92,2.09,4.86,8.06,7.19,8.29,5.13-1.52,9.97-3.66,15.41-4.15,5.77-.52,16.49,1.61,20.27.84,2.9-.59,11.04-6.32,15.89-7.81,19.04-5.83,39.15.16,52.66,14.62,4.05,4.34,12.3,18.02,12.3,23.64,0,6.37.38,13.23,0,19.51ZM556.89,14.07c-6.96.56-12.77,5.94-16.01,11.8l-98.36,175.8c-4.4,6.92-13.38,5.11-20.18,6.52-15.92,3.31-30.4,14.86-36.9,29.84-1.22,2.81-5.72,14.7-2.93,16.65,1.43,1,21.89,3.35,25.2,3.54,7.22.41,42.77-.11,46.77-4.55s2.78-18.29,1.25-23.97c-1.98-7.38-8.31-13.53-3.18-21.09l122.53-168.06c6.21-12.3-4.58-27.58-18.2-26.49ZM220.31,122.7c2.61-16.06,13.13-29.73,25.66-39.53-26.18-15.01-61.12,3.65-65.3,33.29l1.12,2.08,16.96-2c-.38-3.51-4.51-4.64-4.1-8.65.77-7.55,8.59-4.55,13.03-1.81,9.74,6.01,3.22,11.74,4.49,13.46l8.14,3.17ZM279.7,86.01c-20.95.94-40.42,16.29-45.52,36.68-.59,2.36-1.7,6.48-1.6,8.72.2,4.44,6.98,14.3,8.58,20.24,3.62,13.44.35,17.22,14.39,25.66,40.47,24.32,88.44-15.38,72.06-59.74-7.04-19.06-27.61-32.48-47.92-31.57ZM423.19,149.83c2.94,3.56,6.36,9.7-.29,11.66-8.18,2.41-10.42-6.57-13.12-5.94l-8.72,20.03c.79.95,1.08,1.4,2.42,1.46,9.75.47,22.84-6.85,28.89-14.29,23.66-29.09-8.59-69.67-42.62-56.47l15.92,21.55c2.9.75,5.12-11.78,14.32-10.28,11.98,1.95-2.82,22.24-11.76,19.53-1.07,6.45,4.43,5.29,8.56,7.35,2.07,1.04,4.93,3.62,6.41,5.41ZM336.56,166.04c-.92.52-3.89,6.29-2.82,7.99.43.68,7.82,5.73,9.1,6.35,17.22,8.42,39.64,1.5,48.33-15.7,15.63-30.94-16.66-63.56-47.63-48.65l-1.07,2.04,1.08,7.72c.21.3,4.81-3,6.67-3.01,5.77-.02,12.8,15.58,8.1,19.32-7.54,6-9.36-2.78-13.74-7.08l-1.03,15.4c13.78-5.77,17.7,7.12,3.43,13.2-3.3,1.4-9.53,1.93-10.42,2.43ZM228.8,163.54c0-18.45-14.95-33.4-33.4-33.4s-33.4,14.95-33.4,33.4,14.95,33.4,33.4,33.4,33.4-14.95,33.4-33.4ZM156.66,135.03c-10.47-4.73-25.13-5.29-34.84,1.59-1.11.78-6.25,5.43-5.2,6.6,6.57.45,11.72,4.75,16.92,8.24l13.87,16.4c-.16-11.9,3.79-22.56,9.25-32.84ZM137.4,188.15c0-18.35-14.87-33.22-33.22-33.22s-33.22,14.87-33.22,33.22,14.87,33.22,33.22,33.22,33.22-14.87,33.22-33.22ZM440.06,177.13c-1.73-1.37-13.05,7.22-12.32,8.19,7.94,3.58,9.21-2.28,12.32-8.19ZM470.86,231.02c.7,5.91-.51,12.94,0,19,5.16-1.79,16.04-11.88,19.06-2.09,2.61,8.45-8.83,13.01-15.28,15.63-32.22,13.08-89.86,11.3-121.53-3.09-5.4-2.45-13.01-4.79-12.72-11.96.61-15.03,24.65,4.09,26.75,2.54,4.37-14.53,9.36-29.76,21.09-40.01,6.82-5.97,15.79-9.27,22.05-15.42-7.38-.6-15.73-3.35-23.11-3.16-7.53.2-16.14,4.34-23.74,5.08-14.71,1.43-29.69-3.71-40.07-14.14-19.26,14.02-42.18,19.82-65.04,10.66-7.24-2.9-11.2-8.41-19.83-6.43-3.87.89-8.07,8.01-11.48,11.1-11.75,10.62-28.29,14.75-43.69,10.78-9.1-2.35-16.85-10.99-25.91-9.54-11.6,1.86-12.45,13.7-19.74,21.35-11.67,12.25-30.05,16.77-46.18,12.25-11.04-3.09-11.86-8.46-24.32-1.62-22.42,12.31-24.84,28.76-2.86,43.17,73.28,48.06,235.58,49.18,320.66,38.46,37.32-4.7,105.87-17.72,134.61-42,5.45-4.6,11.56-10.22,10.86-17.94-1.82-19.94-45.27-33.11-60.36-41.44-8.11-1.12.28,14.82.76,18.85ZM66.3,217.14l-6.67-11.25c-23.88,13.64-58.22,35.94-38.94,67.66,24.38,40.11,122.25,61.61,166.39,67.72,88.07,12.19,192.06,8.65,277.84-15.56,40.59-11.46,141.39-49.38,81.38-102.36-17.37-15.33-40.84-25.04-62.47-32.67-1.73,1.12-7.5,7.28-6.34,9.06,26.76,9.56,88.72,38.2,59.1,74.44-24.06,29.45-101.37,46.34-138.3,51.66-74.07,10.66-156.85,10.24-230.69-2.05-33.15-5.52-111.61-22.97-128.56-54.21-12.72-23.45,7.78-42.62,27.25-52.42ZM565.32,291.09c-47.51,38.39-110.3,55.23-170.07,63.52-81.7,11.32-172.42,10.07-253.16-7.36-44.72-9.65-93.05-25.02-126.62-57.18-2.49,126.46,106.8,240.16,229.15,257.55,106.66,15.17,212.95-26.73,274.31-115.53,28.88-41.8,43.74-90.2,46.39-140.99Z"/>
  <path class="cls-11" d="M565.32,291.09c-2.65,50.79-17.51,99.19-46.39,140.99-61.35,88.8-167.64,130.7-274.31,115.53C122.27,530.22,12.98,416.53,15.47,290.07c33.57,32.16,81.9,47.52,126.62,57.18,80.73,17.43,171.45,18.68,253.16,7.36,59.77-8.28,122.56-25.12,170.07-63.52Z"/>
  <path class="cls-11" d="M470.86,231.02c-.48-4.03-8.87-19.97-.76-18.85,15.09,8.33,58.53,21.5,60.36,41.44.71,7.72-5.41,13.34-10.86,17.94-28.74,24.27-97.29,37.29-134.61,42-85.08,10.72-247.38,9.6-320.66-38.46-21.98-14.42-19.56-30.87,2.86-43.17,12.46-6.84,13.28-1.47,24.32,1.62,16.13,4.52,34.51,0,46.18-12.25,7.29-7.65,8.13-19.49,19.74-21.35,9.06-1.45,16.81,7.19,25.91,9.54,15.4,3.97,31.93-.16,43.69-10.78,3.41-3.09,7.61-10.21,11.48-11.1,8.63-1.97,12.59,3.53,19.83,6.43,22.86,9.16,45.78,3.36,65.04-10.66,10.37,10.43,25.36,15.58,40.07,14.14,7.6-.74,16.2-4.88,23.74-5.08,7.38-.19,15.73,2.56,23.11,3.16-6.26,6.16-15.22,9.46-22.05,15.42-11.73,10.26-16.72,25.49-21.09,40.01-2.1,1.55-26.14-17.57-26.75-2.54-.29,7.17,7.32,9.51,12.72,11.96,31.66,14.39,89.3,16.17,121.53,3.09,6.45-2.62,17.89-7.18,15.28-15.63-3.02-9.78-13.9.3-19.06,2.09-.51-6.05.7-13.08,0-19ZM324.83,215.39c-12,1.35-28.96,8.45-34.4,20.01-2.24,4.75-3.01,11.04,3.55,12.38,6.97,1.42,8.27-5.99,11.55-9.59,4.85-5.31,21.11-8.81,28.27-9.72,6.34-.81,18.09,2.5,15.89-8.71-1.33-6.75-19.23-5-24.86-4.37ZM237.47,223.62c-3.64-4.47-29.67-3.86-36.19-3.42-10.3.7-20.28,3.44-28.94,9.05-4.99,3.23-16.73,11.29-8.47,17.15,7.11,5.04,10.55-3.79,16.74-6.83s18.83-5.57,25.81-6.02c7.82-.5,22.72,2.53,28.58.85,4.13-1.18,5.07-7.59,2.48-10.78ZM117.38,247.1c-10.39,1.87-3.53,12.98.74,17.34,7.42,7.59,28.49,15.49,38.84,13.08,6.37-1.48,6.3-9.89.67-12.55-9.29-4.39-19.57-1.18-29.74-10.3-3.36-3.01-4.76-8.6-10.51-7.56ZM231.3,273.83c-12.36,13.44,7.56,14.7,17.22,15.24,6.78.38,32.08.12,36.92-3.21,4.6-3.15,2.18-10.95-3.02-12.21l-51.12.17Z"/>
  <path class="cls-5" d="M66.3,217.14c-19.47,9.8-39.96,28.98-27.25,52.42,16.95,31.25,95.4,48.7,128.56,54.21,73.84,12.29,156.62,12.72,230.69,2.05,36.93-5.32,114.24-22.21,138.3-51.66,29.61-36.24-32.34-64.87-59.1-74.44-1.16-1.79,4.61-7.94,6.34-9.06,21.63,7.64,45.1,17.34,62.47,32.67,60.01,52.98-40.79,90.9-81.38,102.36-85.78,24.22-189.77,27.75-277.84,15.56-44.14-6.11-142.01-27.61-166.39-67.72-19.28-31.72,15.06-54.02,38.94-67.66l6.67,11.25Z"/>
  <path class="cls-7" d="M556.89,14.07c13.62-1.09,24.41,14.19,18.2,26.49l-122.53,168.06c-5.13,7.56,1.2,13.71,3.18,21.09,1.53,5.68,2.81,19.48-1.25,23.97s-39.55,4.95-46.77,4.55c-3.31-.19-23.77-2.54-25.2-3.54-2.79-1.95,1.71-13.84,2.93-16.65,6.5-14.98,20.98-26.53,36.9-29.84,6.79-1.41,15.77.4,20.18-6.52l98.36-175.8c3.23-5.85,9.05-11.24,16.01-11.8Z"/>
  <path class="cls-10" d="M279.7,86.01c20.3-.91,40.88,12.51,47.92,31.57,16.38,44.36-31.59,84.06-72.06,59.74-14.04-8.44-10.76-12.22-14.39-25.66-1.6-5.94-8.38-15.8-8.58-20.24-.1-2.24,1.01-6.36,1.6-8.72,5.1-20.39,24.57-35.74,45.52-36.68ZM279.57,99.27c-6.77,2.08-4.6,21.27,3.69,19.17,5.52-1.4,7.11-22.49-3.69-19.17ZM300.06,103.4c-5.34.52-15.36,15.85-5.06,18.1,9.54.92,15.07-19.07,5.06-18.1ZM260.08,104.4c-9.33,2.72,1.84,17.55,6.87,17.29,12.39-.64.46-19.42-6.87-17.29ZM246.24,120.9c-.68.78-1.45,5.15-1.3,6.36.57,4.52,9.77,7.06,13.67,6.57,11.65-6.94-7.57-18.49-12.37-12.93ZM301.69,131.69c4.4,4.28,19.01-.76,16.45-7.67-3.48-8.76-23.74.58-16.45,7.67ZM304.24,137.27c-7.96,2.33-4.04,14,8.03,13.24,14.15-.9,2.85-16.41-8.03-13.24ZM252.89,138.33c-1.52.32-7.26,3.13-7.76,4.55-5.16,14.74,24.31,7.83,15.85-3.85-1.87-1.48-5.79-1.17-8.09-.69ZM266.25,149.56c-4.75.72-15.86,16.5-5.13,18.15,3.97.61,10.77-7.38,11.42-10.86.71-3.81-2.3-7.9-6.29-7.29ZM293.95,150.62c-7.8,2.35,2.01,15.72,7.08,16.22,11.22,1.11,2.22-19.02-7.08-16.22ZM285.79,155.8c-2.49-2.5-8.82-.85-9.83,2.51-1.77,5.91-.59,18.2,8.32,15.52,4.19-1.26,3.53-16.01,1.51-18.03Z"/>
  <path class="cls-12" d="M228.8,163.54c0,18.45-14.95,33.4-33.4,33.4s-33.4-14.95-33.4-33.4,14.95-33.4,33.4-33.4,33.4,14.95,33.4,33.4ZM197.01,148.43c0-4.44-3.6-8.04-8.04-8.04s-8.04,3.6-8.04,8.04,3.6,8.04,8.04,8.04,8.04-3.6,8.04-8.04Z"/>
  <path class="cls-12" d="M137.4,188.15c0,18.35-14.87,33.22-33.22,33.22s-33.22-14.87-33.22-33.22,14.87-33.22,33.22-33.22,33.22,14.87,33.22,33.22ZM100.86,175.85c0-4.54-3.68-8.22-8.22-8.22s-8.22,3.68-8.22,8.22,3.68,8.22,8.22,8.22,8.22-3.68,8.22-8.22Z"/>
  <path class="cls-12" d="M336.56,166.04c.88-.5,7.12-1.02,10.42-2.43,14.27-6.08,10.35-18.97-3.43-13.2l1.03-15.4c4.38,4.29,6.2,13.08,13.74,7.08,4.7-3.74-2.33-19.34-8.1-19.32-1.86,0-6.46,3.31-6.67,3.01l-1.08-7.72,1.07-2.04c30.97-14.91,63.25,17.72,47.63,48.65-8.69,17.21-31.1,24.13-48.33,15.7-1.28-.63-8.66-5.67-9.1-6.35-1.08-1.69,1.9-7.47,2.82-7.99ZM376.12,131.09c-3.62.76-12.49,8.28-11.88,12.42,1.53,10.32,18.15-.97,19.87-4.37,2.62-5.2-2.99-9.1-7.99-8.05ZM363.74,152.6c-7.66,2.56-.74,22.94,8.59,19.99,9.46-2.99-.79-22.59-8.59-19.99Z"/>
  <path class="cls-8" d="M423.19,149.83c-1.48-1.79-4.34-4.37-6.41-5.41-4.13-2.06-9.63-.9-8.56-7.35,8.94,2.71,23.74-17.58,11.76-19.53-9.2-1.5-11.42,11.03-14.32,10.28l-15.92-21.55c34.03-13.2,66.28,27.38,42.62,56.47-6.05,7.44-19.14,14.76-28.89,14.29-1.33-.06-1.63-.51-2.42-1.46l8.72-20.03c2.7-.64,4.94,8.35,13.12,5.94,6.65-1.96,3.23-8.1.29-11.66Z"/>
  <path class="cls-1" d="M220.31,122.7l-8.14-3.17c-1.27-1.72,5.26-7.44-4.49-13.46-4.44-2.74-12.26-5.74-13.03,1.81-.41,4.01,3.72,5.14,4.1,8.65l-16.96,2-1.12-2.08c4.18-29.64,39.12-48.3,65.3-33.29-12.52,9.81-23.05,23.48-25.66,39.53ZM215.43,108.07c1.19,1.18,4.58,1.59,6.22,1.12,6.87-2.93,2.89-17.24-3.1-18.16-9.05-1.68-6.07,14.12-3.12,17.04Z"/>
  <path class="cls-10" d="M156.66,135.03c-5.46,10.27-9.41,20.94-9.25,32.84l-13.87-16.4c-5.19-3.5-10.34-7.79-16.92-8.24-1.05-1.17,4.09-5.82,5.2-6.6,9.71-6.88,24.37-6.32,34.84-1.59Z"/>
  <path class="cls-3" d="M440.06,177.13c-3.11,5.92-4.38,11.78-12.32,8.19-.73-.97,10.59-9.56,12.32-8.19Z"/>
  <path class="cls-6" d="M237.47,223.62c2.6,3.19,1.66,9.6-2.48,10.78-5.85,1.68-20.76-1.35-28.58-.85-6.98.45-19.57,2.95-25.81,6.02s-9.63,11.87-16.74,6.83c-8.26-5.85,3.49-13.92,8.47-17.15,8.66-5.61,18.64-8.35,28.94-9.05,6.51-.45,32.55-1.05,36.19,3.42Z"/>
  <path class="cls-6" d="M324.83,215.39c5.63-.63,23.53-2.39,24.86,4.37,2.2,11.21-9.55,7.9-15.89,8.71-7.16.92-23.42,4.41-28.27,9.72-3.29,3.6-4.58,11.01-11.55,9.59-6.56-1.34-5.79-7.62-3.55-12.38,5.45-11.56,22.41-18.66,34.4-20.01Z"/>
  <path class="cls-6" d="M231.3,273.83l51.12-.17c5.2,1.26,7.62,9.06,3.02,12.21-4.85,3.32-30.15,3.59-36.92,3.21-9.66-.55-29.57-1.8-17.22-15.24Z"/>
  <path class="cls-6" d="M117.38,247.1c5.76-1.03,7.15,4.55,10.51,7.56,10.18,9.12,20.45,5.91,29.74,10.3,5.63,2.66,5.7,11.07-.67,12.55-10.35,2.41-31.42-5.49-38.84-13.08-4.26-4.36-11.13-15.47-.74-17.34Z"/>
  <path class="cls-2" d="M266.25,149.56c3.98-.61,6.99,3.48,6.29,7.29-.65,3.48-7.45,11.47-11.42,10.86-10.72-1.65.38-17.43,5.13-18.15Z"/>
  <path class="cls-2" d="M285.79,155.8c2.02,2.03,2.69,16.77-1.51,18.03-8.91,2.68-10.09-9.6-8.32-15.52,1.01-3.37,7.34-5.01,9.83-2.51Z"/>
  <path class="cls-2" d="M304.24,137.27c10.88-3.18,22.18,12.34,8.03,13.24-12.07.77-15.99-10.91-8.03-13.24Z"/>
  <path class="cls-2" d="M300.06,103.4c10.01-.97,4.48,19.01-5.06,18.1-10.3-2.25-.28-17.58,5.06-18.1Z"/>
  <path class="cls-2" d="M279.57,99.27c10.8-3.32,9.2,17.77,3.69,19.17-8.28,2.1-10.45-17.09-3.69-19.17Z"/>
  <path class="cls-2" d="M260.08,104.4c7.33-2.13,19.25,16.65,6.87,17.29-5.03.26-16.2-14.57-6.87-17.29Z"/>
  <path class="cls-2" d="M246.24,120.9c4.8-5.56,24.02,5.99,12.37,12.93-3.9.49-13.1-2.05-13.67-6.57-.15-1.21.62-5.58,1.3-6.36Z"/>
  <path class="cls-2" d="M252.89,138.33c2.3-.48,6.22-.79,8.09.69,8.47,11.69-21.01,18.59-15.85,3.85.5-1.41,6.24-4.23,7.76-4.55Z"/>
  <path class="cls-2" d="M301.69,131.69c-7.29-7.1,12.97-16.43,16.45-7.67,2.56,6.91-12.05,11.95-16.45,7.67Z"/>
  <path class="cls-2" d="M293.95,150.62c9.29-2.8,18.3,17.34,7.08,16.22-5.07-.5-14.88-13.87-7.08-16.22Z"/>
  <circle class="cls-4" cx="188.97" cy="148.43" r="8.04"/>
  <circle class="cls-4" cx="92.64" cy="175.85" r="8.22"/>
  <path class="cls-4" d="M363.74,152.6c7.8-2.6,18.06,17,8.59,19.99-9.34,2.95-16.25-17.43-8.59-19.99Z"/>
  <path class="cls-4" d="M376.12,131.09c5-1.05,10.61,2.85,7.99,8.05-1.71,3.41-18.34,14.69-19.87,4.37-.61-4.14,8.26-11.66,11.88-12.42Z"/>
  <path class="cls-4" d="M215.43,108.07c-2.95-2.93-5.93-18.73,3.12-17.04,5.99.92,9.97,15.23,3.1,18.16-1.64.47-5.03.06-6.22-1.12Z"/>
</svg>