<?xml version="1.0" encoding="UTF-8"?>
<svg id="Capa_1" data-name="Capa 1" xmlns="http://www.w3.org/2000/svg" viewBox="0 0 735.02 554.39">
  <defs>
    <style>
      .cls-1 {
        fill: #474747;
      }
    </style>
  </defs>
  <path class="cls-1" d="M311.19,30.71c.32-1.85,2.57-4.7,4.79-4.41.11-1.4-1.74-.57-2.81-1.57-2.4-2.23-1.88-13.73,2.21-15.42,13.13-5.44,32.6-3.55,47.38-6.23,5.75.48,5.11,5.08,6.01,9.63,1.68-.74,1.63-5.1,2.59-6.18,1.46-1.65,10.69-.11,12.83.61.88.3.5,1.5.58,1.56,2.18,1.77,1.43-3.03,1.58-3.19.48-.5,12.45,1.3,13.84,1.63.26.06,3.33,1.44,4.59,1.93,7.98,3.09,7.34,8.83,6.36,16.43-.28.3-6.18-.18-7.6,0-.93.12-1.6-.33-1.16,1.17,1.36,4.7,8.1,10.51,9.58,15.62l1.49-6.89c-.18-10.6,1.15-14.88,11.89-16.9,7-1.32,30.3-1.15,35.67,3.11,2.98,2.36,1.4,4.81,2.25,6.15.18.29,2.7.88,3.88,2.12,3.42,3.6.13,6.69,7.58,7.44,1.23.12,2.19-1.28,3.21.17.22.31-.48,1.55-.41,1.59,3.23,1.88,20.17-4.68,25.18,2.41,2.66,3.77-.39,6.63,8.41,5.58-10.04-7.88-15.78-19.12-10.55-31.74.88-2.13,5.44-10.64,6.83-11.96,8.48-8.09,26.35.41,36.2,3.6,12.62,4.08,21.46,4.08,34.08,6.73,4.39.92,9.13,3.75,12.4,4.4,16.16,3.19,33.41,4.6,49.81,7.76,12.26,2.36,31.85,5.22,43,8.98,4.53,1.53,7.62,5.3,9.66,9.54.42.86,2.5,5.96,2.5,6.3v12c0,.45-1.73,2.14-.4,2.8,7.55-9.1-.19-17.64-2.97-25.82-2.03-5.96,9.51-.83,12.57-.58,11.88.97,14.61-5.54,22.32,8.07,4.06,7.17,5.6,14.44,1.29,21.95-7.57,13.18-19.25,2.18-30.81,1.91-3.15-.07-6.81,3.08-6.81-2.34-9.21,4.5-20.78,1.41-30.53-.25-15.96-2.72-32.08-5.18-48-7.98-2.38-.42-13.17-2.95-14.55-3.84-3.11-2,2.37-6.04,3.67-8.97,4-9,1.28-17.14-4.55-24.54-.28,3.38,2.3,6.76,2.73,10.06.83,6.31.54,19.57-7.11,21.55-6.06,1.57-22.16-1.29-29.22-2.02-8.3-.85-16.97-2.51-24.8-3.19-6.29-.55-13.21.37-19.58,0,.44,1.31,2.05,1.42,3.2,2.79,2.5,2.98,3.78,8.32,5.19,10.01,1.14,1.37,3.58.69,5.21.79,1.13-1.13-5.53-11.46,1.83-11.74l68.77,8.71c4.61,1.07,4.46,6.92,6.7,7.69,28.7,4.3,57.83,6.3,86.25,12.12.96-1.41-1.03-2.78-1.21-4.45-.41-3.72,1.71-4.11,5.02-3.37,4.9,1.09,6.29,9.93,8.7,13.7,2.83,4.44,6.49,6.24,8.45,12.35.83,2.58.69,5.92,1.55,7.99.63,1.53,3.5,1.63,3.51,3.78s-3.02,2.39-3.25,3.36c-.3,1.28-.1,4.69-.02,6.27,1.58,29.85,7.72,60.77,8.89,90.33.23,5.82-2.34,19.23.38,23.57,1.21,1.93,3.77,3.18,4.97,5.42,1.71,3.18,1.74,7.55,2.57,11.02l-1.78,83.77c-.75,4.01-2.83,3.65-5.02,6.17-1.47,1.7-6.43,9.18-7.11,9.68-1.78,1.3-5.5,1.16-6.51-.85-.73-1.44,2.51-3.76,2.87-6.79,1.03-8.87-1.74-29.68-5.22-38-1.2-2.86-2.62-5.25-5.79-6.21-5.69-1.74-23.65.58-29.18,3.22-4.62,2.21-11.02,10.42-11.82,15.38-.41,2.52,1.67.4,2.01.4h15.19c1.7,0,10.67,2.68,12.33,3.66,3.33,1.96,4.37,5.49,6.44,7.95,1.32,1.57,3.97,2.1,5.01,4.59s.13,4.61.73,6.47c.4,1.24,2.69,1.6,3.71,3.48,2.23,4.1.36,7.45,1.09,10.05.36,1.29,2.43,2.26,2.91,4.35.63,2.75-.27,5.89.21,8.59.37,2.06,2.25,3.55,2.39,6.48.12,2.52-1.13,4.71-.83,7.09.27,2.13,1.69,3.29,1.66,6.48s-1.71,4.51-1.74,6.38c-.05,3.21,2.99,5.47,1.31,10.86-2.02,6.49-1.05,4.36-1.3,10.62-.16,4.06-2.96,6.55-3.17,8.17-.39,3.07,1.22,5.96-.93,10.22-.6,1.19-2.15,1.19-2.29,1.89-.53,2.66.82,4.58-.93,9.26-.98,2.6-2.99,4.04-3.26,4.76-.73,1.92-.33,4.03-1.15,6.02-2.08,5.09-10.21,14.87-15.15,17.64-11.79,6.6-45.21,5.18-56.48-2.37-5.22-3.49-4.11-6.92-4.92-7.92-.53-.66-1.99-.48-2.86-1.31-3.04-2.88-2.43-7.94-3.56-9.82-.42-.7-1.97-1.02-2.68-2.12-3.69-5.68-1.11-9.52-2.52-12.45-.46-.96-1.66-.8-2.4-2.62-1.56-3.86-.14-8.35-.82-11.99-.34-1.79-2.02-2.79-2.34-4.89-.61-4.01,3.24-8.19.85-11.22-1.62-2.06-8.85-.88-11.7-1.09-10.38-.74-20.78-1.92-31.19-2.21-6.18-.18-4.05,3.55-8.33,6.61-1.28.92-2.22,1.49-3.82,1.78-7.32,1.32-23.51,2.32-28.76-3.01-17.52,3.48-35.6,6.65-53.05,10.77-1.55.37-7.81,1.91-8.41,2.79-2.23,3.31,1.97,5.07,2.65,7.02s1.26,7.07.4,8.83c-1,2.04-3.32,1.47-3.51,4.58-.22,3.79,2.53,3.77,3.13,5.77.41,1.36.44,7.16.15,8.62-.55,2.8-3.88,2.28-4.6,6.62-.92,5.51,3.11,5.39,2.85,9.18-.07.94-1.78,7.47-2.17,8.08-1.03,1.6-4.78.54-4.06,4.87.26,1.59,1.72,2.28,1.66,4.82-.04,1.68-2.83,9.75-4.05,10.46s-3.36-.13-4.09.85c-2.03,2.69.76,5.15.7,6.99-.05,1.45-3.33,8.37-4.61,8.99-1.98.96-4.52-3.02-4.84,3.18-.08,1.52.8,2.84.49,4.4-.34,1.67-5,8.29-6.61,8.7-1.88.47-3.43-2.83-4.66-.75-.77,1.3-.28,4.42-1.36,6.64-.87,1.8-6.57,5.89-8.35,6.01-1.35.1-2.48-1.51-3.48-1.08-1.19.51-2.29,3.3-3.69,4.33-.51.38-7.53,3.89-8.09,3.92-4.59.27-3.05-2.98-3.81-3.02-.84-.04-3.03,2.92-5,3.78-8.2,3.61-25,1.67-33.93-.02-10.46-1.99-28.26-8.21-36.65-15.33-1.02-.87-5.22-4.92-5.46-5.77-1-3.53,2.47-3.29,2.27-3.84-.57-1.57-4.06-.96-5.58-1.62-5-2.15-4.74-9.23-6.58-12.65-.78-1.46-2.59-1.97-3.84-4.92-4.32-10.15-4.95-16.71-6.46-27.14-.37-2.56-2.05-4.08-2.36-6.43-.57-4.3,2.28-8.87-.38-12.44-.7-.95-2.12-1.26-2.52-1.86-1.22-1.84-2.26-6.83-3.05-7.75-1.71-1.99-45.74-5.85-51.91-6.28-7.49.86-8.32,5.23-12.86,9.52-3.81,3.6-8.16,6.5-13.61,6.45-2.72-.03-13.81-.93-15.76-1.73-.74-.31-.8-1.29-1.23-1.5-6.64-3.24-10.43-6.09-14.99-12.01-6.43,4.44-1.15,9.32-4.49,16.28-2.27,4.73-4.74,3.06-5.59,4.17-1.39,1.81.26,4.66-.51,7.26-.36,1.23-2.7,5.28-3.75,5.91-1.75,1.04-4.3.59-4.46.75-.28.28,1.25,3.15-1.18,6.41s-4.54,4.96-8.41,3.19c1.88,4.2-5.06,10.18-8.44,10.38-1.26.08-3.68-1.21-4.31-.75-.37.28-.18,2.62-3.21,4.41-17.86,10.57-67.19,3.44-83.14-9.72-4.72-3.89-2.16-5.3-3.62-7.58-.73-1.15-3.69-.46-5.25-1.15-1.9-.84-8.54-9.74-4.8-11.97-3.57-1.36-6.48-3.29-6.84-7.54-.16-1.85,1.45-2.5,1.85-3.87,1.16-3.99-1-1.97-3.61-2.85-1.9-.64-4.86-8.96-4.08-11.24.46-1.33,3.08-1.04,2.68-3.79-.6-4.21-3.47-3.16-4.47-4.44-1.24-1.59-2.08-7.18-1.14-9.08,1.24-2.51,7.1-1.95,2.56-7.75-1.57-2-3.12-.31-3.01-5.44.16-7.16,4.23-5.6,5.13-7.78.79-1.91.52-4.2.53-6.22-9.19-1.63-20.79-1.19-29.62-3.57-2.1-.56-4.4-.6-4.75-3.25,1.29-5.66-2.99-20.29.41-24.34,5.59-6.67,35.1-.85,43.96-.03,8.87.82,17.88,1.28,26.78,1.6l-6.1-1.48c-11.7-2.59-26.84-.94-38.11-3.34-.26-.05-4.04-2.95-4.17-3.17-1.64-2.94-3.17-22.12-3.59-26.8-1.75-19.2-5.07-51.45.22-69.35,6.91-23.37,22.16-24.92,43.46-27.72,7.02-.92,19.43-.67,25.41-2.58,3.34-1.07,7.55-4.55,11.46-6.13,5.6-2.27,12.66-3.97,18.59-5.4,23.05-5.56,46.9-8.5,70.39-11.58-.22-6.21,2.27-12.61,4.41-18.39,9.33-25.18,23.99-49.69,34.12-74.65,2.89-7.13,5.85-14.66,5.37-22.58-.07-1.14-1.32-2-1.46-3.22-.34-3.12-.2-12.17-3.02-12.97-5.7-1.62-9.18,1.63-12.27-6.12-1.6-4.01-4.39-12.37.82-14.45,3.06-1.22,14.39-2.14,18-1.97,19.64.93,21.05,17.09,18.6,32.97-1.31,8.48-3.11,17.05-3.82,25.77-.1,1.22-.59,5.5.82,6.02l10.26-24.54c1.15-3.22-4.24-.7-3.04-5.42.53-2.08,4.03.36,5.47-.54.58-.36,3.59-8.12,7.84-10.95,2.95-1.96,10.17-3.03,10.56-3.43.2-.2.65-4.03,1.3-5.5.91-2.08,8.05-13.17,6.79-14.39-10.88,3.04-13.58-10.8-2.8-12,7.22-.81,16.15.01,23.59-.8.72-5.9-.98-14,0-19.6ZM535.61,7.43c-6.58-2.2-13.47-5.34-20.49-5.11l7.75,2.23c15.31,8.56,20.38,30.33,5.84,42.54,9.25-1.59,18.9,2.13,28.4,3.2,8.83.99,21.65,2.27,30.38,2.47,13.34.3,10.62-25.56,2.75-31.61-7.88-6.07-32.29-6.84-43.3-9.48-4.15-1-7.89-3.09-11.33-4.24ZM367.17,19.11c-.76-3.86-.21-13.54-5.16-13.64-5.1,1.78-12.65.56-17.48,1.65-3.34.76-4.77,1.03-8.93,1.59-4.86.66-14.11,1.21-18.22,2.57-3.43,1.13-4.13,11.06-1.68,11.76,2.36-1.15,17.26-.9,17.9-1.54.79-.79-2.2-9.16,4.42-8.85,4.98.23,4.66,5.43,2.78,8.84l26.39-2.4ZM522.04,7.4c-4.94-2.57-11.79-2.32-14.93,2.72-4.71,7.57,1.6,28.36,10.36,31.01,13.82,4.18,13.88-24.26,3.82-28.62-10.21-4.43-11,18.06-3.77,21.38,9.2,4.22,1.84-10.98,2.39-11.58,5.41.65,6.7,12.75,1.84,14.24-12.3,3.77-15.91-22.34-6.44-26.44,14.75-6.39,21.37,25.47,9.8,32.99-11.63,7.56-23.42-15.17-22-24.79-1.35,0-1.52,2.66-1.59,3.59-1.04,12.93,9.07,28.42,23.17,23.18,12.7-4.72,11.99-23.13,4.04-31.99-1.19-1.32-5.32-4.98-6.68-5.69ZM392.75,22.31c-4.28-8.87-6.97-13.08-17.51-13.15-4.01-.02-3.6,6.67-4.08,9.95l21.59,3.2ZM391.97,9.51l8.33,12.85c7.83,2.17,10.56,1.33,8.26-6.66-1.79-6.2-11.87-3.92-16.59-6.2ZM339.18,15.11c-2.06-2.11-4.28,3.59-3.19,5.59,2.66.73,4.08-4.68,3.19-5.59ZM459.93,27.1c.23-.25.05-2.57-.37-3.22-.83-1.3-13.56-3.05-15.99-3.2-4.13-.26-25.02-.24-25.91,4.54,2.93,4.07.9,15.11,6.69,15.39,4.58.23,3.66-6.92,5.28-9.82,2.79-4.99,20.57-4.85,25.9-4.49,1.01.07,4.07,1.15,4.4.79ZM313.59,31.51c-.8,3.71,0,13.11,0,17.6,0,.58.97.87,1.63.87,5.03.01,10.67-1.01,15.57-1.26,13.47-.69,27.07-.96,40.38-2.81,0-1-3.73.1-4.69-.51-.56-.35-2.33-7.9-2.42-9.19-.4-5.4,1.79-9.5,2.31-14.69l-27.19,2.4c4.83,10.43-4.14,17.1-6.88,3.95-4.37-.22-17.56-1.73-18.71,3.64ZM404.76,41.5c1.69-1.63-7.21-15.49-8.81-16.38-1.09-.61-23.88-4.49-24.78-3.61-.4,7.52,2.24,14.28-.8,21.59l34.39-1.6ZM690.81,65.27c5.02-5.83.18-23.05-6.39-27.15-28.19-6.78-56.78-11.64-85.34-16.61,1.22,3.52,3.71,6.22,4.93,9.85,1.85,5.51,1.94,9.3.24,14.91-1.03,3.38-3.27,5.65-4.37,8.82,6.4.86,12.5,2.93,18.89,3.9,4.31.66,9.49.35,14.07,1.12,15.41,2.58,36.9,9.87,52.13,7.71,1.45-.21,4.95-1.53,5.83-2.56ZM368.77,41.5v-16c-1.21-.19-.99,1.49-1.2,2.39-.93,4.02-2.04,10.4,1.2,13.61ZM471.12,39.11c-2.9-1.49-5.45.96-7.96-1.24-2.78-2.45-.5-7.49-2.94-8.25-.68-.21-7.6-.97-8.69-.98-3.25-.01-9.39.54-12.78.88-10.54,1.07-5.27,6.77-10.81,12.78l22.78-.8,20.39-2.38ZM415.95,29.51v12.4c0,.17-1.2.91-.8,1.19l6.41-.39c-4.48-2.07-3.57-7.01-4.21-11-.12-.72-.34-2.4-1.4-2.19ZM695.04,68.69c9.55-2.46,22.06,9.42,29.2.82,5.23-6.31,4.12-12.53.95-19.38-6.58-14.24-9.62-7.63-21.79-8.6-2.97-.24-5.46-1.4-8.37-1.62,4.39,8.88,8.73,21.11,0,28.78ZM498.15,41.68l-212.84,12.73c-1.89.59-1.8,5.07-.56,5.94,1.93,1.36,8.76-1.33,8.83,2.29.06,2.98-9.64,19-8.78,19.64,1.63-.33,6.07.56,7.09-.1.59-.38,2.51-10.79,3.78-13.41,5.68-11.69,16.46-8.2,27.14-8.84,44.29-2.67,88.46-6.43,132.72-9.62,14.49-1.04,29.14-.91,43.58-2.41.23-.22-.64-5.74-.97-6.22ZM523.91,63.09c-2.19-10.29-7.36-11.71-16.35-13.63-1.19-.25-2.62-1.37-3.38-1.42-.46-.03-5.84,2.71-8.66,3.04-14.86,1.73-31.24,1.27-46.37,2.42-25.06,1.9-50.1,4.8-75.19,6.38-19.83,1.25-39.78,1.29-59.58,2.81,0,.71,12.55,1.86,14.01,2,15.34,1.38,39.01,4.42,53.62,3.9,1.51-.05,4.95-1.74,7.39-2.06,24.13-3.13,48.27-3.99,72.53-5.84,7.63-.58,55.38-6.82,57.98-3.18.41.57-.29,2-1.16,2.13-21.37-1.51-42.75,2.52-64.02,4.25-13.55,1.1-27.21,1.43-40.77,2.41l-15.6,2.38,125.54-5.59ZM597.48,65.49c-1.6-5.77-10.9-4.17-16.29-4.89-16.14-2.14-32.3-4.96-48.48-6.29-.43.41,1.66,8.21,3.56,8.48,20.52-1.92,40.88.62,61.22,2.7ZM603.69,63.28c-.23-.17-4.44-1.15-4.61-.98-.4,4.66,2.8,4.34,6.39,4.79-.69-.86-1.23-3.41-1.79-3.81ZM367.97,69.51c-21.48-.87-43.13-2.07-64.36-5.61-4.4.41-8.55,13.47-8.41,17.59l72.76-11.98ZM606.27,95.09c.04-1.43.09-2.88-.08-4.31-.38-3.19-5.31-17.49-6.92-20.27s-12.13-3.62-15.9-4.09c-15.49-1.94-31.06-1.85-46.66-1.71.92,4.18,3.67,6.94,5,11.39,1.25,4.18,1.79,8.29,1.77,12.64l.92.65,61.88,5.71ZM516.31,87.89c3.75-.54,8.51.39,12.4,0,.69-2.92-2.31-22.07-3.69-22.44-11.41.87-22.87.99-34.29,1.66-34.65,2.03-67.58,3.9-102.4,4.02-19.87.07-43.67,6.36-64.08,9.43-13.63,2.05-28.8,2.69-42.02,5.16-4.08.76-8.07,1.78-11.02,4.98l14-2.79c67.46-3.35,134.82-8.53,202.34-8.77,4.42-.02,6.4-1.44,11.56.37,7.2,2.53,6.63,9.87,10.37,11.25,2.82,1.04,2.96-2.31,6.83-2.86ZM540.71,88.7c1.59-1.54-1.75-13.37-2.89-15.91-2.05-4.52-4.27-8.68-9.9-7.28,2.28,7.99,4.04,16.48,2.82,24.83l-12.03-.04-2.79.79,24.78,2.41c.48-3.1-4.37-1.49-5.58-3.59.89-2.05,5.19-.82,5.59-1.2ZM251.21,99.09c.63-.64,1.01-15.88.8-17.99-1.09-10.88-7.67-15.56-18.38-14.8-.09,1.34,1.74.73,2.83,1.56,6.92,5.29,11.66,20.08-2.83,16.84.94,2.4.4,13.49,1.7,14.29,2.4,1.47,3.04-1.4,4.25-1.56,1.77-.23,6.29-.2,8.1,0,1.13.13,2.2,3.04,3.55,1.67ZM240.02,82.29c1.26-3.9-3.62-13.6-7.6-13.6h-15.59c1.18,2.14,2.64,13.6,5.2,13.6h17.99ZM615.87,95.89c.28-.25-.8-6.69-1-7.4-.3-1.07-1.46-1.87-1.82-2.98-1.65-5.03-4.3-18.7-11.57-15.62,2.47,6.81,8.53,18.5,7.19,25.6-.17.91-.27,1.61-1.31,1.88l-63.86-5.5-1.2,1.61,176.72,16.8-7.17-2.01c-2.18-1.14-1.93-9.4-2.64-12.55-.56-2.49-1.68-5.95-3.34-7.86-.69-.79-5.75-4.36-5.23-2.76,1.92,3.46,3.66,8.05,4.03,11.97.24,2.54.92,9.66-2.03,10.03l-89.17-8c-.92-4.69,1.84-2.68,2.4-3.2ZM702.24,104.69c1.11-4.54-2.24-20.38-6.2-22.2-3.19-1.47-8.44-1.46-11.92-2.48l-73.85-9.71c-.83.79,6.11,13.18,6.77,15.21,1.15,3.55.86,6.67,1.97,10.02l83.22,9.15ZM703.83,83.09c-.05-1.77-4.86-11.06-7.19-8.79-1.09,1.06,4.09,9.22,7.19,8.79ZM280.8,178.27h-33.99c-.19,0-3.04-1.57-3.35-1.85-3.01-2.77-1.77-7.5-.63-10.92,9.19-18,14.82-39.19,23.69-57.09,2.97-6.01,6.88-11.46,13.87-12.52,7.21-1.09,15.15-.42,22.39-.8,26.54-1.38,53.3-2.36,79.97-2.39,1.08.18,2.01.5,1.89,1.84-.23,2.48-4.11,7.27-5.3,9.93-.47,1.05-2.7,6.07-.99,6.61.58-4.63,8.55-17.76,12.58-19.02,5.53-1.73,13.97-.61,19.85-.94,26.29-1.47,52.73-3.08,79.13-4.02,7.41.74,11.61,4.57,10.8,12.37-4.96,19.58-6.43,41.16-11.43,60.57-.66,2.57-4.61,10.78-4.61,11.4,0,.38,4.4,1.43,3.67,6.06-.16,1.03-1.07,2.63-2.01,1.58-.8-.89.31-6.42-4.61-4.27-3.28,1.43-5.57,17.82-5.63,21.47-.01.74.34,4.32,1.83,3.59,4.2-2.05,2.99-19.47,10.01-18.05l5.59,3.66c3.84-25.41,9.34-50.58,14.15-75.83,1.16-6.08-.33-15.63,7.46-15.74-9.14.34-8.73-3.65-12.81-8.79-4.21-5.31-16.27-3.75-22.83-3.64-48.81.83-97.46,4.81-146.3,5.64-16.93,2.99-36.92,1.04-53.52,4.05-7.61,1.38-11.38,6.41-15.82,12.17l-27.51,66.16c2.33,5.83,1.06,11.53.49,17.58,3.28-1.74,8.52-2.15,12.39-2.39,10.32-.63,21.2.46,31.58-.02-1.79-2.58-1.78-3.8,0-6.39ZM395.96,176.66c1.74.2,3.39.72,5.16.84,14.39.98,58.3,1.87,70.64-1.39,9.23-2.44,12.17-6.93,14.66-15.73,5.54-19.6,6.8-41.84,11.9-61.71.33-6.5-2.38-8.26-8.53-8.87l-98.07,4.67c-2.58.47-11.77,16.02-10.96,16.62,4.87.22,11.54-.07,16.23.97,5.37,1.2,8.69,10.97,2.92,13.79-3.97,1.94-25.31,1.66-30.65,1.14-6.49-.64-12.13-1.93-9.13-9.73,3.29-8.53,13.03-3.74,14.66-6.13.29-.42,1.81-6.73,2.61-8.59,1.11-2.57,2.9-4.94,4.15-7.44-28.61.5-57.29,1.47-85.82,2.41-.65.15-.21,1.45-1.7,1.65-10.99,1.44-17.77-3.83-24.58,9l-25.42,62.6c-.04,2.86,1.66,4.64,4.42,5.07,5.6.88,30.3.89,35.89,0,12.33-1.95,24.82-13.12,38.45-14.34,4.93-.44,42.27,1.96,43.57,4,.49.77-.1,2.87-1.32,3.06-16.82.83-33.46-.71-50.22-.64l-14.83,8.75c22.59.9,45.08-1.16,67.61-.83,3.72.05,7.17,1.35,11.18.85,6.19-.77,22.15-10.41,29.18-13.2,18.08-7.16,39.52-5.95,58.41-1.66,6.07,1.38,7.39,3.98.39,4.48-17.33,1.24-36.09-1.04-53.57,0l-17.23,10.35ZM715.03,106.28l-.36-4.03-2.82-7.16c.64,2.89-.64,10.77,3.19,11.19ZM530.89,97.75c-1.15-.51-15.33-1.38-16.99-1.07-.74.14-1.08.19-1.6.8-1.28,1.51-3.18,18.14-3.84,21.75-4.86,26.65-14.26,59.79-16.53,85.84-.26,3.02-.45,14.14,1.03,16.15.56.76,2.31.74,2.82,2.38.96,3.1-.26,9.27,1.75,13.05,1.33.21.86-1.93.83-2.82-.15-4.56-2.26-12.35,1.18-16.35,2.9-3.38,15.95-3.2,20.37-3.22l-14.59-1.79c-6.74-2.05-5.94-12.92-5.39-18.59,2.6-26.42,12.06-55.1,15.94-81.64,4.06-9.11,20.43-4.13,28.45-3.56,10.01.71,23.21.49,32.76,2.43,8.45,1.72,9.31,20.66,10.02,27.57,1.62,15.94,3.72,36.18,4.04,51.95.1,4.91-.04,17.04-4.07,20.04-.48.36-6.84,1.85-7.63,1.92-10.01.92-21.69-.14-31.95.03-3.54.06-6.76,1.5-10.72,0l7.2-49.86c-.45-1.63-21.5-2.82-23.87,1.69-1.64,3.11-1.22,20.09-.97,24.61.19,3.5.68,11.25,1.8,14.19,3.15,8.21,13.71-.55,14.93,7.47.56,3.66.17,6.21-3.14,7.95-3.48,1.84-23.1,5.66-23.89,6.9-1.38,2.17,2.89,12.87-2.06,15.94-1.49.92-3.54.14-3.65,1.54l93.56-4c-2.72-8.55,1.81-16.4,1.59-25.18-.75-29.1-6.8-60.64-8.82-90.35-.34-4.99,1.87-18.98-4.39-20.4-17.45-2.22-35.37-1.85-52.81-3.96-1.42-.17-1.11-1.3-1.36-1.41ZM715.84,112.68l-127.95-11.98c.44,1.36,2.08,1.99,2.74,3.25,2.57,4.97,2.23,33.92,2.87,41.92,2,24.96,7.72,50.08,6.42,75.22-.16,3.16-3.28,15.95-.89,17.62l124.81-7.66c-1.03-2.93-.95-5.06,0-7.99-12.72,2.83-25.87,1.08-38.81,1.56-22.67.84-48.95,4.82-71.18,4.07-1.85-.06-11.03-.98-11.84-1.57-2.53-1.81-1.81-7.52,2.47-8.69,9.49-2.6,25.35-1.42,35.84-2.54,5.43-.58-.37-4.87-2.63-5.45-5.1-1.3-13.62.35-17.77-3.02-2.72-2.21-3.7-7-4.02-10.38-.94-9.87-.5-20.49-.78-30.41-.26-9.2-2.07-19.43-.76-28.69.48-3.4,2.55-5.67,5.25-7.57.84-.59,2.59-.8,2.67-.91.98-1.29-3.47-3.69-1.82-6.98,2.17-4.35,10.18-4.61,10.58-5.05s-.55-2.49.49-3.25c.59-.43,6.62-1.36,7.95-1.49,5.22-.5,25.79-.78,29.63.73,4.49,1.76,5.94,9.75,5.96,14.09.02,2.83-1.69,5.5-1.57,7.91.14,2.7,2.04,7.75,2.34,11.26,1.15,13.37,2.08,29.76,2.44,43.15.39,14.37-.24,18.66-15.59,19.66-6.38.42-13.2-.38-19.63-.03,1.49,2.03,3.23,3.54,3.29,6.3,16.65-1.08,33.29-.88,49.93-1.48,9-.32,18.9-3.09,27.55-.03l-7.98-101.58ZM248.42,104.69c-2.68-.84-9.18.61-12.4,0-.08,4.96-1.07,9.92-2.59,14.6-8.37,25.81-26.12,53.55-36.17,79.8-1.87,4.87-4.09,10.66-5.05,15.75-.28,1.46-.71,1.87,1.04,1.85,3.49-.04,14.84-1.66,18.17-2.64,5.25-1.53,2.42-10.35,3.07-15.32.23-1.76,1.17-3.73,1.72-5.48,7.88-24.86,32.49-60.47,33.43-85.01.04-1.14.02-3.17-1.23-3.56ZM543.9,210.26h35.59c.55,0,3.21-1.3,3.49-2.1.58-1.65.22-10.25.1-12.68-.35-6.74-1.9-14.06-2.38-20.81-1.06-14.82-.44-42.35-4.57-55.42-2.22-7.02-4.14-5.74-11.04-6.55-8.68-1.03-17.65-1-26.38-1.61-6.67-.47-17.72-4.89-20.66,3.35-3.58,24.6-11.11,49.65-14.7,74.07-.76,5.16-2.41,14.81.23,19.3.31.52,2.14,2.47,2.33,2.47h24.39l-7.4-1c-5.58-1.41-5.94-12.03-6.23-16.96-.39-6.64-.69-18.43.03-24.83.37-3.23,1.27-5.39,4.24-6.95,4.37-2.31,20.16-2.6,24.48-.18.97.54,2.62,2.26,3.16,3.24,1.76,3.18,2.33,12.59,2.54,16.65.29,5.67,1.02,23.53-2.41,27.25-1.71,1.86-3.8,1.18-4.82,2.77ZM374.28,114.37c-.41-.3-9.12.86-9.96,1.45-1.61,1.12-2.59,4.74-1.55,6.47.91,1.52,8.92,2.28,11.18,2.42,3.39.22,25.48.24,26.06-2.16.93-3.9-.57-7.36-4.62-8.08-1.69-.3-14.11-.73-14.61-.19-.42.45,1.14,4.6-2.01,4.86-3.75.3-3.72-4.22-4.48-4.77ZM585.49,207.86c1.82-.69,2.21-3.51,2.39-5.2,1.77-16.37-1.48-44.47-3.2-61.58-.86-8.49-.84-20.86-7.18-26.8,1.97,5.57,2.59,11.33,3.18,17.2,1.39,13.76,1.39,27.78,2.41,41.57.86,11.59,3.23,23.09,2.4,34.8ZM633.47,118.27c.1.12,1.53.06,1.99.78,1.37,2.18-1.09,5.89,4.62,4.67,3.75-.8,3.4-5.51,4.58-8.64-.82,1.32-13.78-.13-11.18,3.18ZM671.04,138.28c.65-4.76,2.87-20.54-2.96-22.23-1.28-.37-6.13-.83-7.84-.96-2.04-.15-11.36-.35-12.42.36-1.28.86-2.3,8.3-3.96,10.02,5.75.37,1.1-7.67,6.81-8.77,5.17-1,19.68-.77,11.98,7.18-4.46,4.6-12.35,2.45-18.54,4.65-8.12,2.88-10.95,7.2-10.68,15.78.52,16.44,1.03,37.27,2.66,53.32.92,9.03,2.42,8.84,11.33,9.46,5.74.4,15.06-.13,20.85-.81,4.22-.5,7.32-3.2,7.44-7.6.33-11.65-1.64-25.74-2.3-37.58-.4-7.21,1.34-15.29-1.97-22.02-4.49,12.5-9.96,26.54-5.61,40,1.16,3.59,4.43,5.82,5.83,8.56,2.87,5.62-1.71,5.97-5.38,2.98-5.73-4.65-4.92-10.46-15.63-8.38-3.61.7-3.65,11.75-7.15,14.46-1.72,1.34-3.46-.07-3.58-2-.24-4,4.82-14.89,5.95-19.64,1.01-4.26,1.24-17.75.04-21.65-.99-3.22-7.9-6.9-7.6-11.47,5.26-4.74,9.89,6.6,14.31,7.96,1.73.53,5.9.68,7.65.36,3.76-.7,5.7-14.23,8.69-13.52.65.16,1.79,1.92,2.1,1.52ZM662.25,119.89c-5.26-1.06-13.6-3.15-12.8,4.79,4.77.35,10.22-.29,12.8-4.79ZM632.66,119.89c-1.38-.94-11.46,3.08-9.59,4.79,2.01-.28,4.02-.92,5.88-1.71,1.25-.53,4.22-1.21,3.7-3.08ZM634.26,123.89l-9.58,4.38c1.45,3.65,10.98.06,9.58-4.38ZM640.66,126.29c-4.95.33-6.25,5.01-11.15,6.03-3.02.63-6.64-.68-8.01-.07-1.61.71-5.09,5.12-4.85,7.21.71,11.72.25,23.52.78,35.24.35,7.57.21,20.18,1.8,26.99,1.61,6.91,11.13,4.38,16.22,6.18-.04-2.88-1.67-5.31-1.98-8.42-.56-5.58.32-11.92,0-17.62-.71-12.9-3.8-30.8-2.42-43.15.77-6.84,4.84-8.56,9.6-12.39ZM217.62,206.26c1.83-7.84,5.39-15.01,8.39-22.41,2.52-6.21,2.62-10.42,8.32-15.68l14.48-36.29c-2.14,2.32-5.03,5.54-6.55,8.24-6.62,11.76-15.66,34.13-20.78,47.2-1.93,4.91-4.64,10.97-4.67,16.14,0,.92-.54,3.01.81,2.81ZM663.85,151.88c-5.54,1.61-12.2,1.62-16.78-2.4,4.13,10.23,2.78,21.67,0,31.99,5.53-4.57,13.09-2.6,17.58,2.4-1.67-4.52-2.94-8.66-2.4-13.6l-1.58.81c-1.81-3.1.73-13.08-2.94-14.27-2.21-.71-5.5.64-7.48-1.33,0-1.05,8.39-2.65,10.46.75.91,1.49.16,3.54,1.54,3.65l1.6-7.99ZM416.75,163.87h39.98c-.41-1.25-4-1.43-5.21-1.59-9.05-1.17-21.23-2.49-30-.43-1.11.26-4.41.92-4.77,2.02ZM319.99,165.47h24.79l-10.76-1.64c-2.93.21-5.9-.18-8.82.05-1.08.08-4.86.39-5.21,1.59ZM540.71,207.86c10.15-.45,7.6-12.42,8.03-19.62l-1.64-21.96-2.96,11.83c-1.57,9.89-1.25,20-3.43,29.76ZM229.61,196.66c1.94-1.43,8.27-22.36,4.4-23.19-2.45-.52-5.41,9.81-5.78,11.8-.2,1.06-2.09,13.96,1.38,11.39ZM298.4,173.48c-5.25,2.22-12.27,3.45-15.99,7.98,5.39-1.41,11.68-4.48,15.99-7.98ZM476.72,177.47c-3.76,1.07-7.62,2.14-11.56,2.43-23.9,1.74-50.32-1-74.44-.47-4.41,2.41-16.53,10.62-13.96-.35l-23.99-.8c2.98,10.11-8.75,11.42-9.26.75l-48.67.1-10.84,5.54c12.09.44,24.33-.55,36.41-.02,3.51.15,8.52.47,11.95.84,8.64.93,12.78.22,11.39,10.59-1.65,12.34-6.35,13.67-17.82,13.43-29.44-.6-59.07-2.72-88.68-2.47-5.22-1.29-6.21-4.7-4.45-9.55-2.15,1.32-3.44,3.12-6.2,1.87-2.16-.98-.65-4.45-2.58-5.07-1.95,5.17-3.11,11.62-5.46,16.54s-4.34,5.34-9.57,6.43c-33.31,6.93-69.87,7.28-102.54,18.22-9.01,3.02-17.33,6.34-18.37,17.15,24.69,3.88,49.86,2.29,74.78,3.21,25.3.94,50.61,3.07,75.97,3.26,7.87-.58,13.5-7.13,20.37-10.02,13.91-5.85,36.99-3.7,52.4-4.38,35.95-1.57,71.91-3.29,107.89-4.07,16.96-.37,33.93.44,50.81-.77.6-.53-4.43-9.31-5.25-10.34-8.22-10.34-23.51-7.56-34.57-11.03-4.96-1.56-2.47-2.64-4.96-4.61-2.82-2.23-6.93-.67-10.03.37-1.15.39-4.01,1.18-4.37,2.42,2.48,1.64,13.95-2.18,14.38-1.59,2.9,3.94-11.91,4.93-13.98,4.64-2.52-.35-3.64-1.13-3.65-3.82-39.73.09-79.82-4.39-119.54-3.25-41.2,1.17-85.75,8.95-126.07,17.88-13.59,3.01-27.04,6.92-40.23,10.96-.68,0-.54-1.63-.42-2.01.85-2.59,40.04-11.67,45.57-12.83,36.59-7.61,77.45-15.12,114.75-16.4,38.73-1.32,77.35,2.36,115.96,3.27,6.88.16,12.37.15,18.82-2.44l-6.8-1.58c-16.2-.89-33.55,1.15-49.61.02-13.59-.95-14.06-4.71-8.75-16.81,2.01-4.58,2.41-5.96,7.94-6.46,33.56,1.71,69.11-2.13,102.43,0,5.11.33,9.32.54,12.35,4.83l2.4-13.59ZM350.3,179.16c-3.36-2.09-4.72,3.22-3.06,4.66,2.52,2.18,5.54-3.12,3.06-4.66ZM498.15,364.79c-.39-.66-3.42-1.35-4.27-4.12-.94-3.09-.63-10.59,1.06-13.42.97-1.63,2.57-1.96,3.3-3.1.98-1.53,1.61-16.4,1.72-19.87.54-17.89,1.37-41.75,0-59.25-.4-5.1-5.27-18.14-8.79-21.6-1.2-1.18-3.04-1.17-4.08-2.32-2.51-2.78-2.06-14.43.14-17.54.76-1.08,2.71-1.65,2.85-2.44.59-3.37-.92-12.94-.57-17.68.46-6.19,5.9-17.93-3.96-18.77-1.21,4.71-2.08,20.22-9.89,17.5-2.41-.84.1-4.51-2.9-3.89-.19,7.31-.11,12.05-8.37,12.82-11.93,1.11-26-.48-38.02-.82,1.1,1.14,2.2,3.5,3.18,4.41,5.08,4.67,25.86,1.64,35.23,10.35,3.97,3.69,6.19,12.02,8.37,14.03.85.78,10.12,2.61,5.99,5.99-1.45,1.19-19.23,2.49-22.79,2.8-38.29,3.35-76.79,4.59-115.07,8.09-29.81,4.63-26.77,49.49-26.11,72.33.45,15.59.85,31.6,1.6,47.19.11,2.24,1.17,16.42,1.72,17.08.3.37,8.34,2.66,9.15.91l18.54-67.03c6.92-33.48,49.58-40.14,78.22-38.61,32.41,1.73,38.58,20.23,45.72,48.65,2.82,11.24,8.81,44.76,5.43,54.55-1.36,3.93-5.9,6.09,1.97,7.65,6.53,1.29,34.86-4.75,43.37-6.3,35.81-6.52,71.84-14.09,107.21-22.16,4.36-2.58,7.81-13.98,1.12-13.52-20.42,6.33-47.33,6.01-67.12,11.98-.65.2-.5,1.32-1.15,1.52-6.71,2.05-30.09,5.86-37.43,6.42-.66.05-1.33.04-1.98,0l.81-1.59c-5.72-1.05-22.12,4.91-23.82-2.98-.45-2.09.33-6.12-.34-7.26ZM332.57,188.12c-.77-.36-14.47-1.01-16.94-1.09-15.29-.52-31.21-.12-46.39,0-9.61.08-19.08.09-28.65.85-2.56.55-6.86,12.33-6.1,14.66.54,1.66,4.32,2.02,5.9,2.15,18.75,1.55,40.88.35,60.04.74,10.83.22,23.5,2.46,34.31.79,4.64-.72,6.01-6.89,6.63-10.95,1.3-8.46-2.73-4.61-8.04-5.81-.57-.13-.55-1.23-.76-1.33ZM471.02,191.18c-1.3-2.1-36.67-1.72-41.91-1.75-20.66-.12-46.13-1.62-66.33.05-1.53.13-6.31.78-7.22,1.57-1.71,1.5-5.45,12.21-3.61,14.03,1.11,1.09,11.43,1.89,13.98,2.02,16.22.81,33.29-.37,49.65-.07,14.6.27,34.62,3.52,48.68,1.56,7.78-1.09,6.59-11.2,6.76-17.41ZM532.7,215.85c.06-.06.3-1.69-.39-1.58-7.28,3-16.24,2.31-23.99,3.2-2.64.3-6.33.39-7.25,3.15-.87,2.61-.57,16.2.83,18.45.7,1.12,1.08.72,2.06.46,5.4-1.43-.55-12.99,4.33-16.48,3.98-2.84,22.59-5.31,24.4-7.19ZM714.81,215.41c-12.08-.11-25.57,1.6-37.73,2.08-20.68.81-41.76.55-62.4,2.37-2.29.2-7.45.6-9.24,1.15-3.51,1.08-2.62,3.83.46,4.42,6.78,1.29,19.1.31,26.36.01,10.59-.43,21.36-1.96,31.96-2.42,18.92-.83,37.89-.77,56.81-1.57,2.69-.13,2.32-3.36.8-4.79-1.6-1.5-4.96-1.23-7.02-1.25ZM491.12,224.66c-2.6-2.78-4.18,10.31-2.25,13.84,1.37,2.5,5.39,1.48,7.85,1.34-3.88-4.14-5.2-9.67-5.6-15.18ZM723.04,340.63c1.54.38,1.54-.56,2.25-1.34,4.01-4.41,5.28-5.51,5.77-11.82,1.48-19.07.52-42.77.8-62.38.12-8.04,1.27-25.47-6.79-30.07-5.59-3.19-24.85,1.43-32.06,0l-92.33,6.44c3.84,5.72,5.95,10.98,6.43,17.95,2.08,29.79-2.18,63.21-1.99,93.26-.47,1.33-.54,3.14-1.3,4.3s-2.41.79-2.33,2.05c8.78.05,20.82-5.18,29.16-4.82.91.04,2.87.39,3.43,1.03l1.78,7.8c.03-1.96-.13-3.93.11-5.89,1.92-15.91,6.62-53.14,12.81-66.37,7.73-16.52,29.25-19.77,45.86-18.1,9.51.95,15.62,10.6,19.94,18.45,7.75,14.11,7.35,33.74,8.47,49.52ZM536.13,368.89c15.25-2.71,31.06-4.64,46.16-7.85,4.17-.89,13.42-2.53,16.79-4s3.29-4.76,3.98-8.01c-1.07-28.79,3.87-61.18,1.64-89.6-.54-6.84-3.06-12.85-7.76-17.84-12.5.89-25.02.78-37.48,1.44-15.85.83-32.06,3.27-47.95,3.07-1.55-.02-8.5-.49-9.45-.78-1.81-.56-1.79-2.89-2.7-3.1-1.9-.44-4.56,1.14-6.64.85,4.65,5.42,8.81,11.44,9.59,18.8-.45,27.03.99,54.25-.8,81.17,7.26-1.5,8.63,3.92,8.84,9.98.26,7.38-1.17,12.5-9.64,11.61-.55,9.17,1,9.12,9.19,8.79,9.02-.36,18.41-3.14,26.22-4.53ZM235.22,367.42c-.74,2.41,0,13.97,0,17.6,0,.63,3.31,2.88,4.44,2.76,24.47,2.08,49.1,3.19,73.52,5.65,2.08.21,4.09.8,6,1.59.79-2.86-2.66-1.05-3.19-1.6-.43-.45-1.49-10.84-1.59-12.4-.54-8.35.35-17.2.02-25.62-.93-23.98-7.46-72.53,7.98-91.93,6.73-8.45,15.03-9.72,25.18-10.81,28.3-3.02,57.15-3.43,85.55-5.61,13.35-1.02,26.59-2.69,40-3.19,1.08-.04,3.33.66,2.79-1.19-.2-.7-5.64-.47-6.84-.45-42.54.75-85.29,2.46-127.88,4.07-21.65.82-45.85-.16-67.11,2.47-14.63,1.81-16.57,6.81-27.95,11.23-10.32,4.01-39.66.25-52.08-.17-23.72-.81-47.5-.66-71.24-1.53-9.79-.36-25.09-.6-34.32-2.46-5.13-1.03-2.55-9.02-.43-11.96-9.13.69-18.4,1.25-27.48,2.5-18.49,2.56-31.28,4.8-37.52,24.86-5.65,18.14-1.8,56.4.23,76.2.41,4.03,1.38,14.15,2.52,17.47.48,1.38,2.96,1.88,4.34,2.06,7.89,1,16.92.64,24.77,1.61,1.47.18,1.05,1.51,1.69,1.65,6.64,1.47,17.64.52,24.02,3.84,3.01,1.57,2.17,3.06-.94,3.41-12.39,1.41-32.59-1.31-45.62-2.44-8.97-.78-17.96-3.91-26.95-1.35-.83.24-2.42.19-2.24,1.34,33.08,4.14,66.35,6.62,99.57,9.6,60.27,5.4,122.77,12.65,183.09,15.24,10.54.45,21.27.18,31.62-1.64l-6.1-1.48c-22.61-3.18-46.07-3.05-68.66-5.72-6.35-.75-7.44-2.6-11.38-3.82-11.07-3.43-16.69,2.62-27.05,2.26-21.55-.76-46.19-3.05-67.93-4.84-7.31-.6-30.94-1.89-35.86-4.92-1.72-1.06-3.06-3.39-4.73-4.06-2.8-1.13-11.9-1.43-13.85-4.6-.77-1.26.39-2.51.29-3.6-.39-4.12-1.2-8.26-1.44-12.39l-45.89-4.09c-14.58-1.91-11.7-17.71-12.49-28.3-.89-11.93-4.31-41.92,2.05-51.55,1.73-2.62,4.09-3.69,7.16-4.04,9.83-1.12,25.69-.31,36.02-.03,3.63.1,9.95,1.9,13.45.72,1.93-.65,1.35-7.22,7.04-8.96,35.42-.38,71.13,2.39,106.58,3.49,7.19.22,37.23-1.46,41.02,2.59.44.47.76,1.26.78,1.89.09,2.56-4.18,12.16-5,16.27-4.87,24.63-.75,52.41-.46,77.29.06,5.21-2.5,6.94-7.51,7.52-11.9,1.37-27.13-1.61-39.19-2.39-27.94-1.81-57.03-2.88-84.75-6.41-5.33-.68-12.15-.99-16.4-3.99,1.43,3.62.54,13.28,3.21,15.57s8.27,1.5,11.4,3c6.25,3,3.17,4.88,13.78,6.21,24.58,3.1,50.42,3.15,75.16,4.81,5.91.4,20.58,3.45,25.24,2.03,2.32-.71,4.15-3.3,7.66-3.6,4.19-.37,10.99,3.76,11.53-1.19,1.52-13.93-6.44-20.72,15.15-17.24l-8.81-4.37c-3.13-3.35-4.52-14.48-4.82-19.18-.95-15.01.22-30.67.87-45.59.2-4.7-1.09-16.22,1.2-19.59,3.12-4.59,19.5-1.83,24.76-1.64,10.9.4,23.71.15,34.37,1.62,21.1,2.91,13.98,22.75,14.27,38.43.24,13,2.31,27.66,1.97,40.34-.11,4.18-1.25,8.05-3.49,11.55-2.98,4.66-5.52,6.06-11.09,6.33-6.94.34-20.69-1.33-28.1-2.21-1.53-.18-.84-1.7-2.29-1.73l-29.65-2.36c-.72-.03-1.81.65-1.99,1.23ZM235.19,266.29c-1.42-.49-2.82-.77-4.34-.88-28.31-2.05-58.64-1.36-87.24-2.33-15.72-.53-32.23-2.69-47.91-2.46-10.21.15-6.48,3.64-9.68,7.98-2.62,3.56-17.18.88-21.52.8-6.43-.12-27.79-1.09-32.46.39-1.17.37-2.72,1.63-3.15,2.84,10.1-3.61,15.41,11.58,8.03,17.24-6.49,4.98-10.5-2.11-12.03-1.23l.81,26.39c8.19-8.54,19.29,1.86,13.47,11.48-3.21,5.3-8.79,4.58-12.67.52-.81,1.12,1.37,22.18,7.81,20.57l48.96,5.01c-2.04-12.54-3.25-26.08-3.23-38.82.02-9.44.4-23.4,1.73-32.66.43-2.99.68-8.7,3.85-9.74,3.62-1.19,18.8-.49,23.67-.38,22.8.5,45.94,2.29,68.71,3.27,13,.56,28.03-.43,40.83,1.56,2.34.36,4.58,1.13,6.73,2.07l4.85,6.74c0-6.55,3.67-12.08,4.78-18.35ZM218.2,278.51c-4.65-2.12-39.46-1.5-47.39-1.83-21.97-.92-44.34-2.73-66.31-3.27-2.74-.07-16.89-.37-18.06.4-1.94,1.27-3.06,18.79-3.2,22.39-.68,17.43-.04,35.13,1.64,52.42,3.56-3.26,8.66-2.56,13.22-2.43,26.62.77,53.96,5.71,80.7,6.47,7.04.2,15.9,1.44,15.63-8.03-6.1.76-17.13-4.6-13.98-11.99l5.97-5.61c-31.03-.84-61.97-4.26-92.99-5.77-7.48-1.17-6.99-19.69-1.6-21.26,2.42-.7,10.39-.3,13.46-.21,31.89,1,63.98,4,95.89,4.87,4.53.12,19.42.8,22.26-1.59,2.08-1.75,4.14-14.13,3.77-17.26-.7-5.89-4.25-4.81-8.21-6.03-.66-.2-.62-1.19-.82-1.28ZM35.89,287.63c4.09-3.83.58-15.21-6.17-12.18-3.98,1.78-3.38,12.48,1.22,13.2,1.33.21,3.97-.09,4.96-1.02ZM717.43,311.03c1.41-9.29-10.43-30.5-18.07-34.3-7.05-3.51-25.09-1.32-32.47,1.58-.55.22-.68,1.17-1.28,1.45-6.18,2.85-9.4,3.53-13.1,9.92-6.46,11.15-11.43,49.81-13.31,64.27-.43,3.27-1.09,6.54-.93,9.86,4.03-.49,10.63-4.25,12.67-7.71,2.92-4.98,5-19.33,6.92-25.87,7.21-24.57,11.16-34.75,39.19-35.98,5.14-.23,11.78-.42,15.14,4.04l5.24,12.75ZM294.18,278.5c-1.94-.89-37.33-2.54-42.54-2.69-2.93-.08-11.21-.7-12.79,1.67-2.22,3.31-1.02,16.45-1.2,21.19-.6,15.56-3.2,40.77,1.31,55.41,1.9,6.17,5.71,6.53,11.3,7.89,16.61,4.05,34.84,3.17,51.79,4.99,3.87-1.8,6.36-5.53,6.78-9.89,1.15-11.95-1.53-25.59-1.67-37.6-.11-9.4,1.79-20.73.74-29.54-.7-5.88-2.83-8.37-8.49-9.9-2.84-.77-2.58-.3-5.23-1.53ZM472.72,391.81c1.97-14.92-.32-31.74-3.44-46.53-2.55-12.08-9.99-38.46-18.92-46.66-14.19-13.02-53.77-7.53-71.19-2.38-22.63,6.69-26.83,19.42-33.19,40.39-5.65,18.64-8.95,38.02-15.61,56.37-.01,1.23,13.87-3.43,15.19-4,1.51-.66,3.47-1.49,4.76-2.44,5.11-3.74,8.13-18.74,10.65-25.34,10.42-27.33,17.01-37,46.83-42.74,12.98-2.5,37.12-6.19,47.71,2.96,11.93,10.31,13.94,48.03,15.71,63.47l1.5,6.89ZM91.28,304.24c-.57,2.02,0,9.21,0,12,0,.63,3.32,2.89,4.44,2.75,33.03,1.59,65.99,4.15,98.95,6.61,5.61,2.69,15.82,8.23,9.38,15.46-3.63,4.08-7.62-.12-6.34,7.93.66,4.17,5.4,4.14,9.13,4.43,7.7.59,16.14-1.29,22.77,4.01-.76-20.29-1.84-40.46-.8-60.78l-2.23,6.15c-1.19,2.27-2.5,3.16-4.91,3.89-8.49,2.55-32.47-.07-42.82-.45-26.04-.95-52.28-3.03-78.34-4.02-2.23-.09-8.49-.62-9.23,2.03ZM35.85,316.09c-6.14-5.64-10.64,4.5-6.17,9.76,4.79,5.63,11.9-4.49,6.17-9.76ZM469.79,395.59c-1.66-3.81-1.9-21.64-2.67-27.36-1.5-11.19-5.23-38.73-14.44-45.55-11.74-8.69-48.35-2.31-61.51,3.16-22.2,9.22-25.03,33.08-32.79,52.79-.92,2.33-1.77,5.18-3.21,7.19-5.04,7.07-21.33,9.7-29.59,10.8.15,1.34,1.8.98,2.77,2.42,1.7,2.53,1.7,21.27,1.24,25.18-.65,5.53-6.08,6-10.91,6.69-18.76,2.68-41.64-2.4-60.69-3.89-.88-.07-3.72-.64-3.58.78,8.01,1.6,16.25,3.27,24.39,4,7.22.65,17.16-.21,23.94.86,4.64.73,3.98,3.61,5.71,6.29s5.54,4.21,3.15,8.88c-1.11,2.16-4.92.44-5.23,6.8-.25,5.11,1,3.05,2.9,4.69,9.11,7.86-2.34,8.8-2.78,10.54-.07.29.84,5.44,1.09,5.94.84,1.7,4.79,2.28,5.22,5.24.61,4.21-3.35,3.88-3.94,5.69-.38,1.17,1.39,7.2,2.32,7.86,2.06,1.46,9.74,1,6.8,6.81-1.23,2.43-4.96.61-4.38,2.76.18.68,2.7,5.21,3.21,5.59,2.27,1.69,9.91,1.49,7.88,7.14-.75,2.07-4.05.1-3,3.17,1.33,3.9,8,3.51,9.12,5.29,1.8,2.87-2.98,4.1-2.84,4.42.24.56,4.36,4.49,5.21,5.19,9.02,7.34,20.39,10.66,31.56,13.22,3.78.87,8.11,2.09,10.95,2.77,3.53.85,18.32.8,22.08,0,.57-.12.58-1.22,1.19-1.51,1.83-.88,7.1-4.25,8.14-3.7,1.58.84,1.01,2.29,4.21,1.9,6.17-.76,8.85-7.4,10.73-7.74,1.98-.36,3.31,3.64,7.86-.93,2.86-2.87,1.53-3.76,2.55-7.05,2.4-7.77,5.08-2.32,6.95-2.62.84-.13,3.77-3.85,4.09-4.76,1.24-3.51-2.05-6.59,1.99-10.79,2.32-2.42,3.82.84,5.54-1.64,3.17-4.57-.15-8.24,1.25-12.37,1.08-3.17,2.64-1.79,4.69-2.5,1.3-.45,3.51-6.92,3.51-8.41,0-3.19-3.36-3.57-.98-9.07,1.34-3.09,4.81-1.31,5.16-7.7.21-3.77-2.95-4.1-3.05-7.03-.03-.78.81-6.29,1.08-6.85.78-1.63,3.84-1.57,4.39-4.4.22-1.12.28-5.2.03-6.23-.28-1.16-2.97-.22-3.28-4.93-.42-6.35,2.92-6.11,3.27-7.39,2.24-8.13-4.95-7.34-4.89-13.44.04-4.1,3.7-4.3,3.23-9.48-.56-6.29-4.93-3.23-6.03-6.89-1.18-3.94,4.36-5.92.39-10.74-2.2-2.67-6.42.62-5.49-5.62.34-2.27,2.32-3.12,1-5.85-1.6-3.3-4.8-.46-6.49-3.14-1.96-3.11.27-7.3-.23-8.14-.17-.28-1.73-.51-2.32-1.28-.81-1.05-1.94-4.26-2.82-4.45-.47-.1-6.82,4.23-7.58-2.05-.48-3.92,3.11-3.75-3.65-6.67-5.75-2.48-2.4,2.84-7.7,2.17-7.16-.9-3.37-6.8-10.59-7.02-1.58.24.02,3.95-2.02,5.17-1.17.7-4.53.57-5.96.34-4.28-.7-5.72-6.46-12.44-3.14,2.57,2.81,6.8,4.27,3.2,8.4-7.78,8.93-13.95-6.38-21.59,1.6l6.14,3.83c2.57,3.57,1.92,5.66-.56,8.95-2.86,3.8-4.56,3.91-9.18,3.59-1.65-.12-7.95-2.5-8.4-.37-.63,2.93,9.23,1.79,7.84,8.59-.12.58-2.16,4.92-2.45,5.19-4.3,4.08-16.13-2.38-18.99,4.61-.63,1.54.96,1.14,1.76,1.4,5.15,1.67,12.02.96,10.84,7.99-2.28,13.65-12.52,4.1-18.62,8.59-7.81,5.76,8.32,4.72,11.27,7.14,3.68,3.02-.44,15.37-6.54,16.06-1.88.21-3.59-.82-5.15-.45-3.37.78-9.08,7.93-5.6,10.52,1.16.87,12.87-2.87,14.83,1.13,1.55,3.15-.35,11.56-4.16,12.64-3.05.86-7.02-.75-10.06,1.73-1.57,1.28-3.76,8.54-1.67,8.87,2.47.4,9.26-3.84,14.96-2.48,2.25,3.33,3.09,8.69,1.23,12.33-2.88,5.61-7.08,1.26-10.85,4.75-1.25,1.15-2.58,4.8-2.66,6.55-.07,1.65-.03,1.04,1.21,1.22,3.96.56,9.65-1.99,14.24-.65,4.04,1.17,8.45,13.72,7.61,17.64-1.24,5.78-13.14,2.95-12.12,8.38,1.96,10.45,10.37-.02,17.3,3.58s-1.67,9.5-6.62,9.43c3.78,7.05,13.32.8,17.8,1.73,3.95.82,7.2,6.57,8.31,6.94,1.67.55,12.18-.07,12.25,2.93.03,1.38-2.45,1.03-3.35.98-2.01-.1-8.74-.99-10.44-1.58-2.2-.76-2.7-3.29-4.18-4.62-4.58-4.14-8.39.23-13.59.05-3.54-.12-11.93-3.52-8.85-8.07,1.03-1.53,9.04-1.74,8.43-4.35-3.8-4.65-8.4,1-12.47,1.16-3.45.13-6.56-4.12-7.2-7.13-1.85-8.73,10.89-7.2,10.87-9.23-5-6.86-6.57-13.66-15.97-6.8-.63-5.67,8.77-4.99,11.98-3.59,2.2.96,2.29,4.19,4,5.18.25-2.55-2.02-9.44-4.5-10.15-6.05-1.73-21.6,6.51-16.43-7.19,4.29-11.37,17.45-1.98,12.93-17.05-2.33,1.08-4.64.2-6.87.66-2.56.52-4.64,2.53-7.06,2.51-6.93-.06-3.3-14.35,3.31-15.8,7.31-1.61,10.93,1.9,10.63-9.77-5.4-1.25-16.75,4.55-16.82-4.38-.03-4.02,5.65-10.11,9.43-10.68,3.57-.54,6.33,2.2,9.16-3.56,5.61-11.41-6.25-7.33-11.37-9.76-2.86-1.36-1.96-6.34.4-8.41,6.35-5.55,13.84,1.66,17.37-4.22,6.53-10.88-14.29-3.94-11.2-13.6,2.49-7.78,16.46-1.95,19.73-5.86,5.73-6.87-7.11-5.24-7.07-10.99s6.43-23.88,10.03-28.44c9.99-12.66,42.29-7.51,55.72-2.28,2.84,1.11,13.09,6.27,13.42,9.05.16,1.32-1.87,5.84,1.16,5.16.58-.13,1.63-2.18,2.51-2.34.97-.17,7.78,7.92,8.14,9.36.43,1.72-1.21,6.42.16,7.39.5.36,4.42-3.09,6.57,3.4,1.4,4.25-.19,4.75-.98,8.58,4.79-1.37,7.54,4.43,7.27,8.41-.1,1.47-2.65,5.06-1.68,5.98.12.11,2.17-.13,3.19.4,2.72,1.4,3.14,9,1.61,11.6,18.31-5.19,37.26-8.29,55.83-12.54,6.6-1.51,16.47-6.17,22.76-4.87,5.48,1.14,10.45,8.91,15.63,1.68,6.05-8.44,1.69-15.77,16.43-14.55,12.57,1.04,26.27,6.2,38.88,7.89.26-2.84-3.85-1.74-4.67-4.57-.87-3.01,4.17-12.44,6.27-13.43,3.54-1.67,12.13.48,14.4-5.6l-8.15,3.05c-29.79,5.63-59.46,12.32-89.26,17.9-11.4,2.13-52.12,10.97-60.56,8.28-4.25-1.36-2.66-2.27-3.62-4.18-.39-.77-1.21-.72-1.28-.87ZM712.97,368.32c-2.23-5.12.16-6.2-.45-9.5-.36-1.97-2.51-2.98-2.91-4.36-.94-3.24,1.21-8.55-1.83-10.97-.68-.55-2.26-.49-2.77-1.23-.97-1.38.14-5.26-.97-7.83-.92-2.14-3.56-2.83-5.01-4.58-2.75-3.31-1.45-5.5-6.62-7.77-3.7-1.62-23.03-4.23-25-1.5-1.54,2.13.13,8.6,3.28,8.88.83.08,4.83-1.4,5.03-1.76.54-.92-.24-3.1.52-4.69,1.03-2.16,7.45-2.97,9.49-2.25.29.1,4.44,3.94,4.45,4.25,0,.22-.72,2.52-1.91,2.01-2.1-.89-2.22-4.35-6.32-3.99-4.84.42-2.48,2.97-3.26,4.75-1.53,3.48-6.17,3.18-7.44,4.23-.64.53-1.11,3.6-1.9,4.9-1.09,1.79-3.04,2.87-4.21,4.58-2.07,3.03-9.94,19.87-10.04,22.81-.08,2.44,2.16,4.43,2.12,6.98-.09,4.92-5.24,8.56-5.13,12.3.05,1.6,2.06,3.16,2.07,5.44.02,3.07-2.66,4.34-3.07,6.41-.89,4.49,1.49,6.47,1.64,9.59.14,2.96-1.95,5.41-1.71,8.78.19,2.68,2.25,4.36,2.44,6.48.23,2.44-1.18,4.45-.61,7.73.48,2.77,2.82,4.21,3.04,5.83.29,2.12-1.3,4.16-.68,6.97s3.21,2.91,4.09,4.81c.94,2-1.31,4.83,1.44,8.08,1.85,2.19,4.47,1.09,6.31,4.86.71,1.46,1.92,6.97,2.52,7.49.55.48,14.29-.21,13.47,3.72-.69,3.3-9.83-1.04-11.68-1.16-3.05-.21-6.38,1.33-10.26.72-4.63-.73-8.64-5.68-3.45-8.15,1.77-.84,5.67.04,3.45-3.03-1.57-2.18-13.19,2.91-14.08-2.79-.78-5.03,5.58-4.96,8.49-6.75.23-.29-.35-2.35-.45-2.43-.68-.57-11.07,3.59-12-2.04-1.19-7.22,7.65-5.55,8.71-6.84.22-.26.2-3,.09-3.11-.94-.98-13.66,4.4-11.66-4,1.33-5.6,9.14-6.25,9.3-6.85,1.34-4.84-4.86-1.91-8.28-2.91-3.5-1.03-2.43-6.69-.19-8.66,3.58-3.15,9.34-.16,7.62-8.78-3.66-.67-10.44,3.16-10.46-2.78-.04-10.25,13.59-4.08,12.06-13.21-4.75,1.02-15.18-.58-9.61-6.82,4.24-4.75,9.99-.5,12.41-5.17,3.22-6.21-1.09-6.83-1.13-9.98-.02-1.26,7.43-19.67,8.57-21.77,1.31-2.42,7.12-7.98,7.25-9.58.12-1.48-1.91-2.05-2.12-3.15-.17-.91.73-2.16.63-3.12-.3-2.68-2.33-4.87-.82-7.21l-1.57-.39c-4.28,10.75-5.34,24.59-9.37,35.03-1.64,4.26-4.21,6.48-7.99,8.8-2.22,1.36-7.4,2.98-8.68,4.11-1.7,1.49-2.68,6.17-5.37,8.32-4.35,3.48-12.01,2.58-12.51,3-.33.29-.33,3.6-1.29,4.71-.88,1.02-2.97.66-3.49,2.11-2.36,6.56,5.79,4.09,5.45,8.72-.29,4.1-5.68,1.33-6.37,4.79-1.24,6.18,6.04,3.74,6.45,8.03s-5,2.45-5.65,5.56c-1.43,6.91,6.06,5.35,6.36,9.57.32,4.52-4.9,1.79-5.46,4.09-.06.26.56,4.84.69,5.39.2.81,16.08,5.7,2.43,8.94,1.08,1.05,1.7,5.25,2.58,5.83s4.86.57,5.4,3.01c.43,1.94-2.72,1.21-2.29,3.02,1.16,4.86,5.09,4.46,5.96,6.16.92,1.8-1.58,3.2,1.54,6.4,7.56,7.75,35.15,8.01,45.61,7.23,5.63-.42,12.49-3.46,16.35-7.64,3.42-3.69,13.01-22.54,13.62-27.23.15-1.18-.66-2.58-.42-3.66.3-1.36,2.43-2.77,3.07-4.82,1.02-3.24.03-6.15.56-9.04.37-2.01,2.54-3.77,2.81-6.79.24-2.61-.97-5.45-.4-8.41.38-2.01,2.36-3,2.43-5.66.07-2.44-1.32-3.15-1.63-4.81-.88-4.79,1.9-6.75,1.64-10.38-.11-1.52-1.98-1.1-2.33-3.35-.65-4.15,2.69-6.62.58-11.6-.3-.72-1.13-.78-1.2-.93ZM191.07,329.61c-17.16,1.73-4.48,16.39,7.59,11.65,10.55-4.14.89-12.51-7.59-11.65ZM500.79,362.15c1,.84,5.4-.27,6.16-2.1,1.97-4.78,1.26-18.85-6.49-13.88-2.07,1.33-.31,15.44.33,15.98ZM412.75,349.43c-11.25-1.13-31.65-5.13-39.96,4.41-5.37,6.16-7,16.05-9.62,23.57,4.27-.99,10.94,3.67,14.44.45,7.52-6.95-5.31-8.39-5.6-12.02s7.33-6.58,10.71-6c4.24.74,7.47,7.73,12.44,1.16.38-1.76-4.28-2.9-4.66-4.89-.84-4.46,7.81-4.82,10.65-4.26s3.68,4.56,8,4.03c3.02-.37.94-2.31,1.29-3.54.42-1.49,3.1-.64,2.32-2.9ZM196.02,351.03c-.43-.3-2.41,2.27-3.25,2.74-3.64,2.02-13.39,1.42-17.96,1.3-28-.76-55.96-5.61-83.98-6.48-3.84.5-5.41,5.01.25,6.24,25.49,5.54,61.06,5.56,87.75,7.41,13.32.92,32,4.38,44.83,3.23,4.61-.41,6.37-1.55,3.46-5.94-4.17-6.29-23.4-1.18-29.49-5.7-1.38-1.02-1.48-2.71-1.61-2.8ZM497.51,361.42c-.03-2.22.17-4.47-.09-6.7-.1-.84-.31-3.75-1.49-3.69.03,2.22-.17,4.47.09,6.7.1.84.31,3.75,1.49,3.69ZM427.94,354.24l-7.19-2.41c.41,4.38,4.79,7.06,7.19,2.41ZM251.42,423.6c2,1.15,40.55,4.81,45.75,5.04,5.45.24,25.77.59,29.24-2.81.54-.53.65-.9.78-1.62.56-3.03.27-19.87-.8-22.39-.34-.8-.2-1.55-1.31-1.93-1.57-.54-15.6,2.88-19.09,3.12-20.55,1.38-48.38-3.24-69.57-4.78-45.88-3.33-91.74-7.12-137.53-11.21-18.11-1.62-36.29-3-54.38-4.79-14-1.39-28.28-2.6-41.98-5.59,1.91,6.03-.28,13.95.79,19.6.18.93.27,1.62,1.36,1.84,37.49,6.44,75.64,7.14,113.4,11.35,30.96,3.45,61.64,8.56,92.77,11.19,6.53.55,21.72,2.73,27.09,2.17,4.04-.42,5.95-4.91,12.03-1.26.85.51,1.04,1.84,1.47,2.08ZM650.26,379.82c-3.89-1.42-12.18,4.28-5.21,4.87,3.99.34,6.12-.61,5.21-4.87ZM566.3,399.01c5.8-1.83,41.97,3.46,44.02,2.04,2.54-1.76,1.34-4.09-1.46-5.02-6.48-2.14-29.3-6.71-35.74-6.65-4.56.04-5.94,5.88-6.81,9.63ZM648.66,395.02c-3.43.39-8.1,1.16-7.2,5.59,5.28.36,6.85-.22,7.2-5.59ZM534.71,407.82c5.67.8,12.93-.59,18.79,0,.44-2.32-.67-1.28-1.76-1.81-2.16-1.05-6.99-3.81-9.02-3.83-3.44-.03-8.53,3.46-12.41,3.24.3,1.23,3.46,2.26,4.4,2.39ZM100.87,413.81c.66,2.17,0,11.97,0,15.2,0,1.81,3.25,10.37,4.37,12.42,5.35,9.81,15.36,14.45,26.23,10.99,8.64-2.75,11.76-12.43,20.58-14.61-9.96-4.62-30.43-1.62-23.2-18.79-11.43,2.14-3.93,16.25,4.76,18.04,2.07.42,11.22-.19,11.23,1.55,0,3.12-12.14,1.08-14.03.46-11.31-3.73-15.93-24.3.46-22.45.78,4.19-3.67,9.55.57,12.84,4.78,3.72,21.64,3.6,27.75,7.2,2.5-5.83,11.12-4.11,16.1-2.49,12.49,4.05,14.77,18.67,28.49,22.69,6.84,2.01,13.41,1.25,18.77-3.73,7.46-6.93,6.02-19.96,13.07-27.71l-197.58-19.65c-1.09.78-.59,4.1-1.34,5.85-1.15,2.72-4.72,2.33-4.85,7.23-.08,3.02,4.39,3.34,4.7,8.58.39,6.67-5.43,2.7-4.06,9.59.61,3.06,7.4,3.32,5.26,10.88-.61,2.15-3.08.55-1.7,5.56,1.31,4.76,4.7,2.45,6.66,6.12,2.84,5.31-1.67,5.66-1.31,8.43.49,3.81,5.32,2.43,6.73,5.42.87,1.84-1.96,2.98-.85,5.53.24.56,3.93,5.03,4.44,5.25.97.43,2.13-.33,3.19-.05,4.3,1.13,2.37,4.85,3.92,7.3,3.84,6.07,34.42,14.96,42.05,15.53l6.78-.78c-2.9-.34-8.11-1.03-10.38-2.82-2.02-1.58-1.88-4.81-3.19-5.63-1.51-.95-4.63.62-6.79.5-5.85-.33-5.71-5.35-1.22-7.66-1.74-5.83-6.67,1.35-10.77-2.81-3.84-3.89,2.7-7.1,2.75-7.57.02-.17-1.56-2.62-1.91-2.88-2.26-1.71-8.64,1.94-9.95-2.07-1.83-5.61,5.74-6.57,5.19-9.87-.98-5.92-8.2.33-9.94-5.34-2.26-7.33,7.35-5.37,6.09-11.65-.97-4.84-4.31-.67-7.83-3.41-2.11-1.64-2.33-6.48-.62-8.19,2.4-2.41,8.47.5,6.09-6.88-.81-2.52-9.18.67-8.77-6.5.34-5.96,8.17-4.62,9.49-6.19.45-.54,1.39-10.93,4.6-6.23,2.86,4.2-3.3,8.67-3.59,12.52-.24,3.29,2.21,4.88,2.42,7.91.25,3.62-2.21,5.63-1.62,9.53.4,2.7,3.38,5.01,3.82,8.27.39,2.92-1.4,5.76-.51,8.47.25.76,3.89,3.04,4.51,5.1.98,3.27-1.99,5.72.7,9.61,1.1,1.59,3.24,1.23,4.32,2.93,1.03,1.62.59,3.66,1.47,5.73,1.71,4.02,5.92,4.38,7.32,6.28,1.25,1.71.52,3.78,3.1,5.7,2.22,1.65,4.14,1.09,5.83,1.97.87.45.9,1.76,2.53,2.46,4.52,1.93,18.22,3.05,13.28,9.52,6.67.17,22.29-.57,27.51-4.87,1.55-1.28,1.6-4.19,3.43-4.63,1.71-.41,2.86,1.4,4.3,1.15.47-.08,5.2-2.75,5.36-3.01.48-.83.11-2.6.54-3.85,1.71-4.91,4.68-2.02,6.46-3.1,4.23-2.55,3.02-8.06,4.75-9.7,1.42-1.35,3.45,0,5.15-2.05,3.12-3.78-.72-8.57,3.3-11.9,2.53-2.1,3.35.45,5.13-4.44s-.25-4.37-.2-7.33,1.61-5.02,3.06-7.44c.03-1.18-20.29-2.74-22.39-5.21-5.72,19.14-22.01,37.62-43.97,29.97-18.2-6.34-26.15-35.28-23.02-52.58.72-3.97,5.89-7.88,7.01-4.19ZM648.66,412.61c-4.35-1.51-11.08,4.96-4.42,5.66,4.79.5,4.7-1.44,4.42-5.66ZM98.47,431.41c-.67-5,.49-11.24,0-16.4-3.46,3.18-2.74,11.81-2.39,16.38,2.52,32.35,32.6,55.19,55.03,23.07,2.81-4.02,5.78-8.49,6.54-13.45-10.19-3.12-13.31,7.27-20.25,11.74-17.02,10.98-36.51-3.32-38.94-21.35ZM64.88,420.61c-6.39.52-8.16,5.77,0,4.8v-4.8ZM309.59,443c-.22-.28-2.01,1.39-3.64-.72-1.77-2.3-.63-4.06-1.54-5.69-1.52-2.72-15.49-1.33-19.2-1.6-6.04-.43-27.58-2.48-31.89-4.9-1.58-.89-2.8-3.3-4.27-3.73-.53-.16-8.89-.88-9.35-.79-4.96.95-8.06,18.77-9.94,22.76s-5.65,6.39-8.14,9.85c12.5-2.85,12.04-15.21,26.79-15.25s32.65,5.43,47.63,6.01c4.65.65,3.86,5.21,6.11,8.25.53.72.02,1.43,1.83,1,.24-3.15-.94-7.64,1.64-9.96.94-.84,6.14-2.54,3.96-5.23ZM643.07,432.61c.27.28,7.05-.79,7.65-1.57.66-9.65-10.22-1.1-7.65,1.57ZM183.24,443c-4.2-5.91-15.77-10.19-21.58-5.19-.01,2.17,18.92,3.93,21.58,5.19ZM65.68,438.21c-2.37-.75-6.12,1.69-4.43,4.04,4.94,2.29,4.77.45,4.43-4.04ZM652.6,439.86c-9.75.47-9.35,6.79.86,3.94l-.86-3.94ZM657.37,451.88c-.95-.59-3.23.35-4.34.71-.86.28-3.42.62-2.76,2,1.25,2.61,5.92.14,7.99.41.26-.26-.71-3.01-.89-3.12ZM68.64,458.8c1.77-4.48-2.44-4.17-4.54-1,.03.5,2.87,1.24,2.4,2.79.16.16,2.09-1.66,2.14-1.79ZM667.05,467c-.7-6.27-13.45-3.6-6.86-.73,2.16.94,4.57.77,6.86.73ZM72.88,470.2c-1.15-.8-4.83,3.26-3.99,3.99h4.79s-.8-3.99-.8-3.99Z"/>
  <path class="cls-1" d="M387.15,412.61c-.81,6.75-4.84,12.5-6.79,19.2-5.29,18.19-5.45,39.93,2.66,57.32,10.14,21.73,30.6,26.91,45.25,5.79,13.58-19.58,18.62-53.25,10.09-75.53-7.2-18.82-26.23-33.88-43.2-15.17,2.35.37,4.3-1.58,6.86-1.93,17.1-2.36,24.63,21.25,25.91,34.73,1.65,17.28-3.11,53.35-21.94,60.41-14.81,5.56-23.71-7.44-25.94-20.52-1.37-8.06-1-32.69,6.34-37.47,5.24-3.41,7.47,1.51,7.95,1.17.09-.06.17-1.22.8-1.98,9.3-11.17,18.62,3.44,17.39,13.37-2.2,17.8-22.5,21.18-21.37-2.18.15-3.17,2.91-6.96-.83-8.86-3.42-1.74-6.32,7.68-6.82,10-2.93,13.43-2.95,46.57,17.63,44.84,19.88-1.67,25.53-41.23,24.43-56.43-.97-13.35-8.85-40.37-26.84-33.18-1.93.77-11.06,7.62-9.59,1.54,1.98-8.23,17.76-16.03,26.05-14.75,21.1,3.26,30.82,34.4,30.37,52.86-.56,23.15-15.58,77.28-48.56,62.9-20.04-8.73-24.81-42.96-22.53-62.04,1.33-11.12,4.88-25.87,12.68-34.09ZM404.75,439c-2.61-5.29-11.66,3.66-7.19,5.22,1.64-2.8,3.61-5.28,7.19-5.22ZM403.73,441.55c-2.87.86-5.14,6.23-5.38,9.06-.22,2.65.62,10.25,3.61,10.82,9.08,1.73,10.71-22.55,1.76-19.87ZM399.16,462.99c-3.57-4.35-2.75-8.97-3.27-13.92-.08-.76-.36-3.01-1.52-2.86-1.25,5.18-1.97,15.68,4.79,16.78Z"/>
  <path class="cls-1" d="M474.95,264.88c7.72-.98,13.08-1.22,14.36,7.58.75,5.15.93,21.11.16,26.13-.53,3.42-2.68,6.04-6.14,6.66-4.75.85-11.13,1.2-13.69-3.52-1.99-3.65-5.44-25.98-4.71-30.09.89-5.06,5.58-6.2,10.03-6.76ZM478.97,267.29c-4.98.27-11.42.39-11.8,6.66-.22,3.5,3.2,23.27,4.7,26.36,2.09,4.31,12.26,3.63,14.3-.24,1.54-2.93,1.32-19.63,1-23.85-.54-6.97-.91-9.33-8.19-8.93Z"/>
  <path class="cls-1" d="M602.08,270.44c1.22,1.22,1.25,4.82,0,6.02-2.02,1.96-8.11,1.26-10.46,1.8-.61.14-.49,1.43-1.09,1.57-.94.22-9.53.65-10.69.49-4.98-.69-5.65-9.16-.19-9.93,1.47-.21,2.99.81,4.6.69,3.67-.27,15.45-3.01,17.83-.64ZM578.29,276.64c.69.73,17.39-.88,19.65-1.54,1.21-.36,2.79-.1,2.74-2.04-.55-2.6-12.32.3-14.77.43-1.89.1-5.89-.86-6.36-.75-1.36.32-1.66,3.5-1.26,3.91Z"/>
  <path class="cls-1" d="M683.64,351.22c12.37-2.04,17.2,13.34,19.03,22.97,3.06,16.09,1.75,54.57-12.05,65.59-16.82,13.44-24.95-12.88-25.96-25.18-1.22-14.87-.86-60.11,18.97-63.38ZM669.46,423.82c1.7,13.08,11.96,24.31,22.71,10.32,10.97-14.28,13.81-64.73.47-77.91-9.56-9.46-22.36,8.33-22.4,17.59l4.46-9.14c4.8-5.51,11.16-.69,13.73,4.56,6.21,12.7,4.71,32.32,1.42,45.78-1.66,6.78-5.5,20-15.1,15.09l-5.29-6.29ZM671.86,392.62c-3.44,9.4-4.53,20.17-.41,29.59,3.01,6.89,8.91,9.48,12.81,1.61,4.17-8.43,6.65-27.84,6.03-37.24-.36-5.44-3.38-22.74-10.8-21.98-5.99.61-9.47,23.54-10.82,28.81,1.46-.56,1.38-2.72,2.73-4.05.96-.95,6.15-4.51,7.27-4.39,9.52,1.01,4.04,30.37-4.2,22.62-2.81-2.65-2.03-8.93-1.81-12.2.06-.89.59-2.98-.78-2.78ZM677.86,387.82c-2.94.67-4.49,16.2-.81,18.38,4.78-1.88,5.6-19.47.81-18.38Z"/>
  <path class="cls-1" d="M69.39,283.35c1.73,1.23,5.14,5.01,6.24,6.95,7.16,12.67,4.86,44.65-15.07,42.28-18.15-2.16-22.14-33.3-12.8-45.45,5.59-7.28,14.03-9.18,21.63-3.77ZM61.68,283.05c-23.55.51-20.74,47.41,2.4,47.17-1.03-1.9-3.38-1.84-5.21-3.18-11.88-8.75-12.79-29.8-2.82-40.42l5.62-3.57ZM63.08,285.61c-14.57,2.87-14.94,36.1.43,40.8,9.05,2.76,12.7-8.84,13.27-15.87.63-7.78-2.62-27.11-13.7-24.93Z"/>
  <path class="cls-1" d="M259,288.83c11.24-1.92,21.11,5.83,25.4,15.81,7.77,18.06-3.19,47.15-26.43,39.23-22.05-7.51-22.01-51.09,1.03-55.04ZM263.21,291.05c-28.55,2.89-23.81,54.9,5.6,51.17l-7.46-2.52c-15.94-9.32-18.48-33.58-4.13-45.45l5.99-3.2ZM269.38,292.87c-17.98-.22-23.61,24.87-14.16,37.76,14.75,20.1,32.93-.1,28.42-19.63-1.19-5.16-8.27-18.05-14.26-18.13Z"/>
  <path class="cls-1" d="M296.61,325.58c12.5-1.43,14.36,20.2,2,21.27s-14.55-19.84-2-21.27ZM295.78,328.79c-8.36,1.84-6.12,17.01,3.64,14.88,7.27-1.59,6.48-17.11-3.64-14.88Z"/>
  <path class="cls-1" d="M295.01,282.4c12.76-1.87,15.03,18.22,5.22,20.47-14.81,3.39-16.46-18.83-5.22-20.47ZM296.4,285c-7.4.02-8.12,13.13-1.24,15.29,9.95,3.12,12.04-15.32,1.24-15.29Z"/>
</svg>