<svg xmlns="http://www.w3.org/2000/svg" xmlns:xlink="http://www.w3.org/1999/xlink" width="189" zoomAndPan="magnify" viewBox="0 0 141.75 141.750002" height="189" preserveAspectRatio="xMidYMid meet" version="1.0"><defs><clipPath id="c63477b24a"><path d="M 0.59375 0.148438 L 139.867188 0.148438 L 139.867188 114.414062 L 0.59375 114.414062 Z M 0.59375 0.148438 " clip-rule="nonzero"/></clipPath><clipPath id="7ed352f089"><rect x="0" width="140" y="0" height="115"/></clipPath></defs><g transform="matrix(1, 0, 0, 1, 0, 14)"><g clip-path="url(#7ed352f089)"><g clip-path="url(#c63477b24a)"><path fill="#545454" d="M 139.5625 57.539062 C 139.042969 52.570312 139.40625 47.582031 139.25 42.597656 C 139.089844 36.050781 138.4375 29.5 138.554688 22.957031 C 138.796875 20.882812 138.429688 18.746094 138.300781 16.667969 C 138.164062 14.835938 138.207031 12.957031 138.199219 11.113281 C 138.085938 8.390625 138.175781 5.726562 137.84375 2.996094 C 137.535156 1.421875 137.355469 0.210938 135.410156 0.722656 C 135.25 0.609375 135.074219 0.578125 134.882812 0.625 C 134.6875 0.671875 134.546875 0.785156 134.457031 0.957031 C 133.253906 1.128906 132.039062 1.253906 130.839844 1.457031 C 127.65625 2.082031 124.417969 2.308594 121.261719 3.058594 C 117.839844 3.535156 114.351562 3.609375 110.949219 4.285156 C 108.308594 4.558594 105.699219 5.015625 103.089844 5.484375 C 101.011719 5.652344 98.957031 5.9375 96.898438 6.230469 C 93.117188 6.707031 89.492188 7.828125 85.746094 8.558594 C 82.570312 9.28125 79.335938 9.601562 76.121094 10.105469 C 72.601562 10.820312 69.015625 11.488281 65.417969 10.910156 C 62.90625 10.417969 60.425781 9.757812 57.894531 9.363281 C 55.113281 9.226562 52.40625 8.527344 49.625 8.355469 C 46.433594 8.09375 43.3125 7.214844 40.105469 7.175781 C 34.234375 6.683594 28.460938 5.417969 22.589844 4.898438 C 20.015625 4.757812 17.472656 4.347656 14.917969 4.039062 C 13.007812 3.90625 11.097656 4.191406 9.1875 3.90625 C 8.054688 3.871094 6.921875 3.769531 5.792969 3.765625 C 5.3125 3.871094 4.992188 4.152344 4.832031 4.617188 C 4.515625 4.554688 4.238281 4.636719 4.007812 4.859375 C 3.617188 5.25 3.402344 5.71875 3.359375 6.269531 C 3.007812 8.496094 2.347656 10.675781 2.347656 12.953125 C 2.183594 16.523438 1.832031 19.960938 1.390625 23.554688 C 1.375 26.164062 1.617188 28.773438 1.394531 31.386719 C 1.1875 35.75 1.042969 40.117188 1.007812 44.484375 C 0.941406 47.875 0.574219 51.269531 0.949219 54.652344 C 1.511719 61.015625 0.835938 67.421875 1.351562 73.792969 C 1.449219 76.597656 1.566406 79.65625 1.613281 82.496094 C 1.65625 85.851562 1.367188 89.195312 1.710938 92.539062 C 1.652344 95.421875 2.351562 98.230469 2.429688 101.101562 C 2.460938 102.148438 2.4375 103.226562 2.546875 104.296875 C 2.769531 106.007812 2.890625 107.726562 2.917969 109.453125 C 3.066406 110.824219 2.914062 112.378906 3.753906 113.550781 C 4.027344 113.9375 4.402344 114.121094 4.875 114.105469 C 5.640625 114.378906 6.585938 113.902344 7.398438 113.78125 C 8.707031 113.570312 9.996094 113.265625 11.292969 113 C 15.171875 112.257812 19.097656 111.660156 22.878906 110.464844 C 24.808594 110.097656 26.695312 109.574219 28.535156 108.890625 C 32.25 107.765625 36.28125 107.117188 40.136719 106.507812 C 44.558594 105.449219 48.792969 103.949219 53.304688 103.199219 C 54.933594 102.890625 56.714844 102.441406 58.511719 102.082031 C 60.242188 101.804688 62.019531 101.820312 63.722656 101.359375 C 65.441406 100.945312 67.136719 100.371094 68.882812 100.109375 C 70.964844 100.179688 73.027344 100.410156 75.074219 100.804688 C 77.839844 101.527344 80.722656 101.496094 83.511719 102.125 C 87.703125 103.023438 91.996094 103.03125 96.304688 103.519531 C 98.230469 103.714844 100.058594 104.144531 101.976562 104.457031 C 104.9375 104.664062 107.835938 105.304688 110.785156 105.59375 C 113.5 105.640625 116.1875 105.949219 118.84375 106.523438 C 120.527344 106.804688 122.207031 106.796875 123.910156 106.984375 C 126.449219 107.433594 129.019531 107.464844 131.574219 107.75 C 132.941406 107.800781 136.238281 108.949219 136.941406 107.378906 C 136.953125 107.316406 136.957031 107.25 136.953125 107.1875 C 137.164062 107.101562 137.3125 106.953125 137.398438 106.746094 C 137.507812 106.378906 137.570312 106.007812 137.59375 105.625 C 137.773438 105.078125 137.886719 104.515625 137.929688 103.941406 C 138.296875 100.027344 138.976562 96.144531 139.132812 92.207031 C 139.160156 88.589844 139.792969 85.011719 139.515625 81.347656 C 139.957031 73.414062 139.972656 65.476562 139.5625 57.539062 Z M 137.449219 77.15625 C 137.089844 79.859375 137.382812 82.589844 137.296875 85.304688 C 136.839844 90.140625 136.726562 95.25 135.96875 100.101562 C 135.769531 101.5625 135.761719 103.054688 135.453125 104.496094 C 135.257812 105.179688 135.136719 106.046875 135.484375 106.644531 C 133.148438 106.511719 130.84375 105.945312 128.496094 105.933594 C 126.527344 105.800781 124.4375 105.269531 122.429688 105.210938 C 119.425781 105.148438 116.539062 104.019531 113.535156 103.953125 C 111.289062 103.894531 109.066406 103.644531 106.863281 103.203125 C 103.515625 102.835938 100.222656 102.160156 96.894531 101.636719 C 93.0625 101.195312 89.195312 101.042969 85.378906 100.488281 C 81.277344 99.644531 77.128906 99.144531 73.019531 98.34375 C 69.441406 97.542969 65.929688 98.691406 62.46875 99.503906 C 60.914062 99.84375 59.3125 99.835938 57.757812 100.140625 C 56.316406 100.480469 54.878906 100.824219 53.425781 101.105469 C 48.777344 101.75 44.324219 103.28125 39.765625 104.328125 C 36.285156 104.890625 32.855469 105.484375 29.417969 106.332031 C 25.363281 107.714844 21.171875 108.609375 17.03125 109.683594 C 14.078125 110.097656 11.164062 110.757812 8.253906 111.417969 C 7.601562 111.558594 5.925781 111.707031 4.929688 112.207031 C 4.566406 110.316406 4.726562 108.363281 4.542969 106.453125 C 4.128906 103.945312 4.4375 101.40625 4.148438 98.890625 C 3.628906 95.785156 3.613281 92.648438 3.464844 89.511719 C 4.007812 80.726562 3.0625 71.921875 3.292969 63.128906 C 3.476562 59.792969 3.199219 56.46875 2.9375 53.144531 C 3.007812 47.078125 3.390625 41.015625 3.488281 34.949219 C 3.714844 31.304688 3.738281 27.664062 3.550781 24.019531 C 4.136719 19.886719 4.496094 15.71875 4.707031 11.496094 C 4.890625 9.894531 5.394531 8.355469 5.566406 6.75 C 5.808594 6.554688 5.929688 6.300781 5.933594 5.988281 C 6.351562 6.042969 6.792969 6.011719 7.207031 6.042969 C 10.085938 6.414062 12.992188 6.003906 15.859375 6.429688 C 19.070312 6.796875 22.289062 6.972656 25.496094 7.363281 C 28.933594 7.808594 32.34375 8.484375 35.789062 8.828125 C 38.328125 9.355469 40.890625 9.167969 43.445312 9.691406 C 48.3125 10.46875 53.210938 10.929688 58.097656 11.542969 C 61.574219 12.171875 64.972656 13.320312 68.542969 13.167969 C 71.425781 13.265625 74.195312 12.316406 77.03125 11.980469 C 82.914062 11.21875 88.71875 9.800781 94.53125 8.59375 C 99.09375 7.832031 103.703125 7.484375 108.234375 6.550781 C 112.589844 5.957031 116.824219 5.339844 121.222656 4.871094 C 124.988281 4.089844 128.78125 3.488281 132.570312 2.828125 C 133.207031 2.71875 133.84375 2.621094 134.484375 2.519531 C 134.640625 2.492188 134.808594 2.46875 134.976562 2.441406 C 135.269531 2.617188 135.589844 2.703125 135.929688 2.695312 C 136.429688 6.199219 136.132812 9.789062 136.238281 13.320312 C 136.234375 15.449219 136.351562 17.578125 136.515625 19.699219 C 136.613281 21.59375 136.347656 23.484375 136.417969 25.382812 C 136.746094 34.351562 137.179688 43.433594 136.976562 52.433594 C 137.601562 60.664062 137.757812 68.90625 137.445312 77.15625 Z M 137.449219 77.15625 " fill-opacity="1" fill-rule="nonzero"/></g><path fill="#545454" d="M 134.941406 63.496094 C 134.726562 59.367188 134.917969 55.257812 134.957031 51.132812 C 134.734375 48.132812 134.910156 45.125 134.703125 42.121094 C 134.15625 36.375 134.492188 30.617188 134.597656 24.859375 C 134.527344 22.53125 134.628906 20.199219 134.785156 17.871094 C 134.738281 14.777344 134.5625 11.675781 134.511719 8.578125 C 134.554688 7.894531 134.441406 7.238281 134.171875 6.609375 C 134.15625 6.582031 134.136719 6.554688 134.117188 6.527344 C 134.09375 6.359375 134.027344 6.207031 133.917969 6.078125 C 133.566406 5.648438 133.019531 5.667969 132.503906 5.527344 C 131.65625 5.273438 130.792969 5.496094 129.972656 5.738281 C 126.839844 5.964844 123.671875 6.265625 120.550781 6.671875 C 113.375 7.542969 106.261719 8.785156 99.214844 10.398438 C 95.664062 11.246094 92.214844 11.8125 88.6875 12.832031 C 83.558594 13.882812 78.304688 14.425781 73.113281 15.179688 C 69.722656 15.375 66.359375 15.160156 63.019531 14.546875 C 58.628906 14.34375 54.3125 13.433594 49.96875 12.808594 C 41.503906 11.535156 33 10.488281 24.457031 9.875 C 20.355469 9.925781 16.316406 9.015625 12.230469 8.902344 C 11.191406 9.058594 8.832031 8.484375 7.738281 9.097656 C 7.675781 9.125 7.613281 9.167969 7.5625 9.214844 C 7.402344 9.339844 7.292969 9.5 7.230469 9.691406 C 7.179688 9.828125 7.179688 9.964844 7.222656 10.105469 C 7.265625 10.242188 7.347656 10.355469 7.464844 10.441406 C 7.695312 12.878906 7.65625 15.316406 7.347656 17.746094 C 6.859375 25.808594 6.867188 33.957031 6.398438 42.039062 C 6.53125 45.449219 6.589844 48.890625 6.398438 52.359375 C 6.355469 55.734375 6.59375 59.117188 6.5 62.496094 C 6.191406 66.855469 6.820312 71.214844 6.460938 75.578125 C 6.171875 77.722656 6.46875 79.875 6.46875 82.027344 C 6.453125 85.285156 6.519531 88.535156 6.304688 91.789062 C 6.445312 94.964844 6.085938 98.128906 6.09375 101.304688 C 6.058594 102.761719 6.335938 104.210938 6.242188 105.664062 C 6.253906 106.414062 6.152344 107.441406 6.605469 108.050781 C 6.542969 108.855469 7.769531 109.324219 8.566406 109.292969 C 10.746094 109.433594 12.851562 108.519531 15.035156 108.445312 C 22.019531 107.230469 28.871094 105.265625 35.71875 103.425781 C 40.011719 102.304688 44.175781 100.769531 48.515625 99.8125 C 50.929688 98.980469 53.410156 98.429688 55.953125 98.164062 C 57.9375 97.878906 59.664062 96.714844 61.707031 96.75 C 66.625 95.769531 71.585938 95.457031 76.585938 95.808594 C 78.9375 96.050781 80.976562 96.632812 83.375 96.960938 C 86.90625 97.3125 90.378906 98.070312 93.917969 98.539062 C 100.949219 99.179688 107.929688 100.324219 114.960938 100.996094 C 119.089844 102.046875 123.328125 102.324219 127.546875 102.746094 C 128.890625 102.953125 130.1875 102.9375 131.542969 103.207031 C 132.089844 103.371094 132.59375 103.285156 133.050781 102.945312 C 133.074219 102.949219 133.09375 102.960938 133.117188 102.964844 C 134.035156 103.132812 134.324219 102.097656 134.257812 101.375 C 134.289062 100.050781 134.257812 98.730469 134.3125 97.40625 C 134.503906 93.078125 134.789062 88.765625 134.757812 84.433594 C 135.140625 81.074219 135.050781 77.683594 134.921875 74.308594 C 134.949219 70.703125 134.964844 67.097656 134.941406 63.496094 Z M 132.46875 34.90625 C 132.402344 37.878906 132.722656 40.820312 132.90625 43.785156 C 132.773438 46.121094 132.769531 48.457031 132.894531 50.789062 C 132.5625 58.023438 133.003906 65.257812 132.785156 72.496094 C 132.785156 76.179688 133.105469 79.882812 132.664062 83.554688 C 132.652344 88.015625 132.375 92.316406 132.171875 96.765625 C 132.246094 98.269531 132.21875 99.773438 132.085938 101.277344 C 130.761719 100.992188 128.839844 101.011719 128.042969 100.839844 C 125.679688 100.613281 123.441406 100.402344 121.070312 100.015625 C 119.332031 99.832031 117.609375 99.527344 115.914062 99.101562 C 112.722656 98.59375 109.496094 98.328125 106.289062 97.933594 C 103.800781 97.664062 101.359375 97.082031 98.863281 96.871094 C 96.945312 96.765625 95.039062 96.558594 93.144531 96.25 C 89.675781 95.648438 86.222656 94.996094 82.722656 94.589844 C 78.9375 93.671875 74.734375 93.433594 70.792969 93.347656 C 65.667969 93.617188 60.636719 94.453125 55.703125 95.867188 C 53.828125 96.226562 51.902344 96.332031 50.078125 96.925781 C 43.359375 98.75 36.777344 101.03125 30.019531 102.71875 C 24.363281 104.226562 18.734375 105.609375 12.925781 106.472656 C 11.492188 106.601562 10.082031 107.316406 8.644531 107.125 C 8.605469 107.109375 8.5625 107.101562 8.519531 107.089844 C 8.535156 106.808594 8.53125 106.53125 8.53125 106.300781 C 8.527344 105.199219 8.523438 104.09375 8.4375 102.996094 C 8.328125 99.960938 8.648438 96.929688 8.589844 93.890625 C 8.445312 91.601562 8.824219 89.566406 8.722656 87.191406 C 8.625 83.921875 8.429688 80.648438 8.484375 77.375 C 8.523438 75.300781 8.828125 73.238281 8.800781 71.164062 C 8.566406 68.085938 8.527344 65.007812 8.6875 61.925781 C 8.675781 59.835938 8.675781 57.746094 8.5 55.664062 C 8.285156 51.78125 8.867188 47.894531 8.386719 44.027344 C 8.292969 40.011719 8.84375 36.003906 8.75 31.972656 C 8.847656 27.621094 9.089844 23.273438 9.078125 18.925781 C 9.28125 17.140625 9.347656 15.347656 9.273438 13.550781 C 9.203125 12.589844 9.308594 11.5625 9.128906 10.609375 C 12.414062 10.578125 15.644531 11.183594 18.90625 11.496094 C 22.765625 11.878906 26.660156 11.863281 30.503906 12.460938 C 35.808594 13.300781 41.257812 13.492188 46.542969 14.613281 C 54.007812 15.636719 61.421875 17.113281 68.949219 17.433594 C 71.730469 17.410156 74.492188 17.160156 77.234375 16.6875 C 79.800781 16.203125 82.414062 16.074219 84.980469 15.601562 C 87.792969 15.242188 90.46875 14.507812 93.210938 13.800781 C 100.390625 12.480469 107.4375 10.589844 114.691406 9.636719 C 119.894531 8.929688 125.097656 8.5 130.34375 7.980469 C 130.671875 7.90625 130.996094 7.804688 131.3125 7.683594 C 131.828125 7.699219 132.347656 7.890625 132.859375 7.855469 C 133.015625 12.8125 133.050781 17.769531 132.714844 22.71875 C 132.910156 26.785156 132.371094 30.835938 132.46875 34.90625 Z M 132.46875 34.90625 " fill-opacity="1" fill-rule="nonzero"/><path fill="#545454" d="M 120.1875 44.164062 C 120.355469 43.902344 120.464844 43.617188 120.511719 43.308594 C 120.5625 43.003906 120.550781 42.699219 120.472656 42.394531 C 120.394531 42.09375 120.261719 41.820312 120.070312 41.574219 C 119.882812 41.328125 119.648438 41.128906 119.375 40.980469 C 116.429688 39.320312 113.824219 44.089844 117.050781 45.542969 C 118.285156 46.316406 119.652344 45.320312 120.1875 44.164062 Z M 120.1875 44.164062 " fill-opacity="1" fill-rule="nonzero"/><path fill="#545454" d="M 28.375 47.957031 C 24.949219 47.09375 22.652344 51.96875 26.414062 53.234375 C 29.535156 54.070312 31.824219 49.03125 28.375 47.957031 Z M 28.375 47.957031 " fill-opacity="1" fill-rule="nonzero"/><path fill="#545454" d="M 47.191406 42.109375 C 47.96875 41.832031 48.164062 40.910156 48.121094 40.167969 C 47.71875 37.132812 47.324219 34.097656 47.085938 31.039062 C 46.941406 29.535156 46.539062 28.101562 45.875 26.746094 C 45.394531 25.066406 44.054688 23.160156 42.152344 23.125 C 39.171875 24.03125 35.492188 30.246094 33.789062 33.667969 C 33.660156 32.691406 33.539062 31.710938 33.464844 30.738281 C 33.078125 28.035156 32.40625 25.402344 31.445312 22.84375 C 30.5 21.542969 29.28125 20.019531 27.566406 19.855469 C 22.960938 19.691406 17.335938 37.304688 15.800781 41.351562 C 15.570312 41.839844 15.453125 42.355469 15.441406 42.894531 C 15.449219 43.09375 15.527344 43.261719 15.671875 43.398438 C 15.820312 43.535156 15.996094 43.601562 16.195312 43.597656 C 16.429688 43.726562 16.675781 43.742188 16.925781 43.640625 C 18.84375 43.835938 20.765625 43.921875 22.695312 43.90625 C 24.621094 43.878906 26.542969 44.035156 28.460938 44.109375 C 29.636719 44.011719 30.8125 44.023438 31.984375 44.148438 C 32.296875 44.121094 32.609375 44.074219 32.914062 44.007812 C 33.234375 43.953125 33.472656 43.785156 33.632812 43.503906 C 33.90625 43.351562 34.082031 43.125 34.152344 42.820312 C 34.171875 42.710938 34.183594 42.601562 34.203125 42.496094 C 34.644531 42.496094 35.089844 42.492188 35.53125 42.5 C 37.84375 42.59375 40.207031 42.511719 42.527344 42.574219 C 43.878906 42.703125 45.199219 42.46875 46.542969 42.375 C 46.78125 42.390625 46.972656 42.308594 47.125 42.125 C 47.148438 42.121094 47.167969 42.117188 47.191406 42.109375 Z M 22.433594 29.136719 C 23.703125 26.582031 24.890625 23.839844 27.144531 21.988281 C 28.046875 22 28.566406 22.890625 29.074219 23.519531 C 29.78125 24.199219 29.878906 25.179688 30.167969 26.0625 C 30.460938 27.136719 30.746094 28.195312 30.976562 29.269531 C 29.367188 26.570312 28.5 29.425781 27.277344 30.714844 C 26.976562 29.816406 26.878906 28.863281 26.589844 27.972656 C 25.289062 25.941406 23.363281 30.949219 22.332031 31.632812 C 22.144531 31.238281 22.101562 30.71875 21.890625 30.324219 C 22.070312 29.929688 22.242188 29.53125 22.433594 29.136719 Z M 29.257812 42.136719 C 27.460938 42.199219 25.664062 42.058594 23.871094 42.011719 C 21.796875 41.945312 19.734375 42.152344 17.652344 42.019531 C 17.535156 42.015625 17.417969 42.007812 17.292969 42.007812 C 17.519531 41.386719 17.710938 40.742188 17.964844 40.148438 C 18.859375 37.636719 19.804688 35.140625 20.847656 32.6875 C 20.941406 33.050781 21.136719 33.351562 21.433594 33.585938 C 23 34.59375 24.339844 31.953125 25.195312 30.960938 C 25.582031 33.863281 28.070312 33.691406 29.238281 31.328125 C 29.667969 32.179688 30.3125 33.035156 31.34375 33.113281 C 31.40625 33.113281 31.46875 33.109375 31.527344 33.101562 C 32.015625 36.085938 32.261719 39.085938 32.269531 42.109375 C 31.277344 42.035156 30.253906 42.191406 29.257812 42.132812 Z M 38.183594 29.585938 C 38.757812 28.671875 39.417969 27.820312 40.164062 27.035156 C 40.753906 26.355469 41.269531 25.585938 42.164062 25.273438 C 43.136719 25.675781 43.453125 26.691406 43.679688 27.628906 C 44.089844 28.535156 44.378906 29.476562 44.550781 30.457031 C 44.101562 30.773438 43.695312 31.304688 43.246094 31.519531 C 42.800781 31.222656 42.777344 30.675781 42.570312 30.230469 C 42.304688 29.703125 41.828125 29.144531 41.1875 29.160156 C 39.570312 29.359375 39.503906 31.683594 38.09375 32.242188 C 37.746094 31.773438 37.71875 31.058594 37.417969 30.578125 C 37.660156 30.238281 37.910156 29.90625 38.183594 29.585938 Z M 45.269531 40.613281 C 41.625 40.652344 38.035156 40.425781 34.378906 40.375 C 34.394531 39.066406 34.316406 37.765625 34.152344 36.46875 C 34.851562 35.175781 35.484375 33.835938 36.199219 32.546875 C 37.011719 35.144531 39.167969 34.734375 40.691406 31.976562 C 40.972656 32.933594 41.570312 34.171875 42.6875 34.296875 C 43.320312 34.359375 44.171875 33.96875 44.871094 33.382812 C 45.027344 34.59375 45.210938 35.804688 45.289062 37.066406 C 45.339844 38.238281 45.46875 39.402344 45.667969 40.558594 C 45.527344 40.574219 45.394531 40.59375 45.269531 40.613281 Z M 45.269531 40.613281 " fill-opacity="1" fill-rule="nonzero"/><path fill="#545454" d="M 98.449219 27.730469 C 98.1875 26.667969 97.054688 26.191406 96.078125 25.992188 C 95.300781 25.953125 94.628906 26.511719 94.058594 26.972656 C 93.414062 27.757812 92.6875 28.5 92.257812 29.433594 C 92.148438 29.667969 92.011719 29.894531 91.875 30.121094 C 91.851562 29.601562 91.753906 29.070312 91.738281 28.59375 C 91.625 27.769531 91.269531 27.066406 90.675781 26.480469 C 90.503906 26.171875 90.261719 25.929688 89.953125 25.753906 C 89.640625 25.578125 89.308594 25.5 88.953125 25.511719 C 86.9375 25.351562 85.34375 27.28125 84.648438 28.984375 C 84.222656 29.785156 83.707031 30.625 83.714844 31.558594 C 83.742188 32.738281 85.128906 33.019531 86.089844 32.90625 C 86.585938 32.894531 87.078125 32.929688 87.566406 33.011719 C 87.230469 33.566406 86.980469 34.175781 86.648438 34.734375 C 86.414062 35.175781 86.195312 35.800781 86.527344 36.261719 C 86.863281 36.78125 87.339844 36.816406 87.910156 36.867188 C 88.644531 36.957031 89.382812 36.964844 90.121094 36.894531 C 90.984375 37.125 91.855469 36.980469 92.730469 37.007812 C 94.515625 37.394531 94.46875 35.636719 94.289062 34.398438 C 94.234375 34.058594 94.15625 33.722656 94.054688 33.390625 C 94.28125 33.394531 94.496094 33.398438 94.679688 33.417969 C 95.34375 33.394531 96.007812 33.363281 96.671875 33.335938 C 97.445312 33.328125 98.5625 33.351562 98.917969 32.515625 C 99.132812 32.007812 99.035156 31.398438 99.007812 30.851562 C 99.136719 29.769531 98.707031 28.765625 98.449219 27.730469 Z M 85.609375 30.78125 C 86.453125 29.019531 88.5 25.617188 90.007812 28.8125 C 90.144531 29.335938 90.242188 29.867188 90.304688 30.402344 C 90.046875 30.523438 89.804688 30.671875 89.582031 30.851562 C 89.550781 30.847656 89.523438 30.839844 89.492188 30.835938 C 88.992188 30.796875 88.5 30.828125 88.011719 30.933594 C 87.214844 30.785156 86.417969 30.734375 85.609375 30.78125 Z M 91.5 35.039062 C 90.441406 34.785156 89.375 34.933594 88.304688 34.839844 C 88.707031 34.039062 89.253906 33.355469 89.941406 32.785156 C 90.253906 32.550781 90.566406 32.214844 90.980469 32.390625 C 91.753906 32.925781 92.289062 34.039062 92.464844 34.972656 C 92.140625 34.964844 91.816406 34.988281 91.496094 35.039062 Z M 97.246094 31.386719 C 96.414062 31.417969 95.582031 31.460938 94.75 31.460938 C 94.167969 31.449219 93.539062 31.316406 93 31.5625 C 92.96875 31.53125 92.941406 31.503906 92.910156 31.476562 C 93.589844 30.09375 94.425781 28.636719 95.828125 27.882812 C 96.164062 27.992188 96.472656 28.15625 96.75 28.371094 C 96.851562 28.675781 96.859375 29.003906 96.929688 29.3125 C 97.171875 29.984375 97.277344 30.675781 97.246094 31.386719 Z M 97.246094 31.386719 " fill-opacity="1" fill-rule="nonzero"/><path fill="#545454" d="M 74.453125 40.296875 C 74.03125 40.105469 73.589844 40.039062 73.128906 40.089844 C 72.53125 40.203125 71.984375 40.628906 71.398438 40.121094 C 70.839844 39.183594 70.824219 38.132812 70.855469 37.078125 C 70.730469 35.566406 69.414062 34.429688 68.054688 33.941406 C 65.8125 33.417969 63.851562 34.539062 62.285156 36.035156 C 60.074219 37.179688 59.199219 40.039062 59.347656 42.390625 C 59.480469 43.476562 60.207031 44.277344 60.828125 45.121094 C 61.1875 45.730469 61.378906 46.386719 61.398438 47.097656 C 61.417969 47.804688 61.265625 48.472656 60.9375 49.097656 C 59.527344 51.628906 57.066406 53.433594 55.917969 56.109375 C 54.929688 58.351562 54.160156 60.828125 54.332031 63.300781 C 54.707031 65.882812 56.554688 68.300781 59.34375 68.277344 C 60.019531 68.371094 60.6875 68.328125 61.347656 68.148438 C 61.988281 67.910156 62.464844 67.421875 63.015625 67.042969 C 63.570312 66.726562 64.046875 66.320312 64.449219 65.832031 C 64.921875 65.542969 65.410156 65.273438 65.902344 65.023438 C 67.34375 64.433594 68.9375 64.699219 70.4375 64.457031 C 72.695312 63.882812 74.1875 60.214844 74.601562 58.117188 C 74.640625 56.691406 74.210938 55.417969 73.320312 54.300781 C 73.007812 53.390625 72.320312 52.578125 72.304688 51.59375 C 72.414062 50.84375 72.472656 50.117188 73.039062 49.542969 C 73.859375 48.695312 74.949219 48.113281 75.515625 47.03125 C 76.910156 44.953125 76.910156 41.566406 74.453125 40.296875 Z M 73.828125 46.359375 C 73.394531 46.992188 72.6875 47.335938 72.171875 47.890625 C 71.746094 48.34375 71.410156 48.851562 71.160156 49.421875 C 70.914062 49.992188 70.769531 50.585938 70.730469 51.207031 C 70.6875 51.824219 70.753906 52.433594 70.929688 53.027344 C 71.101562 53.625 71.371094 54.175781 71.734375 54.675781 C 71.652344 55.628906 72.339844 56.445312 72.425781 57.382812 C 72.65625 58.339844 71.964844 59.167969 71.679688 60.042969 C 71.296875 60.746094 70.894531 61.511719 70.171875 61.914062 C 68.8125 62.125 67.429688 62.230469 66.085938 62.515625 C 64.726562 62.925781 63.578125 63.664062 62.640625 64.734375 C 61.78125 65.105469 61.199219 66.0625 60.222656 66.113281 C 54.5625 66.351562 55.9375 59.894531 57.707031 56.519531 C 59.125 53.972656 61.683594 52.160156 62.835938 49.433594 C 63.054688 48.898438 63.199219 48.34375 63.261719 47.769531 C 63.324219 47.195312 63.304688 46.625 63.207031 46.054688 C 63.105469 45.488281 62.929688 44.941406 62.675781 44.421875 C 62.421875 43.90625 62.101562 43.429688 61.714844 43.003906 C 61.523438 42.761719 61.359375 42.503906 61.222656 42.230469 C 60.894531 40.863281 61.476562 39.328125 62.3125 38.25 C 63.566406 37.449219 64.550781 36.25 66.0625 35.921875 C 66.566406 35.796875 67.070312 35.816406 67.5625 35.980469 C 68.058594 36.144531 68.472656 36.429688 68.800781 36.832031 C 69.132812 37.167969 69.023438 37.648438 68.996094 38.066406 C 69.132812 39.917969 69.792969 42.675781 72.152344 42.460938 C 72.777344 42.402344 73.394531 41.894531 73.972656 42.390625 L 73.960938 42.378906 C 75.214844 43.332031 74.617188 45.234375 73.824219 46.359375 Z M 73.828125 46.359375 " fill-opacity="1" fill-rule="nonzero"/><path fill="#545454" d="M 67.320312 42.390625 C 66.953125 41.78125 66.5625 40.96875 65.757812 40.875 C 65.515625 40.835938 65.277344 40.847656 65.039062 40.902344 C 64.804688 40.953125 64.585938 41.050781 64.382812 41.1875 C 64.183594 41.324219 64.011719 41.496094 63.875 41.695312 C 63.738281 41.898438 63.644531 42.117188 63.589844 42.355469 C 63.347656 43.167969 64.351562 43.769531 64.8125 42.945312 C 64.871094 42.800781 64.972656 42.695312 65.109375 42.621094 C 65.246094 42.546875 65.390625 42.527344 65.542969 42.554688 C 66.011719 43.320312 66.296875 44.371094 67.410156 44.269531 C 68.246094 44.3125 69.359375 44.289062 69.28125 43.160156 C 69.179688 42.085938 68.066406 42.460938 67.320312 42.390625 Z M 67.320312 42.390625 " fill-opacity="1" fill-rule="nonzero"/><path fill="#545454" d="M 65.382812 51.578125 C 65.546875 51.261719 65.785156 50.773438 66.210938 51.035156 C 66.675781 51.304688 67.144531 51.304688 67.609375 51.03125 C 68.269531 50.6875 68.929688 49.859375 68.425781 49.125 C 67.972656 48.488281 67.246094 48.945312 66.875 49.417969 C 66.5 49.238281 66.113281 49.191406 65.710938 49.273438 C 65.308594 49.359375 64.972656 49.558594 64.703125 49.867188 C 64.207031 50.417969 63.59375 51.738281 64.628906 52.046875 C 64.792969 52.0625 64.945312 52.027344 65.085938 51.941406 C 65.226562 51.851562 65.324219 51.730469 65.382812 51.578125 Z M 65.382812 51.578125 " fill-opacity="1" fill-rule="nonzero"/><path fill="#545454" d="M 68.144531 54.917969 C 66.8125 54.304688 65.46875 55.097656 64.625 56.136719 C 63.988281 55.953125 63.324219 55.785156 62.683594 56.089844 C 61.964844 56.410156 60.867188 57.148438 61.433594 58.042969 C 62 58.789062 62.597656 57.84375 63.1875 57.679688 L 63.171875 57.671875 C 63.253906 57.660156 63.339844 57.65625 63.425781 57.660156 C 65.902344 58.792969 65.550781 55.851562 67.679688 56.496094 C 68.578125 56.777344 69 55.207031 68.144531 54.917969 Z M 68.144531 54.917969 " fill-opacity="1" fill-rule="nonzero"/><path fill="#545454" d="M 62.65625 61.140625 C 61.160156 60.390625 58.527344 60.609375 58.488281 62.71875 C 58.542969 63.722656 59.8125 63.65625 59.878906 62.699219 C 60.140625 62.328125 60.667969 62.410156 61.066406 62.417969 C 61.707031 62.390625 62.171875 63.011719 62.808594 62.9375 C 62.964844 62.917969 63.105469 62.867188 63.234375 62.785156 C 63.367188 62.703125 63.472656 62.59375 63.554688 62.460938 C 63.636719 62.332031 63.6875 62.1875 63.703125 62.035156 C 63.722656 61.878906 63.703125 61.730469 63.652344 61.582031 C 63.625 61.480469 63.574219 61.390625 63.503906 61.3125 C 63.4375 61.234375 63.351562 61.175781 63.257812 61.132812 C 63.160156 61.089844 63.0625 61.066406 62.957031 61.070312 C 62.851562 61.070312 62.75 61.09375 62.65625 61.140625 Z M 62.65625 61.140625 " fill-opacity="1" fill-rule="nonzero"/><path fill="#545454" d="M 102.289062 45.015625 C 102.9375 45.414062 103.453125 46.027344 104.203125 46.242188 C 104.6875 46.324219 105.164062 46.300781 105.636719 46.171875 C 106.40625 45.945312 107.269531 46 107.945312 45.511719 C 108.644531 44.898438 109.515625 44.507812 110.078125 43.742188 C 110.441406 43.574219 110.742188 43.332031 110.988281 43.015625 C 111.628906 42.132812 112.117188 41.058594 112.695312 40.113281 C 113.097656 39.210938 113.195312 38.171875 113.753906 37.34375 C 114.324219 36.382812 114.972656 35.277344 115.984375 34.667969 C 116.609375 34.027344 117.511719 33.882812 118.257812 33.421875 C 118.980469 33.328125 119.605469 33.035156 120.136719 32.539062 C 123.5 31.078125 126.519531 27.007812 124.472656 23.386719 C 124.082031 22.582031 123.492188 21.976562 122.699219 21.5625 C 122.046875 20.871094 121.457031 19.921875 121.757812 18.9375 C 122.503906 17.546875 124.023438 16.570312 124.171875 14.898438 C 124.234375 14.167969 124.09375 13.480469 123.757812 12.832031 C 123.417969 12.183594 122.933594 11.675781 122.304688 11.308594 C 120.367188 10.589844 117.886719 10.523438 116.089844 11.617188 C 114.71875 12.847656 113.644531 14.292969 112.855469 15.957031 C 112.359375 16.71875 111.722656 17.328125 110.941406 17.789062 C 110.394531 17.949219 109.816406 17.992188 109.277344 18.203125 C 107.347656 18.820312 105.3125 19.402344 104 21.058594 C 102.546875 22.296875 100.992188 25.394531 102.457031 27.066406 C 102.996094 27.675781 103.914062 27.4375 104.472656 27.988281 C 104.9375 28.296875 105.519531 28.277344 106.019531 28.488281 C 106.761719 29.414062 106.183594 30.152344 105.53125 30.890625 C 104.996094 31.960938 104.082031 32.703125 103.316406 33.601562 C 102.359375 34.898438 101.597656 36.300781 101.03125 37.808594 C 100.496094 39.363281 100.859375 41.070312 101.132812 42.648438 C 101.320312 43.535156 101.707031 44.324219 102.289062 45.015625 Z M 103.09375 37.078125 C 103.574219 36.101562 104.164062 35.195312 104.855469 34.359375 C 105.601562 33.695312 106.21875 32.929688 106.703125 32.0625 C 107.195312 31.410156 107.875 30.882812 108.039062 30.035156 C 108.210938 28.925781 107.945312 27.566406 107.058594 26.820312 C 106.519531 26.394531 105.792969 26.429688 105.1875 26.171875 C 104.277344 25.375 103.128906 26.253906 103.660156 24.515625 C 103.863281 23.65625 104.320312 22.96875 105.03125 22.449219 C 105.878906 21.402344 107.078125 20.867188 108.332031 20.46875 C 109.894531 19.898438 111.683594 19.820312 112.875 18.527344 C 114.484375 17.035156 114.875 14.691406 116.566406 13.265625 C 116.726562 13.34375 116.894531 13.371094 117.074219 13.34375 C 117.25 13.316406 117.402344 13.242188 117.535156 13.121094 C 118.65625 12.796875 119.78125 12.792969 120.90625 13.105469 C 120.894531 13.105469 120.875 13.097656 120.855469 13.09375 L 120.835938 13.089844 C 121.214844 13.164062 121.535156 13.335938 121.804688 13.613281 C 122.074219 13.886719 122.238281 14.214844 122.300781 14.59375 C 122.25 15.246094 121.691406 15.691406 121.367188 16.234375 C 120.972656 17.015625 120.28125 17.632812 120.042969 18.488281 C 119.894531 19.074219 119.851562 19.671875 119.921875 20.273438 C 120.15625 21.605469 120.773438 22.730469 121.769531 23.648438 C 122.132812 23.773438 122.414062 23.996094 122.613281 24.320312 C 122.90625 24.984375 123.050781 25.675781 123.050781 26.402344 C 122.6875 27.09375 122.554688 27.90625 121.980469 28.476562 C 121.085938 29.65625 120.019531 30.160156 118.882812 31.003906 C 118.601562 31.324219 118.15625 31.1875 117.796875 31.351562 C 117.136719 31.652344 116.5 31.988281 115.832031 32.273438 C 113.503906 33.855469 111.945312 36.34375 111.15625 39.019531 C 110.980469 39.429688 110.765625 39.824219 110.511719 40.195312 C 110.28125 40.695312 109.984375 41.15625 109.625 41.574219 C 109.304688 41.699219 109.027344 41.886719 108.792969 42.140625 C 108.441406 42.535156 108.035156 42.863281 107.570312 43.121094 C 107.347656 43.324219 107.113281 43.511719 106.863281 43.679688 C 106.09375 43.792969 105.347656 44.027344 104.582031 44.175781 C 104.171875 43.964844 103.894531 43.523438 103.445312 43.359375 C 102.964844 42.628906 102.683594 41.832031 102.59375 40.964844 C 102.332031 39.617188 102.339844 38.265625 103.09375 37.078125 Z M 103.09375 37.078125 " fill-opacity="1" fill-rule="nonzero"/><path fill="#545454" d="M 108.992188 25.542969 C 109.199219 25.554688 109.378906 25.496094 109.535156 25.359375 C 109.695312 25.226562 109.78125 25.054688 109.804688 24.847656 C 109.816406 24.785156 109.8125 24.703125 109.878906 24.667969 C 110.242188 24.539062 110.398438 25.105469 110.683594 25.261719 C 110.933594 25.445312 111.207031 25.5625 111.511719 25.613281 C 112.019531 25.71875 112.519531 25.683594 113.007812 25.507812 C 113.5 25.332031 113.90625 25.039062 114.226562 24.632812 C 114.894531 24.890625 115.503906 25.269531 115.921875 24.414062 C 116.019531 24.210938 116.042969 24 115.996094 23.78125 C 115.953125 23.5625 115.84375 23.375 115.675781 23.230469 C 115.03125 22.800781 114.019531 22.511719 113.386719 23.097656 C 112.878906 23.59375 112.21875 24.066406 111.480469 23.757812 C 111.28125 23.527344 111.058594 23.324219 110.808594 23.152344 C 109.722656 22.519531 108.480469 23.464844 108.4375 24.628906 C 108.394531 24.832031 108.425781 25.019531 108.53125 25.199219 C 108.636719 25.375 108.792969 25.488281 108.992188 25.542969 Z M 108.992188 25.542969 " fill-opacity="1" fill-rule="nonzero"/><path fill="#545454" d="M 117.316406 27.210938 C 117.046875 27.476562 116.699219 27.867188 116.289062 27.679688 C 116.050781 27.476562 115.777344 27.34375 115.46875 27.28125 C 114.46875 27.054688 112.226562 28.6875 113.125 29.734375 C 113.769531 30.351562 114.257812 29.367188 114.769531 29.0625 L 114.765625 29.054688 C 114.828125 29.027344 114.894531 29 114.960938 28.980469 C 115.34375 28.949219 115.546875 29.460938 115.929688 29.523438 C 116.171875 29.589844 116.417969 29.609375 116.664062 29.582031 C 116.914062 29.558594 117.152344 29.488281 117.375 29.378906 C 117.597656 29.265625 117.792969 29.117188 117.964844 28.933594 C 118.132812 28.75 118.265625 28.542969 118.355469 28.308594 C 118.820312 27.605469 118.058594 26.554688 117.316406 27.210938 Z M 117.316406 27.210938 " fill-opacity="1" fill-rule="nonzero"/><path fill="#545454" d="M 110.070312 32.929688 L 110.058594 32.933594 L 110.0625 32.933594 C 110.097656 32.933594 110.132812 32.933594 110.164062 32.9375 Z M 110.070312 32.929688 " fill-opacity="1" fill-rule="nonzero"/><path fill="#545454" d="M 106.226562 36.332031 C 107.144531 36.550781 108.058594 35.914062 108.734375 35.351562 C 109.042969 35.082031 109.277344 34.648438 109.714844 34.585938 C 110.808594 34.753906 111.1875 33.0625 110.0625 32.933594 C 109.558594 32.894531 109.097656 33.007812 108.671875 33.28125 C 108.046875 33.773438 107.585938 34.410156 106.769531 34.609375 C 106.613281 34.683594 106.4375 34.605469 106.265625 34.632812 C 105.324219 34.683594 105.238281 36.292969 106.226562 36.332031 Z M 106.226562 36.332031 " fill-opacity="1" fill-rule="nonzero"/><path fill="#545454" d="M 104.980469 39.976562 C 105.429688 40.234375 105.703125 40.730469 106.175781 40.960938 C 106.96875 41.480469 108.355469 40.855469 108.128906 39.820312 C 107.988281 39.234375 107.5 39.089844 106.96875 39.277344 C 106.164062 39.109375 105.613281 38.035156 104.667969 38.414062 C 103.851562 38.652344 104.050781 40.210938 104.980469 39.976562 Z M 104.980469 39.976562 " fill-opacity="1" fill-rule="nonzero"/><path fill="#545454" d="M 115.84375 18.320312 C 116.152344 18.40625 116.457031 18.410156 116.765625 18.332031 C 117.074219 18.253906 117.34375 18.105469 117.574219 17.890625 C 117.851562 17.773438 118.121094 17.640625 118.375 17.480469 C 119.144531 17.089844 118.773438 15.617188 117.859375 16.039062 C 117.394531 16.191406 116.914062 16.242188 116.535156 16.617188 C 116.164062 16.578125 115.757812 16.460938 115.441406 16.722656 C 114.816406 17.136719 115.019531 18.375 115.84375 18.320312 Z M 115.84375 18.320312 " fill-opacity="1" fill-rule="nonzero"/><path fill="#545454" d="M 129.3125 18.851562 C 129.285156 18.339844 129.261719 17.824219 129.242188 17.3125 C 129.320312 17.46875 129.40625 17.628906 129.503906 17.796875 C 130.171875 18.679688 131.285156 17.601562 130.914062 16.75 C 130.574219 15.726562 130.007812 14.847656 129.214844 14.113281 C 129.191406 14.085938 129.167969 14.054688 129.144531 14.023438 C 129.199219 13.761719 129.132812 13.535156 128.953125 13.339844 C 128.929688 13.160156 128.84375 13.019531 128.695312 12.910156 C 128.550781 12.804688 128.390625 12.765625 128.210938 12.792969 C 127.4375 12.96875 127.199219 13.816406 126.78125 14.390625 C 126.253906 15.214844 125.476562 16.042969 125.453125 17.066406 C 125.453125 17.222656 125.5 17.363281 125.601562 17.484375 C 125.699219 17.605469 125.824219 17.683594 125.976562 17.714844 C 126.128906 17.75 126.277344 17.730469 126.417969 17.660156 C 126.554688 17.589844 126.660156 17.480469 126.722656 17.339844 C 127 16.820312 127.332031 16.324219 127.65625 15.828125 C 127.679688 16.246094 127.710938 16.667969 127.710938 17.078125 C 127.730469 17.4375 127.734375 17.8125 127.738281 18.1875 C 127.335938 18.519531 126.957031 18.875 126.597656 19.253906 C 126.023438 19.863281 124.9375 20.945312 125.777344 21.742188 C 126.640625 22.304688 127.039062 20.988281 127.550781 20.53125 C 127.605469 20.449219 127.664062 20.371094 127.730469 20.300781 C 127.71875 21.304688 127.710938 22.308594 127.777344 23.257812 C 127.808594 23.46875 127.910156 23.640625 128.082031 23.769531 C 128.253906 23.898438 128.445312 23.949219 128.65625 23.921875 C 129.503906 23.730469 129.429688 22.695312 129.433594 22.011719 C 129.433594 21.785156 129.421875 21.558594 129.414062 21.332031 C 129.546875 21.472656 129.675781 21.613281 129.816406 21.746094 C 130.660156 22.53125 131.625 21.042969 130.910156 20.347656 C 130.410156 19.8125 129.878906 19.3125 129.3125 18.851562 Z M 129.3125 18.851562 " fill-opacity="1" fill-rule="nonzero"/><path fill="#545454" d="M 127.75 36.324219 C 127.734375 35.917969 127.71875 35.507812 127.710938 35.097656 C 127.816406 35.277344 127.921875 35.457031 128.042969 35.625 C 128.15625 35.847656 128.332031 35.984375 128.574219 36.035156 C 129.304688 36.132812 129.722656 35.203125 129.40625 34.617188 C 129.128906 34.0625 128.757812 33.554688 128.425781 33.03125 C 128.167969 32.535156 127.851562 32.078125 127.484375 31.65625 C 127.546875 31.488281 127.554688 31.316406 127.507812 31.140625 C 127.464844 30.964844 127.375 30.820312 127.238281 30.699219 C 126.257812 30.136719 125.898438 31.714844 125.4375 32.292969 C 125.128906 33.070312 123.984375 34.046875 124.820312 34.835938 C 125.320312 35.230469 125.808594 34.683594 126.246094 33.949219 C 126.28125 34.296875 126.285156 34.648438 126.261719 34.996094 C 126.285156 35.277344 126.292969 35.558594 126.304688 35.835938 C 126.246094 35.910156 126.199219 35.992188 126.164062 36.078125 C 125.738281 36.460938 125.46875 37.117188 125.109375 37.527344 C 124.636719 37.882812 124.273438 38.515625 124.664062 39.066406 C 125.296875 39.699219 125.855469 39.160156 126.308594 38.507812 C 126.308594 38.890625 126.320312 39.273438 126.347656 39.652344 C 126.703125 40.890625 128.148438 40.175781 127.902344 39.101562 C 127.894531 39.023438 127.890625 38.945312 127.886719 38.867188 C 128.179688 39.171875 128.472656 39.476562 128.738281 39.800781 C 128.816406 39.878906 128.90625 39.9375 129.007812 39.972656 C 129.109375 40.011719 129.214844 40.027344 129.324219 40.015625 C 129.433594 40.007812 129.539062 39.976562 129.632812 39.921875 C 129.726562 39.867188 129.804688 39.792969 129.867188 39.703125 C 130.71875 38.421875 128.652344 37.261719 127.75 36.324219 Z M 127.75 36.324219 " fill-opacity="1" fill-rule="nonzero"/><path fill="#545454" d="M 120.570312 71.902344 C 119.839844 70.878906 119.234375 69.78125 118.753906 68.617188 C 118.207031 67.496094 117.726562 66.34375 117.320312 65.160156 C 117.285156 64.777344 117.101562 64.484375 116.773438 64.277344 C 116.773438 64.273438 116.773438 64.265625 116.769531 64.257812 C 116.742188 64.167969 116.695312 64.085938 116.632812 64.015625 C 116.570312 63.945312 116.492188 63.890625 116.40625 63.851562 C 116.316406 63.8125 116.226562 63.796875 116.128906 63.800781 C 116.035156 63.800781 115.945312 63.824219 115.859375 63.867188 C 115.839844 63.878906 115.824219 63.890625 115.804688 63.902344 C 115.59375 63.976562 115.433594 64.113281 115.328125 64.308594 C 115.222656 64.507812 115.199219 64.714844 115.257812 64.929688 C 114.164062 67.089844 112.933594 69.167969 111.558594 71.164062 C 111.101562 72.082031 109.4375 73.742188 110.621094 74.628906 C 111.570312 75.042969 111.902344 73.679688 112.351562 73.109375 C 113.382812 71.527344 114.410156 69.949219 115.300781 68.285156 C 115.269531 68.933594 115.246094 69.585938 115.25 70.234375 C 115.3125 71.566406 115.292969 72.894531 115.234375 74.214844 C 114.675781 74.6875 114.121094 75.160156 113.5625 75.636719 C 112.949219 76.3125 111.25 76.878906 111.945312 78.050781 C 112.445312 78.71875 113.175781 78.03125 113.660156 77.707031 C 114.148438 77.308594 114.628906 76.902344 115.101562 76.492188 C 115.066406 77.007812 115.03125 77.527344 114.992188 78.042969 C 115.03125 78.664062 115.0625 79.285156 115.09375 79.90625 C 114.726562 80.121094 114.386719 80.417969 114.039062 80.628906 C 113.363281 81.035156 112.175781 81.363281 112.539062 82.386719 C 113.007812 83.4375 114.265625 82.515625 115.179688 81.828125 C 115.195312 82.269531 115.21875 82.707031 115.226562 83.148438 C 115.273438 84.300781 115 85.5 115.332031 86.621094 C 115.632812 87.507812 116.796875 87.179688 116.867188 86.347656 C 117.035156 85.066406 117.09375 83.785156 117.042969 82.492188 C 117.679688 83.238281 118.386719 83.90625 119.167969 84.496094 C 119.265625 84.5625 119.371094 84.609375 119.492188 84.628906 C 119.609375 84.652344 119.722656 84.648438 119.839844 84.617188 C 119.957031 84.589844 120.0625 84.539062 120.15625 84.464844 C 120.246094 84.390625 120.320312 84.296875 120.375 84.191406 C 120.886719 83.382812 120.15625 82.691406 119.558594 82.214844 C 118.625 81.375 117.753906 80.46875 116.875 79.574219 C 116.816406 78.828125 116.75 78.089844 116.691406 77.347656 C 116.710938 77.117188 116.722656 76.886719 116.734375 76.652344 C 117.289062 77.421875 117.902344 78.140625 118.574219 78.8125 C 119.402344 79.597656 120.394531 78.210938 119.792969 77.449219 C 118.902344 76.320312 118.011719 75.351562 117.207031 74.152344 C 117.191406 73.867188 117.0625 73.652344 116.8125 73.507812 C 116.800781 71.863281 116.753906 70.21875 116.78125 68.570312 C 117.007812 69.128906 117.242188 69.683594 117.457031 70.246094 C 118.003906 71.816406 118.820312 73.226562 119.914062 74.480469 C 120.039062 74.65625 120.210938 74.769531 120.425781 74.808594 C 121.167969 74.914062 121.613281 74.023438 121.378906 73.394531 C 121.1875 72.855469 120.914062 72.359375 120.570312 71.902344 Z M 120.570312 71.902344 " fill-opacity="1" fill-rule="nonzero"/><path fill="#545454" d="M 127.132812 78.792969 C 127.074219 78.628906 126.976562 78.503906 126.835938 78.410156 C 126.695312 78.316406 126.539062 78.273438 126.371094 78.28125 C 126.113281 78.261719 125.90625 78.351562 125.75 78.550781 C 125.710938 78.621094 125.667969 78.6875 125.632812 78.757812 C 125.53125 78.875 125.457031 79.007812 125.410156 79.152344 C 125.058594 79.820312 124.671875 80.46875 124.25 81.09375 C 123.757812 81.976562 121.984375 83.683594 123.148438 84.574219 C 124.148438 84.96875 124.375 83.46875 124.90625 82.921875 C 124.972656 82.808594 125.074219 82.660156 125.191406 82.484375 C 125.167969 83.679688 125.105469 84.878906 125.046875 86.085938 C 124.582031 86.625 124.304688 87.429688 123.863281 87.9375 C 123.398438 88.699219 122.046875 89.582031 122.8125 90.542969 C 123.449219 91.097656 124.253906 90.273438 124.9375 89.277344 C 124.914062 90.574219 124.980469 91.867188 125.140625 93.152344 C 125.210938 93.308594 125.328125 93.421875 125.484375 93.488281 C 125.640625 93.554688 125.800781 93.5625 125.964844 93.507812 C 127.074219 93.050781 126.519531 89.796875 126.492188 88.480469 C 126.898438 88.980469 127.363281 89.417969 127.886719 89.792969 C 128.867188 90.449219 129.691406 88.792969 128.855469 88.160156 C 128.085938 87.632812 127.492188 86.632812 126.632812 86.160156 C 126.617188 86.074219 126.589844 85.992188 126.550781 85.914062 C 126.574219 84.386719 126.589844 82.859375 126.65625 81.335938 C 127.074219 82.246094 127.613281 83.074219 128.265625 83.832031 C 128.34375 83.90625 128.429688 83.964844 128.53125 84 C 128.632812 84.039062 128.738281 84.050781 128.847656 84.042969 C 128.953125 84.035156 129.054688 84.003906 129.148438 83.949219 C 129.242188 83.894531 129.316406 83.824219 129.378906 83.734375 C 130.054688 82.828125 128.957031 81.980469 128.546875 81.21875 C 128.09375 80.40625 127.613281 79.59375 127.132812 78.792969 Z M 127.132812 78.792969 " fill-opacity="1" fill-rule="nonzero"/><path fill="#545454" d="M 107.496094 86.671875 C 106.859375 86.210938 106.191406 85.792969 105.597656 85.28125 C 104.949219 84.75 104.488281 84.007812 103.886719 83.449219 C 103.835938 82.511719 103.789062 81.570312 103.75 80.632812 C 104.167969 81.273438 104.621094 81.890625 105.109375 82.480469 C 105.914062 83.277344 106.925781 81.878906 106.324219 81.125 C 105.527344 79.996094 104.722656 78.863281 103.863281 77.78125 C 103.878906 77.472656 103.75 77.238281 103.488281 77.078125 C 103.226562 76.914062 102.960938 76.910156 102.691406 77.058594 C 101.679688 77.785156 101.449219 79.113281 100.734375 80.097656 C 100.332031 80.835938 99.28125 81.988281 100.273438 82.675781 C 100.453125 82.761719 100.640625 82.773438 100.828125 82.710938 C 101.019531 82.644531 101.160156 82.523438 101.25 82.34375 C 101.570312 81.796875 101.886719 81.242188 102.191406 80.683594 C 102.210938 81.070312 102.226562 81.460938 102.210938 81.847656 C 102.246094 82.355469 102.265625 82.878906 102.28125 83.398438 C 101.898438 83.753906 101.5625 84.144531 101.265625 84.578125 C 100.757812 85.496094 98.726562 86.832031 99.621094 87.898438 C 100.539062 88.679688 101.453125 86.921875 102.046875 86.378906 C 102.144531 86.261719 102.234375 86.144531 102.328125 86.023438 C 102.332031 86.847656 102.328125 87.671875 102.328125 88.496094 C 101.839844 88.765625 101.386719 89.105469 100.910156 89.394531 C 100.238281 89.816406 98.675781 90.632812 99.34375 91.703125 C 99.457031 91.867188 99.613281 91.960938 99.8125 91.984375 C 100.007812 92.011719 100.183594 91.960938 100.335938 91.832031 C 101.03125 91.445312 101.695312 91.015625 102.332031 90.539062 C 102.335938 91.074219 102.339844 91.605469 102.351562 92.132812 C 102.355469 92.242188 102.378906 92.347656 102.425781 92.445312 C 102.472656 92.546875 102.539062 92.632812 102.621094 92.707031 C 102.703125 92.78125 102.796875 92.832031 102.902344 92.867188 C 103.007812 92.898438 103.117188 92.910156 103.226562 92.898438 C 103.910156 92.765625 103.957031 91.984375 103.976562 91.417969 C 103.984375 91.300781 103.984375 91.1875 103.992188 91.070312 C 104.609375 91.472656 105.265625 91.824219 105.902344 92.167969 C 106.925781 92.65625 107.589844 90.90625 106.664062 90.414062 C 105.765625 89.957031 104.898438 89.453125 104.058594 88.902344 C 104.0625 88.027344 104.050781 87.15625 104.019531 86.285156 C 104.992188 87.308594 106.230469 88.210938 106.769531 88.351562 C 107.671875 88.652344 108.210938 87.1875 107.496094 86.671875 Z M 107.496094 86.671875 " fill-opacity="1" fill-rule="nonzero"/><path fill="#545454" d="M 17.089844 81.898438 C 18.140625 83.078125 19.199219 84.238281 20.234375 85.488281 C 20.375 85.636719 20.546875 85.707031 20.75 85.707031 C 20.957031 85.707031 21.128906 85.632812 21.269531 85.484375 C 22.394531 84.351562 19.75 82.101562 19.03125 81.195312 C 18.332031 80.546875 17.691406 79.773438 16.953125 79.160156 C 16.917969 78.410156 16.882812 77.660156 16.84375 76.910156 C 16.804688 76.429688 16.804688 75.945312 16.84375 75.464844 C 17.476562 76.480469 18.117188 77.488281 19.082031 78.222656 C 19.886719 78.796875 20.679688 77.53125 20.148438 76.863281 C 19.160156 75.667969 18.390625 74.324219 17.460938 73.085938 C 17.207031 72.753906 16.9375 72.433594 16.652344 72.128906 C 16.609375 71.964844 16.515625 71.835938 16.371094 71.742188 C 16.226562 71.652344 16.070312 71.621094 15.902344 71.652344 C 15.707031 71.691406 15.554688 71.796875 15.4375 71.960938 C 15.238281 72.136719 15.128906 72.355469 15.105469 72.621094 C 14.714844 73.46875 14.339844 74.324219 13.949219 75.167969 C 13.542969 76.355469 12.5 77.542969 12.78125 78.839844 C 13.09375 79.738281 14.261719 79.328125 14.269531 78.484375 C 14.597656 77.648438 14.972656 76.832031 15.34375 76.015625 C 15.34375 76.914062 15.359375 77.8125 15.386719 78.707031 C 15.191406 78.878906 15.03125 79.078125 14.90625 79.304688 C 14.457031 80.085938 14.027344 80.871094 13.539062 81.625 C 13.058594 82.621094 10.839844 84.988281 11.925781 85.941406 C 12.988281 86.550781 13.414062 84.832031 13.972656 84.226562 C 14.542969 83.429688 15.054688 82.59375 15.515625 81.726562 C 15.617188 83.671875 15.738281 85.621094 15.828125 87.589844 C 16.019531 88.890625 17.5625 88.449219 17.457031 87.292969 C 17.300781 85.496094 17.1875 83.699219 17.089844 81.898438 Z M 17.089844 81.898438 " fill-opacity="1" fill-rule="nonzero"/><path fill="#545454" d="M 29.277344 79.019531 C 29.242188 78.285156 29.207031 77.550781 29.167969 76.8125 C 29.617188 77.457031 30.097656 78.078125 30.570312 78.703125 C 31.207031 79.546875 32.257812 78.523438 31.914062 77.707031 C 31.570312 76.691406 30.742188 75.960938 30.164062 75.078125 C 29.605469 74.398438 29.296875 73.488281 28.609375 72.933594 C 28.453125 72.851562 28.289062 72.835938 28.121094 72.886719 C 27.953125 72.933594 27.824219 73.03125 27.734375 73.183594 C 27.679688 73.246094 27.628906 73.316406 27.589844 73.390625 C 27.074219 74.34375 26.507812 75.261719 25.886719 76.148438 C 25.308594 76.933594 24.632812 77.792969 23.972656 78.667969 C 23.835938 78.839844 23.773438 79.035156 23.777344 79.253906 C 23.78125 79.472656 23.851562 79.664062 23.996094 79.832031 C 24.121094 79.964844 24.277344 80.03125 24.457031 80.027344 C 24.640625 80.027344 24.796875 79.960938 24.921875 79.828125 C 25.765625 78.941406 26.53125 77.996094 27.21875 76.984375 C 27.367188 76.761719 27.515625 76.535156 27.664062 76.304688 C 27.683594 76.910156 27.710938 77.515625 27.730469 78.121094 C 27.746094 78.359375 27.75 78.601562 27.761719 78.839844 C 27.152344 79.632812 26.867188 80.667969 26.234375 81.472656 C 25.84375 82.019531 25.160156 82.738281 25.75 83.390625 C 25.820312 83.460938 25.90625 83.515625 26 83.550781 C 26.09375 83.585938 26.191406 83.597656 26.292969 83.589844 C 26.390625 83.578125 26.484375 83.550781 26.574219 83.5 C 26.660156 83.449219 26.730469 83.382812 26.789062 83.300781 C 27.171875 82.796875 27.527344 82.273438 27.851562 81.730469 C 27.867188 82.503906 27.878906 83.277344 27.886719 84.054688 C 27.425781 84.367188 27.015625 84.730469 26.652344 85.152344 C 26.09375 85.949219 24.472656 86.878906 25.269531 87.957031 C 25.398438 88.09375 25.558594 88.160156 25.75 88.160156 C 25.9375 88.160156 26.097656 88.089844 26.230469 87.953125 C 26.800781 87.367188 27.339844 86.746094 27.921875 86.164062 C 27.929688 86.5625 27.933594 86.960938 27.945312 87.359375 C 28.113281 88.582031 29.582031 88.167969 29.476562 87.078125 C 29.476562 86.785156 29.46875 86.496094 29.46875 86.203125 C 30.003906 86.550781 30.554688 86.84375 30.898438 87.082031 C 31.867188 87.542969 32.484375 85.914062 31.621094 85.425781 C 30.871094 84.980469 30.148438 84.492188 29.453125 83.960938 C 29.4375 83.15625 29.410156 82.351562 29.382812 81.546875 C 30.050781 82.039062 30.660156 82.597656 31.214844 83.21875 C 31.292969 83.296875 31.382812 83.355469 31.488281 83.394531 C 31.589844 83.433594 31.695312 83.445312 31.808594 83.4375 C 31.917969 83.425781 32.019531 83.394531 32.117188 83.339844 C 32.210938 83.285156 32.292969 83.210938 32.355469 83.121094 C 32.941406 82.382812 32.242188 81.570312 31.746094 81.007812 C 31.035156 80.207031 29.992188 79.804688 29.277344 79.019531 Z M 29.277344 79.019531 " fill-opacity="1" fill-rule="nonzero"/><path fill="#545454" d="M 25.5625 96.683594 C 24.515625 96.164062 23.542969 95.535156 22.636719 94.796875 C 22.621094 94.761719 22.605469 94.726562 22.585938 94.691406 C 22.515625 93.558594 22.394531 92.429688 22.3125 91.296875 C 22.792969 92.089844 23.394531 92.773438 24.128906 93.339844 C 25.035156 93.953125 25.824219 92.507812 25.15625 91.835938 C 24.089844 90.765625 23.257812 89.5 22.320312 88.320312 C 22.230469 88.148438 22.09375 88.035156 21.90625 87.980469 C 21.722656 87.921875 21.542969 87.941406 21.375 88.03125 C 21.210938 88.046875 21.074219 88.109375 20.964844 88.226562 C 20.71875 88.558594 20.515625 88.917969 20.359375 89.296875 C 19.996094 90.414062 16.871094 94.191406 18.519531 94.839844 C 19.375 95.078125 19.589844 93.9375 19.917969 93.382812 C 20.242188 92.761719 20.597656 92.15625 20.941406 91.546875 C 21.015625 92.589844 21.117188 93.632812 21.167969 94.675781 C 20.632812 95.03125 20.351562 95.792969 20.015625 96.316406 C 19.605469 97.027344 19.152344 97.707031 18.652344 98.355469 C 18.511719 98.539062 18.445312 98.742188 18.449219 98.972656 C 18.453125 99.199219 18.527344 99.402344 18.675781 99.578125 C 19.503906 100.277344 20.480469 98.789062 21.171875 97.523438 C 21.089844 98.996094 21.171875 100.464844 21.425781 101.917969 C 21.75 103.121094 23.191406 102.417969 22.933594 101.386719 C 22.664062 99.933594 22.566406 98.464844 22.648438 96.988281 C 23.292969 97.578125 24.007812 98.070312 24.785156 98.46875 C 24.890625 98.519531 25.003906 98.542969 25.121094 98.542969 C 25.238281 98.546875 25.351562 98.523438 25.457031 98.476562 C 25.566406 98.429688 25.660156 98.367188 25.742188 98.28125 C 25.820312 98.195312 25.878906 98.097656 25.921875 97.988281 C 26.03125 97.757812 26.054688 97.515625 25.984375 97.269531 C 25.917969 97.019531 25.777344 96.824219 25.5625 96.683594 Z M 25.5625 96.683594 " fill-opacity="1" fill-rule="nonzero"/><path fill="#545454" d="M 57.726562 31.816406 C 60.183594 33.535156 65.121094 30.890625 66.769531 28.878906 C 66.933594 28.335938 67.019531 27.78125 67.023438 27.214844 C 67.046875 26.601562 67.167969 25.925781 66.894531 25.355469 C 66.578125 24.808594 66.128906 24.417969 65.546875 24.175781 C 64.859375 23.78125 64.144531 23.71875 63.398438 23.988281 C 61.511719 23.835938 59.847656 25.242188 58.664062 26.570312 C 58.070312 27.460938 57.398438 28.316406 56.890625 29.257812 C 56.742188 29.730469 56.746094 30.199219 56.898438 30.671875 C 57.054688 31.140625 57.328125 31.523438 57.726562 31.816406 Z M 62.285156 25.984375 C 62.289062 25.988281 62.402344 25.945312 62.511719 25.910156 C 62.859375 26.359375 63.542969 26.050781 64.03125 26.0625 C 64.429688 26.175781 64.785156 26.367188 65.101562 26.628906 C 65.128906 27.035156 65.085938 27.429688 64.984375 27.824219 C 63.527344 29.183594 61.773438 29.855469 59.78125 30.226562 C 59.355469 30.226562 58.792969 30.199219 58.503906 29.855469 C 59.457031 28.410156 60.578125 26.679688 62.285156 25.980469 Z M 62.285156 25.984375 " fill-opacity="1" fill-rule="nonzero"/><path fill="#545454" d="M 77.09375 27.484375 C 76.777344 27.085938 76.410156 26.441406 75.933594 26.152344 C 75.941406 26.015625 75.949219 25.875 75.957031 25.738281 C 75.945312 25.265625 75.976562 24.792969 76.046875 24.328125 C 76.269531 24.828125 76.523438 25.3125 76.800781 25.78125 C 76.914062 26.011719 77.097656 26.152344 77.347656 26.203125 C 77.554688 26.230469 77.742188 26.183594 77.910156 26.058594 C 78.902344 25.222656 77.761719 24.023438 77.386719 23.144531 C 77.136719 22.65625 76.917969 22.144531 76.699219 21.640625 C 76.65625 21.308594 76.472656 21.109375 76.148438 21.035156 C 76.070312 21.023438 75.992188 21.027344 75.914062 21.046875 C 75.902344 21.046875 75.894531 21.039062 75.882812 21.039062 C 74.898438 20.960938 74.316406 22.003906 73.691406 22.609375 C 73.164062 23.3125 71.726562 24.265625 72.640625 25.183594 C 72.789062 25.289062 72.957031 25.324219 73.136719 25.292969 C 73.316406 25.261719 73.460938 25.171875 73.566406 25.023438 C 73.933594 24.640625 74.28125 24.238281 74.632812 23.84375 C 74.582031 24.449219 74.515625 25.066406 74.449219 25.6875 C 74.105469 26 73.792969 26.34375 73.511719 26.710938 C 72.996094 27.398438 71.746094 28.257812 72.496094 29.183594 C 73.0625 29.6875 73.691406 29.105469 74.230469 28.445312 C 74.191406 29.253906 74.222656 30.058594 74.324219 30.863281 C 74.5625 31.867188 75.804688 31.515625 75.796875 30.597656 C 75.75 29.925781 75.746094 29.253906 75.78125 28.582031 C 75.808594 28.621094 75.832031 28.660156 75.859375 28.695312 C 76.621094 29.613281 77.695312 28.285156 77.09375 27.484375 Z M 77.09375 27.484375 " fill-opacity="1" fill-rule="nonzero"/><path fill="#545454" d="M 52.289062 52.5625 C 51.757812 52.210938 51.433594 51.570312 51.003906 51.113281 C 51 51.035156 50.984375 50.960938 50.953125 50.890625 C 50.960938 50.816406 50.964844 50.738281 50.96875 50.664062 C 51.011719 50.042969 51.023438 49.417969 51.039062 48.792969 C 51.269531 49.367188 51.628906 49.84375 52.117188 50.222656 C 52.28125 50.339844 52.464844 50.382812 52.667969 50.351562 C 52.867188 50.316406 53.027344 50.21875 53.144531 50.050781 C 53.75 49.292969 53.015625 48.652344 52.574219 48.0625 C 52.015625 47.285156 51.8125 45.019531 50.527344 45.324219 C 50.320312 45.394531 50.164062 45.523438 50.058594 45.710938 C 49.953125 45.902344 49.921875 46.101562 49.96875 46.316406 C 49.589844 46.664062 49.234375 47.03125 48.894531 47.421875 C 48.355469 48.15625 46.890625 49.207031 47.808594 50.144531 C 47.960938 50.253906 48.125 50.292969 48.308594 50.261719 C 48.492188 50.230469 48.636719 50.140625 48.746094 49.988281 C 49.019531 49.609375 49.3125 49.246094 49.625 48.902344 C 49.601562 49.621094 49.570312 50.34375 49.519531 51.0625 C 49.15625 51.464844 48.78125 51.851562 48.390625 52.222656 C 47.742188 52.839844 46.457031 53.890625 47.363281 54.796875 C 47.5 54.898438 47.652344 54.941406 47.820312 54.925781 C 47.992188 54.910156 48.132812 54.839844 48.25 54.71875 C 48.59375 54.339844 48.949219 53.976562 49.304688 53.613281 C 49.238281 54.433594 49.242188 55.292969 49.691406 55.863281 C 50.273438 56.320312 50.992188 55.609375 50.890625 54.980469 C 50.816406 54.515625 50.78125 54.042969 50.789062 53.570312 C 50.910156 53.71875 51.039062 53.859375 51.171875 53.992188 C 52.019531 54.808594 53.039062 53.25 52.289062 52.5625 Z M 52.289062 52.5625 " fill-opacity="1" fill-rule="nonzero"/><path fill="#545454" d="M 81.707031 51.117188 C 81.667969 51.003906 81.617188 50.894531 81.550781 50.796875 C 81.640625 50.285156 81.339844 49.6875 80.671875 49.808594 C 79.777344 50.039062 79.394531 51.019531 78.902344 51.714844 C 78.535156 52.554688 77.121094 53.59375 78.023438 54.496094 C 78.601562 54.945312 79.214844 54.125 79.757812 53.214844 C 79.722656 54.019531 79.71875 54.824219 79.71875 55.632812 C 79.648438 55.738281 79.582031 55.847656 79.523438 55.960938 C 79.113281 56.828125 77.578125 57.523438 78.195312 58.605469 C 78.644531 59.144531 79.199219 58.804688 79.707031 58.234375 C 79.691406 58.878906 79.660156 59.515625 79.597656 60.15625 C 79.578125 60.351562 79.632812 60.527344 79.757812 60.679688 C 79.886719 60.832031 80.050781 60.917969 80.246094 60.933594 C 80.449219 60.910156 80.617188 60.820312 80.75 60.667969 C 80.886719 60.515625 80.949219 60.339844 80.945312 60.132812 C 80.992188 59.378906 81.074219 58.621094 81.132812 57.863281 C 81.273438 58.09375 81.410156 58.328125 81.550781 58.554688 C 82.300781 59.527344 83.46875 58.117188 82.828125 57.304688 C 82.347656 56.792969 82.035156 55.964844 81.542969 55.414062 C 81.542969 55.378906 81.535156 55.347656 81.53125 55.316406 C 81.472656 55.109375 81.359375 54.941406 81.1875 54.8125 C 81.175781 54.300781 81.167969 53.789062 81.171875 53.277344 C 81.488281 53.851562 81.804688 54.421875 82.136719 54.980469 C 82.199219 55.070312 82.277344 55.140625 82.375 55.195312 C 82.46875 55.25 82.570312 55.28125 82.679688 55.289062 C 82.785156 55.300781 82.890625 55.285156 82.992188 55.246094 C 83.09375 55.207031 83.183594 55.144531 83.257812 55.066406 C 83.417969 54.90625 83.515625 54.714844 83.550781 54.492188 C 83.585938 54.273438 83.554688 54.058594 83.453125 53.859375 C 82.933594 52.902344 82.351562 51.992188 81.707031 51.117188 Z M 81.707031 51.117188 " fill-opacity="1" fill-rule="nonzero"/><path fill="#545454" d="M 30.59375 54.433594 C 30.558594 54.253906 30.46875 54.113281 30.324219 54.007812 C 30.179688 53.902344 30.015625 53.859375 29.835938 53.882812 C 28.527344 54.359375 29.558594 55.855469 30.222656 56.464844 C 30.828125 57.140625 31.265625 57.730469 31.878906 58.472656 C 32.644531 59.246094 33.644531 57.882812 33.046875 57.167969 C 32.28125 56.210938 31.464844 55.296875 30.59375 54.433594 Z M 30.59375 54.433594 " fill-opacity="1" fill-rule="nonzero"/><path fill="#545454" d="M 36.671875 61.1875 C 36.117188 60.703125 35.628906 60.160156 35.207031 59.558594 C 35.148438 59.476562 35.078125 59.414062 34.992188 59.363281 C 34.910156 59.316406 34.816406 59.289062 34.71875 59.28125 C 34.621094 59.273438 34.527344 59.285156 34.433594 59.320312 C 34.34375 59.355469 34.261719 59.410156 34.195312 59.480469 C 33.25 60.464844 35.144531 61.949219 35.800781 62.644531 C 36.664062 63.253906 37.417969 61.746094 36.671875 61.1875 Z M 36.671875 61.1875 " fill-opacity="1" fill-rule="nonzero"/><path fill="#545454" d="M 40.058594 67.671875 C 40.964844 66.59375 39.289062 65.605469 38.898438 64.648438 C 38.867188 64.539062 38.8125 64.445312 38.734375 64.363281 C 38.660156 64.28125 38.566406 64.222656 38.460938 64.183594 C 38.355469 64.144531 38.246094 64.132812 38.132812 64.148438 C 38.023438 64.160156 37.917969 64.199219 37.828125 64.261719 C 36.734375 65.175781 38.546875 66.714844 39.03125 67.589844 C 39.089844 67.671875 39.160156 67.738281 39.246094 67.785156 C 39.332031 67.835938 39.425781 67.863281 39.527344 67.871094 C 39.625 67.878906 39.722656 67.867188 39.816406 67.832031 C 39.910156 67.796875 39.992188 67.742188 40.058594 67.671875 Z M 40.058594 67.671875 " fill-opacity="1" fill-rule="nonzero"/><path fill="#545454" d="M 41.808594 70.210938 C 41.804688 69.996094 41.722656 69.816406 41.5625 69.675781 C 41.402344 69.535156 41.214844 69.472656 41 69.496094 C 40.785156 69.558594 40.613281 69.679688 40.492188 69.867188 C 40.367188 70.050781 40.316406 70.257812 40.34375 70.476562 C 40.398438 71.542969 40.945312 72.492188 41.3125 73.472656 C 41.765625 74.523438 43.019531 73.632812 42.652344 72.753906 C 42.351562 71.921875 41.84375 71.109375 41.808594 70.210938 Z M 41.808594 70.210938 " fill-opacity="1" fill-rule="nonzero"/><path fill="#545454" d="M 42.398438 78.191406 C 42.6875 79.667969 42.691406 81.1875 43.027344 82.660156 C 43.042969 82.761719 43.082031 82.859375 43.136719 82.945312 C 43.195312 83.035156 43.269531 83.105469 43.355469 83.160156 C 43.445312 83.21875 43.542969 83.253906 43.644531 83.269531 C 43.75 83.28125 43.851562 83.273438 43.953125 83.246094 C 44.816406 82.902344 44.4375 81.871094 44.335938 81.179688 C 44.191406 80.019531 43.984375 78.863281 43.71875 77.722656 C 43.421875 76.675781 42.179688 77.277344 42.398438 78.191406 Z M 42.398438 78.191406 " fill-opacity="1" fill-rule="nonzero"/><path fill="#545454" d="M 43.800781 86.769531 C 43.648438 86.890625 43.546875 87.042969 43.496094 87.230469 C 43.445312 87.414062 43.449219 87.597656 43.515625 87.78125 C 43.488281 88.128906 43.4375 88.472656 43.359375 88.8125 C 43.257812 89.675781 42.308594 91.210938 43.539062 91.609375 C 44.699219 91.648438 44.5 90.042969 44.742188 89.261719 C 44.890625 88.484375 45.246094 86.136719 43.800781 86.769531 Z M 43.800781 86.769531 " fill-opacity="1" fill-rule="nonzero"/><path fill="#545454" d="M 41.871094 93.136719 C 41.589844 93.320312 41.285156 93.421875 40.949219 93.445312 C 40.039062 93.621094 38.367188 93.160156 38.285156 94.5 C 38.261719 94.730469 38.324219 94.933594 38.472656 95.113281 C 38.621094 95.289062 38.808594 95.386719 39.039062 95.40625 C 40.175781 95.390625 43.160156 95.21875 42.789062 93.53125 C 42.761719 93.441406 42.714844 93.359375 42.652344 93.285156 C 42.585938 93.214844 42.511719 93.160156 42.421875 93.121094 C 42.332031 93.082031 42.242188 93.066406 42.144531 93.066406 C 42.046875 93.070312 41.957031 93.09375 41.871094 93.136719 Z M 41.871094 93.136719 " fill-opacity="1" fill-rule="nonzero"/><path fill="#545454" d="M 37.328125 88.394531 C 36.210938 88.289062 36.292969 90.453125 36.339844 91.203125 C 36.503906 92.355469 37.902344 91.964844 37.789062 90.9375 C 37.507812 90.128906 38.457031 88.753906 37.328125 88.394531 Z M 37.328125 88.394531 " fill-opacity="1" fill-rule="nonzero"/><path fill="#545454" d="M 38.574219 86.652344 C 38.761719 86.667969 38.933594 86.621094 39.085938 86.507812 C 39.242188 86.394531 39.335938 86.246094 39.378906 86.058594 C 39.707031 85.203125 40.335938 84.5 40.828125 83.734375 C 41.378906 82.933594 40.367188 81.792969 39.644531 82.660156 C 39.035156 83.496094 36.980469 85.992188 38.574219 86.652344 Z M 38.574219 86.652344 " fill-opacity="1" fill-rule="nonzero"/><path fill="#545454" d="M 49.296875 78.410156 C 48.570312 78.507812 47.890625 78.730469 47.25 79.085938 C 46.933594 79.148438 46.726562 79.335938 46.632812 79.644531 C 46.546875 79.804688 46.519531 79.96875 46.550781 80.148438 C 46.578125 80.324219 46.660156 80.476562 46.792969 80.597656 C 46.925781 80.71875 47.082031 80.789062 47.257812 80.804688 C 47.4375 80.820312 47.605469 80.777344 47.753906 80.679688 C 48.300781 80.441406 48.867188 80.285156 49.460938 80.214844 C 50.4375 80.046875 50.367188 78.273438 49.296875 78.410156 Z M 49.296875 78.410156 " fill-opacity="1" fill-rule="nonzero"/><path fill="#545454" d="M 52.019531 78.707031 C 52.039062 78.90625 52.128906 79.058594 52.292969 79.171875 C 52.453125 79.285156 52.628906 79.320312 52.820312 79.273438 C 53.777344 79.089844 54.757812 78.875 55.726562 79.097656 C 56.421875 79.292969 57.277344 78.546875 56.882812 77.839844 C 56.367188 76.921875 51.832031 77.457031 52.019531 78.707031 Z M 52.019531 78.707031 " fill-opacity="1" fill-rule="nonzero"/><path fill="#545454" d="M 66.574219 78.347656 C 65.25 77.929688 63.890625 77.667969 62.503906 77.558594 C 61.878906 77.542969 61.082031 77.671875 60.84375 78.300781 C 60.566406 78.859375 61.207031 79.378906 61.75 79.175781 C 63.171875 79.230469 64.554688 79.664062 65.953125 79.910156 C 66.1875 79.953125 66.40625 79.917969 66.613281 79.804688 C 66.820312 79.691406 66.972656 79.527344 67.066406 79.308594 C 67.105469 79.214844 67.125 79.113281 67.125 79.007812 C 67.121094 78.90625 67.09375 78.804688 67.046875 78.714844 C 67 78.621094 66.933594 78.542969 66.851562 78.476562 C 66.769531 78.414062 66.675781 78.371094 66.574219 78.347656 Z M 66.574219 78.347656 " fill-opacity="1" fill-rule="nonzero"/><path fill="#545454" d="M 72.277344 79.453125 C 71.695312 79.339844 71.097656 79.027344 70.496094 79.128906 C 69.636719 79.242188 69.367188 80.566406 70.355469 80.6875 C 71.351562 81.011719 72.371094 81.273438 73.402344 81.46875 C 74.066406 81.625 74.84375 80.882812 74.464844 80.230469 C 73.925781 79.675781 72.980469 79.730469 72.277344 79.453125 Z M 72.277344 79.453125 " fill-opacity="1" fill-rule="nonzero"/><path fill="#545454" d="M 79.988281 80.894531 C 79.453125 80.828125 78.933594 80.707031 78.421875 80.527344 C 77.695312 79.902344 76.582031 80.984375 77.289062 81.71875 C 78.121094 82.453125 79.335938 82.429688 80.378906 82.59375 C 81.054688 82.6875 81.761719 81.820312 81.265625 81.234375 C 80.9375 80.902344 80.414062 80.988281 79.988281 80.894531 Z M 79.988281 80.894531 " fill-opacity="1" fill-rule="nonzero"/><path fill="#545454" d="M 88.554688 80.097656 C 87.609375 80.589844 86.539062 80.746094 85.527344 81.0625 C 85.308594 81.125 85.136719 81.25 85.007812 81.4375 C 84.882812 81.628906 84.835938 81.835938 84.863281 82.0625 C 85.140625 82.960938 86.246094 82.4375 86.886719 82.316406 C 88.28125 82.003906 89.519531 81.378906 90.597656 80.445312 C 90.761719 80.328125 90.859375 80.171875 90.894531 79.972656 C 90.925781 79.777344 90.882812 79.59375 90.761719 79.433594 C 90.035156 78.78125 89.253906 79.851562 88.554688 80.097656 Z M 88.554688 80.097656 " fill-opacity="1" fill-rule="nonzero"/><path fill="#545454" d="M 95.859375 72.78125 C 94.671875 72.742188 94.800781 74.417969 94.136719 75.132812 C 93.792969 75.734375 92.71875 76.4375 93.472656 77.144531 C 94.84375 78.414062 97.699219 72.945312 95.859375 72.78125 Z M 95.859375 72.78125 " fill-opacity="1" fill-rule="nonzero"/><path fill="#545454" d="M 96.171875 69.28125 C 95.890625 68.542969 95.109375 65.394531 93.984375 66.179688 C 93.816406 66.324219 93.714844 66.5 93.675781 66.71875 C 93.636719 66.933594 93.667969 67.140625 93.777344 67.332031 C 94.195312 68.113281 94.507812 68.9375 94.71875 69.796875 C 95.074219 70.964844 96.457031 70.328125 96.171875 69.28125 Z M 96.171875 69.28125 " fill-opacity="1" fill-rule="nonzero"/><path fill="#545454" d="M 90.160156 59.476562 C 89.839844 59.875 90.007812 60.457031 90.246094 60.847656 C 90.730469 61.601562 91.179688 62.378906 91.671875 63.125 C 91.734375 63.214844 91.8125 63.289062 91.90625 63.34375 C 92 63.398438 92.101562 63.429688 92.210938 63.4375 C 92.320312 63.449219 92.421875 63.433594 92.527344 63.394531 C 92.628906 63.355469 92.714844 63.296875 92.792969 63.21875 C 93.75 62.035156 91.710938 60.566406 91.273438 59.480469 C 91.210938 59.382812 91.132812 59.304688 91.035156 59.25 C 90.9375 59.195312 90.828125 59.167969 90.714844 59.167969 C 90.601562 59.164062 90.496094 59.191406 90.398438 59.25 C 90.296875 59.304688 90.21875 59.378906 90.160156 59.476562 Z M 90.160156 59.476562 " fill-opacity="1" fill-rule="nonzero"/><path fill="#545454" d="M 87.875 54.316406 C 88.019531 55.132812 88.222656 55.933594 88.441406 56.734375 C 88.5625 57.144531 88.738281 57.710938 89.203125 57.851562 C 89.953125 58.085938 90.402344 57.035156 89.96875 56.488281 C 89.726562 55.644531 89.578125 54.773438 89.351562 53.925781 C 89.050781 52.851562 87.714844 53.296875 87.875 54.316406 Z M 87.875 54.316406 " fill-opacity="1" fill-rule="nonzero"/><path fill="#545454" d="M 89 51.253906 C 90.222656 51.6875 90.117188 49.644531 90.730469 49.042969 C 91.714844 48.828125 91.433594 47.042969 90.402344 47.34375 C 89.261719 47.753906 89.09375 49.160156 88.65625 50.140625 C 88.574219 50.34375 88.5625 50.550781 88.628906 50.761719 C 88.695312 50.96875 88.816406 51.132812 89 51.253906 Z M 89 51.253906 " fill-opacity="1" fill-rule="nonzero"/><path fill="#545454" d="M 95.988281 47.105469 C 95.214844 46.90625 94.171875 46.066406 93.527344 46.894531 C 92.964844 47.820312 94.308594 48.046875 94.914062 48.328125 C 95.777344 48.625 96.476562 49.144531 97.011719 49.886719 C 97.15625 50.042969 97.335938 50.132812 97.550781 50.160156 C 97.761719 50.183594 97.957031 50.132812 98.136719 50.011719 C 99.398438 49.019531 96.867188 47.410156 95.988281 47.105469 Z M 95.988281 47.105469 " fill-opacity="1" fill-rule="nonzero"/><path fill="#545454" d="M 100.714844 52.367188 C 101.285156 52.828125 101.917969 53.394531 102.589844 53.910156 C 103.261719 54.4375 104.460938 53.476562 103.78125 52.78125 C 103.121094 52.175781 102.445312 51.589844 101.738281 51.039062 C 101.265625 50.59375 100.5 50.222656 99.976562 50.800781 C 99.371094 51.453125 100.214844 52.011719 100.714844 52.367188 Z M 100.714844 52.367188 " fill-opacity="1" fill-rule="nonzero"/><path fill="#545454" d="M 110.484375 56.25 C 109.953125 55.917969 109.402344 55.617188 108.863281 55.304688 C 108.441406 55.054688 107.976562 54.730469 107.457031 54.820312 C 106.878906 54.890625 106.402344 55.664062 106.910156 56.109375 C 107.679688 56.695312 108.503906 57.191406 109.386719 57.597656 C 110.191406 58.046875 111.351562 56.902344 110.484375 56.25 Z M 110.484375 56.25 " fill-opacity="1" fill-rule="nonzero"/><path fill="#545454" d="M 113.925781 57.117188 C 113.722656 57.023438 113.511719 57.007812 113.292969 57.066406 C 113.078125 57.121094 112.902344 57.242188 112.769531 57.421875 C 111.863281 58.667969 115.910156 59.605469 116.722656 59.65625 C 117.664062 59.851562 118.304688 58.523438 117.214844 58.242188 C 116.0625 58.03125 114.964844 57.65625 113.925781 57.117188 Z M 113.925781 57.117188 " fill-opacity="1" fill-rule="nonzero"/><path fill="#545454" d="M 120.792969 60.183594 C 122.171875 60.367188 123.464844 59.789062 124.699219 59.25 C 125.175781 59.125 125.824219 58.820312 125.644531 58.21875 C 125.152344 57.058594 122.988281 58.699219 122.019531 58.664062 C 121.328125 58.726562 120.277344 58.441406 120.074219 59.371094 C 120.058594 59.472656 120.066406 59.574219 120.097656 59.675781 C 120.128906 59.773438 120.179688 59.863281 120.246094 59.941406 C 120.316406 60.019531 120.398438 60.078125 120.492188 60.121094 C 120.585938 60.164062 120.6875 60.1875 120.792969 60.183594 Z M 120.792969 60.183594 " fill-opacity="1" fill-rule="nonzero"/><path fill="#545454" d="M 127.757812 54.960938 C 127.625 55.746094 126.527344 56.449219 127.191406 57.25 C 128.550781 58.269531 129.375 54.957031 129.417969 54.035156 C 129.558594 53.550781 129.519531 52.851562 128.917969 52.730469 C 127.789062 52.675781 128.003906 54.214844 127.757812 54.960938 Z M 127.757812 54.960938 " fill-opacity="1" fill-rule="nonzero"/><path fill="#545454" d="M 125.945312 49.148438 C 126.472656 49.652344 126.921875 50.214844 127.292969 50.84375 C 127.347656 50.925781 127.417969 50.992188 127.5 51.046875 C 127.585938 51.097656 127.679688 51.128906 127.777344 51.136719 C 127.878906 51.148438 127.972656 51.136719 128.066406 51.101562 C 128.160156 51.070312 128.242188 51.019531 128.3125 50.949219 C 129.25 49.898438 127.582031 48.691406 126.964844 47.90625 C 126.21875 47.175781 125.308594 48.515625 125.945312 49.148438 Z M 125.945312 49.148438 " fill-opacity="1" fill-rule="nonzero"/><path fill="#545454" d="M 123.757812 45.128906 C 123.148438 44.816406 122.347656 43.875 121.691406 44.585938 C 120.910156 45.648438 122.332031 46.179688 123.039062 46.679688 C 123.9375 47.15625 124.570312 45.589844 123.757812 45.128906 Z M 123.757812 45.128906 " fill-opacity="1" fill-rule="nonzero"/></g></g></svg>