<svg xmlns="http://www.w3.org/2000/svg" xmlns:xlink="http://www.w3.org/1999/xlink" width="189" zoomAndPan="magnify" viewBox="0 0 141.75 141.750002" height="189" preserveAspectRatio="xMidYMid meet" version="1.0"><defs><clipPath id="feb121bc33"><path d="M 0.367188 1.113281 L 138.890625 1.113281 L 138.890625 140.386719 L 0.367188 140.386719 Z M 0.367188 1.113281 " clip-rule="nonzero"/></clipPath><clipPath id="85df4d77ab"><rect x="0" width="140" y="0" height="141"/></clipPath></defs><g transform="matrix(1, 0, 0, 1, 1, 0.000000000000031641)"><g clip-path="url(#85df4d77ab)"><g clip-path="url(#feb121bc33)"><path fill="#545454" d="M 74.1875 140.367188 C 72.699219 140.367188 71.203125 140.308594 69.679688 140.183594 C 50.980469 141 34.335938 133.855469 21.546875 119.511719 C 10.335938 106.9375 2.855469 89.6875 0.484375 70.929688 C 0.144531 67.839844 0.710938 64.398438 1.253906 61.074219 C 1.511719 59.515625 1.777344 57.90625 1.941406 56.371094 C 1.957031 56.242188 1.980469 56.113281 2.019531 55.992188 C 2.0625 55.855469 2.117188 55.609375 2.152344 55.40625 C 2.820312 38.449219 14.636719 22.675781 36.324219 9.78125 C 36.664062 9.566406 37.0625 9.347656 37.457031 9.148438 C 39.054688 8.195312 40.664062 7.574219 42.21875 6.972656 C 43.417969 6.507812 44.546875 6.074219 45.589844 5.515625 C 45.707031 5.449219 45.835938 5.398438 45.964844 5.359375 C 46.023438 5.34375 46.070312 5.320312 46.125 5.296875 L 46.175781 5.277344 C 46.210938 5.265625 46.242188 5.253906 46.273438 5.242188 C 47.964844 4.605469 49.59375 4.171875 51.164062 3.753906 C 52.019531 3.527344 52.90625 3.289062 53.785156 3.023438 C 53.84375 3.007812 53.902344 2.992188 53.960938 2.980469 C 54.046875 2.964844 54.132812 2.941406 54.222656 2.917969 C 54.40625 2.871094 54.601562 2.824219 54.824219 2.78125 C 55.796875 2.558594 56.792969 2.4375 57.753906 2.320312 C 58.925781 2.179688 60.03125 2.042969 60.964844 1.753906 C 60.984375 1.746094 61.007812 1.738281 61.027344 1.734375 C 61.164062 1.695312 61.492188 1.617188 61.875 1.605469 C 62.007812 1.578125 62.1875 1.546875 62.410156 1.546875 C 62.453125 1.546875 62.5 1.542969 62.550781 1.542969 C 62.636719 1.539062 62.757812 1.53125 62.816406 1.523438 C 62.929688 1.5 63.035156 1.492188 63.148438 1.488281 C 64.210938 1.429688 65.238281 1.382812 66.289062 1.335938 C 67.34375 1.289062 68.425781 1.246094 69.59375 1.179688 C 72.949219 0.945312 77.84375 1.363281 81.785156 2.226562 C 82.328125 2.296875 82.894531 2.402344 83.472656 2.542969 C 83.507812 2.550781 83.542969 2.5625 83.582031 2.570312 C 92.664062 5.304688 103.679688 10.648438 112.289062 16.390625 C 112.433594 16.402344 112.597656 16.425781 112.765625 16.464844 C 113.425781 16.628906 113.933594 17.097656 114.171875 17.683594 C 114.832031 18.148438 115.476562 18.617188 116.101562 19.082031 C 116.242188 19.1875 116.371094 19.308594 116.480469 19.449219 C 116.523438 19.503906 116.566406 19.550781 116.597656 19.589844 C 116.683594 19.640625 116.765625 19.699219 116.84375 19.765625 C 117.195312 20.046875 117.558594 20.40625 117.878906 20.726562 C 118.003906 20.847656 118.121094 20.96875 118.226562 21.066406 C 118.296875 21.132812 118.363281 21.203125 118.421875 21.277344 C 118.445312 21.296875 118.46875 21.316406 118.492188 21.339844 C 118.71875 21.539062 118.996094 21.785156 119.242188 22.125 C 119.371094 22.292969 119.539062 22.453125 119.734375 22.636719 C 119.925781 22.820312 120.140625 23.023438 120.34375 23.265625 C 120.585938 23.492188 120.761719 23.699219 120.90625 23.871094 C 120.984375 23.957031 121.058594 24.054688 121.160156 24.15625 C 121.207031 24.199219 121.25 24.246094 121.292969 24.296875 C 134.460938 39.984375 140.082031 54.714844 138.96875 70.632812 C 139.144531 72.308594 138.992188 73.796875 138.835938 75.238281 C 138.785156 75.703125 138.738281 76.171875 138.703125 76.644531 C 138.695312 76.824219 138.675781 77.023438 138.636719 77.246094 C 138.589844 77.890625 138.503906 78.464844 138.429688 78.972656 C 138.351562 79.488281 138.285156 79.9375 138.261719 80.398438 C 138.261719 80.488281 138.253906 80.570312 138.25 80.632812 C 138.242188 80.761719 138.226562 80.886719 138.199219 81.011719 C 131.570312 110.53125 107.144531 140.363281 74.179688 140.367188 L 74.179688 140.359375 Z M 69.71875 136.109375 C 69.773438 136.109375 69.832031 136.109375 69.886719 136.117188 C 101.671875 138.785156 125.832031 111.46875 133.433594 83.355469 C 133.367188 83.332031 133.304688 83.304688 133.246094 83.269531 C 130.964844 82.09375 129.941406 79.902344 129.269531 78.375 C 129.085938 78.085938 128.921875 77.78125 128.773438 77.460938 C 127.429688 80.804688 123.410156 83.078125 120.507812 83.246094 C 120.390625 83.253906 120.273438 83.246094 120.15625 83.238281 C 119.578125 83.171875 119.078125 83.039062 118.644531 82.847656 C 118.671875 82.949219 118.703125 83.046875 118.734375 83.148438 C 118.9375 83.644531 119.367188 84.210938 119.820312 84.808594 C 120.964844 86.332031 122.542969 88.421875 121.683594 91.320312 C 121.664062 91.378906 121.644531 91.445312 121.621094 91.503906 C 120.25 94.882812 117.601562 96.726562 115.265625 98.347656 C 113.40625 99.636719 111.800781 100.753906 111.21875 102.363281 C 111.199219 102.421875 111.171875 102.480469 111.148438 102.539062 C 110.449219 104.023438 110.355469 105.554688 110.25 107.175781 C 110.152344 108.71875 110.054688 110.3125 109.425781 111.910156 C 109.40625 111.957031 109.382812 112.007812 109.359375 112.054688 C 108.535156 113.734375 107.183594 114.648438 105.988281 115.457031 C 105.289062 115.929688 104.628906 116.378906 104.085938 116.960938 C 104.054688 116.992188 104.023438 117.027344 103.988281 117.058594 C 102.742188 118.222656 101.523438 119.605469 100.347656 120.941406 C 98.03125 123.570312 95.640625 126.292969 92.664062 127.8125 C 92.648438 127.820312 92.632812 127.828125 92.613281 127.839844 C 90.6875 128.753906 87.890625 129.800781 85.832031 128.320312 C 83.785156 126.851562 83.839844 123.898438 84.082031 121.746094 C 84.0625 118.984375 84.570312 116.503906 85.179688 113.785156 C 85.203125 113.671875 85.238281 113.5625 85.28125 113.457031 C 86.347656 110.863281 87.015625 107.867188 87.273438 104.558594 C 87.277344 104.5 87.289062 104.433594 87.296875 104.371094 C 87.589844 102.652344 87.425781 100.761719 87.265625 98.9375 C 87.066406 96.6875 86.878906 94.5625 87.460938 92.582031 C 88.304688 89.363281 88.089844 88.617188 87.957031 88.441406 C 87.851562 88.304688 87.246094 87.863281 83.867188 87.835938 C 82.53125 87.992188 81.304688 87.988281 79.6875 87.820312 C 78.621094 87.785156 77.195312 87.722656 75.972656 86.742188 C 74.039062 85.253906 73.238281 83.058594 72.597656 81.300781 C 72.460938 80.925781 72.324219 80.554688 72.183594 80.195312 C 71.414062 78.171875 71.441406 76.246094 71.46875 74.539062 L 71.46875 74.414062 C 71.433594 72.363281 71.757812 70.023438 72.371094 67.945312 C 72.566406 64.835938 74.878906 62.785156 76.578125 61.273438 C 77.03125 60.871094 77.457031 60.488281 77.792969 60.140625 C 77.828125 60.101562 77.871094 60.0625 77.914062 60.027344 C 78.535156 59.476562 79.121094 58.835938 79.742188 58.152344 C 81.726562 55.972656 84.191406 53.265625 88.765625 53.246094 C 91.292969 53.199219 94.839844 53.613281 97.292969 55.894531 C 97.3125 55.914062 97.332031 55.933594 97.351562 55.957031 C 97.703125 56.3125 98.039062 56.703125 98.363281 57.074219 C 99.082031 57.902344 99.898438 58.835938 100.542969 59.007812 C 100.648438 59.035156 100.753906 59.070312 100.855469 59.117188 C 101.796875 59.546875 102.949219 59.640625 104.160156 59.738281 C 105.398438 59.839844 106.679688 59.945312 107.941406 60.398438 C 108.773438 60.488281 109.675781 60.679688 110.550781 60.863281 C 111.613281 61.089844 113.539062 61.496094 114.191406 61.300781 C 114.21875 61.148438 114.25 60.765625 114.089844 60.007812 C 113.609375 58.964844 112.835938 58.347656 111.867188 57.574219 C 110.730469 56.664062 109.316406 55.535156 108.335938 53.542969 C 108.261719 53.390625 108.203125 53.234375 108.171875 53.074219 C 108.097656 52.75 107.695312 52.1875 107.367188 51.898438 C 107.296875 52.042969 107.222656 52.21875 107.164062 52.339844 C 106.992188 52.734375 106.8125 53.136719 106.570312 53.496094 C 106.492188 53.613281 106.398438 53.722656 106.296875 53.824219 C 105.492188 54.601562 104.464844 54.886719 103.476562 54.605469 C 101.6875 54.101562 100.898438 51.941406 100.644531 51.042969 C 100.429688 50.542969 100.242188 50.027344 100.070312 49.527344 C 99.761719 48.667969 99.449219 47.773438 99.058594 47.328125 C 99.019531 47.28125 98.980469 47.234375 98.941406 47.183594 C 97.933594 45.785156 95.878906 45.695312 94.84375 46.171875 C 94.730469 46.21875 94.613281 46.261719 94.488281 46.296875 C 93.429688 46.5625 92.019531 47.882812 90.613281 49.917969 C 90.59375 49.949219 90.566406 49.980469 90.546875 50.007812 C 88.992188 52.015625 87.269531 52.082031 86.382812 51.945312 C 84.945312 51.722656 83.722656 50.691406 83.191406 49.25 C 82.695312 47.898438 82.929688 46.472656 83.820312 45.445312 C 83.882812 45.375 83.949219 45.308594 84.019531 45.246094 C 85.085938 44.3125 86.335938 44.226562 87.164062 44.167969 C 87.378906 44.152344 87.683594 44.132812 87.835938 44.09375 C 87.898438 43.8125 87.871094 43.148438 87.851562 42.738281 C 87.800781 41.761719 87.746094 40.664062 88.183594 39.625 C 88.78125 37.824219 90.472656 36.898438 91.722656 36.21875 C 92.203125 35.953125 92.808594 35.628906 93.003906 35.414062 C 93.046875 35.367188 93.09375 35.324219 93.140625 35.28125 C 96.191406 32.53125 98.683594 33.066406 100.5 33.457031 C 101.496094 33.671875 102.285156 33.835938 103.234375 33.566406 C 105.40625 32.738281 107.574219 30.710938 108.015625 29.484375 C 107.941406 29.144531 107.597656 28.433594 107.386719 27.988281 C 107.25 27.707031 107.113281 27.429688 106.988281 27.148438 C 106.882812 26.964844 106.773438 26.785156 106.675781 26.605469 C 106.144531 25.683594 105.851562 25.195312 105.332031 24.855469 C 105.164062 24.886719 104.867188 25.109375 104.800781 25.265625 C 104.746094 25.460938 104.667969 25.625 104.558594 25.792969 C 104.390625 26.0625 104.136719 27.054688 103.96875 27.703125 C 103.476562 29.597656 103.015625 31.390625 101.585938 32.144531 C 100.914062 32.496094 100.148438 32.550781 99.421875 32.289062 C 99.332031 32.253906 99.242188 32.214844 99.15625 32.171875 C 97.867188 31.484375 97.03125 30.332031 96.355469 29.410156 C 96.234375 29.238281 96.109375 29.070312 95.984375 28.90625 C 95.128906 27.84375 93.207031 25.441406 94.714844 23.183594 C 95.210938 22.179688 96.046875 21.449219 96.730469 20.851562 C 97.019531 20.597656 97.320312 20.335938 97.476562 20.148438 C 97.542969 20.074219 97.613281 20.003906 97.6875 19.933594 C 99.234375 18.5625 101.429688 16.890625 104.28125 16.230469 C 98.066406 12.648438 91.15625 9.429688 85.042969 7.324219 C 84.90625 8.484375 84.460938 9.574219 84.132812 10.378906 L 84.097656 10.460938 C 82.65625 14.464844 77.816406 15.582031 73.925781 16.484375 C 73.347656 16.613281 72.78125 16.746094 72.246094 16.882812 C 70.925781 17.429688 70.070312 17.972656 69.121094 18.613281 C 64.140625 22.859375 60.824219 21.269531 59.289062 19.933594 C 59.183594 19.84375 59.089844 19.746094 59.007812 19.636719 C 56.105469 15.847656 57.871094 9.472656 58.765625 6.90625 C 58.824219 6.726562 58.886719 6.511719 58.953125 6.285156 C 58.726562 6.316406 58.492188 6.34375 58.265625 6.371094 C 57.96875 6.40625 57.679688 6.445312 57.398438 6.480469 C 57.40625 7.046875 57.351562 7.683594 57.226562 8.386719 C 57.210938 8.457031 57.195312 8.53125 57.175781 8.601562 C 56.585938 10.628906 55.476562 13.5625 52.632812 15.609375 C 52.601562 15.632812 52.5625 15.65625 52.527344 15.679688 C 52.152344 15.917969 51.769531 16.105469 51.378906 16.246094 C 52.332031 18.0625 52.78125 20.085938 52.742188 22.363281 C 52.914062 24.347656 52.941406 27.023438 52.144531 28.730469 C 51.449219 30.28125 50 31.289062 48.273438 31.410156 C 47.269531 31.511719 46.429688 31.273438 45.808594 31.097656 C 45.800781 31.097656 45.789062 31.089844 45.78125 31.089844 C 45.457031 32.003906 45 33.246094 43.832031 34.039062 C 43.722656 34.113281 43.601562 34.175781 43.476562 34.230469 C 42.359375 34.695312 41.136719 34.710938 39.84375 34.730469 C 38.222656 34.75 36.546875 34.777344 34.992188 35.679688 C 34.867188 35.75 34.734375 35.8125 34.597656 35.855469 C 32.824219 36.429688 31.710938 38.46875 30.425781 40.832031 C 29.292969 42.921875 28.003906 45.289062 25.945312 47.046875 C 25.875 47.105469 25.804688 47.160156 25.730469 47.207031 C 23.742188 48.492188 21.710938 48.375 20.082031 48.285156 C 19.214844 48.234375 18.394531 48.191406 17.683594 48.347656 C 17.640625 48.355469 17.597656 48.367188 17.546875 48.375 C 16.304688 48.5625 15.4375 49.511719 14.9375 50.253906 C 15.316406 50.3125 15.703125 50.375 16.085938 50.488281 C 18.398438 51.140625 18.972656 52.972656 19.351562 54.1875 C 19.421875 54.40625 19.492188 54.636719 19.578125 54.875 L 19.625 55.019531 C 20.039062 56.179688 20.59375 57.75 21.355469 58.421875 C 21.738281 58.605469 22.167969 58.59375 23.019531 58.566406 C 23.246094 58.554688 23.484375 58.546875 23.722656 58.546875 C 27.324219 58.105469 29.714844 59.46875 32.023438 60.78125 C 32.359375 60.972656 32.699219 61.164062 33.046875 61.359375 C 33.523438 61.632812 33.988281 61.890625 34.449219 62.144531 C 35.503906 62.730469 36.5 63.28125 37.328125 63.820312 C 39.558594 64.902344 40.601562 66.871094 41.441406 68.464844 C 42.046875 69.613281 42.574219 70.609375 43.410156 71.195312 C 43.472656 71.242188 43.539062 71.292969 43.597656 71.347656 C 44.46875 72.132812 45.652344 72.78125 46.898438 73.472656 C 50.171875 75.289062 54.648438 77.769531 53.503906 84.128906 C 53.503906 84.15625 53.5 84.179688 53.496094 84.207031 C 52.945312 87.371094 51.992188 90.257812 51.066406 93.054688 C 50.886719 93.589844 50.710938 94.125 50.542969 94.648438 C 50.210938 96.171875 49.300781 97.707031 48.089844 98.773438 C 48.039062 98.816406 47.984375 98.859375 47.933594 98.898438 C 47.082031 99.511719 46.1875 99.785156 45.402344 100.03125 C 44.039062 100.453125 43.742188 100.578125 43.542969 101.652344 C 43.523438 101.75 43.5 101.847656 43.46875 101.9375 C 43.316406 102.386719 43.195312 102.84375 43.066406 103.328125 C 42.878906 104.042969 42.683594 104.78125 42.363281 105.597656 C 41.625 107.398438 40.355469 108.527344 39.335938 109.433594 C 37.796875 110.804688 37.277344 111.363281 37.570312 113.046875 C 37.578125 113.113281 37.589844 113.179688 37.589844 113.25 C 37.625 113.75 37.726562 114.316406 37.832031 114.914062 C 38.070312 116.242188 38.339844 117.734375 38.039062 119.320312 C 37.914062 120.992188 37.058594 122.25 35.675781 122.78125 C 33.347656 123.679688 30.417969 122.191406 29.082031 120.84375 C 29.070312 120.832031 29.058594 120.816406 29.046875 120.804688 C 25.246094 116.769531 22.332031 101.460938 21.980469 96.09375 C 21.929688 95.460938 21.90625 94.832031 21.886719 94.222656 C 21.800781 91.945312 21.742188 90.292969 20.375 88.570312 C 19.96875 88.183594 19.582031 87.832031 19.203125 87.488281 C 18.226562 86.601562 17.214844 85.683594 16.097656 84.359375 C 16.054688 84.304688 16.007812 84.25 15.96875 84.191406 C 14.277344 81.695312 12.542969 77.515625 13.234375 73.929688 C 13.253906 73.832031 13.277344 73.734375 13.3125 73.644531 C 13.574219 72.898438 13.890625 72.230469 14.195312 71.589844 C 14.910156 70.085938 15.300781 69.183594 14.996094 68.144531 C 14.988281 68.113281 14.976562 68.082031 14.972656 68.046875 C 14.816406 67.402344 14.390625 67.042969 13.515625 66.359375 C 13.175781 66.089844 12.785156 65.785156 12.40625 65.433594 C 12.347656 65.375 12.289062 65.3125 12.230469 65.246094 C 11.277344 64.105469 10.550781 63.28125 9.277344 62.304688 C 9.117188 62.199219 8.960938 62.089844 8.804688 61.988281 C 8.300781 61.640625 7.863281 61.339844 7.398438 61.128906 C 7.367188 61.113281 7.339844 61.097656 7.308594 61.082031 C 7.050781 60.941406 6.777344 60.816406 6.492188 60.683594 C 6.183594 60.539062 5.855469 60.386719 5.523438 60.207031 C 5.441406 60.726562 5.355469 61.238281 5.269531 61.746094 C 4.746094 64.941406 4.25 67.960938 4.523438 70.464844 C 8.683594 103.3125 30.84375 137.882812 69.621094 136.117188 L 69.710938 136.117188 L 69.722656 136.113281 Z M 88.199219 124.984375 C 88.417969 125.003906 89.148438 124.964844 90.820312 124.171875 C 93.09375 122.996094 95.125 120.691406 97.273438 118.25 C 98.5 116.851562 99.769531 115.417969 101.140625 114.125 C 101.980469 113.234375 102.886719 112.621094 103.6875 112.078125 C 104.679688 111.410156 105.308594 110.960938 105.648438 110.320312 C 106.019531 109.347656 106.085938 108.214844 106.171875 106.914062 C 106.285156 105.097656 106.414062 103.042969 107.40625 100.886719 C 108.445312 98.113281 110.722656 96.53125 112.925781 95.003906 C 114.945312 93.601562 116.859375 92.269531 117.789062 90.078125 C 117.992188 89.273438 117.578125 88.617188 116.558594 87.261719 C 115.96875 86.484375 115.304688 85.601562 114.902344 84.5625 C 114.886719 84.523438 114.875 84.484375 114.859375 84.441406 C 114.058594 81.902344 113.773438 79.371094 113.492188 76.925781 C 113.441406 76.453125 113.386719 75.976562 113.328125 75.507812 C 113.320312 75.417969 113.3125 75.335938 113.316406 75.246094 C 113.316406 75.109375 113.296875 74.886719 113.277344 74.667969 C 113.1875 73.742188 113.054688 72.339844 113.960938 71.179688 C 114.46875 70.503906 115.265625 70.164062 116.09375 70.269531 C 117.5 70.445312 118.324219 71.84375 118.613281 72.4375 C 119.394531 73.703125 119.550781 75.238281 119.6875 76.59375 C 119.90625 78.769531 120.105469 79.082031 120.441406 79.160156 C 122.308594 78.945312 125.113281 77.039062 125.148438 75.164062 C 124.972656 74.277344 124.234375 73.226562 123.527344 72.210938 C 122.910156 71.328125 122.273438 70.421875 121.898438 69.464844 C 121.871094 69.394531 121.847656 69.320312 121.828125 69.25 C 121.390625 67.628906 122.226562 66.761719 122.601562 66.460938 C 124.066406 65.304688 125.863281 66.289062 127.601562 67.234375 C 127.84375 67.367188 128.171875 67.546875 128.320312 67.617188 C 128.34375 67.621094 128.363281 67.628906 128.386719 67.636719 C 128.585938 67.636719 129.117188 67.464844 129.441406 67.367188 C 129.488281 67.347656 129.535156 67.339844 129.585938 67.328125 C 131.5625 66.648438 133.28125 67.195312 134.425781 67.566406 C 134.433594 67.566406 134.433594 67.566406 134.441406 67.570312 C 134.441406 67.542969 134.445312 67.515625 134.449219 67.484375 C 134.367188 66.5625 134.289062 65.621094 134.21875 64.667969 C 133.933594 60.960938 133.636719 57.121094 132.585938 53.371094 C 132.441406 52.859375 132.507812 52.335938 132.730469 51.894531 C 130.148438 43.671875 125.359375 35.492188 118.226562 26.976562 C 118.039062 26.789062 117.898438 26.617188 117.78125 26.480469 C 117.664062 26.339844 117.605469 26.265625 117.539062 26.210938 C 117.441406 26.128906 117.355469 26.035156 117.277344 25.9375 C 117.207031 25.851562 117.070312 25.722656 116.925781 25.582031 C 116.652344 25.324219 116.316406 25.003906 115.984375 24.570312 C 115.980469 24.5625 115.976562 24.554688 115.96875 24.546875 C 115.917969 24.492188 115.847656 24.4375 115.789062 24.382812 C 115.644531 24.257812 115.5 24.125 115.367188 23.988281 C 115.316406 23.933594 115.265625 23.878906 115.222656 23.820312 C 115.152344 23.753906 115.082031 23.6875 115.007812 23.609375 C 114.820312 23.421875 114.597656 23.199219 114.417969 23.039062 C 114.152344 22.878906 113.832031 22.625 113.464844 22.191406 C 112.691406 21.617188 111.878906 21.035156 111.039062 20.460938 C 110.238281 20.441406 109.515625 20.320312 108.871094 20.21875 C 108.375 20.136719 107.914062 20.0625 107.503906 20.046875 C 107.472656 20.046875 107.441406 20.046875 107.40625 20.039062 C 105.105469 19.839844 102.960938 20.71875 100.480469 22.890625 C 100.148438 23.265625 99.769531 23.59375 99.402344 23.910156 C 99.03125 24.238281 98.464844 24.734375 98.351562 24.992188 C 98.332031 25.035156 98.3125 25.082031 98.292969 25.121094 C 98.390625 25.324219 98.625 25.695312 99.164062 26.359375 C 99.175781 26.375 99.1875 26.390625 99.195312 26.402344 C 99.34375 26.597656 99.492188 26.800781 99.636719 27 C 99.707031 27.097656 99.777344 27.195312 99.847656 27.289062 C 99.90625 27.070312 99.960938 26.855469 100.007812 26.675781 C 100.28125 25.617188 100.542969 24.613281 100.964844 23.839844 C 101.390625 22.691406 102.378906 21.675781 103.601562 21.148438 C 104.8125 20.628906 106.078125 20.652344 107.171875 21.21875 C 107.199219 21.234375 107.226562 21.25 107.25 21.265625 C 108.808594 22.171875 109.542969 23.449219 110.191406 24.578125 C 110.296875 24.769531 110.410156 24.964844 110.53125 25.164062 C 110.574219 25.238281 110.613281 25.3125 110.648438 25.394531 C 110.769531 25.664062 110.902344 25.941406 111.035156 26.21875 C 111.636719 27.464844 112.253906 28.75 112.046875 30.082031 C 112.042969 30.136719 112.027344 30.1875 112.015625 30.238281 C 111.308594 33.253906 107.679688 36.246094 104.574219 37.402344 C 104.535156 37.417969 104.496094 37.429688 104.457031 37.445312 C 102.472656 38.046875 100.894531 37.707031 99.625 37.4375 C 98.085938 37.105469 97.371094 36.953125 95.902344 38.253906 C 95.257812 38.914062 94.441406 39.359375 93.652344 39.792969 C 93.160156 40.0625 92.128906 40.621094 92.03125 40.90625 C 92 41.007812 91.964844 41.105469 91.917969 41.203125 C 91.84375 41.402344 91.878906 42.085938 91.898438 42.535156 C 91.90625 42.667969 91.914062 42.8125 91.917969 42.964844 C 92.375 42.71875 92.835938 42.527344 93.292969 42.394531 C 96.003906 41.242188 99.992188 41.792969 102.167969 44.726562 C 103.023438 45.746094 103.480469 47.03125 103.882812 48.171875 C 104.007812 48.523438 104.128906 48.863281 104.25 49.171875 C 104.300781 49.109375 104.359375 49.042969 104.414062 48.980469 C 105.382812 47.871094 106.71875 47.433594 108.082031 47.777344 C 109.988281 48.257812 111.570312 50.238281 112.054688 51.917969 C 112.632812 52.996094 113.453125 53.644531 114.386719 54.394531 C 115.621094 55.382812 117.019531 56.5 117.894531 58.59375 C 117.9375 58.699219 117.972656 58.808594 118 58.921875 C 118.199219 59.789062 118.8125 62.4375 117.109375 64.175781 C 115.277344 66.042969 112.304688 65.410156 109.683594 64.851562 C 108.785156 64.660156 107.941406 64.480469 107.300781 64.433594 C 107.085938 64.417969 106.878906 64.367188 106.679688 64.289062 C 105.902344 63.972656 104.882812 63.886719 103.804688 63.796875 C 102.410156 63.683594 100.835938 63.554688 99.292969 62.890625 C 97.539062 62.355469 96.285156 60.910156 95.265625 59.742188 C 94.984375 59.414062 94.710938 59.105469 94.457031 58.84375 C 93.320312 57.808594 91.316406 57.265625 88.792969 57.3125 C 85.976562 57.328125 84.542969 58.902344 82.730469 60.894531 C 82.082031 61.609375 81.40625 62.347656 80.648438 63.027344 C 80.214844 63.464844 79.734375 63.898438 79.261719 64.3125 C 77.808594 65.605469 76.4375 66.824219 76.410156 68.324219 C 76.410156 68.511719 76.375 68.707031 76.316406 68.886719 C 75.777344 70.640625 75.488281 72.640625 75.519531 74.375 L 75.519531 74.601562 C 75.496094 76.070312 75.476562 77.453125 75.953125 78.710938 C 76.097656 79.070312 76.25 79.488281 76.402344 79.90625 C 76.933594 81.371094 77.4375 82.75 78.464844 83.542969 C 78.679688 83.71875 79.480469 83.742188 79.863281 83.753906 C 79.910156 83.753906 79.964844 83.757812 80.015625 83.761719 C 81.410156 83.910156 82.378906 83.914062 83.472656 83.777344 C 83.5625 83.769531 83.660156 83.769531 83.734375 83.761719 C 87.289062 83.777344 89.769531 84.148438 91.160156 85.960938 C 92.542969 87.757812 92.265625 90.234375 91.367188 93.644531 C 91.363281 93.667969 91.355469 93.6875 91.347656 93.710938 C 90.976562 94.957031 91.128906 96.714844 91.296875 98.578125 C 91.46875 100.539062 91.664062 102.753906 91.300781 104.964844 C 91.007812 108.59375 90.265625 111.914062 89.09375 114.839844 C 88.527344 117.367188 88.101562 119.496094 88.128906 121.828125 C 88.128906 121.917969 88.128906 122.003906 88.113281 122.09375 C 87.886719 124.042969 88.101562 124.773438 88.191406 124.984375 Z M 32 117.984375 C 32.519531 118.492188 33.464844 118.894531 33.980469 118.964844 L 33.980469 118.960938 C 33.988281 118.84375 34 118.734375 34.023438 118.621094 C 34.207031 117.761719 34.023438 116.722656 33.824219 115.621094 C 33.707031 114.976562 33.585938 114.308594 33.53125 113.621094 C 32.902344 109.699219 35.050781 107.78125 36.625 106.378906 C 37.472656 105.621094 38.210938 104.964844 38.578125 104.066406 C 38.804688 103.496094 38.960938 102.90625 39.125 102.277344 C 39.257812 101.785156 39.390625 101.277344 39.570312 100.738281 C 40.269531 97.335938 42.722656 96.578125 44.199219 96.125 C 44.691406 95.96875 45.164062 95.824219 45.476562 95.628906 C 46.011719 95.125 46.441406 94.367188 46.570312 93.71875 C 46.585938 93.640625 46.605469 93.5625 46.632812 93.488281 C 46.816406 92.921875 47.003906 92.34375 47.195312 91.757812 C 48.066406 89.128906 48.960938 86.410156 49.464844 83.574219 C 49.46875 83.535156 49.476562 83.492188 49.484375 83.453125 C 50.117188 80.078125 48.351562 78.925781 44.921875 77.019531 C 43.566406 76.265625 42.164062 75.492188 40.964844 74.4375 C 39.394531 73.289062 38.566406 71.730469 37.839844 70.347656 C 37.046875 68.851562 36.511719 67.90625 35.484375 67.441406 C 35.382812 67.394531 35.289062 67.339844 35.195312 67.28125 C 34.484375 66.808594 33.507812 66.269531 32.472656 65.695312 C 32 65.433594 31.523438 65.164062 31.058594 64.902344 C 30.71875 64.714844 30.359375 64.511719 30.007812 64.3125 C 27.941406 63.132812 26.449219 62.28125 24.136719 62.589844 C 24.050781 62.601562 23.96875 62.605469 23.886719 62.609375 C 23.644531 62.609375 23.40625 62.621094 23.179688 62.628906 C 22.046875 62.671875 20.632812 62.730469 19.175781 61.863281 C 19.101562 61.824219 19.035156 61.777344 18.96875 61.726562 C 17.207031 60.371094 16.386719 58.0625 15.789062 56.375 L 15.742188 56.234375 C 15.636719 55.945312 15.546875 55.660156 15.464844 55.390625 C 15.355469 55.039062 15.203125 54.554688 15.105469 54.441406 C 15.105469 54.441406 15.0625 54.421875 14.972656 54.390625 C 14.777344 54.335938 14.464844 54.289062 14.160156 54.242188 C 13.054688 54.070312 11.386719 53.820312 10.644531 52.34375 C 10.320312 51.703125 10.097656 50.644531 10.84375 49.210938 C 12.132812 46.5625 14.375 44.75 16.871094 44.34375 C 18.109375 44.078125 19.28125 44.144531 20.316406 44.203125 C 21.742188 44.285156 22.613281 44.308594 23.414062 43.835938 C 24.839844 42.570312 25.863281 40.6875 26.851562 38.875 C 28.375 36.070312 29.949219 33.171875 33.128906 32.042969 C 35.546875 30.703125 37.992188 30.671875 39.789062 30.648438 C 40.46875 30.640625 41.164062 30.628906 41.617188 30.546875 C 41.722656 30.34375 41.863281 29.941406 41.957031 29.683594 C 42.292969 28.746094 42.917969 27.003906 44.792969 26.871094 C 45.625 26.800781 46.34375 27.007812 46.929688 27.175781 C 47.3125 27.285156 47.640625 27.375 47.859375 27.351562 C 47.898438 27.34375 47.933594 27.34375 47.976562 27.34375 C 48.273438 27.324219 48.378906 27.167969 48.441406 27.03125 C 48.710938 26.453125 48.878906 24.878906 48.671875 22.609375 C 48.667969 22.53125 48.664062 22.453125 48.667969 22.375 C 48.726562 20.035156 48.128906 18.253906 46.730469 16.605469 C 46.699219 16.566406 46.664062 16.523438 46.632812 16.480469 C 46.089844 15.726562 45.351562 15.25 44.609375 15.164062 C 43.980469 15.089844 43.355469 15.292969 42.761719 15.777344 C 42.480469 16.085938 42.203125 16.335938 41.957031 16.558594 C 41.789062 16.707031 41.613281 16.867188 41.421875 17.058594 C 41.296875 17.203125 41.140625 17.394531 40.972656 17.605469 C 39.867188 18.976562 38.351562 20.855469 36.335938 20.539062 C 36.125 20.503906 35.917969 20.433594 35.726562 20.335938 C 34.285156 19.597656 33.589844 17.96875 33.433594 16.425781 C 20.484375 25.0625 7.011719 38.136719 6.242188 55.390625 C 6.300781 55.566406 6.375 55.734375 6.464844 55.882812 C 6.703125 56.265625 7.519531 56.648438 8.242188 56.988281 C 8.566406 57.140625 8.886719 57.292969 9.191406 57.453125 C 9.925781 57.804688 10.53125 58.214844 11.113281 58.613281 C 11.269531 58.71875 11.425781 58.828125 11.59375 58.941406 C 11.628906 58.964844 11.664062 58.992188 11.695312 59.015625 C 13.289062 60.226562 14.234375 61.277344 15.273438 62.515625 C 15.507812 62.726562 15.765625 62.925781 16.035156 63.140625 C 17.101562 63.976562 18.421875 65.011719 18.925781 67.03125 C 19.652344 69.589844 18.667969 71.65625 17.878906 73.324219 C 17.628906 73.84375 17.394531 74.335938 17.210938 74.832031 C 16.925781 76.664062 17.78125 79.550781 19.285156 81.804688 C 20.195312 82.875 21.003906 83.613281 21.941406 84.460938 C 22.375 84.855469 22.816406 85.257812 23.285156 85.707031 C 23.34375 85.761719 23.398438 85.824219 23.453125 85.886719 C 25.757812 88.707031 25.863281 91.550781 25.957031 94.058594 C 25.976562 94.625 26 95.210938 26.046875 95.789062 C 26.417969 101.414062 29.398438 115.175781 32 117.984375 Z M 131.839844 74.152344 L 131.933594 74.414062 C 132.171875 75.074219 132.445312 75.820312 132.710938 76.195312 C 132.792969 76.308594 132.863281 76.433594 132.921875 76.5625 C 133.355469 77.566406 133.765625 78.421875 134.3125 79.023438 C 134.34375 78.804688 134.375 78.585938 134.40625 78.375 C 134.46875 77.953125 134.523438 77.546875 134.566406 77.121094 C 133.828125 75.296875 133.347656 74.453125 132.515625 74.261719 C 132.492188 74.257812 132.46875 74.25 132.445312 74.246094 C 132.222656 74.1875 132.015625 74.160156 131.835938 74.152344 Z M 128.066406 71.703125 C 128.085938 71.730469 128.105469 71.761719 128.117188 71.789062 C 128.136719 71.761719 128.15625 71.734375 128.167969 71.707031 C 128.132812 71.707031 128.101562 71.703125 128.066406 71.703125 Z M 128.125 67.574219 L 128.128906 67.574219 Z M 45.101562 30.929688 Z M 115.945312 24.511719 C 115.945312 24.511719 115.945312 24.515625 115.953125 24.515625 C 115.953125 24.515625 115.945312 24.511719 115.945312 24.511719 Z M 116.1875 19.394531 C 116.214844 19.40625 116.238281 19.414062 116.265625 19.421875 C 116.242188 19.414062 116.21875 19.402344 116.1875 19.394531 Z M 62.113281 16.972656 C 63.097656 17.648438 64.585938 17.136719 66.546875 15.445312 C 66.605469 15.394531 66.667969 15.34375 66.734375 15.300781 C 67.90625 14.503906 69.027344 13.78125 70.828125 13.050781 C 70.914062 13.015625 71.003906 12.988281 71.089844 12.960938 C 71.699219 12.804688 72.34375 12.65625 73.003906 12.503906 C 76.09375 11.792969 79.59375 10.980469 80.269531 9.050781 C 80.28125 9.019531 80.292969 8.992188 80.304688 8.960938 L 80.355469 8.835938 C 80.570312 8.3125 81.128906 6.933594 81 6.523438 C 80.9375 6.433594 80.875 6.34375 80.824219 6.242188 C 80.792969 6.210938 80.761719 6.1875 80.726562 6.164062 C 77.164062 5.40625 72.835938 5.03125 69.859375 5.242188 C 68.644531 5.308594 67.546875 5.355469 66.476562 5.402344 C 65.539062 5.445312 64.617188 5.484375 63.675781 5.535156 C 63.511719 5.613281 63.414062 5.683594 63.390625 5.746094 C 63.375 5.789062 63.355469 5.835938 63.335938 5.878906 C 63.203125 6.1875 63.058594 6.691406 62.917969 7.179688 C 62.816406 7.535156 62.71875 7.890625 62.613281 8.203125 C 61.308594 11.949219 61.117188 15.40625 62.105469 16.96875 Z M 37.707031 16.804688 Z M 38.101562 14.078125 C 38.101562 14.078125 38.085938 14.097656 38.082031 14.105469 C 37.773438 14.5625 37.609375 14.894531 37.503906 15.292969 C 37.492188 15.335938 37.484375 15.382812 37.476562 15.4375 C 37.601562 15.285156 37.714844 15.144531 37.796875 15.042969 C 38.035156 14.746094 38.25 14.484375 38.429688 14.289062 C 38.441406 14.273438 38.453125 14.261719 38.46875 14.246094 C 38.753906 13.953125 39.003906 13.726562 39.230469 13.523438 C 39.457031 13.320312 39.636719 13.160156 39.78125 12.992188 C 39.847656 12.914062 39.917969 12.839844 39.996094 12.773438 C 40.9375 11.960938 42.011719 11.425781 43.128906 11.195312 C 43.113281 11.136719 43.101562 11.070312 43.085938 11.011719 C 41.828125 11.503906 40.628906 12 39.492188 12.683594 C 39.441406 12.714844 39.390625 12.746094 39.335938 12.769531 C 39.191406 12.839844 39.042969 12.914062 38.902344 12.996094 C 38.722656 13.277344 38.5 13.5625 38.257812 13.878906 C 38.191406 13.960938 38.140625 14.03125 38.101562 14.078125 Z M 48.671875 12.160156 C 49.386719 12.617188 49.808594 12.554688 50.296875 12.253906 C 51.632812 11.273438 52.5625 9.777344 53.222656 7.566406 C 53.234375 7.515625 53.242188 7.460938 53.246094 7.410156 C 52.898438 7.507812 52.554688 7.597656 52.214844 7.6875 C 50.726562 8.082031 49.3125 8.457031 47.878906 8.988281 C 47.371094 9.332031 47.0625 9.679688 47.042969 9.9375 C 47.023438 10.242188 47.34375 11.046875 48.667969 12.15625 Z M 48.671875 12.160156 " fill-opacity="1" fill-rule="nonzero"/></g></g></g></svg>