<svg xmlns="http://www.w3.org/2000/svg" xmlns:xlink="http://www.w3.org/1999/xlink" width="189" zoomAndPan="magnify" viewBox="0 0 141.75 141.750002" height="189" preserveAspectRatio="xMidYMid meet" version="1.0"><defs><clipPath id="c180fb5762"><path d="M 29 0 L 113 0 L 113 141.5 L 29 141.5 Z M 29 0 " clip-rule="nonzero"/></clipPath><clipPath id="18f95785d6"><path d="M 0.46875 0.238281 L 83.121094 0.238281 L 83.121094 141.5 L 0.46875 141.5 Z M 0.46875 0.238281 " clip-rule="nonzero"/></clipPath><clipPath id="8bfdc8d9cf"><rect x="0" width="84" y="0" height="142"/></clipPath></defs><g clip-path="url(#c180fb5762)"><g transform="matrix(1, 0, 0, 1, 29, 0.000000000000031669)"><g clip-path="url(#8bfdc8d9cf)"><path fill="#545454" d="M 32.019531 33.542969 C 31.660156 33.503906 31.339844 33.769531 31.300781 34.128906 C 31.152344 35.542969 31.511719 36.980469 31.851562 38.375 C 32.132812 39.585938 32.417969 40.71875 32.398438 41.832031 C 32.339844 44.742188 32.191406 47.707031 32.019531 50.578125 C 31.90625 52.523438 31.792969 54.542969 31.71875 56.527344 C 31.699219 56.808594 31.71875 57.128906 31.757812 57.46875 C 30.734375 57.015625 30.09375 56.714844 29.679688 56.488281 C 29.773438 55.542969 29.886719 54.601562 29.960938 53.675781 C 29.980469 53.503906 30 53.335938 30.019531 53.183594 C 30.320312 52.371094 30.621094 51.539062 30.699219 50.765625 C 30.886719 48.894531 30.867188 47.027344 30.8125 45.195312 C 30.847656 44.703125 30.886719 44.210938 30.90625 43.722656 C 30.980469 42.378906 31 41.285156 30.945312 40.226562 C 30.945312 40.078125 30.925781 39.945312 30.90625 39.792969 C 30.886719 39.527344 30.847656 39.300781 30.886719 39.074219 C 30.980469 38.132812 30.773438 38 30.621094 37.867188 C 30.433594 37.734375 30.1875 37.695312 29.960938 37.792969 C 29.828125 37.847656 29.601562 38 29.566406 38.359375 C 29.355469 40.433594 29.414062 42.53125 29.46875 44.550781 C 29.46875 44.761719 29.488281 44.949219 29.488281 45.15625 C 29.339844 47.101562 29.128906 49.066406 28.921875 50.972656 C 28.847656 51.617188 28.789062 52.238281 28.714844 52.882812 C 28.695312 52.917969 28.675781 52.957031 28.675781 53.011719 C 28.222656 54.183594 27.769531 55.394531 27.882812 56.488281 C 27.902344 56.695312 27.980469 56.902344 28.28125 57.148438 C 28.015625 59.527344 27.714844 61.945312 27.316406 64.363281 C 27.242188 64.875 27.070312 65.421875 26.902344 66.027344 C 26.542969 67.292969 26.128906 68.726562 26.410156 70.011719 C 26.769531 71.578125 29.546875 73.316406 31.132812 73.316406 C 31.1875 73.316406 31.265625 73.316406 31.320312 73.316406 C 33.078125 73.144531 33.738281 72.089844 33.796875 71.199219 C 33.816406 71.199219 33.851562 71.21875 33.871094 71.21875 C 34.117188 71.257812 34.382812 71.199219 34.589844 71.03125 C 35.175781 70.558594 34.949219 69.652344 34.703125 68.6875 C 34.625 68.347656 34.476562 67.800781 34.496094 67.648438 C 34.511719 67.535156 34.703125 67.214844 34.835938 67.007812 C 35.324219 66.15625 36.003906 64.988281 35.230469 64.210938 C 34.777344 63.742188 33.964844 63.871094 32.851562 64.042969 C 32.832031 64.042969 32.832031 64.042969 32.8125 64.042969 C 32.90625 63.96875 32.984375 63.871094 33.039062 63.742188 C 33.585938 62.703125 33.492188 61.117188 33.324219 59.585938 C 33.492188 59.660156 33.683594 59.738281 33.851562 59.8125 C 34.097656 59.90625 34.285156 59.980469 34.398438 60.039062 C 34.4375 60.058594 34.570312 60.132812 34.664062 60.191406 C 35.53125 60.679688 36.535156 61.230469 37.023438 60.472656 C 37.214844 60.171875 37.121094 59.753906 36.816406 59.566406 C 36.628906 59.453125 36.421875 59.433594 36.230469 59.511719 C 35.988281 59.414062 35.515625 59.152344 35.304688 59.058594 C 35.117188 58.945312 35.003906 58.886719 34.910156 58.847656 C 34.796875 58.792969 34.609375 58.71875 34.34375 58.621094 C 33.910156 58.453125 33.511719 58.28125 33.132812 58.132812 C 33.078125 57.566406 33.019531 57.035156 33.039062 56.640625 C 33.117188 54.65625 33.230469 52.65625 33.34375 50.710938 C 33.511719 47.839844 33.664062 44.855469 33.71875 41.925781 C 33.738281 40.644531 33.4375 39.378906 33.132812 38.148438 C 32.8125 36.808594 32.492188 35.523438 32.625 34.335938 C 32.664062 33.902344 32.398438 33.5625 32.019531 33.542969 Z M 33.039062 65.308594 C 33.417969 65.25 33.945312 65.15625 34.230469 65.15625 C 34.171875 65.460938 33.832031 66.027344 33.683594 66.308594 C 33.457031 66.6875 33.265625 67.027344 33.191406 67.328125 C 33.117188 67.667969 33.191406 68.101562 33.304688 68.59375 C 33.132812 68.386719 32.964844 68.253906 32.738281 68.199219 C 32.304688 68.085938 31.660156 68.066406 31.132812 68.292969 C 31.058594 68.3125 30.90625 68.328125 30.679688 68.328125 C 30 68.367188 29.925781 68.839844 29.925781 68.972656 C 29.925781 69.179688 30.039062 69.59375 30.566406 69.652344 C 31.8125 69.785156 32.472656 70.464844 32.472656 71.050781 C 32.472656 71.523438 31.984375 71.863281 31.1875 71.957031 C 30.1875 72.050781 27.882812 70.558594 27.695312 69.671875 C 27.488281 68.707031 27.828125 67.519531 28.167969 66.347656 C 28.355469 65.703125 28.527344 65.101562 28.621094 64.535156 C 28.980469 62.304688 29.261719 60.078125 29.527344 57.867188 C 30.09375 58.148438 30.867188 58.507812 31.925781 58.945312 C 32.097656 60.378906 32.285156 62.097656 31.90625 62.984375 C 31.792969 63.023438 31.566406 63.042969 31.414062 63.0625 C 30.90625 63.117188 29.941406 63.210938 29.847656 64.117188 C 29.8125 64.496094 29.925781 64.835938 30.1875 65.082031 C 30.753906 65.667969 31.871094 65.496094 33.039062 65.308594 Z M 33.039062 65.308594 " fill-opacity="1" fill-rule="nonzero"/><g clip-path="url(#18f95785d6)"><path fill="#545454" d="M 82.992188 27.460938 C 82.523438 25.835938 82.332031 21.304688 82.484375 19.433594 C 82.710938 16.394531 82.296875 15.582031 81.898438 15.203125 C 81.671875 14.996094 81.351562 14.902344 81.011719 14.976562 C 80.746094 15.035156 80.746094 15.035156 78.800781 16.941406 C 78.179688 17.5625 77.382812 18.339844 77.214844 18.46875 C 76.929688 18.695312 76.628906 18.90625 76.421875 19.039062 C 76.382812 19.019531 76.347656 19.019531 76.308594 19 C 76.15625 18.980469 76.007812 19 75.894531 19.054688 C 75.816406 18.925781 75.722656 18.792969 75.648438 18.640625 C 75.34375 18.128906 75.023438 17.546875 74.402344 17.28125 C 73.890625 17.054688 73.4375 17.335938 71.945312 18.8125 C 71.078125 19.660156 70.058594 20.753906 69.300781 21.550781 C 68.808594 22.058594 68.394531 22.511719 68.226562 22.683594 C 66.847656 24.023438 65.375 25.363281 63.957031 26.667969 C 60.027344 30.292969 55.949219 34.03125 52.71875 38.300781 C 52.585938 38.488281 52.53125 38.714844 52.570312 38.941406 C 52.664062 39.527344 53.285156 40.039062 54.628906 40.964844 C 54.929688 41.171875 55.363281 41.472656 55.4375 41.566406 C 55.457031 41.605469 55.570312 41.757812 55.648438 41.871094 C 55.683594 41.925781 55.703125 41.964844 55.742188 42.023438 C 55.628906 42.023438 55.535156 42.039062 55.421875 42.078125 C 54.96875 42.25 54.324219 42.851562 53.097656 44.003906 C 52.757812 44.324219 52.304688 44.761719 51.792969 45.214844 C 51.757812 45.175781 51.71875 45.136719 51.660156 45.101562 C 50.980469 44.664062 50.300781 42.097656 50.019531 41 C 49.941406 40.738281 49.886719 40.492188 49.828125 40.320312 C 49.019531 37.488281 47.902344 34.675781 46.828125 31.957031 C 46.449219 30.992188 46.050781 29.972656 45.675781 28.988281 C 45.523438 28.613281 45.222656 28.101562 44.863281 27.5 C 44.371094 26.6875 43.199219 24.777344 43.523438 24.289062 C 43.710938 23.984375 43.617188 23.570312 43.3125 23.382812 C 43.3125 23.363281 43.3125 23.34375 43.3125 23.324219 C 43.539062 23.15625 44.238281 22.984375 44.484375 22.929688 C 44.597656 22.910156 44.691406 22.871094 44.769531 22.851562 C 45.089844 22.757812 45.523438 22.851562 45.976562 22.929688 C 46.75 23.078125 47.734375 23.269531 48.566406 22.585938 C 49.773438 21.605469 50.039062 20.039062 50.28125 18.660156 C 50.394531 18.054688 50.492188 17.46875 50.660156 16.996094 C 50.71875 16.941406 50.867188 16.867188 50.964844 16.808594 C 51.304688 16.621094 51.871094 16.296875 51.8125 15.65625 C 51.738281 14.976562 51.511719 14.429688 51.265625 13.898438 C 50.980469 13.257812 50.753906 12.710938 50.8125 12.011719 C 50.832031 11.878906 50.792969 11.765625 50.738281 11.652344 C 51.078125 11.558594 51.417969 11.464844 51.757812 11.351562 C 51.964844 11.292969 52.304688 11.238281 52.664062 11.179688 C 54.117188 10.933594 55.949219 10.632812 56.402344 9.367188 C 56.476562 9.179688 56.570312 8.6875 56.082031 8.214844 C 55.117188 7.253906 51.605469 6.515625 49.941406 6.574219 C 49.773438 5.683594 49.09375 4.496094 47.902344 3.023438 C 45.675781 0.285156 41.3125 0 38.347656 1.132812 C 34.890625 2.4375 34.964844 5.097656 35.023438 7.933594 L 35.023438 8.160156 C 35.042969 8.613281 35.382812 9.160156 36.195312 10.3125 C 34.398438 11.105469 32.738281 11.992188 32.4375 13.21875 C 32.339844 13.578125 32.339844 14.109375 32.792969 14.675781 C 33.210938 15.183594 33.871094 15.355469 34.609375 15.355469 C 34.738281 15.355469 34.871094 15.355469 35.003906 15.335938 C 34.949219 15.449219 34.890625 15.5625 34.835938 15.714844 L 34.816406 15.75 C 34.722656 16.035156 33.929688 16.621094 33.457031 16.960938 C 33.003906 17.300781 32.566406 17.621094 32.285156 17.941406 C 31.566406 18.734375 31 19.566406 30.546875 20.453125 C 30.394531 20.039062 30.207031 19.414062 30.054688 18.90625 C 29.355469 16.695312 28.847656 15.070312 28.375 14.464844 C 26.148438 11.5 15.003906 8.839844 11.832031 9.234375 C 9.980469 9.460938 8.695312 11.332031 7.789062 12.917969 C 6.109375 15.863281 4.898438 20.019531 4.105469 25.609375 C 4.070312 25.816406 3.957031 26.234375 3.84375 26.6875 C 3.3125 28.648438 2.632812 31.105469 3.917969 31.878906 C 4.011719 31.9375 4.183594 31.992188 4.390625 32.050781 C 4.257812 32.085938 4.144531 32.125 4.050781 32.199219 C 3.765625 32.410156 3.765625 32.410156 3.746094 33.84375 C 3.730469 34.523438 3.710938 35.429688 3.691406 36.355469 C 3.652344 38.054688 3.617188 40.171875 3.597656 40.433594 C 3.390625 42.53125 3.03125 44.535156 2.652344 46.628906 C 2.597656 46.96875 2.539062 47.308594 2.464844 47.648438 C 2.386719 47.761719 2.367188 47.894531 2.367188 48.046875 C 2.367188 48.085938 2.367188 48.101562 2.367188 48.140625 C 2.3125 48.441406 2.253906 48.746094 2.21875 49.046875 C 2.125 49.574219 1.839844 50.105469 1.539062 50.671875 C 1.21875 51.277344 0.878906 51.917969 0.726562 52.636719 C 0.386719 54.296875 0.726562 56.035156 1.066406 57.695312 C 1.199219 58.378906 1.332031 59.019531 1.40625 59.625 C 1.613281 61.285156 2.613281 65.175781 4.390625 66.59375 C 7.5625 69.140625 12.605469 69.671875 16.648438 70.105469 C 17.382812 70.179688 18.0625 70.257812 18.722656 70.332031 C 18.820312 70.351562 18.949219 70.371094 19.101562 70.386719 C 20.199219 70.558594 21.140625 70.652344 21.917969 70.652344 C 22.652344 70.652344 23.21875 70.558594 23.636719 70.332031 C 23.558594 71.03125 23.464844 71.710938 23.410156 72.410156 C 23.410156 72.484375 23.351562 72.730469 23.3125 72.976562 C 22.9375 75.054688 22.839844 75.980469 23.332031 76.433594 C 23.878906 76.941406 24.636719 76.5625 25.449219 76.148438 C 25.675781 76.035156 26.035156 75.867188 26.148438 75.828125 C 26.429688 75.808594 26.65625 75.941406 26.941406 76.167969 C 26.601562 76.753906 26.730469 77.734375 27.394531 79.660156 C 27.410156 79.71875 27.429688 79.773438 27.449219 79.8125 C 28.074219 81.644531 28.414062 83.628906 28.753906 85.535156 C 29.09375 87.5 29.453125 89.519531 30.09375 91.464844 C 30.339844 92.203125 30.472656 92.957031 30.640625 93.769531 C 30.71875 94.128906 30.773438 94.507812 30.847656 94.863281 C 30.527344 94.863281 30.320312 94.863281 30.167969 94.902344 C 28.640625 95.242188 26.882812 96.375 26.222656 96.828125 C 24.203125 98.226562 22.292969 99.773438 20.460938 101.265625 C 19.214844 102.289062 17.914062 103.34375 16.589844 104.347656 C 16.476562 104.421875 16.363281 104.515625 16.25 104.609375 C 15.644531 105.082031 14.945312 105.609375 14.34375 105.820312 C 14.285156 105.835938 14.136719 105.855469 14.003906 105.875 C 13.34375 105.988281 12.90625 106.0625 12.660156 106.347656 C 12.492188 106.367188 12.339844 106.441406 12.226562 106.59375 C 12.132812 106.648438 11.886719 106.6875 11.753906 106.726562 C 11.492188 106.78125 11.226562 106.839844 10.980469 106.972656 C 10.300781 107.347656 8.65625 107.707031 7.089844 108.066406 C 4.125 108.726562 2.292969 109.179688 1.785156 110.050781 C 1.027344 111.351562 1.445312 112.882812 1.800781 114.203125 C 1.972656 114.828125 2.125 115.414062 2.160156 115.921875 C 2.179688 116.128906 2.140625 116.414062 2.085938 116.695312 C 2.011719 117.28125 1.914062 117.925781 2.179688 118.546875 C 2.445312 119.171875 3.277344 119.4375 4.277344 119.679688 C 4.238281 119.8125 4.183594 119.964844 4.125 120.097656 C 3.9375 120.625 3.710938 121.230469 3.710938 121.910156 C 3.710938 123.101562 4.164062 124.363281 4.578125 125.613281 C 4.769531 126.140625 4.9375 126.648438 5.070312 127.101562 C 6.070312 130.75 7.148438 133.390625 11.585938 133.390625 C 12.039062 133.390625 12.511719 133.375 13.019531 133.316406 C 14.363281 133.164062 14.738281 131.144531 14.664062 130.390625 C 14.570312 129.425781 14.285156 128.519531 14.023438 127.652344 C 13.550781 126.101562 13.117188 124.648438 13.644531 123.117188 C 14.003906 122.117188 15.003906 120.777344 16.550781 119.210938 C 16.628906 119.132812 16.796875 119.019531 16.96875 118.90625 C 17.402344 118.625 17.875 118.285156 18.042969 117.792969 C 18.121094 117.585938 18.140625 117.507812 17.535156 115.886719 C 18.496094 115.847656 19.667969 114.828125 20.726562 113.902344 C 21.027344 113.636719 21.3125 113.390625 21.445312 113.316406 C 21.652344 113.183594 22.03125 112.9375 22.5 112.65625 C 25.238281 110.992188 27.109375 109.765625 28.054688 108.859375 C 28.109375 108.820312 28.1875 108.785156 28.242188 108.746094 C 28.753906 108.445312 29.226562 108.160156 29.660156 107.972656 C 30.300781 107.6875 30.960938 107.425781 31.585938 107.140625 C 34.136719 106.0625 36.761719 104.96875 39.007812 103.363281 C 39.007812 103.570312 38.988281 103.777344 38.988281 103.949219 C 38.96875 104.15625 38.96875 104.347656 38.96875 104.535156 C 38.988281 105.101562 38.855469 105.6875 38.742188 106.308594 C 38.628906 106.839844 38.515625 107.386719 38.5 107.933594 C 38.367188 110.371094 38.121094 112.84375 37.894531 115.222656 C 37.742188 116.867188 37.574219 118.546875 37.441406 120.230469 C 37.402344 120.625 37.363281 121.058594 37.308594 121.53125 C 37.121094 123.195312 36.894531 125.101562 37.363281 126.535156 C 37.402344 126.632812 37.441406 126.726562 37.476562 126.800781 C 37.101562 127.140625 36.796875 127.5 36.683594 127.914062 C 36.667969 127.992188 36.308594 129.371094 36.609375 130.21875 C 36.363281 131.105469 36.136719 132.808594 36.476562 133.316406 C 36.457031 133.46875 36.421875 133.695312 36.421875 133.863281 C 36.421875 133.996094 36.363281 134.375 36.328125 134.753906 C 36.308594 134.847656 36.308594 134.941406 36.289062 135.015625 C 36.269531 135.109375 36.25 135.1875 36.230469 135.261719 C 36.136719 135.621094 35.890625 136.054688 35.644531 136.527344 C 35.042969 137.660156 34.363281 138.945312 34.796875 140.210938 C 35.136719 141.210938 36.289062 141.496094 37.535156 141.496094 C 38.175781 141.496094 38.839844 141.417969 39.441406 141.34375 C 40.140625 141.25 40.820312 141.097656 41.480469 140.945312 C 42.691406 140.683594 43.84375 140.417969 45.015625 140.476562 C 45.429688 140.492188 45.84375 140.511719 46.261719 140.53125 C 48.660156 140.644531 51.152344 140.757812 53.664062 140.304688 C 53.703125 140.304688 53.777344 140.285156 53.871094 140.265625 C 54.757812 140.476562 55.664062 140.53125 56.230469 140.285156 C 56.25 140.285156 56.269531 140.265625 56.269531 140.265625 C 56.589844 140.097656 56.914062 139.925781 57.214844 139.777344 C 57.722656 139.683594 58.121094 139.585938 58.421875 139.492188 C 58.6875 139.683594 59.007812 139.757812 59.367188 139.683594 C 59.554688 139.644531 59.707031 139.53125 59.820312 139.378906 C 59.992188 139.113281 59.953125 138.8125 59.894531 138.511719 C 59.894531 138.511719 59.894531 138.492188 59.894531 138.492188 C 59.839844 138.265625 59.859375 137.925781 59.878906 137.566406 C 59.914062 136.753906 59.972656 135.753906 59.179688 135.109375 C 57.988281 134.148438 55.308594 133.941406 52.890625 133.847656 C 52.71875 133.847656 52.585938 133.828125 52.4375 133.828125 C 52.285156 133.828125 52.152344 133.808594 52 133.808594 C 50.167969 133.734375 47.882812 133.636719 46.941406 132.109375 C 46.636719 131.617188 46.507812 130.976562 46.355469 130.3125 C 46.242188 129.804688 46.128906 129.277344 45.921875 128.785156 C 45.921875 128.765625 45.902344 128.746094 45.902344 128.726562 C 46.734375 128.480469 47.414062 128.125 47.828125 127.632812 C 48.582031 126.707031 47.960938 125.253906 47.46875 124.082031 C 47.316406 123.742188 47.1875 123.421875 47.128906 123.214844 C 46.828125 122.078125 47.148438 120.398438 47.449219 119.058594 C 48.546875 114.375 49.566406 110.144531 50.773438 105.933594 C 50.945312 105.367188 51.113281 104.800781 51.304688 104.195312 C 52.152344 101.398438 53.136719 98.207031 52.964844 95.222656 C 52.871094 93.523438 52.191406 91.617188 51.53125 89.765625 C 50.886719 87.972656 50.226562 86.121094 50.1875 84.648438 C 50.359375 84.496094 50.433594 84.25 50.378906 84.003906 C 49.433594 80.285156 48.679688 76.394531 47.921875 72.65625 C 47.449219 70.292969 46.976562 67.894531 46.449219 65.496094 C 46.582031 65.382812 46.734375 65.269531 46.921875 65.15625 C 47.601562 64.683594 48.433594 64.082031 48.546875 62.984375 C 48.660156 61.777344 48.375 60.4375 48.09375 59.152344 C 47.960938 58.566406 47.847656 58.019531 47.769531 57.507812 C 47.65625 56.734375 47.582031 56.089844 47.5625 55.542969 C 49.09375 55.449219 50.546875 55.296875 52.171875 54.429688 C 52.453125 54.277344 53.964844 53.464844 55.4375 52.636719 C 58.441406 50.953125 58.5 50.824219 58.613281 50.558594 C 58.707031 50.332031 58.761719 50.085938 58.78125 49.839844 C 59.214844 50.351562 59.800781 50.953125 60.558594 51.691406 C 60.800781 51.9375 61.03125 52.144531 61.144531 52.277344 C 61.332031 52.484375 61.632812 52.617188 61.917969 52.617188 C 62.144531 52.617188 62.371094 52.523438 62.519531 52.371094 C 64.996094 49.820312 67.28125 46.96875 69.472656 44.210938 C 71.019531 42.265625 72.644531 40.246094 74.289062 38.375 C 74.683594 37.921875 75.117188 37.46875 75.535156 37.035156 C 76.515625 35.996094 77.535156 34.9375 78.347656 33.636719 C 78.613281 33.222656 79.160156 32.671875 79.746094 32.085938 C 80.878906 30.933594 82.144531 29.671875 82.425781 28.367188 C 82.464844 28.367188 82.484375 28.347656 82.523438 28.347656 C 82.898438 28.179688 83.105469 27.820312 82.992188 27.460938 Z M 78.046875 19.492188 C 78.253906 19.320312 78.820312 18.773438 79.726562 17.867188 C 80.179688 17.414062 80.746094 16.867188 81.125 16.507812 C 81.21875 16.921875 81.292969 17.734375 81.179688 19.320312 C 81.085938 20.492188 81.125 23.003906 81.332031 25.117188 C 80.085938 23.363281 78.179688 21.359375 77.042969 20.226562 C 77.289062 20.058594 77.628906 19.832031 78.046875 19.492188 Z M 61.292969 42.117188 C 61.917969 42.890625 63.144531 42.210938 65.222656 40.964844 C 65.375 40.871094 65.523438 40.773438 65.675781 40.699219 C 65.449219 41.472656 64.976562 42.171875 64.351562 42.683594 C 62.066406 44.550781 59.101562 46.480469 57.78125 46.648438 C 57.722656 46.535156 57.667969 46.421875 57.59375 46.308594 C 57.367188 45.894531 57.15625 45.496094 57.0625 45.230469 C 57.0625 45.214844 57.0625 45.195312 57.042969 45.175781 C 57.121094 45.136719 57.195312 45.082031 57.234375 45.003906 C 57.289062 44.949219 57.402344 44.855469 57.496094 44.777344 C 57.6875 44.609375 57.914062 44.421875 58.0625 44.289062 C 58.5 43.871094 58.914062 43.4375 59.3125 43.003906 L 59.347656 42.945312 C 59.726562 42.53125 60.234375 41.664062 60.785156 40.71875 C 60.953125 40.417969 61.160156 40.078125 61.371094 39.738281 C 61.351562 39.886719 61.3125 40.039062 61.292969 40.152344 C 61.085938 41.378906 61.011719 41.777344 61.292969 42.117188 Z M 56.816406 43.625 C 56.800781 43.53125 56.78125 43.4375 56.761719 43.34375 C 56.835938 43.398438 56.894531 43.457031 56.96875 43.496094 C 56.914062 43.53125 56.875 43.589844 56.816406 43.625 Z M 43.75 28.179688 C 44.070312 28.6875 44.351562 29.179688 44.464844 29.445312 C 44.84375 30.445312 45.242188 31.445312 45.617188 32.425781 C 46.675781 35.109375 47.769531 37.90625 48.566406 40.679688 C 48.621094 40.851562 48.679688 41.078125 48.734375 41.339844 C 49.28125 43.417969 49.847656 45.328125 50.773438 46.101562 C 49.925781 46.820312 49.113281 47.402344 48.734375 47.386719 C 48.074219 46.742188 47.582031 45.175781 47.203125 43.929688 C 47.054688 43.4375 46.902344 42.964844 46.769531 42.589844 C 46.410156 41.644531 45.84375 40.851562 45.296875 40.09375 C 44.917969 39.566406 44.5625 39.074219 44.277344 38.527344 C 44.011719 38.035156 43.84375 37.507812 43.671875 36.921875 C 43.617188 36.734375 43.558594 36.542969 43.484375 36.355469 C 43.671875 35.015625 43.691406 33.636719 43.332031 32.332031 C 43.03125 31.199219 42.957031 29.972656 42.878906 28.761719 C 42.824219 27.96875 42.765625 27.160156 42.652344 26.347656 C 42.652344 26.328125 42.652344 26.308594 42.652344 26.289062 C 42.972656 26.914062 43.371094 27.554688 43.75 28.179688 Z M 41.273438 14.503906 C 41.160156 14.464844 41.046875 14.429688 40.933594 14.390625 C 40.800781 14.335938 40.652344 14.277344 40.519531 14.222656 C 41.917969 13.957031 43.296875 13.636719 44.675781 13.296875 C 44.597656 13.410156 44.523438 13.523438 44.449219 13.65625 C 44.089844 14.238281 43.710938 14.824219 43.257812 14.882812 C 42.671875 14.9375 41.933594 14.710938 41.273438 14.503906 Z M 42.992188 16.203125 C 42.9375 16.222656 42.878906 16.242188 42.824219 16.28125 C 42.824219 16.28125 42.824219 16.261719 42.804688 16.261719 C 42.785156 16.242188 42.785156 16.222656 42.765625 16.203125 C 42.84375 16.203125 42.917969 16.203125 42.992188 16.203125 Z M 43.597656 17.46875 C 43.75 17.582031 43.878906 17.921875 43.863281 18.261719 C 43.804688 18.148438 43.75 18.015625 43.691406 17.886719 C 43.652344 17.789062 43.617188 17.695312 43.578125 17.601562 C 43.558594 17.546875 43.539062 17.488281 43.523438 17.433594 C 43.558594 17.449219 43.578125 17.46875 43.597656 17.46875 Z M 42.179688 24.722656 C 42.179688 24.796875 42.199219 24.871094 42.21875 24.949219 C 42.164062 24.835938 42.085938 24.722656 42.03125 24.609375 C 42.066406 24.664062 42.125 24.703125 42.179688 24.722656 Z M 50.320312 15.636719 C 50 15.828125 49.601562 16.054688 49.433594 16.488281 C 49.226562 17.09375 49.09375 17.773438 48.980469 18.414062 C 48.753906 19.679688 48.546875 20.871094 47.714844 21.550781 C 47.375 21.8125 46.921875 21.757812 46.203125 21.625 C 45.636719 21.511719 44.996094 21.398438 44.371094 21.566406 C 44.316406 21.585938 44.222656 21.605469 44.144531 21.625 C 44.03125 21.644531 43.917969 21.679688 43.824219 21.71875 C 44.335938 21.285156 44.636719 20.925781 44.675781 20.511719 C 44.691406 20.320312 44.65625 20.113281 44.578125 19.867188 C 44.824219 19.621094 44.996094 19.300781 45.089844 18.925781 C 45.335938 17.980469 45.015625 16.921875 44.351562 16.429688 C 44.144531 16.28125 43.917969 16.183594 43.671875 16.148438 C 44.5625 15.902344 45.089844 15.070312 45.523438 14.371094 C 45.730469 14.03125 45.957031 13.691406 46.148438 13.542969 C 46.355469 13.371094 46.429688 13.105469 46.375 12.863281 C 47.414062 12.578125 48.46875 12.277344 49.488281 11.992188 C 49.433594 12.976562 49.753906 13.730469 50.054688 14.410156 C 50.226562 14.808594 50.394531 15.164062 50.472656 15.5625 C 50.414062 15.582031 50.359375 15.601562 50.320312 15.636719 Z M 38.839844 2.324219 C 42.21875 1.039062 45.523438 2.132812 46.902344 3.816406 C 48.433594 5.703125 48.773438 6.761719 48.695312 6.988281 C 47.507812 7.949219 45.75 8.367188 44.03125 8.761719 C 42.558594 9.101562 41.046875 9.460938 39.800781 10.179688 C 39.667969 10.253906 39.308594 10.332031 39.046875 10.367188 C 38.648438 10.445312 38.234375 10.519531 37.875 10.691406 C 37.875 10.671875 37.875 10.652344 37.894531 10.632812 C 37.949219 10.3125 37.855469 10.160156 37.363281 9.480469 C 37.101562 9.121094 36.496094 8.273438 36.402344 7.988281 L 36.402344 7.800781 C 36.308594 5.117188 36.269531 3.304688 38.839844 2.324219 Z M 33.871094 13.785156 C 33.738281 13.617188 33.757812 13.523438 33.777344 13.484375 C 33.910156 12.9375 35.003906 12.21875 37.042969 11.351562 C 37.121094 11.3125 37.175781 11.292969 37.234375 11.273438 C 37.0625 11.578125 37.15625 11.972656 37.441406 12.164062 C 37.742188 12.351562 38.160156 12.277344 38.347656 11.953125 C 38.460938 11.839844 38.988281 11.746094 39.273438 11.691406 C 39.707031 11.613281 40.121094 11.539062 40.445312 11.351562 C 41.519531 10.726562 42.878906 10.40625 44.335938 10.066406 C 46.164062 9.632812 48.074219 9.179688 49.488281 8.0625 C 49.640625 8.046875 49.773438 7.96875 49.867188 7.855469 C 50.792969 7.6875 54.34375 8.421875 55.097656 9.027344 C 54.703125 9.460938 53.230469 9.707031 52.472656 9.839844 C 52.058594 9.914062 51.679688 9.972656 51.417969 10.046875 C 51 10.160156 50.585938 10.292969 50.167969 10.40625 C 46.335938 11.519531 42.371094 12.652344 38.347656 13.238281 C 38.0625 13.277344 37.6875 13.371094 37.25 13.484375 C 36.363281 13.730469 34.269531 14.277344 33.871094 13.785156 Z M 37.574219 14.789062 C 37.949219 14.695312 38.308594 14.597656 38.515625 14.5625 C 38.742188 14.523438 38.96875 14.484375 39.214844 14.449219 C 39.160156 14.542969 39.121094 14.636719 39.121094 14.730469 C 39.082031 15.070312 39.328125 15.375 39.667969 15.449219 C 39.820312 15.46875 40.105469 15.523438 40.234375 15.5625 C 40.3125 15.582031 40.367188 15.601562 40.445312 15.617188 C 40.898438 15.863281 41.292969 16.28125 41.652344 16.902344 C 41.707031 16.996094 41.765625 17.109375 41.839844 17.222656 C 42.011719 17.488281 42.21875 17.847656 42.371094 18.1875 C 42.40625 18.261719 42.425781 18.339844 42.464844 18.394531 C 42.519531 18.527344 42.558594 18.660156 42.578125 18.773438 C 42.578125 18.8125 42.578125 18.828125 42.578125 18.886719 C 42.539062 19.265625 42.503906 19.8125 42.859375 20.171875 C 42.992188 20.285156 43.144531 20.359375 43.3125 20.398438 C 43.105469 20.625 42.632812 21 42.390625 21.191406 C 42.277344 21.285156 42.164062 21.359375 42.066406 21.453125 C 41.859375 21.152344 41.613281 20.871094 41.292969 20.660156 C 40.234375 19.980469 39.519531 19.167969 38.761719 18.320312 C 38.289062 17.773438 37.800781 17.207031 37.195312 16.65625 C 37.136719 16.5625 37.023438 16.28125 36.949219 16.109375 C 36.796875 15.714844 36.648438 15.355469 36.421875 15.109375 C 36.816406 14.976562 37.214844 14.882812 37.574219 14.789062 Z M 4.597656 29.347656 C 4.710938 28.574219 4.957031 27.667969 5.144531 26.929688 C 5.296875 26.402344 5.410156 25.988281 5.449219 25.703125 C 6.222656 20.285156 7.375 16.296875 8.980469 13.484375 C 9.433594 12.710938 10.601562 10.632812 12.039062 10.445312 C 15.078125 10.066406 25.597656 12.824219 27.355469 15.164062 C 27.714844 15.636719 28.375 17.789062 28.828125 19.207031 C 29.507812 21.398438 29.601562 21.644531 29.960938 21.832031 C 29.300781 23.644531 29 25.554688 28.695312 27.441406 C 28.546875 28.421875 28.375 29.445312 28.167969 30.425781 C 27.46875 33.636719 26.976562 36.902344 26.601562 40.171875 C 26.449219 39.054688 26.164062 37.90625 25.902344 36.769531 C 25.617188 35.582031 25.351562 34.429688 25.222656 33.390625 C 25.222656 33.371094 25.222656 33.335938 25.222656 33.316406 C 25.222656 32.765625 25.222656 32.296875 25.070312 31.992188 C 25.222656 31.332031 25.390625 30.292969 25.582031 28.632812 C 25.808594 26.6875 25.976562 24.496094 25.976562 23.910156 C 25.976562 23.398438 26.015625 22.8125 26.050781 22.191406 C 26.148438 20.566406 26.261719 18.695312 25.824219 17.355469 C 24.824219 14.335938 20.839844 14.371094 17.949219 14.390625 C 17.25 14.390625 16.589844 14.410156 16.117188 14.351562 C 15.871094 14.335938 15.628906 14.277344 15.34375 14.222656 C 14.777344 14.109375 14.136719 13.976562 13.4375 14.109375 C 12.71875 14.257812 12.53125 14.695312 12.472656 14.9375 C 12.378906 15.488281 12.585938 16.183594 14.890625 17.675781 C 14.910156 17.867188 14.910156 18.242188 14.851562 18.773438 C 14.851562 18.867188 14.832031 18.941406 14.832031 19 C 14.644531 21.777344 14.457031 25.0625 14.457031 28.386719 L 14.457031 28.480469 C 14.457031 29.253906 14.457031 31.066406 13.777344 31.503906 C 13.625 31.578125 13.039062 31.710938 10.566406 31.085938 L 10.414062 31.046875 C 10.414062 31.046875 9.921875 30.820312 9.941406 28.421875 C 9.941406 26.722656 10.207031 24.609375 10.394531 22.910156 C 10.546875 21.625 10.660156 20.605469 10.660156 19.980469 C 10.660156 19.925781 10.679688 19.605469 10.699219 19.300781 C 10.886719 16.222656 10.847656 16.183594 10.601562 15.921875 C 10.472656 15.789062 10.300781 15.714844 10.113281 15.714844 C 9.847656 15.714844 9.621094 15.808594 9.46875 15.996094 C 9.1875 16.335938 9.28125 16.769531 9.339844 17.109375 C 9.355469 17.207031 9.394531 17.355469 9.375 17.394531 C 9.28125 18.074219 9.148438 18.792969 9.035156 19.472656 C 8.980469 19.734375 8.941406 20 8.886719 20.285156 C 8.355469 23.285156 8.167969 25.949219 8.316406 28.214844 C 8.335938 28.441406 8.394531 28.761719 8.449219 29.121094 C 8.527344 29.558594 8.714844 30.613281 8.65625 31.105469 C 7.769531 31.144531 5.109375 30.785156 4.578125 30.59375 C 4.617188 30.59375 4.464844 30.3125 4.597656 29.347656 Z M 18.648438 46.382812 C 18.480469 46.347656 18.328125 46.308594 18.195312 46.269531 C 17.535156 46.0625 16.402344 45.722656 15.175781 45.722656 C 14.457031 45.722656 13.738281 45.835938 13.058594 46.175781 L 13.058594 44.289062 C 13.058594 42.644531 14.152344 40.339844 15.53125 39.074219 C 16.082031 39.074219 17.742188 39.152344 19.347656 39.265625 C 19.121094 40.773438 18.914062 42.34375 18.820312 43.890625 C 18.800781 44.0625 18.78125 44.324219 18.742188 44.570312 C 18.6875 45.15625 18.609375 45.796875 18.648438 46.382812 Z M 14.832031 37.941406 C 14.210938 38.472656 13.570312 39.265625 13.039062 40.152344 C 13.511719 36.695312 13.664062 34.390625 13.285156 33.335938 C 13.8125 33.277344 14.324219 33.203125 14.816406 33.105469 C 15.230469 33.03125 15.664062 32.898438 16.117188 32.75 C 16.875 32.503906 17.648438 32.238281 18.234375 32.371094 C 18.648438 32.765625 19.195312 33.050781 19.707031 33.316406 C 19.726562 33.335938 19.761719 33.335938 19.78125 33.351562 C 19.875 33.429688 19.972656 33.484375 20.066406 33.5625 C 19.988281 35.015625 19.78125 36.46875 19.574219 37.921875 C 15.136719 37.679688 15.097656 37.714844 14.832031 37.941406 Z M 15.96875 16.867188 C 15.890625 16.769531 15.835938 16.734375 15.742188 16.675781 C 14.796875 16.070312 14.304688 15.65625 14.058594 15.390625 C 14.378906 15.390625 14.738281 15.46875 15.097656 15.542969 C 15.402344 15.601562 15.703125 15.65625 16.003906 15.695312 C 16.550781 15.75 17.234375 15.730469 17.96875 15.730469 C 20.460938 15.714844 23.878906 15.695312 24.578125 17.789062 C 24.957031 18.90625 24.84375 20.605469 24.75 22.132812 C 24.710938 22.777344 24.671875 23.398438 24.671875 23.949219 C 24.671875 25.023438 24.164062 30.5 23.765625 31.957031 C 23.3125 31.804688 22.40625 31.390625 21.386719 30.726562 C 20.292969 30.027344 19.761719 29.5 19.519531 29.179688 C 19.648438 29.027344 19.78125 28.875 19.953125 28.707031 C 20.253906 28.386719 20.574219 28.046875 20.820312 27.6875 C 21.066406 27.515625 21.3125 27.347656 21.519531 27.214844 C 23.238281 26.042969 24.390625 25.269531 23.9375 24.382812 C 23.484375 23.476562 21.933594 22.417969 20.328125 21.398438 C 20.027344 20.8125 19.6875 20.339844 19.292969 20.074219 C 18.761719 19.734375 18.15625 19.734375 17.628906 20.09375 C 17.441406 20.226562 17.328125 20.453125 17.328125 20.679688 C 17.347656 21.097656 17.496094 21.285156 19.308594 22.324219 C 19.859375 23.644531 20.234375 25.609375 20.140625 26.121094 C 20.101562 26.328125 20.007812 26.535156 19.875 26.761719 C 18.933594 27.421875 18.347656 27.933594 18.140625 28.40625 C 18.0625 28.574219 18.042969 28.746094 18.042969 28.914062 C 17.628906 29.519531 17.347656 30.21875 17.476562 31.046875 C 16.875 31.105469 16.25 31.3125 15.683594 31.503906 C 15.570312 31.539062 15.457031 31.578125 15.363281 31.617188 C 15.796875 30.652344 15.796875 29.367188 15.796875 28.519531 L 15.796875 28.421875 C 15.796875 25.136719 15.984375 21.890625 16.175781 19.132812 C 16.175781 19.09375 16.175781 19.019531 16.195312 18.941406 C 16.269531 17.886719 16.269531 17.242188 15.96875 16.867188 Z M 22.105469 35.601562 C 22.257812 35.882812 22.445312 36.28125 22.917969 36.28125 C 23.199219 36.28125 23.425781 36.128906 23.558594 35.863281 C 23.636719 35.734375 23.691406 35.507812 23.578125 35.222656 C 23.445312 34.882812 22.953125 34.355469 22.3125 33.769531 C 22.179688 33.597656 22.046875 33.429688 21.898438 33.257812 C 21.746094 33.089844 21.558594 32.9375 21.367188 32.785156 C 21.367188 32.636719 21.367188 32.484375 21.367188 32.3125 C 21.367188 32.296875 21.367188 32.257812 21.367188 32.238281 C 22.292969 32.785156 23.257812 33.203125 23.898438 33.277344 C 23.898438 33.335938 23.917969 33.410156 23.917969 33.464844 C 23.917969 33.882812 23.9375 34.296875 23.976562 34.730469 C 24.050781 35.601562 24.296875 36.429688 24.542969 37.207031 C 24.636719 37.546875 24.75 37.886719 24.824219 38.207031 C 24.730469 38.207031 24.65625 38.1875 24.617188 38.1875 C 24.484375 38.167969 24.371094 38.167969 24.332031 38.167969 C 23.976562 38.167969 22.558594 38.074219 21.046875 37.980469 C 20.992188 37.980469 20.933594 37.980469 20.859375 37.960938 C 21.027344 36.828125 21.179688 35.695312 21.273438 34.542969 C 21.292969 34.5625 21.3125 34.582031 21.332031 34.597656 C 21.539062 34.84375 21.746094 35.109375 21.972656 35.335938 C 22.03125 35.449219 22.066406 35.542969 22.105469 35.601562 Z M 20.519531 31.710938 C 20.367188 31.765625 20.234375 31.878906 20.160156 32.011719 C 19.613281 31.617188 19.160156 31.3125 18.96875 31.238281 C 18.914062 31.144531 18.855469 31.066406 18.835938 30.972656 C 18.78125 30.746094 18.761719 30.558594 18.820312 30.351562 C 18.835938 30.367188 18.855469 30.386719 18.855469 30.40625 C 19.214844 30.765625 19.820312 31.257812 20.519531 31.710938 Z M 21.085938 23.476562 C 21.691406 23.910156 22.3125 24.382812 22.613281 24.757812 C 22.386719 24.988281 21.933594 25.328125 21.464844 25.648438 C 21.425781 25.082031 21.292969 24.289062 21.085938 23.476562 Z M 20.066406 44.722656 C 20.101562 44.4375 20.121094 44.175781 20.140625 43.949219 C 20.214844 42.417969 20.441406 40.851562 20.667969 39.320312 C 20.765625 39.320312 20.859375 39.339844 20.972656 39.339844 C 22.632812 39.433594 23.9375 39.527344 24.332031 39.527344 C 24.371094 39.527344 24.429688 39.527344 24.523438 39.546875 C 24.785156 39.566406 25.011719 39.585938 25.203125 39.585938 C 25.503906 41.246094 25.597656 42.832031 25.070312 44.117188 C 24.863281 44.289062 23.992188 44.382812 23.503906 44.4375 C 22.765625 44.535156 22.046875 44.609375 21.59375 44.890625 C 21.558594 44.910156 21.464844 44.988281 21.3125 45.082031 C 20.707031 45.476562 20.292969 45.761719 19.988281 45.949219 C 19.972656 45.554688 20.027344 45.082031 20.066406 44.722656 Z M 8.015625 58.605469 C 8.054688 59.453125 8.015625 59.980469 7.941406 60.285156 C 7.789062 60 7.601562 59.660156 7.46875 59.414062 C 6.976562 58.472656 6.75 58.09375 6.503906 57.886719 C 6.050781 57.527344 5.484375 57.46875 4.996094 57.433594 C 4.75 57.414062 4.464844 57.375 4.296875 57.320312 C 4.199219 56.921875 4.03125 56.015625 3.957031 55.488281 C 5.238281 54.75 6.183594 53.789062 7.167969 52.769531 C 7.410156 52.523438 7.675781 52.257812 7.921875 51.992188 L 7.996094 51.917969 C 8.375 51.578125 8.695312 51.277344 8.960938 51.03125 C 8.867188 51.578125 8.773438 52.144531 8.65625 52.730469 C 8.316406 54.542969 7.976562 56.414062 7.976562 58.1875 C 7.996094 58.28125 7.996094 58.433594 8.015625 58.605469 Z M 8.902344 47.046875 C 8.886719 46.988281 8.867188 46.933594 8.847656 46.914062 C 8.582031 46.195312 8.449219 45.402344 8.316406 44.609375 L 8.261719 44.230469 C 8.128906 43.417969 7.996094 42.605469 7.882812 41.796875 C 8.714844 40.699219 9.695312 39.113281 10.90625 36.960938 C 11.039062 36.714844 11.152344 36.527344 11.226562 36.394531 L 11.285156 36.300781 C 11.660156 35.621094 11.964844 35.148438 12.191406 34.808594 C 12.207031 35.390625 12.171875 36.28125 12.019531 37.660156 C 11.8125 39.660156 11.453125 41.890625 11.1875 43.511719 C 11.074219 44.230469 10.980469 44.816406 10.925781 45.195312 C 10.925781 45.195312 10.886719 45.457031 10.886719 45.855469 C 10.699219 45.875 10.546875 45.929688 10.414062 45.988281 C 9.695312 46.347656 9.433594 47.253906 9.320312 48.140625 C 9.226562 47.855469 9.09375 47.515625 8.902344 47.046875 Z M 5.5625 34.070312 C 5.371094 34.183594 5.257812 34.410156 5.257812 34.636719 C 5.257812 34.84375 5.351562 35.050781 5.542969 35.488281 C 5.636719 35.675781 5.804688 36.054688 5.824219 36.148438 C 5.9375 37.015625 6.050781 37.90625 6.144531 38.773438 C 6.183594 39.019531 6.203125 39.265625 6.242188 39.527344 C 6.222656 39.566406 6.203125 39.605469 6.183594 39.625 C 6.164062 39.640625 6.128906 39.699219 6.050781 39.792969 C 5.523438 40.472656 5.125 41.039062 4.84375 41.492188 C 4.882812 41.171875 4.917969 40.832031 4.957031 40.511719 C 4.996094 40.207031 5.011719 38.714844 5.050781 36.316406 C 5.070312 35.242188 5.089844 33.976562 5.109375 33.277344 C 5.523438 33.316406 6.144531 33.449219 6.523438 33.503906 C 7.167969 33.617188 7.5625 33.691406 7.828125 33.691406 C 8.65625 33.691406 9.546875 33.65625 10.414062 33.617188 C 10.054688 33.769531 9.660156 34.128906 9.226562 34.695312 C 8.886719 34.710938 8.527344 34.710938 8.1875 34.695312 C 7.734375 34.65625 7.335938 34.5625 7.035156 34.429688 L 6.976562 34.390625 C 6.089844 33.957031 5.902344 33.863281 5.5625 34.070312 Z M 6.484375 41.4375 C 6.46875 41.472656 6.449219 41.492188 6.410156 41.53125 C 6.449219 41.472656 6.46875 41.453125 6.484375 41.4375 C 6.484375 41.417969 6.484375 41.417969 6.484375 41.4375 Z M 9.527344 32.3125 C 9.601562 32.277344 9.660156 32.21875 9.695312 32.164062 C 9.773438 32.21875 9.867188 32.257812 9.941406 32.296875 C 9.808594 32.3125 9.660156 32.3125 9.527344 32.3125 Z M 8.109375 35.976562 C 8.167969 35.976562 8.222656 35.976562 8.316406 35.996094 C 8.015625 36.46875 7.695312 36.996094 7.335938 37.601562 C 7.261719 37.054688 7.203125 36.527344 7.128906 35.976562 C 7.128906 35.921875 7.109375 35.863281 7.089844 35.808594 C 7.410156 35.902344 7.75 35.960938 8.109375 35.976562 Z M 7.882812 39.320312 C 8.734375 37.808594 9.433594 36.65625 9.960938 35.902344 C 9.960938 35.902344 9.960938 35.902344 9.980469 35.902344 C 9.921875 36.015625 9.828125 36.148438 9.753906 36.316406 C 9.261719 37.1875 8.488281 38.585938 7.636719 39.867188 C 7.636719 39.851562 7.636719 39.832031 7.636719 39.792969 C 7.695312 39.660156 7.789062 39.507812 7.882812 39.320312 Z M 11.171875 33.542969 C 11.265625 33.542969 11.359375 33.523438 11.453125 33.523438 C 11.433594 33.5625 11.398438 33.597656 11.378906 33.636719 C 11.359375 33.636719 11.339844 33.617188 11.339844 33.617188 C 11.265625 33.578125 11.207031 33.5625 11.171875 33.542969 Z M 11.605469 60.132812 C 11.625 60.039062 11.640625 59.945312 11.660156 59.867188 C 11.773438 59.378906 11.851562 58.90625 11.925781 58.453125 C 11.980469 58.90625 12.039062 59.378906 12.113281 59.851562 C 12.191406 60.4375 12.265625 60.945312 12.304688 61.285156 C 12.339844 61.683594 12.417969 62.25 12.566406 62.796875 C 12.191406 62.664062 11.851562 62.476562 11.585938 62.25 C 11.171875 61.945312 11.472656 60.679688 11.605469 60.132812 Z M 3.992188 46.78125 C 4.183594 45.722656 4.371094 44.664062 4.539062 43.589844 C 4.636719 43.683594 4.769531 43.757812 4.917969 43.796875 C 5.449219 43.949219 6.03125 43.742188 6.714844 43.097656 C 6.789062 43.550781 6.863281 44.003906 6.941406 44.457031 L 6.996094 44.835938 C 7.148438 45.683594 7.28125 46.554688 7.582031 47.367188 C 7.601562 47.386719 7.621094 47.460938 7.65625 47.554688 C 7.75 47.761719 7.808594 47.933594 7.863281 48.085938 C 7.449219 48.007812 6.957031 47.820312 6.46875 47.613281 C 5.691406 47.308594 4.84375 46.96875 4.011719 46.96875 C 3.992188 46.96875 3.957031 46.96875 3.9375 46.96875 C 3.972656 46.914062 3.992188 46.855469 3.992188 46.78125 Z M 23.03125 69.140625 C 22.839844 69.253906 22.105469 69.425781 19.367188 69.027344 C 19.195312 69.011719 19.0625 68.992188 18.96875 68.972656 C 18.308594 68.898438 17.609375 68.820312 16.875 68.726562 C 12.792969 68.292969 8.167969 67.800781 5.296875 65.496094 C 4.050781 64.496094 3.050781 61.304688 2.804688 59.398438 C 2.726562 58.734375 2.578125 58.035156 2.445312 57.375 C 2.140625 55.828125 1.820312 54.242188 2.105469 52.824219 C 2.21875 52.296875 2.480469 51.765625 2.785156 51.21875 C 3.125 50.597656 3.484375 49.933594 3.597656 49.179688 C 3.597656 49.121094 3.617188 49.066406 3.617188 49.007812 C 3.691406 49.027344 3.746094 49.066406 3.824219 49.085938 C 3.957031 49.140625 4.070312 49.179688 4.164062 49.21875 C 5.203125 49.6875 6.277344 49.671875 7.222656 49.632812 C 7.65625 49.613281 8.054688 49.613281 8.449219 49.652344 C 8.167969 49.933594 7.75 50.332031 7.128906 50.898438 C 7.054688 50.953125 7.015625 50.992188 7.015625 51.011719 C 6.75 51.277344 6.484375 51.558594 6.222656 51.804688 C 5.164062 52.898438 4.257812 53.824219 2.9375 54.488281 C 2.746094 54.582031 2.613281 54.75 2.578125 54.957031 C 2.558594 55.070312 2.539062 55.148438 2.785156 56.507812 C 3.050781 57.960938 3.105469 58.019531 3.257812 58.167969 C 3.710938 58.621094 4.3125 58.679688 4.863281 58.71875 C 5.164062 58.753906 5.503906 58.773438 5.65625 58.886719 C 5.789062 59.039062 6.089844 59.625 6.277344 60 C 7.035156 61.4375 7.449219 62.210938 8.1875 61.925781 C 9.414062 61.4375 9.339844 59.625 9.300781 58.527344 C 9.300781 58.378906 9.28125 58.246094 9.28125 58.148438 C 9.28125 56.488281 9.621094 54.675781 9.941406 52.9375 C 10.132812 51.859375 10.339844 50.765625 10.472656 49.707031 C 10.488281 49.59375 10.488281 49.445312 10.507812 49.253906 C 10.601562 47.78125 10.792969 47.328125 10.90625 47.195312 C 10.925781 47.386719 10.960938 47.554688 11 47.726562 C 10.980469 48.160156 10.945312 48.613281 10.90625 49.085938 C 10.847656 49.785156 10.773438 50.5 10.773438 51.238281 C 10.773438 51.898438 10.792969 52.542969 10.792969 53.144531 C 10.832031 55.355469 10.867188 57.242188 10.359375 59.566406 C 10.339844 59.640625 10.320312 59.71875 10.300781 59.8125 C 10.074219 60.792969 9.679688 62.417969 10.699219 63.269531 C 11.414062 63.871094 12.417969 64.210938 13.492188 64.421875 C 13.511719 64.4375 13.53125 64.4375 13.53125 64.457031 C 14.023438 64.816406 14.644531 64.929688 15.34375 64.796875 C 15.476562 64.78125 15.589844 64.722656 15.703125 64.667969 C 16.15625 64.683594 16.589844 64.683594 17.023438 64.683594 C 17.289062 64.683594 17.628906 64.703125 18.007812 64.742188 C 19.082031 64.835938 20.3125 64.929688 21.179688 64.496094 C 21.820312 64.175781 21.785156 63.570312 20.820312 59.527344 C 20.6875 59 20.574219 58.492188 20.539062 58.320312 C 20.253906 56.582031 20.046875 54.882812 19.914062 53.277344 C 19.914062 53.238281 19.914062 53.109375 19.933594 53.011719 C 19.988281 52.316406 20.027344 51.652344 19.554688 51.332031 C 19.292969 51.144531 18.949219 51.144531 18.667969 51.277344 C 17.703125 51.785156 17.515625 54.902344 17.515625 54.921875 C 17.515625 55.355469 17.574219 55.976562 17.648438 56.714844 C 17.816406 58.527344 18.15625 61.910156 17.195312 62.777344 C 17.082031 62.871094 16.910156 62.984375 16.535156 62.964844 C 16.664062 62.378906 16.761719 61.605469 16.835938 60.605469 C 16.890625 60.4375 16.949219 60.304688 16.988281 60.191406 C 17.195312 59.640625 17.347656 59.246094 17.382812 58.960938 C 17.6875 57.074219 17.476562 55.222656 17.269531 53.429688 C 17.136719 52.277344 17.023438 51.179688 17.023438 50.085938 L 17.023438 50.011719 C 17.023438 49.652344 16.722656 49.347656 16.363281 49.347656 C 16.003906 49.347656 15.703125 49.652344 15.703125 50.011719 L 15.703125 51.277344 C 15.703125 51.765625 15.664062 52.238281 15.644531 52.75 C 15.609375 53.257812 15.589844 53.789062 15.589844 54.316406 C 15.589844 54.449219 15.589844 54.65625 15.589844 54.941406 C 15.628906 57.339844 15.609375 59.074219 15.53125 60.339844 C 15.097656 61.550781 14.816406 62.570312 15.042969 63.304688 C 14.738281 63.289062 14.398438 63.25 14.078125 63.191406 C 13.699219 62.683594 13.585938 61.664062 13.53125 61.152344 C 13.492188 60.792969 13.417969 60.304688 13.34375 59.679688 C 13.097656 57.828125 12.71875 55.015625 12.605469 52.503906 C 12.53125 50.878906 12.566406 49.785156 12.660156 49.066406 C 12.71875 49.046875 12.792969 49.007812 12.871094 48.992188 C 12.871094 48.992188 12.886719 48.992188 12.886719 48.992188 C 13.34375 48.746094 13.246094 48.386719 13.117188 47.761719 C 13.117188 47.742188 13.097656 47.707031 13.097656 47.6875 C 13.097656 47.667969 13.117188 47.667969 13.117188 47.667969 C 14.304688 46.667969 16.117188 47.046875 17.722656 47.535156 C 18.269531 47.707031 18.988281 47.800781 19.761719 47.914062 C 21.046875 48.101562 22.632812 48.328125 23.179688 48.859375 C 23.484375 49.160156 23.390625 50.445312 23.351562 51.050781 C 23.332031 51.351562 23.3125 51.597656 23.3125 51.804688 C 23.3125 53.523438 22.972656 55.28125 22.632812 56.960938 C 22.292969 58.699219 21.933594 60.472656 21.933594 62.25 C 21.933594 62.796875 22.144531 63.910156 22.386719 65.195312 C 22.691406 66.480469 23.085938 68.554688 23.03125 69.140625 Z M 19.121094 57.488281 C 19.179688 57.828125 19.214844 58.167969 19.273438 58.527344 C 19.308594 58.734375 19.40625 59.132812 19.574219 59.832031 C 19.78125 60.71875 20.234375 62.644531 20.328125 63.417969 C 19.820312 63.53125 19.101562 63.496094 18.460938 63.457031 C 19.421875 62.152344 19.308594 59.640625 19.121094 57.488281 Z M 23.992188 57.242188 C 24.332031 55.488281 24.691406 53.675781 24.691406 51.824219 C 24.691406 51.652344 24.710938 51.425781 24.730469 51.164062 C 24.824219 50.046875 24.917969 48.667969 24.183594 47.933594 C 23.523438 47.273438 22.371094 46.96875 21.140625 46.78125 C 21.386719 46.609375 21.691406 46.421875 22.03125 46.195312 C 22.144531 46.121094 22.238281 46.0625 22.257812 46.042969 C 22.484375 45.914062 23.125 45.835938 23.636719 45.78125 C 24.65625 45.667969 25.695312 45.535156 26.148438 44.875 C 25.921875 47.328125 25.75 49.785156 25.5625 52.203125 C 25.335938 55.335938 25.089844 58.585938 24.769531 61.757812 C 24.597656 63.496094 24.351562 65.269531 24.105469 67.007812 C 24.011719 66.441406 23.898438 65.78125 23.75 64.988281 C 23.539062 63.871094 23.3125 62.722656 23.3125 62.285156 C 23.332031 60.625 23.652344 58.980469 23.992188 57.242188 Z M 11.585938 108.40625 C 12.058594 108.179688 12.605469 108.105469 12.925781 108.105469 C 13.058594 108.3125 13.230469 108.558594 13.417969 108.820312 C 13.457031 108.972656 13.511719 109.105469 13.53125 109.199219 C 13.625 109.519531 13.71875 109.804688 13.8125 110.011719 C 13.945312 110.257812 14.324219 111.183594 14.777344 112.296875 C 14.4375 112.238281 14.039062 112.316406 13.625 112.371094 C 13.492188 112.390625 13.324219 112.429688 13.191406 112.429688 C 12.71875 111.84375 11.453125 109.445312 11.152344 108.671875 C 11.226562 108.613281 11.359375 108.519531 11.585938 108.40625 Z M 7.375 109.273438 C 8.242188 109.085938 9.074219 108.898438 9.792969 108.707031 C 9.808594 108.933594 10 109.484375 10.90625 111.203125 C 12.132812 113.503906 12.472656 113.636719 12.699219 113.714844 C 13.003906 113.828125 13.359375 113.75 13.8125 113.695312 C 13.871094 113.695312 13.925781 113.675781 13.984375 113.675781 C 13.738281 113.828125 13.324219 113.957031 12.738281 114.109375 C 11.792969 114.375 10.699219 114.65625 10.414062 115.640625 C 10.1875 116.433594 10.621094 117.414062 11.074219 118.433594 C 11.359375 119.058594 11.867188 120.191406 11.679688 120.472656 C 11.511719 120.492188 11.074219 120.4375 10.414062 120.210938 C 7.808594 119.339844 6.371094 117.394531 5.578125 113.714844 C 5.484375 113.242188 5.335938 112.808594 5.203125 112.371094 C 5.070312 111.976562 4.957031 111.617188 4.882812 111.238281 C 4.84375 111.089844 4.785156 110.917969 4.710938 110.730469 C 4.617188 110.425781 4.523438 110.179688 4.425781 109.992188 C 5.371094 109.710938 6.542969 109.445312 7.375 109.273438 Z M 4.75 118.359375 C 4.464844 118.285156 3.617188 118.09375 3.390625 117.90625 C 3.292969 117.621094 3.351562 117.226562 3.40625 116.792969 C 3.464844 116.453125 3.503906 116.113281 3.484375 115.753906 C 3.445312 115.109375 3.257812 114.429688 3.085938 113.769531 C 2.785156 112.617188 2.464844 111.445312 2.9375 110.617188 C 2.972656 110.558594 3.050781 110.503906 3.164062 110.445312 C 3.199219 110.558594 3.257812 110.652344 3.292969 110.75 C 3.351562 110.878906 3.464844 111.125 3.539062 111.296875 C 4.011719 112.882812 4.691406 116.453125 4.917969 118.398438 C 4.863281 118.398438 4.804688 118.378906 4.75 118.359375 Z M 12.925781 131.9375 C 8.394531 132.410156 7.507812 130.804688 6.390625 126.6875 C 6.257812 126.179688 6.070312 125.667969 5.882812 125.101562 C 5.5625 124.175781 5.222656 123.230469 5.125 122.382812 C 5.429688 122.871094 5.917969 123.269531 6.410156 123.667969 C 6.769531 123.96875 7.148438 124.269531 7.335938 124.535156 C 7.75 125.175781 7.941406 126.007812 8.128906 126.875 C 8.375 128.027344 8.640625 129.21875 9.46875 130.164062 C 10.585938 131.429688 11.867188 131.351562 12.644531 130.917969 C 12.964844 130.730469 13.230469 130.484375 13.398438 130.183594 C 13.417969 130.277344 13.417969 130.351562 13.4375 130.445312 C 13.4375 130.976562 13.117188 131.863281 12.925781 131.9375 Z M 16.25 117.734375 C 16.023438 117.886719 15.816406 118.039062 15.644531 118.207031 C 13.925781 119.925781 12.851562 121.417969 12.433594 122.609375 C 11.792969 124.460938 12.226562 126.140625 12.71875 127.746094 C 12.699219 127.746094 12.699219 127.746094 12.679688 127.765625 C 12.339844 127.878906 12.152344 128.253906 12.265625 128.59375 C 12.472656 129.21875 12.207031 129.632812 11.925781 129.804688 C 11.585938 130.011719 11 129.972656 10.414062 129.3125 C 9.808594 128.632812 9.601562 127.652344 9.375 126.632812 C 9.167969 125.667969 8.941406 124.6875 8.394531 123.835938 C 8.109375 123.402344 7.636719 123.023438 7.203125 122.664062 C 6.769531 122.304688 6.257812 121.890625 6.144531 121.570312 C 6.050781 121.285156 6.128906 120.832031 6.203125 120.398438 C 6.257812 120.097656 6.316406 119.777344 6.316406 119.453125 C 6.316406 119.304688 6.296875 119.078125 6.277344 118.8125 C 7.128906 119.945312 8.316406 120.910156 10.019531 121.457031 C 11.605469 121.984375 12.171875 121.757812 12.453125 121.550781 C 13.570312 120.71875 12.890625 119.210938 12.285156 117.886719 C 11.980469 117.226562 11.585938 116.320312 11.679688 116 C 11.753906 115.734375 12.546875 115.527344 13.078125 115.394531 C 13.925781 115.167969 15.023438 114.867188 15.4375 114.035156 C 16.003906 115.46875 16.535156 116.847656 16.722656 117.414062 C 16.609375 117.492188 16.382812 117.640625 16.25 117.734375 Z M 27.316406 107.6875 C 27.242188 107.726562 27.167969 107.78125 27.089844 107.820312 C 27.089844 107.707031 27.089844 107.59375 27.070312 107.460938 C 27.054688 107.199219 27.015625 106.933594 26.957031 106.6875 C 27.203125 107.027344 27.394531 107.328125 27.46875 107.519531 C 27.429688 107.574219 27.394531 107.632812 27.316406 107.6875 Z M 38.273438 102.230469 C 36.136719 103.742188 33.585938 104.816406 31.113281 105.855469 C 30.472656 106.121094 29.8125 106.40625 29.167969 106.6875 C 29 106.761719 28.828125 106.859375 28.640625 106.933594 C 28.054688 105.574219 26.128906 103.777344 25.957031 103.664062 C 25.597656 103.421875 25.238281 103.515625 25.050781 103.683594 C 24.75 103.949219 24.578125 104.289062 25.351562 105.914062 C 25.695312 106.632812 25.902344 108.085938 25.695312 108.539062 C 25.503906 108.59375 25.335938 108.652344 25.164062 108.691406 C 24.503906 108.539062 23.503906 107.800781 22.953125 107.40625 C 22.632812 107.179688 22.371094 106.972656 22.125 106.839844 C 20.386719 105.800781 20.328125 105.820312 20.007812 105.96875 C 19.800781 106.0625 19.667969 106.253906 19.632812 106.480469 C 19.574219 106.839844 19.820312 107.085938 19.894531 107.160156 C 20.292969 107.554688 22.804688 109.332031 24.371094 109.878906 C 23.371094 110.539062 22.371094 111.144531 21.820312 111.464844 C 21.332031 111.769531 20.953125 111.996094 20.726562 112.144531 C 20.519531 112.277344 20.234375 112.523438 19.875 112.84375 C 19.40625 113.242188 18.027344 114.449219 17.535156 114.507812 C 17.136719 114.089844 16.703125 112.484375 16.476562 111.597656 C 16.363281 111.164062 16.269531 110.804688 16.175781 110.523438 C 16.0625 110.164062 15.703125 109.671875 15.078125 108.859375 C 14.945312 108.671875 14.777344 108.445312 14.589844 108.21875 C 14.4375 107.800781 14.265625 107.425781 14.003906 107.160156 C 14.078125 107.140625 14.152344 107.140625 14.230469 107.121094 C 14.492188 107.085938 14.644531 107.046875 14.757812 107.007812 C 15.589844 106.726562 16.402344 106.101562 17.0625 105.59375 C 17.175781 105.496094 17.289062 105.421875 17.382812 105.347656 C 18.722656 104.328125 20.027344 103.269531 21.292969 102.230469 C 23.105469 100.757812 24.976562 99.207031 26.957031 97.847656 C 28.242188 96.980469 29.527344 96.320312 30.433594 96.128906 C 30.507812 96.128906 30.71875 96.128906 30.847656 96.128906 C 31.453125 96.148438 31.757812 96.128906 32.019531 95.941406 C 32.191406 95.808594 32.453125 95.507812 32.246094 94.941406 C 32.132812 94.46875 32.039062 93.976562 31.945312 93.46875 C 31.792969 92.65625 31.625 91.804688 31.359375 90.992188 C 30.734375 89.160156 30.394531 87.179688 30.054688 85.269531 C 29.714844 83.308594 29.355469 81.285156 28.714844 79.359375 C 28.695312 79.320312 28.675781 79.265625 28.660156 79.191406 C 28.1875 77.828125 28.09375 77.226562 28.09375 76.960938 C 28.128906 76.960938 28.167969 76.960938 28.222656 76.941406 C 28.375 76.980469 28.546875 77.019531 28.714844 77.019531 C 28.773438 77.019531 28.828125 77.019531 28.886719 77.019531 C 29.113281 77 29.339844 76.921875 29.546875 76.828125 C 30.09375 76.773438 30.699219 76.734375 30.886719 76.773438 C 31.074219 76.847656 31.265625 77.472656 31.378906 77.792969 C 31.472656 78.09375 31.585938 78.414062 31.738281 78.679688 C 32.964844 80.90625 33.4375 83.078125 33.945312 85.402344 C 34.15625 86.402344 34.382812 87.425781 34.683594 88.5 C 35.269531 90.671875 36.0625 92.730469 36.835938 94.75 C 37.308594 96 37.816406 97.300781 38.234375 98.585938 C 38.273438 98.699219 38.289062 98.832031 38.289062 98.964844 C 37.703125 99.679688 37.363281 100.285156 37.363281 100.796875 C 37.363281 101.53125 37.835938 101.945312 38.273438 102.230469 Z M 42.445312 137.339844 C 41.691406 137.246094 40.765625 137.167969 39.613281 137.09375 C 38.839844 137.039062 37.914062 136.960938 37.441406 136.90625 C 37.441406 136.488281 37.535156 135.734375 37.589844 135.167969 C 37.703125 134.582031 37.78125 133.863281 37.816406 133.488281 C 38.160156 133.394531 38.574219 133.261719 39.046875 133.109375 C 39.367188 132.996094 39.820312 132.84375 39.953125 132.824219 C 40.460938 132.824219 41.027344 132.957031 41.632812 133.109375 C 42.332031 133.277344 43.105469 133.46875 43.878906 133.429688 C 42.746094 133.636719 41.480469 133.996094 41.5 135.167969 C 41.539062 136 41.972656 136.734375 42.445312 137.339844 Z M 41.21875 139.605469 C 40.558594 139.757812 39.914062 139.890625 39.273438 139.984375 C 36.308594 140.398438 36.0625 139.757812 36.0625 139.757812 C 35.890625 139.226562 36.101562 138.566406 36.421875 137.90625 C 36.457031 137.945312 36.496094 137.964844 36.535156 138 C 36.835938 138.207031 37.382812 138.265625 39.535156 138.433594 C 40.386719 138.492188 41.765625 138.605469 42.84375 138.738281 C 42.878906 138.871094 42.9375 138.984375 43.03125 139.097656 C 43.070312 139.152344 43.105469 139.191406 43.164062 139.246094 C 42.484375 139.324219 41.839844 139.472656 41.21875 139.605469 Z M 42.84375 135.148438 C 43.03125 134.921875 44.125 134.734375 44.578125 134.65625 C 44.65625 134.640625 44.710938 134.640625 44.769531 134.621094 C 44.75 134.640625 44.730469 134.675781 44.710938 134.695312 C 44.277344 135.261719 43.804688 135.867188 43.425781 136.472656 C 43.125 136.035156 42.859375 135.582031 42.84375 135.148438 Z M 45.410156 133.128906 C 45.257812 133.183594 44.996094 133.242188 44.710938 133.296875 C 44.730469 133.296875 44.769531 133.277344 44.789062 133.277344 C 45.257812 133.128906 45.542969 132.84375 45.695312 132.503906 C 45.730469 132.597656 45.789062 132.675781 45.84375 132.769531 C 45.863281 132.789062 45.863281 132.808594 45.882812 132.824219 C 45.730469 132.84375 45.5625 132.9375 45.410156 133.128906 Z M 47.414062 139.210938 C 47.734375 139.152344 48.074219 139.078125 48.414062 139.019531 C 49.488281 138.8125 50.605469 138.585938 51.039062 138.605469 C 51.078125 138.605469 51.132812 138.605469 51.207031 138.625 C 51.226562 138.792969 51.320312 138.964844 51.453125 139.097656 C 51.492188 139.132812 51.53125 139.171875 51.566406 139.191406 C 50.1875 139.304688 48.808594 139.265625 47.414062 139.210938 Z M 58.367188 136.074219 C 58.628906 136.28125 58.613281 136.753906 58.59375 137.433594 C 58.480469 137.207031 58.367188 137 58.289062 136.828125 C 58.101562 136.433594 57.933594 136.054688 57.722656 135.734375 C 57.988281 135.828125 58.195312 135.941406 58.367188 136.074219 Z M 56.230469 135.980469 C 56.457031 136.074219 56.875 136.941406 57.082031 137.394531 C 57.195312 137.640625 57.328125 137.886719 57.441406 138.132812 C 57.253906 138.207031 57.042969 138.320312 56.800781 138.433594 C 56.117188 138.546875 55.230469 138.679688 54.117188 138.832031 C 54.058594 138.832031 54.003906 138.851562 53.945312 138.851562 C 53.644531 138.773438 53.34375 138.660156 53.078125 138.546875 C 53.363281 138.472656 53.589844 138.320312 53.738281 138.09375 C 53.777344 138.058594 53.796875 138 53.816406 137.964844 C 53.890625 137.925781 53.945312 137.886719 53.984375 137.851562 C 54.363281 137.527344 54.644531 137.113281 54.910156 136.753906 C 55.496094 135.960938 55.683594 135.792969 56.230469 135.980469 Z M 46.488281 134.488281 C 46.621094 134.261719 46.734375 134.035156 46.769531 133.789062 C 48.222656 134.902344 50.339844 134.996094 51.964844 135.074219 C 52.113281 135.074219 52.246094 135.09375 52.398438 135.09375 C 52.53125 135.09375 52.683594 135.109375 52.851562 135.109375 C 53.285156 135.128906 53.871094 135.148438 54.496094 135.207031 C 54.230469 135.46875 54.003906 135.773438 53.832031 136.035156 C 53.625 136.339844 53.417969 136.640625 53.171875 136.847656 C 53.117188 136.886719 52.964844 136.941406 52.871094 137 C 52.605469 137.132812 52.378906 137.246094 52.171875 137.359375 C 51.964844 137.359375 51.699219 137.339844 51.398438 137.320312 C 51.285156 137.300781 51.191406 137.300781 51.113281 137.300781 C 50.546875 137.265625 49.621094 137.453125 48.167969 137.738281 C 47.394531 137.886719 46.203125 138.113281 45.277344 138.226562 C 45.164062 138.078125 45.015625 137.964844 44.769531 137.851562 C 44.636719 137.738281 44.503906 137.625 44.371094 137.507812 C 44.769531 136.8125 45.46875 135.90625 45.769531 135.527344 C 46.109375 135.054688 46.355469 134.734375 46.488281 134.488281 Z M 44.335938 130.351562 C 44.597656 131.390625 44.65625 131.917969 44.351562 132.015625 C 43.652344 132.257812 42.824219 132.050781 41.953125 131.824219 C 41.292969 131.65625 40.613281 131.503906 39.914062 131.503906 C 39.648438 131.503906 39.292969 131.636719 38.613281 131.863281 C 38.347656 131.957031 37.949219 132.089844 37.648438 132.183594 C 37.667969 131.769531 37.742188 131.203125 37.816406 130.804688 C 38.289062 130.671875 38.761719 130.425781 39.214844 130.183594 C 39.632812 129.957031 40.046875 129.746094 40.40625 129.632812 C 40.839844 129.519531 41.558594 129.425781 42.332031 129.3125 C 42.898438 129.238281 43.503906 129.164062 44.089844 129.046875 C 44.125 129.464844 44.222656 129.917969 44.335938 130.351562 Z M 48.941406 83.589844 C 48.921875 83.628906 48.921875 83.648438 48.921875 83.683594 C 48.660156 85.554688 49.488281 87.878906 50.28125 90.125 C 50.90625 91.882812 51.566406 93.710938 51.644531 95.222656 C 51.792969 97.960938 50.90625 100.890625 50.039062 103.722656 C 49.847656 104.328125 49.679688 104.894531 49.507812 105.480469 C 48.28125 109.726562 47.261719 113.957031 46.164062 118.679688 C 45.789062 120.265625 45.46875 122.078125 45.84375 123.476562 C 45.921875 123.78125 46.070312 124.121094 46.242188 124.515625 C 46.488281 125.082031 47.035156 126.40625 46.789062 126.707031 C 46.203125 127.445312 43.765625 127.765625 42.144531 127.992188 C 41.292969 128.105469 40.558594 128.199219 40.046875 128.351562 C 39.535156 128.480469 39.046875 128.746094 38.574219 129.011719 C 38.308594 129.164062 38.046875 129.292969 37.800781 129.40625 C 37.800781 129.046875 37.875 128.5 37.949219 128.21875 C 38.007812 128.011719 38.5 127.613281 38.894531 127.292969 C 39.007812 127.234375 39.101562 127.140625 39.214844 127.046875 C 40.160156 126.328125 41.253906 125.441406 40.859375 124.269531 C 40.765625 123.988281 40.519531 123.796875 40.234375 123.761719 C 39.707031 123.722656 39.460938 124.15625 39.066406 124.894531 C 38.933594 125.121094 38.726562 125.5 38.554688 125.78125 C 38.273438 124.628906 38.460938 122.96875 38.628906 121.625 C 38.6875 121.136719 38.742188 120.683594 38.78125 120.265625 C 38.914062 118.605469 39.066406 116.925781 39.214844 115.300781 C 39.441406 112.902344 39.6875 110.40625 39.820312 107.953125 C 39.839844 107.5 39.953125 107.007812 40.046875 106.519531 C 40.179688 105.855469 40.332031 105.15625 40.3125 104.441406 C 40.3125 104.308594 40.3125 104.136719 40.332031 103.96875 C 40.347656 103.550781 40.386719 103.082031 40.292969 102.628906 C 40.800781 102.210938 41.160156 101.644531 41.160156 101.625 C 41.746094 100.585938 42.238281 99.492188 42.691406 98.453125 C 42.992188 97.773438 43.296875 97.054688 43.636719 96.375 C 43.691406 96.261719 44.050781 95.753906 44.351562 95.28125 C 44.65625 94.828125 44.996094 94.316406 45.242188 93.921875 C 45.730469 93.164062 46.015625 92.710938 45.484375 92.335938 C 45.484375 92.335938 45.46875 92.335938 45.46875 92.316406 C 44.957031 91.976562 44.578125 92.429688 44.371094 92.710938 C 44.257812 92.84375 44.144531 92.996094 44.125 93.015625 C 43.992188 93.183594 43.785156 93.355469 43.578125 93.523438 C 43.332031 93.730469 43.070312 93.957031 42.824219 94.261719 C 42.503906 94.675781 41.765625 95.375 40.972656 96.113281 C 40.347656 96.695312 39.78125 97.226562 39.308594 97.714844 C 38.894531 96.527344 38.441406 95.335938 38.007812 94.203125 C 37.25 92.222656 36.476562 90.179688 35.890625 88.085938 C 35.609375 87.046875 35.382812 86.027344 35.175781 85.042969 C 34.644531 82.644531 34.15625 80.359375 32.832031 77.960938 C 32.738281 77.8125 32.664062 77.566406 32.566406 77.300781 C 32.339844 76.621094 32.058594 75.769531 31.320312 75.46875 C 31.246094 75.429688 31.171875 75.414062 31.074219 75.394531 C 31.453125 75.015625 31.851562 74.65625 32.226562 74.5625 C 33.398438 74.261719 34.570312 73.84375 35.722656 73.449219 C 37.988281 72.671875 40.3125 71.878906 42.652344 71.785156 C 42.824219 71.785156 42.992188 71.765625 43.164062 71.765625 C 43.957031 71.730469 44.691406 71.691406 45.46875 71.765625 C 45.484375 71.765625 45.542969 71.785156 45.597656 71.785156 C 45.921875 71.84375 46.164062 71.878906 46.394531 71.898438 C 46.449219 72.203125 46.507812 72.484375 46.5625 72.785156 C 47.335938 76.375 48.074219 80.039062 48.941406 83.589844 Z M 39.535156 100.097656 C 39.554688 99.871094 39.59375 99.644531 39.613281 99.417969 C 40.292969 98.660156 41.21875 97.792969 41.820312 97.207031 C 41.707031 97.433594 41.613281 97.679688 41.519531 97.90625 C 41.066406 98.925781 40.613281 99.984375 40.046875 100.964844 C 39.972656 101.078125 39.761719 101.324219 39.59375 101.511719 C 39.554688 101.492188 39.519531 101.457031 39.5 101.4375 C 39.421875 101.058594 39.480469 100.570312 39.535156 100.097656 Z M 45.46875 61.230469 C 44.996094 59.320312 44.464844 57.414062 43.863281 55.542969 C 44.238281 55.582031 44.617188 55.582031 45.03125 55.582031 C 45.390625 55.582031 45.769531 55.5625 46.148438 55.542969 L 45.882812 58.207031 C 45.789062 59.207031 45.675781 60.226562 45.46875 61.230469 Z M 47.222656 62.777344 C 47.1875 63.230469 46.789062 63.550781 46.148438 64.003906 C 46.148438 64.003906 46.128906 64.003906 46.128906 64.023438 C 46.089844 63.871094 46.050781 63.703125 46.015625 63.550781 C 46.183594 63.324219 46.394531 63.023438 46.488281 62.644531 C 46.695312 61.871094 46.847656 61.039062 46.960938 60.226562 C 47.167969 61.117188 47.300781 62.023438 47.222656 62.777344 Z M 57.441406 49.839844 C 56.722656 50.351562 52.8125 52.523438 51.546875 53.183594 C 50 54.015625 48.640625 54.070312 46.941406 54.164062 C 46.675781 54.183594 46.429688 54.203125 46.148438 54.203125 C 45.164062 54.261719 44.257812 54.242188 43.425781 54.148438 C 42.765625 52.203125 42.03125 50.273438 41.179688 48.386719 C 41.027344 48.046875 40.632812 47.914062 40.3125 48.066406 C 39.972656 48.214844 39.839844 48.613281 39.988281 48.933594 C 40.707031 50.539062 41.351562 52.183594 41.933594 53.863281 C 39.972656 53.316406 38.554688 52.164062 37.574219 50.371094 C 36.117188 47.726562 35.777344 43.96875 35.4375 40.320312 C 35.230469 38.113281 35.023438 35.828125 34.570312 33.769531 C 34.417969 33.105469 34.382812 32.390625 34.34375 31.632812 C 34.285156 30.558594 34.210938 29.445312 33.832031 28.421875 C 33.699219 28.082031 33.324219 27.914062 32.984375 28.046875 C 32.644531 28.179688 32.472656 28.554688 32.605469 28.894531 C 32.925781 29.726562 32.984375 30.691406 33.039062 31.710938 C 33.078125 32.484375 33.132812 33.296875 33.304688 34.050781 C 33.738281 36.015625 33.945312 38.261719 34.15625 40.433594 C 34.496094 44.210938 34.851562 48.101562 36.441406 50.992188 C 37.742188 53.351562 39.726562 54.789062 42.464844 55.316406 C 43.3125 57.921875 44.03125 60.585938 44.65625 63.269531 C 44.503906 63.53125 44.410156 63.871094 44.449219 64.289062 C 44.503906 64.796875 44.5625 65.308594 44.65625 65.835938 C 44.636719 65.914062 44.636719 65.96875 44.617188 66.042969 C 44.597656 66.234375 44.675781 66.421875 44.789062 66.554688 C 44.996094 67.519531 45.257812 68.519531 45.617188 69.59375 C 45.636719 69.632812 45.65625 69.726562 45.710938 69.820312 C 45.824219 70.105469 45.902344 70.332031 45.957031 70.5 C 45.9375 70.5 45.9375 70.5 45.9375 70.5 C 45.824219 70.484375 45.75 70.464844 45.710938 70.464844 C 44.824219 70.371094 44.03125 70.40625 43.199219 70.445312 C 43.03125 70.445312 42.859375 70.464844 42.691406 70.464844 C 40.160156 70.558594 37.742188 71.410156 35.382812 72.203125 C 34.210938 72.597656 33.097656 72.976562 31.984375 73.277344 C 31.1875 73.484375 30.546875 74.128906 30 74.695312 C 29.734375 74.976562 29.433594 75.261719 29.167969 75.449219 C 29.054688 75.46875 28.941406 75.46875 28.828125 75.488281 C 28.714844 75.507812 28.582031 75.507812 28.46875 75.527344 C 28.355469 75.449219 28.222656 75.355469 28.054688 75.222656 C 27.621094 74.863281 27.035156 74.390625 26.148438 74.429688 C 25.789062 74.449219 25.390625 74.636719 24.917969 74.882812 C 24.769531 74.960938 24.558594 75.054688 24.390625 75.128906 C 24.429688 74.523438 24.617188 73.523438 24.691406 73.128906 C 24.75 72.824219 24.785156 72.597656 24.804688 72.464844 C 24.976562 70.710938 25.222656 68.914062 25.46875 67.179688 C 25.710938 65.441406 25.9375 63.644531 26.128906 61.871094 C 26.449219 58.679688 26.695312 55.429688 26.921875 52.277344 C 27.449219 45.15625 27.996094 37.792969 29.507812 30.691406 C 29.714844 29.6875 29.886719 28.648438 30.039062 27.648438 C 30.566406 24.34375 31.058594 21.210938 33.324219 18.753906 C 33.53125 18.527344 33.929688 18.242188 34.324219 17.941406 C 34.910156 17.507812 35.457031 17.109375 35.816406 16.675781 C 35.949219 17.035156 36.101562 17.355469 36.328125 17.5625 C 36.875 18.074219 37.347656 18.621094 37.800781 19.132812 C 38.574219 20.019531 39.386719 20.964844 40.613281 21.738281 C 41.027344 22.003906 41.292969 22.699219 41.5 23.269531 L 41.578125 23.476562 C 41.59375 23.511719 41.613281 23.644531 41.632812 23.722656 C 41.671875 23.890625 41.707031 24.0625 41.785156 24.230469 C 40.386719 22.378906 37.78125 21.019531 35.871094 21.152344 C 34.871094 21.210938 34.003906 21.71875 33.171875 22.210938 C 32.71875 22.472656 32.304688 22.71875 31.90625 22.871094 C 31.566406 23.003906 31.398438 23.382812 31.527344 23.722656 C 31.660156 24.0625 32.039062 24.230469 32.378906 24.097656 C 32.890625 23.910156 33.378906 23.625 33.851562 23.34375 C 34.589844 22.910156 35.269531 22.511719 35.96875 22.457031 C 38.289062 22.304688 41.140625 24.703125 41.40625 26.496094 C 41.519531 27.253906 41.558594 28.007812 41.613281 28.800781 C 41.691406 30.066406 41.785156 31.371094 42.125 32.617188 C 42.3125 33.296875 42.371094 34.015625 42.351562 34.75 C 41.878906 34.789062 41.804688 35.261719 41.691406 35.976562 C 41.613281 36.375 41.539062 36.902344 41.464844 37.394531 C 41.367188 38.019531 41.238281 38.714844 41.21875 38.828125 C 41.046875 39.605469 40.859375 40.265625 40.632812 40.945312 L 40.59375 41.039062 C 40.292969 41.925781 40.21875 42.117188 40.425781 42.417969 C 40.539062 42.589844 40.707031 42.703125 40.914062 42.71875 C 41.445312 42.777344 41.613281 42.398438 42.066406 41.398438 C 42.238281 41.019531 42.519531 40.398438 42.558594 40.246094 C 42.710938 39.792969 42.859375 39.300781 43.011719 38.792969 C 43.050781 38.886719 43.105469 39 43.164062 39.09375 C 43.484375 39.71875 43.898438 40.285156 44.277344 40.8125 C 44.804688 41.53125 45.296875 42.210938 45.582031 43.003906 C 45.710938 43.34375 45.84375 43.777344 45.996094 44.25 C 46.449219 45.761719 46.976562 47.460938 47.921875 48.328125 C 49.1875 49.5 51.546875 47.289062 54.042969 44.929688 C 54.53125 44.457031 55.097656 43.929688 55.515625 43.589844 C 55.589844 43.929688 55.648438 44.382812 55.683594 44.648438 C 55.761719 45.175781 55.796875 45.457031 55.875 45.648438 C 56.003906 46.007812 56.230469 46.402344 56.476562 46.875 C 56.914062 47.820312 57.609375 49.160156 57.441406 49.839844 Z M 78.839844 31.085938 C 78.195312 31.730469 77.59375 32.332031 77.269531 32.863281 C 76.515625 34.070312 75.589844 35.035156 74.609375 36.054688 C 74.191406 36.488281 73.757812 36.960938 73.324219 37.433594 C 71.644531 39.339844 70.019531 41.359375 68.453125 43.324219 C 66.355469 45.949219 64.203125 48.652344 61.878906 51.066406 C 61.765625 50.953125 61.632812 50.824219 61.484375 50.671875 C 60.953125 50.160156 59.367188 48.59375 59.214844 48.085938 C 59.234375 47.914062 59.160156 47.742188 59.066406 47.613281 C 61.40625 46.707031 64.464844 44.269531 65.203125 43.683594 C 66.167969 42.890625 66.828125 41.796875 67.074219 40.605469 C 67.09375 40.53125 67.109375 40.226562 67.128906 40.078125 C 67.167969 39.660156 67.1875 39.320312 66.921875 39.074219 C 66.769531 38.925781 66.523438 38.847656 66.296875 38.90625 C 65.957031 38.980469 65.46875 39.28125 64.542969 39.832031 C 63.996094 40.171875 63.089844 40.699219 62.503906 40.964844 C 62.539062 40.773438 62.558594 40.566406 62.597656 40.398438 C 62.878906 38.679688 62.992188 37.828125 62.445312 37.433594 C 62.199219 37.242188 61.859375 37.242188 61.578125 37.394531 C 61.105469 37.640625 60.613281 38.414062 59.652344 40.09375 C 59.199219 40.886719 58.667969 41.777344 58.386719 42.078125 L 58.347656 42.136719 C 58.234375 42.25 58.140625 42.363281 58.027344 42.476562 C 57.933594 42.363281 57.800781 42.285156 57.648438 42.25 C 57.609375 42.25 57.59375 42.25 57.554688 42.230469 C 57.308594 41.925781 56.894531 41.359375 56.742188 41.132812 C 56.570312 40.90625 56.515625 40.792969 56.441406 40.71875 C 56.269531 40.511719 55.949219 40.285156 55.382812 39.886719 C 55.003906 39.625 54.304688 39.132812 53.984375 38.8125 C 57.101562 34.75 61.046875 31.125 64.84375 27.628906 C 66.261719 26.328125 67.753906 24.96875 69.148438 23.625 C 69.339844 23.4375 69.734375 23.023438 70.265625 22.457031 C 71.191406 21.453125 73.265625 19.265625 74.042969 18.640625 C 74.191406 18.8125 74.34375 19.054688 74.476562 19.300781 C 74.683594 19.679688 74.910156 20.058594 75.25 20.359375 C 77.175781 22.058594 81.105469 26.441406 81.179688 27.707031 C 81.257812 28.648438 79.859375 30.046875 78.839844 31.085938 Z M 78.839844 31.085938 " fill-opacity="1" fill-rule="nonzero"/></g></g></g></g></svg>