<svg id="Capa_1" data-name="Capa 1" xmlns="http://www.w3.org/2000/svg" viewBox="0 0 103.87 106.38"><title>Logo negro</title><path d="M322.93,215.36l-3.38-.24c-.07.27,6.37,3.87,6.33,4a32.46,32.46,0,0,1-3.55-1.1c-1.63-.71-3.13-1.7-4.77-2.37-5.24-2.15-10.66-3.59-16.4-3.28a10.52,10.52,0,0,0-2.65.85c1.69,2.56,3.14,4.91,4.75,7.15,1.28,1.78,3.22,1.78,5.17,1.53,1.38-.18,2.76-.4,4.14-.53a2.41,2.41,0,0,1,1.61.48c-.58.11-3.79.36-4.27.44.24.48,3.33.77,3.5,1.11l-6.83-.53-.31.49c1.78,3.14,6.08,3.09,8.12,6.26-2-1.18-4.52-2.12-6.32-3.2-.11.15,2.32,4.52,2.2,4.61l-7.8-10.15c-.49,4.53,2.09,7.46,4.25,11-2-1.77-3.39-2.75-4.22-4.7a13.59,13.59,0,0,1-.79-3.23,18.39,18.39,0,0,0-1.25-5.43c-1.17-3.56-3.76-3.91-6.21-1.13-1.24,1.41-2.42,2.89-3.68,4.4l8.83,8.59c0,.07-4.14-2.41-6.14-3.7l-.42.35a63.53,63.53,0,0,1,2.84,7.85c-1.88-4-3.76-7.94-5.68-12-4.74,4.39-6,18.72-2.25,23.79H272.66c2.88-6,2.75-12.51,2.13-18.92-.5-5.23-2-6.15-6.73-3.37-1.6.95-2.77,2.73-3.93,4.27a49.78,49.78,0,0,1-3,4.22l1.33-3.29-6,1.66-.14-.36c1.44-.48,2.86-1.05,4.34-1.42a3.93,3.93,0,0,0,3.16-2.54l-1.92-.35-.1-.52a18,18,0,0,1,1.68-1c2.33-1.16,4.67-2.27,7-3.39,1-.5,1.19-1.13.5-2.11-1.32-1.86-2.46-3.86-3.89-5.63a2.66,2.66,0,0,0-2.38-.74,9.1,9.1,0,0,0-3.61,2.58,49.33,49.33,0,0,0-3.42,5.95l-.2-.61-.51,0a23.67,23.67,0,0,0-2,5c-.51,2.95-2.94,4-4.77,5.64,2.18-2.42,4-5,4.41-8.77l-2.89,2c-.5-.74-.5-.74-4,.4,1.11-.62,2.16-1.6,3.34-1.8,3.46-.59,5.09-3,6.47-5.74-4.06-.95-6,2.29-8.64,4.13a5.07,5.07,0,0,0,.71-2l-6.88,5.2,1.44-2-2.91.31a50.63,50.63,0,0,0,6.81-4l-1.62-.21c2.13-.67,4.61-1.5,7.12-2.22s5.38-.38,7.08-3a10.17,10.17,0,0,0-12.12-.82,46.82,46.82,0,0,1-5.67,3.63l.89-1.25-2.82.28-.08-.23c1.91-.62,5.61-2.29,5.57-2.51l-3.85-.44c2.58-.27,5.32.13,7.33-2.44-5.3-3.26-11.21-2.9-17.09-2.7,0-.25,4.57-1,7.31-1.13A39.59,39.59,0,0,1,237,204c3.2,1.25,9.78,3.46,9.86,3.32l-1-1.62a11.11,11.11,0,0,1,2,1.5c1.86,1.67,3.81,2.76,6.54,2.15s5.49-.74,8.24-1.09l.18-.57a18.27,18.27,0,0,0-3.06-2.74,86.17,86.17,0,0,0-11-5.69c-1.83-.73-4.2-.26-6.3-.09-2.31.19-4.6.64-6.9,1-1.37.22-4.16.22-4.2,0l11.91-1.84c-4.24-3.23-9.23-3.21-14.2-4a5.55,5.55,0,0,1,.57-.21c.24-.06.48-.09,1-.17l-1.88-1.41L239,195.19c-1.18-4.45-5.67-3.11-8.16-5.8l5.7,2.24c-1.23-3.67-4.62-4.18-6.76-6.24l3.21,1.35.31-.28c-.81-1.1-2.09-3.57-1.92-3.71.7.81,1.44,1.58,2.1,2.42,2.38,3.05,4.52,6.32,7.16,9.11,2,2.08,4.94,2.62,7.84,3.45-.64-1.85-.64-1.85-5-4.48l1-.36-3.22-3a3,3,0,0,1,2.17.51c1.91,2,3.62,4.26,5.6,6.22a21.41,21.41,0,0,0,3.88,2.61c2,1.22,4,2.41,6,3.6.78.46,1.58.88,2.8,1.56a7.81,7.81,0,0,0-4.19-5.84c-1.82-1-3.57-2.13-5.36-3.19s-3.45-2-5.25-3.05c5.7.49,8.85,5.83,14.19,6.76-1.82-1.52-3.51-3.2-5.34-4.73s-3.65-2.94-5.47-4.42a6.34,6.34,0,0,0-4.39-1.74c-1.8,0-3.67-.8-5.44-1.44a48.15,48.15,0,0,1-6.12-2.81c4.4.76,8.2,4.26,13.41,3-1.83-2.07-3.22-4-5.91-4.6a7.16,7.16,0,0,1-3.24-2l4.78,1.85c-.65-2.17-2.37-2.7-3.69-3.65a26.17,26.17,0,0,1-3.87-3.21L240.6,178l.26-.32-2.31-2.78c.12-.11,5.1,5.21,7.46,8l.34-.12a49,49,0,0,1-2.28-6.95c2.77,6.69,5.16,13.65,12.62,17-1.38-2.5-2.59-5.11-4.2-7.45-1.85-2.7-4.05-5.15-6.1-7.7.2-.16,5.56,5.48,5.74,5.34-1.43-5.47-6.43-8.12-9.74-12.31l2.22,1-.28-2,.23-.06a20.09,20.09,0,0,0,1.06,2.81c.94,1.65,1.71,3.48,4.14,3.57.51,0,1,1.14,1.86,1.59a40.53,40.53,0,0,1-1.85-6.22c.64,1.64,1.24,3.31,1.95,4.93a11.56,11.56,0,0,0,1.87,3.59c3.08,3.11,6.34,6.05,9.55,9a7.87,7.87,0,0,0,2.21,1.41,22.82,22.82,0,0,0-9.43-11.12c.11-.14,3.83,1.52,4,1.37-1.5-3.86-5.13-6-7.91-8.71s-6.35-4.88-9.38-7.56l3.93,2.66.23-.27-5.33-6c5.77,4,9.32,10.42,15.55,13.88l.5-.47c-.81-1.57-1.38-3.36-2.52-4.63-2.67-2.94-5.68-5.56-8.45-8.41a17.94,17.94,0,0,1-1.94-3.14,6.67,6.67,0,0,0,2.05.93l-3-4.41c.17-.17,2.13,1.71,3,2.81.16-.12-.59-3-.51-3.07,2.29,8,8.11,11.58,8.37,11.45-.69-2.16-1.09-4.47-2.15-6.43s-2.76-3.49-4.1-5.27c2.58,1.73,4.77,3.61,5.75,6.89,1.69,5.63,3.86,11.11,5.84,16.65a8.11,8.11,0,0,0,1.08,2c.61-4.41-1.18-8.51-1.52-12.85.94,5.77,5.6,8.76,8.9,12.75.18-.11-1.54-3.84-2.68-5.52-2.06-3-4.37-5.93-6.26-9.08a75.07,75.07,0,0,1-4.53-9.17c-.67-1.57-1.31-2.82-3.13-3.12a5.35,5.35,0,0,1-1.32-.64,9.92,9.92,0,0,1,3.12.43l-1.36-4.38,4.11,8.48a9.92,9.92,0,0,0,0-2.63c1.57,5.74,3.61,11.21,7.54,15.75.2-.09-1.65-5.47-2.84-8.22a2.19,2.19,0,0,0,0-1.1c-1.26-3.37-2.59-6.7-3.78-10.14a10.88,10.88,0,0,0,1.77,2,5.16,5.16,0,0,1,.08-2.88,92.1,92.1,0,0,0,4.82,8.3l-3.73-9.71a5.91,5.91,0,0,1,1.46,1.09c1.49,3.93,2.66,8,4.61,11.73,1.49,2.81,4,5.1,6,7.66a3.44,3.44,0,0,0-.06-.72c-2.21-6.21-4.36-12.45-9.16-17.3a26.7,26.7,0,0,1-1.85-2.64c1.2,1.27,3.76,3.92,4,3.7-1.19-1.82-2-4.27-3.21-6.09a8.08,8.08,0,0,1,1.55,1.66c.21-.32-.71-2.83-.45-3.22.88,2.48,2.8,7.12,3.63,9.49.18,0,.17-4.14.24-4.15.64,2.89,2.46,8.54,2.72,8.48-.64-3.57,0-8.26-2.93-11.41a7.31,7.31,0,0,1-1.9-4.16l1.79,2.65.39-4.21c.08,0,1.56,7.7,1.77,7.68v-1.7c1.29,5.27.91,10.82,3.29,15.89a65.91,65.91,0,0,1-.55-8.2l1.72,5.76a4.31,4.31,0,0,0,.8-4c-.91-3-1.65-6.08-2.63-9.07a15.9,15.9,0,0,0-1.71-2.65c-.43-.78-.51-2.67-.23-2.77l3.64,7.36c.83-2.51-.5-5-.6-7.57a40.74,40.74,0,0,0,2.79,6,51.2,51.2,0,0,1-.95-6.56l2.88,10.08c.84-3.25-.69-6.06-1.62-9.14,2.95,2.77,2.62,6.39,3,9.72s.46,6.8.81,10.21c1-5.54.37-16.76.56-16.77l.73,2.87.72-4.5c.09,0,.49,5.4.61,5.43a10.85,10.85,0,0,1,1.45-3l-2.43,8c2.86-1.21,4.31-2.82,4-5.69a19.82,19.82,0,0,1,.23-4.86c1.06,7.59-1,14.94-2,22.65.57-.43,1.95-1.5,2.35-1.79a7.36,7.36,0,0,1-1,1.43c-1.78,2.12-1.63,3.71-1.44,8.63.27,6.78-.92,18.94-.85,25.73a1.78,1.78,0,0,0,.35,1.1c2.68-9.26,3.56-18.38,4.3-27.92s1.06-19.56,1.25-29.18a63.7,63.7,0,0,0,.95,6.55l.68-3.6c.44,5.29-1.78,10.45-.16,15.89.62-1.78,1.38-3.52,1.82-5.34s.6-4,1-6a31.79,31.79,0,0,1,1.48-5.38c-.72,6.77-4.12,19.94-3.89,20a76.27,76.27,0,0,1,4.25-7.41c-1.66,4-4.63,12.1-4.46,12.21a68,68,0,0,0,5.29-8.15c1.57-3.2,2.39-6.34,1.39-9.89a5.21,5.21,0,0,1,.91-3.17,30.86,30.86,0,0,0,.57,6c.41-1.56,1.64-4.56,1.86-4.51a31.71,31.71,0,0,1-1.27,5.21c-1.61,3.78-3.35,7.53-5.28,11.17-1.62,3.05-4.3,6.66-4.1,10.48,1.18-1.59,4.6-3.25,5.5-4.46a9.87,9.87,0,0,1-3.78,6.16c-2.29,1.62-1.79,2.17-2.45,4.61a15.51,15.51,0,0,0-.82,3.81l3.52-6.15q-.84,2.74-1.7,5.48c1.22-2.12,2.65-4.12,3.85-6.25a58.17,58.17,0,0,0,7.09-22.27,32,32,0,0,1,2.3-7.68l-1.29,6.22c.09,0,1.86-2.68,1.93-2.66q-2.06,7.16-4.09,14.3l6.16-7.62c.5-.52.61-.48.29.19-.52.78-1,1.62-1.57,2.35a55.47,55.47,0,0,0-8.24,13.8c-1.84,4.49-4.51,8.65-6.72,13.09,2-1,4.25-1.75,5.15-4.1,1.55-4.07,3-8.2,4.44-12.29a1.05,1.05,0,0,1,.74-.73l-1.84,6c4.38-8.21,11-15.6,8.88-26.12a5,5,0,0,1,1.19,2.27l1.1-3.27c.06,0-.52,4.9-.87,7.32a63.65,63.65,0,0,0,3.52-6.81,9.46,9.46,0,0,1-.61,3.38,15,15,0,0,0-1,3.68,32.29,32.29,0,0,1,3.53-3.9,25.76,25.76,0,0,1-2.84,3.93,18.94,18.94,0,0,0-4,5.45c-3.34,6.62-6.88,13.13-10.34,19.68-.2.37-.34.77-.54,1.22,2.45-.41,12.93-15.46,15.36-21.73.14.46-1.57,3.84-1.29,4.74l4.58-7.36a18.71,18.71,0,0,1,1.49-1.85c-.62,1.28-1.09,2.54-.81,2.59,2.43-2.74-.13,1-.38,1.3-2.38,3.31-5.44,6.31-7.53,10.22,2.27-.4,3.83-1.73,7.13-6V170l5.18-4.73v1.22a21.71,21.71,0,0,0,2-1.27c.55-.47,1.78-1.36,1.91-1.25-.61.72-1.23,1.42-1.81,2.15-2.46,3.12-4.95,6.22-7.31,9.42a4.24,4.24,0,0,0-.44,2.81,17.72,17.72,0,0,1,2.29-1.6l-4.19,5.71c3.08-.8,3.52-1,5.13-2.33l.47-.89c.36.1.76.36,1.08.28,1.78-.45,3-2.09,5.09-2.09.59,0,1.34-1.27,1.73-2.1a36.18,36.18,0,0,1,2.41-4.67l-1.46,5.63.31,0-2.61,4.84.47.33a49.28,49.28,0,0,1,4.89-4.6l-2.89,3.55c1.56.64,2.55-2.56,4.63-.51-4.44.42-6.93,3.24-9.44,6.11-1.49,1.71-3.22,3.2-5.17,5.11a15.12,15.12,0,0,0,3,.12c2.6-.47,5.18-1,7.73-1.67a25.62,25.62,0,0,0,4.34-1.48c0,.37-1.42.59-1.45,1,.54-.09,1.64.11,1.68.3l-7.34,1.57c-.73.12-1,0-1,.12a20.16,20.16,0,0,1,4.05,1.08,8,8,0,0,1,1.66,1c-.23,0-4.55-1.48-6.44-1.25-4.13.49-8.6-.36-12.25,2.6-1.23,1-2.15,2-1.55,3.86.61,0,1.29.06,2,.12a59.73,59.73,0,0,0,6.78.54,24.86,24.86,0,0,0,4.89-1.09l-1,1.11a100.67,100.67,0,0,1,11.1.57c-2.73.46-5.62-.87-8.3.85-2.35,1.52-5.1,2.42-7.57,3.82,2,1.05,3.59.65,5.47-.12a52,52,0,0,1,9.93-2.54c-1.44.85-2.76,1.61-4.64,1.39-1.47-.17-4.54,2.07-4.49,2.34a32.34,32.34,0,0,1,6.77,1.94c-2.92-.4-6-.79-9-1.23-4.24-.63-8.48-1.25-12.7-2a2,2,0,0,0-2.38.93c-1.25,1.89-2.63,3.7-4.23,5.92,3.21.38,6.1.88,9,1s5.65-.15,8.48-.25c0,.18-5.72,1.3-5.73,1.51,2.69.5,5.39,1,8.07,1.5a8.4,8.4,0,0,1,1.55.66Zm-68.57-31.48c5.55,6.21,7.65,11.31,12.43,17,2.92,3.47,6.07,6.75,9.18,10.17a5.37,5.37,0,0,0,.28-1.8,27.59,27.59,0,0,0-9.33-16.1c-2.85-2.48-5.88-4.77-8.77-7.22-1.79-1.51-3.47-3.14-5.2-4.71-.14.1,4,12,8.21,16.81a4.86,4.86,0,0,0,2.68,1.1C260.18,193.94,258.67,190,254.36,183.88Zm22.32,7.56c.34-1.23.3-2.59.69-3.8a8.25,8.25,0,0,0-.7-6.57c-1.33-2.59-2.7-5.17-3.81-7.86-1.63-4-5-5.64-8.75-7.16C267.46,175,273.27,182.59,276.68,191.44Zm28.34-4.1a14.92,14.92,0,0,0-2.37,1.4,118.83,118.83,0,0,0-16.15,18.19c-1.68,2.39-2.24,5.19-2.53,8.45,3.67-3.26,4.75-6,7.45-10.28,2.16-3.78.18-2,8.91-8.37,1.35-1.08,1-.74,1.27-1.12A19.14,19.14,0,0,0,305,187.34Zm5.69,1.12c-.13,2.26-1.62,4.34-1.65,6.61,2-2.47,4.55-4.79,6.53-7.26l-1.14,3.25c4.07-1.71,9.44-9,9.25-12.95-2.87,1.44-5.54,2.84-8.27,4.12S310.89,185.26,310.71,188.46Zm-33.45-20.08h0q1.5,9.09,3,18.17c.28,0,1.06-7.57.19-11.06-1.39-5.59-3.62-11-5.59-16.73-3,4.69-1.76,13.47,2.4,18.56Zm33.05,5.37c-3.21,1.68-5.68,3.47-7.35,6.36-1.38,2.39-2.76,5.18-4.92,6.62-2.82,1.88-3.53,4.1-3.5,7.05C302.18,189.15,307.12,182.4,310.31,173.75Zm-33.46,28.84c-.22-2.33-.34-4.08-.57-5.82-.87-6.73-3.38-9.77-10.82-10.19Zm30-3.07c-3.51-1.21-6.3-1.38-8.71,1.37-1.32,1.51-3.64,2.24-4.51,4.07a11.47,11.47,0,0,0-1,4c.88-.54,1.6-1,2.37-1.44,3.39-1.8,6.84-3.5,10.15-5.42C305.88,201.67,306.23,200.47,306.84,199.52Zm16.56.63c-4.54-.35-8.7-.69-12.86-1-2.34-.18-3.26,1-2.73,3.75,1.74.33,3.57.58,5.32,1.06a5.62,5.62,0,0,0,4.82-1,39.06,39.06,0,0,1,4.06-2C322.42,200.79,322.81,200.52,323.4,200.15Zm-55.95-14.77c1.63.17,3.25.43,4.89.62l-10.51-12c0,2.11-.07,3.57,0,5C262.12,183.29,263.67,185,267.45,185.38Zm5.47,26.1c-.44-3.4-7.1-9.85-10.93-10.35,1.42,2.51,2.9,4.73,4,7.12,1.33,3,3.42,4,6.47,3.36C272.57,211.59,272.69,211.54,272.92,211.48Zm29.23-14.15c.83.2,1.52.32,2.16.54,1.83.62,2.82,0,3.27-1.88.53-2.27,1.32-4.47,1.92-6.72a29.81,29.81,0,0,0,.45-3.15c-2.73,1-2.68,1-3.74,3.17C304.94,191.93,303.57,194.53,302.15,197.33Zm-10.56,19.24c5.21-4.71,9.66-9.12,14.87-13.84-4,1.94-6.88,4.12-10.83,6.08C292.44,210.39,291.52,213.13,291.59,216.57Zm1.91-26.43c-6.41,2.54-6.61,8.2-7.52,13.48C289,199.45,293,195.83,293.5,190.14Zm-16.06-27.23a9.75,9.75,0,0,0,.09-1.89c.11-5,.46-9.47-3.43-13.9a15.65,15.65,0,0,0-.32,2.79c.07,1.17,0,3,.62,3.34.93.48.7,1,.83,1.57C275.74,157.17,276.91,160.57,277.44,162.91Zm4.8-7.94c.19-1.71,0-1.63-.59-.09a11,11,0,0,0-.64,1.85,79.59,79.59,0,0,0-1.24,8.78c-.08,1.74,1.55,5.22,1.83,5.19Q281.93,162.84,282.24,155Zm-13.1,12.12-9-12.82a24.79,24.79,0,0,0,.93,4c.62,2.5,3.5,3.26,4.21,5.65C265.79,165.74,267.34,166.41,269.14,167.09Zm-3.82,44.56c-.83-2.17-4.31-2.53-8.81-.92C259.64,212.32,262.66,212.64,265.32,211.65Zm42.81-29.89c3.64-4.36,5.27-10.19,10.22-13.6C312.51,170.92,310.48,176.46,308.13,181.76ZM269.4,213.42l4.53,5.06a8.24,8.24,0,0,0,0-2.62C273.72,213.13,272.26,212.27,269.4,213.42Zm14.46,5.36v7.4c.69-1.32,1.58-2.55,2.24-3.89C287,220.44,286,219,283.86,218.78Zm1.64-1.66,2.11,1.25.88-4Zm-1.27-64.36c-1.63.91-1.63.91-.85,5Z" transform="translate(-228.82 -140.31)"/></svg>