<?xml version="1.0" encoding="UTF-8"?>
<svg id="Capa_1" data-name="Capa 1" xmlns="http://www.w3.org/2000/svg" viewBox="0 0 585.28 585.28">
  <defs>
    <style>
      .cls-1 {
        fill: #cfcece;
      }

      .cls-2 {
        fill: #3d3d3d;
      }

      .cls-3 {
        fill: #7c7c7c;
      }

      .cls-4 {
        fill: #a6a6a6;
      }
    </style>
  </defs>
  <path class="cls-1" d="M572.37,292.05c0,9.17-.43,18.29-1.35,27.4-.89,9.12-2.24,18.18-4.02,27.17-1.78,8.96-4,17.85-6.67,26.61-2.65,8.76-5.73,17.39-9.25,25.85-3.49,8.46-7.41,16.73-11.74,24.83-4.3,8.07-9.02,15.92-14.11,23.53-5.09,7.62-10.54,14.98-16.35,22.06-5.81,7.08-11.94,13.85-18.44,20.35-6.47,6.47-13.24,12.61-20.32,18.41-7.11,5.83-14.44,11.28-22.06,16.38-7.62,5.07-15.48,9.78-23.56,14.11-8.07,4.3-16.35,8.23-24.81,11.74-8.48,3.49-17.09,6.57-25.85,9.25-8.76,2.65-17.65,4.86-26.64,6.67-8.99,1.78-18.03,3.13-27.15,4.02-9.12.89-18.26,1.35-27.43,1.35s-18.29-.46-27.4-1.35c-9.12-.89-18.18-2.24-27.15-4.02-8.99-1.81-17.88-4.02-26.64-6.67-8.76-2.67-17.39-5.76-25.85-9.25-8.46-3.51-16.73-7.44-24.81-11.74-8.1-4.33-15.94-9.04-23.56-14.11-7.62-5.09-14.98-10.54-22.06-16.38-7.08-5.81-13.85-11.94-20.32-18.41-6.49-6.49-12.63-13.27-18.44-20.35s-11.28-14.44-16.35-22.06c-5.09-7.62-9.81-15.46-14.13-23.53-4.3-8.1-8.23-16.38-11.72-24.83-3.51-8.46-6.6-17.09-9.27-25.85-2.65-8.76-4.86-17.65-6.65-26.61-1.81-8.99-3.13-18.06-4.05-27.17-.89-9.12-1.32-18.24-1.32-27.4s.43-18.31,1.32-27.43c.92-9.12,2.24-18.16,4.05-27.15,1.78-8.99,4-17.85,6.65-26.64,2.67-8.76,5.76-17.37,9.27-25.85,3.49-8.46,7.41-16.73,11.72-24.81,4.33-8.07,9.04-15.92,14.13-23.56,5.07-7.62,10.54-14.95,16.35-22.03s11.94-13.88,18.44-20.35c6.47-6.47,13.24-12.63,20.32-18.44,7.08-5.81,14.44-11.26,22.06-16.35,7.62-5.09,15.46-9.81,23.56-14.11,8.07-4.33,16.35-8.23,24.81-11.74,8.46-3.51,17.09-6.6,25.85-9.25,8.76-2.67,17.65-4.89,26.64-6.67,8.96-1.78,18.03-3.13,27.15-4.02,9.12-.92,18.26-1.35,27.4-1.35s18.31.43,27.43,1.35c9.12.89,18.16,2.24,27.15,4.02,8.99,1.78,17.88,4,26.64,6.67,8.76,2.65,17.37,5.73,25.85,9.25,8.46,3.51,16.73,7.41,24.81,11.74,8.07,4.3,15.94,9.02,23.56,14.11,7.62,5.09,14.95,10.54,22.06,16.35,7.08,5.81,13.85,11.97,20.32,18.44,6.49,6.47,12.63,13.27,18.44,20.35,5.81,7.08,11.26,14.42,16.35,22.03,5.09,7.64,9.81,15.48,14.11,23.56,4.33,8.07,8.25,16.35,11.74,24.81,3.51,8.48,6.6,17.09,9.25,25.85,2.67,8.79,4.89,17.65,6.67,26.64s3.13,18.03,4.02,27.15c.92,9.12,1.35,18.26,1.35,27.43Z"/>
  <path class="cls-1" d="M478.93,292.05c0,6.09-.31,12.17-.92,18.26-.59,6.06-1.48,12.1-2.67,18.08-1.2,5.99-2.67,11.89-4.43,17.73-1.78,5.83-3.82,11.59-6.16,17.22-2.34,5.63-4.94,11.13-7.82,16.53-2.88,5.37-6.01,10.59-9.4,15.66-3.39,5.09-7.03,9.98-10.9,14.7s-7.95,9.22-12.28,13.55c-4.3,4.3-8.81,8.4-13.52,12.28-4.74,3.87-9.63,7.49-14.7,10.87-5.07,3.39-10.29,6.52-15.69,9.4-5.37,2.88-10.87,5.5-16.53,7.82-5.63,2.34-11.36,4.41-17.19,6.16-5.86,1.78-11.77,3.26-17.75,4.46-5.99,1.17-12,2.06-18.08,2.67-6.06.59-12.15.89-18.26.89s-12.17-.31-18.24-.89c-6.09-.61-12.12-1.5-18.11-2.67-5.96-1.2-11.89-2.67-17.73-4.46-5.83-1.76-11.56-3.82-17.22-6.16-5.63-2.32-11.13-4.94-16.53-7.82-5.37-2.88-10.59-6.01-15.66-9.4-5.07-3.39-9.98-7-14.7-10.87-4.71-3.87-9.22-7.97-13.55-12.28-4.3-4.33-8.4-8.84-12.28-13.55s-7.49-9.6-10.87-14.7c-3.39-5.07-6.52-10.29-9.4-15.66-2.88-5.4-5.48-10.9-7.82-16.53s-4.38-11.38-6.16-17.22c-1.76-5.83-3.26-11.74-4.43-17.73-1.2-5.99-2.09-12.02-2.7-18.08-.59-6.09-.89-12.17-.89-18.26s.31-12.2.89-18.26c.61-6.09,1.5-12.1,2.7-18.08,1.17-5.99,2.67-11.89,4.43-17.73,1.78-5.86,3.82-11.59,6.16-17.22,2.34-5.65,4.94-11.16,7.82-16.53,2.88-5.37,6.01-10.62,9.4-15.69,3.39-5.07,7-9.96,10.87-14.67,3.87-4.74,7.97-9.25,12.28-13.55s8.84-8.4,13.55-12.28,9.63-7.51,14.7-10.9,10.29-6.52,15.66-9.4c5.4-2.88,10.9-5.48,16.53-7.82,5.65-2.32,11.38-4.38,17.22-6.16,5.83-1.76,11.77-3.23,17.73-4.43,5.99-1.2,12.02-2.09,18.11-2.67,6.06-.61,12.15-.92,18.24-.92s12.2.31,18.26.92c6.09.59,12.1,1.48,18.08,2.67,5.99,1.2,11.89,2.67,17.75,4.43,5.83,1.78,11.56,3.85,17.19,6.16,5.65,2.34,11.16,4.94,16.53,7.82,5.4,2.88,10.62,6.01,15.69,9.4,5.07,3.39,9.96,7.03,14.7,10.9,4.71,3.87,9.22,7.95,13.52,12.28,4.33,4.3,8.4,8.81,12.28,13.55,3.87,4.71,7.51,9.6,10.9,14.67,3.39,5.07,6.52,10.31,9.4,15.69,2.88,5.37,5.48,10.87,7.82,16.53,2.34,5.63,4.38,11.36,6.16,17.22,1.76,5.83,3.23,11.74,4.43,17.73,1.2,5.99,2.09,12,2.67,18.08.61,6.06.92,12.15.92,18.26Z"/>
  <path class="cls-4" d="M292.63,491.03c-109.97,0-198.98-89.65-198.98-198.98s89.01-199.01,198.98-199.01,199.01,89.65,199.01,199.01-89.01,198.98-199.01,198.98ZM292.63,118.48c-95.99,0-173.57,78.19-173.57,173.57s77.58,173.57,173.57,173.57,173.57-78.21,173.57-173.57-77.55-173.57-173.57-173.57Z"/>
  <path class="cls-2" d="M367.62,258.99v7.62c0,26.72-20.99,48.31-48.31,48.31h-44.52v73.12h-31.15v-176.75h75.67c26.69,0,48.31,21.62,48.31,47.7ZM274.79,241.82v41.95h39.42c14.62,0,21.62-7.62,21.62-20.99s-7-20.96-21.62-20.96h-39.42Z"/>
  <path class="cls-3" d="M292.62,585.28C130.9,585.28,0,453.45,0,292.66S130.9,0,292.62,0s292.66,131.84,292.66,292.66-130.9,292.62-292.66,292.62ZM292.62,37.42c-141.16,0-255.24,114.98-255.24,255.24s114.08,255.24,255.24,255.24,255.24-115.02,255.24-255.24S433.82,37.42,292.62,37.42Z"/>
</svg>