<?xml version="1.0" encoding="UTF-8"?>
<svg id="Capa_1" data-name="Capa 1" xmlns="http://www.w3.org/2000/svg" viewBox="0 0 338.17 186.96">
  <defs>
    <style>
      .cls-1 {
        fill: #4d4d4d;
      }
    </style>
  </defs>
  <path class="cls-1" d="M338.17,0v.99c-10.17,1.19-20.38,2.28-30.39,4.45-11.29,2.45-22.27,6.23-33.67,8.6-12.71,2.64-25.05,3.89-37.57,7.67-5.39,1.63-10.62,3.85-16.01,5.46-16.27,4.87-31.87,3.48-48.39,8.41-14.83,4.43-26.9,9.34-42.57,11.92-16.03,2.64-30.82,4.56-46.74,8.41-.69.17-4.51,1.15-4.58,1.44.66,7.47,6.55,12.32,10.74,17.96,4.35,1.17,8.84,1.85,13.2,2.98,1.64.43,4.41,1.81,5.62,1.97,3.13.42,8.53.05,11.92,0,37.17-.51,74.43-1.19,111.62-.33,3.37-.62,6.97-.17,10.23-1,.47-.47.73-4.18.75-5.13.03-1.78-.78-5.69-.54-7.18.03-.21.91-2.4,1.01-2.49.67-.59,4.15-.62,4.87.09.53.52,1.09,2.84.99,3.6-.22,1.6-.3,1.51-.31,3.32,0,1.01-.2,7.67.51,7.79,1.07-.26,8.11-.05,8.4-.35.1-.1.28-2.63.25-2.77-.07-.39-.78-.8-1-1.28-.5-1.13-.36-3.39.41-4.38,1.38-1.78,11.28-3.89,13.8-5.05l20.47,4.81c1.98,1.03-.48,1.86-.5,2.81-.03,1.54,1.24,1.96,1.27,2.12.05.3-.4.85-.22,1.12.45.65,2.23.16,2.52,1.48.23,1.02-.75.82-1.1,1.54-1.02,2.16.45,1.77,1.1,2.72,1.1,1.58-.95,1.47-1.27,1.91-.22.31-.23,1.58-.41,2.07.01.2,2.16-.45,1.61.95l-12.84,7.14c1.73-.2,3.73-.44,5.35-1.09,2.75-1.09,3.27-2.68,6.96-2.13,7.66,1.13,15.83,3.47,22.28,7.77,1.52,1.01,2.73,2.38,4.28,3.31,3.56,2.13,8.38,1.9,4.05,7.16-2.99,3.63-10.48,10.74-14.52,12.89-3.3,1.76-7.09,2.4-10.24,4.31,2.9,4.46,4.92,9.45,7.91,13.86,4.73,6.98,10.2,13,14.48,20.53.59,1.03,3.85,7.25,3.68,7.83-.07.24-.3.41-.53.48-5.39.11-10.76-.09-16.13.38-2.44.22-7.34.62-9.5,1.06-1.34.27-2.72,1.75-4.42,1.79-1.85.05-3.37-1.53-5.23-1.57-2.54-.05-5.97.64-8.57.7-12.45.31-24.85-.41-37.32,0-1.12.04-7.51-.3-7.78-.02-.08.08.05,1.49-.25,2.23-.75,1.85-11.54,8.7-13.85,9.92-4.83,2.56-5.38,2.95-9.68-.75-3.97-3.41-7.23-7.95-11.4-11.06-8.04-.02-16.06-.54-24.11-.35-3.02.07-6.54.63-9.55.69-12.18.25-24.18-.38-36.33,0-23.13.72-45.32-.71-68.36-1.35-9.4-.26-19.22,1.23-28.43.69-6.93-.41-13.7-2.84-20.73-2.39-1.42-.75-1.14-1.85-.58-3.09,3.11-6.77,9.21-12.88,13.36-19,2.66-3.92,4.66-8.28,7.25-12.23,4.09-6.23,9.05-12,13.08-18.29-2.03-1.37-5.43-1.94-6.67-4.22-.36-.67-.4-1.52-.78-2.19-.62-1.07-2.09-2.37-2.95-3.33l1.82,4.95-3.96-1.97c-.16.13,2.25,2.22,1.49,2.97l-3.14-3.47c-.29-.7.74-.54,1.13-.47,1.16.22,2,1.17,3.16,1.3-.14-1.06-3.45-5.32-2.97-5.94,2.08.92,4.11,2.83,4.95,4.95.53.09.35-.46.32-.82-.38-5.08-1.49-12.06-2.32-17.17-.21-1.3-1.26-1.37-.91-3.25.07-.39.67-1.12.6-1.22s-2-.64-2.29-1.19c-2.64-5.19-3.42-11.32-5.29-16.84-.46-.34-3.74.55-4.59.75-8.34,1.97-16.5,4.92-24.16,8.69v-1.32c9.02-4.21,18.54-7.63,28.4-9.25.27-.25-1.67-6.26-1.89-7.2-.71-3.02-2.72-8.34.45-10.26,2.96-1.79,16.05-3.9,20.15-4.62,6.22-1.08,13.24-2.26,19.48-2.98,3-.35,5.92-1.35,7.55,1.93.73,1.47,3.02,12.16,3.66,12.23,11.08-2.5,22.47-5.87,33.7-7.55,4.12-.62,8.32-.8,12.45-1.42,10.36-1.56,20.75-3.52,30.61-7.05-4.22-.92-8.68-.97-13-1.53-9.61-1.25-19.47-1.84-29.01-3.35s-17.5-5.42-26.62-7.4c-10.4-2.25-21.31-1.02-31.36-4.3-2.38-.78-4.63-2.14-6.92-2.99-6.21-2.29-14.21-3.46-20.82-4.61-8.89-1.55-17.92-2.59-26.82-4.05v-.99l23.01,3.51c80.06-5.32,160.55-2.61,240.7-3.82,6.24-.09,13.89.33,19.81,0,3.95-.22,11.57-3.2,15.87-4.28,12.72-3.2,25.64-5.54,38.78-6.3ZM279.38,11.23c-12.03.29-24.13.46-36.17.64-68.94,1.04-137.8-1.14-206.7,2.67-.74.04-9.43,0-9.43.48,6.44,1.3,13.21,1.9,19.47,3.98,8.2,2.71,11.73,4.9,20.99,5.76,10.77,1.01,17.05,1.24,27.64,4.39s16.96,4.9,28.5,6.18c9.35,1.03,18.68,2.02,28.03,3.02,1.51.16,3.66.95,5,.95,2.41,0,9.58-3.17,12.46-4.05,3.91-1.19,8.16-2.54,12.13-3.39,10.4-2.24,20.97-1.61,31.45-3.89,9.57-2.08,18.7-6.25,28.2-8.79,12.06-3.23,26.17-3.7,37.53-7.39.35-.11,1-.08.92-.56ZM77.61,60.76c-1.74-2.93-3.4-15.39-5.62-17-1.29-.93-4.73-.34-6.39-.13-8.5,1.04-17.96,2.63-26.36,4.36-2.92.6-7.91,1.38-10.51,2.37-.75.29-2.12,1.56-2.21,2.36-.12,1.05,1.59,7.25,1.98,8.79,1.83,7.18,4.15,14.27,5.94,21.47.29.61,1.05,1.43,1.73,1.58.86.19.32-.26.24-.57-2.39-9.55-6.41-20.33-8.25-29.73-.18-.9-.05-1.82-.07-2.73.44.06.79.2,1.26.11,12.64-2.44,25.83-5.39,38.58-7,.62-.08,3.26-.6,3.42.12-.01.8-.99.94-1.57,1.07-12.46,2.7-26.52,3.47-38.79,6.78-.5.14-1.02.2-1.44.55l3.19,12.53c.29.23,1.7-.28,2.12.36,3.31,5.6,7.47,10.71,10.41,16.51.73-.04-.12-.86.29-1.5,1.05-1.61,3.46-1.29,4.57.13l20.34-5.29c.87-.38.23-1.38,1.11-1.86.39-.21,2.1-.48,2.57-.4.75.12.97.93,1.64.97.55.04,3.08-.67,3.67-.95,1.04-.49,1.14-.56,1.07-1.73-.25-4.46-3.83-6.58-5.54-10.34,1.97-.13.26-1.29-.16-2.48-1.48-4.15-2.07-9.04-3.8-13.2.39.03.71-.17,1.01.2,1.36,1.69,2.64,9.45,3.68,12.1.27.69.62,1.32,1.05,1.93.28.39,0,.81.85.62ZM89.16,77.94l-11.24-14.69-.98-.84,9.91,13.36,2.3,2.16ZM289.29,71.33c-.14-.63-.83-.65-1.32-.82-5.18-1.77-11.46-2.24-16.71-4.1l-11.03,3.61,2.97,1.15,15.03,3.99c3.56-1.44,7.25-3.15,11.06-3.83ZM48.54,89.17l-15.19-22.45c-.6,1.25.62,1.58,1.26,2.53,3.76,5.57,7.8,13.44,12,18.39.56.66,1.18,1.14,1.93,1.54ZM247.02,66.71c-1.62.27-4.22-.94-3.63,1.32,1.65-.45,3.36,1.04,3.63-1.32ZM246.69,69.35h-2.97v5.12c0,.69,2.42.5,2.97.5v-5.61ZM277.39,75.97l-19.12-4.84c-1.07-.04-1.02,3.01.07,3.25,6.23,1.96,12.83,2.71,18.9,5.21.22-.52.27-3.49.15-3.62ZM42.27,83.55l-7.59-12.21,3.13,12.88c.67.92,3.47-.57,4.46-.67ZM84.54,74.3c-.52-.71-1.3-1.6-1.98-2.14-.28-.22-.5-.78-.83-.17-.19.35-.27,1.87-.16,1.98.11.1,2.48.2,2.97.33ZM289.95,74.95c.08-.11-.58-2.04-.49-2.63-2.47,1.65-8.1,2.34-10.21,3.99-.91.71-.92,3.12.55,2.89,1.24-1.05,9.7-3.67,10.15-4.26ZM72.82,74.97c-.6.16-.36.5-.23.87,2.32,6.44,3.45-1.7.23-.87ZM86.52,77.27c-.21-.47-.38-1.03-.89-1.25-.78-.33-4.66-1.1-5.5-1.03-.4.03-3.7.83-3.84.97-1.38,1.27,2.98.05,3.17.03,2.43-.24,4.8.46,7.07,1.28ZM251.31,93.46c-.27-3.06.05-6.39-1.16-9.24-.66-1.57-2.07-2.89-2.64-4.3-.79-1.97.13-4.74-3.25-3.58-1.15.4-.58,1.75-.74,2.29-.56,1.82-1.92,2.61-2.79,4.09-1.14,1.93-2.3,7.17-1.6,9.21.36,1.06,6.1,1.6,7.35,1.49,1.07-.1,3.07-.97,3.7-.95.89.03.5.99,1.13.99ZM276.08,83.23l-17.01-6.93c-.92.88-.99,2.42.04,3.26l16.48,7.3c-.14-.71.61-3.48.49-3.62ZM291.93,77.6l-2.09-1.25c-3.56,1.69-7.22,3.44-10.95,4.58-3.54-.27-6.87-1.84-10.32-2.59-.33-.07-1.16-.33-1.08.25,2.22.2,7.96,3.69,9.71,3.63,1.94-.07,9.65-3.24,12.16-4.05.83-.27,1.7-.48,2.57-.57ZM71.99,77.93c-.17-1.88-1.86-.44-2.97-.16-5.58,1.39-12.07,2.81-17.44,4.7-.53.19-.88-.17-.72.74l21.13-5.28ZM80.58,77.28c-.28-.28-2.91.46-3.4.73-.8.44-.65,1.06-1.54,1.42-1.21.5-2.55.85-3.44-.18-6.08,2.39-13.91,2.88-19.84,5.3-.93.38-1.23,1.1-1.91,1.4s-2.11-.03-1.89.73c.15.53,1.57,2.65,2.06,2.92,2.12,1.16,10.6,3.64,13.1,4.04.91.14,1.77.31,2.68,0l14.45-4.86c-.08-3.86-.77-7.67-.27-11.51ZM101.38,82.56l-19.81-5.28.33,11.23,19.48-5.95ZM43.59,85.53c.21-.28-.21-.79-.49-.98-1.71,1.12-7.61,1.45-5.1,4.43,7.41,2.47,14.84,5.26,22.36,7.36,2.06.57,4.01,1.12,6.17,1.1,12.18-4.88,25.51-8.37,37.58-13.31,4.53-1.86,2.19-2.91-1.15-3.97-3.97-1.25-8.38-2.06-12.47-2.88.2.57.79.93,1.32,1.15,1.69.71,11.36,2.4,11.89,3.14.94,1.33-4.09,2.73-5.02,3.06-11.04,3.89-22.38,7.05-33.48,10.78-8.46-1.84-16.47-5.16-24.83-7.3l-.4-1.58c.53-.16,3.52-.85,3.63-1ZM291.93,78.93l-14.34,4.65c-.86.62-.99,3.41.48,3.14,4.33-.81,9.35-3.76,13.86-4.49-.32-1.22-.31-2.08,0-3.3ZM257.42,80.25c-2-.28-5.11,0-7.27,0-.06,0-.6-.69-.82-.17,1.5,2.03,2.94,4.07,3.26,6.64.1.77-.24,4.09.53,4.09h9.08c.11-.58-.15-.66-.57-.92-2.03-1.21-6.5-.7-7.43-3.46-1.17-3.48,1.07-4.74,4.03-5.53.12-.33-.69-.64-.82-.66ZM173.21,84.54c4.13-.03,8.26.03,12.38,0l-.33-3.63c-4.33-.23-8.58.38-12.88.33.12.95-.19,2.21.04,3.1.21.82.71.21.79.2ZM194.35,80.91c-1.7-.55-6.37.41-8.42,0,.31.56.54,3.49.67,3.62.31.3,7.53.32,8.57.35.04-.77-.19-3.76-.83-3.96ZM207.02,81.28c-.46-.46-9.1-.51-10.37-.39-1.92.18-.48,2.51-.44,3.94l11.52-.3c-.26-.52-.59-3.14-.7-3.26ZM225.39,85.2h12.05v.99h-11.56c.21.87,1.5,4.74,2.18,4.9,3.07-.58,6.27-.14,9.38-.27l.47-5.31,2.17-4.6-16.51.66c-.15.28,1.5,3.54,1.81,3.63ZM171.4,81.24l-22.12.67-.33,3.63,22.24-.71c.98-.3-.15-2.66.22-3.58ZM223.9,85.2c-.24-.83-.76-3.31-1.54-3.58l-14.64-.38c.25.77.47,3.01,1.2,3.25l14.98.7ZM48.82,81.63c-.4-.24-1.39.03-1.93-.05l1.33,3.63c2.34.45,1.15-3.24.6-3.57ZM119.88,85.2c-.13-1.11.89-2.14,1.16-2.98.34-1.07-1.69-.32-2.3-.3-3.49.08-7.35.18-10.74-.34.24,1.45-.59,2.38-.99,3.63h12.88ZM133.75,81.57h-11.89l-.99,3.63h11.72c.45,0,1.31-3.49,1.16-3.63ZM134.24,85.53h13.21c.9-.96.57-2.48,1.16-3.63-1.78.49-13.52-.72-13.91-.14-.26.39-1.13,3.6-.46,3.77ZM271.79,86.53l-11.77-4.86c-.97.13-2.07.31-2.76,1.06,4.5,1.21,8.99,2.88,13.52,3.98.33.08,1.08.43,1.01-.18ZM277.73,89.83l-22.46-5.95c-.02,1.07.01,2.5,1.08,3.05l21.05,5.86.33-2.97ZM291.53,86.79c.23-.39.13-2.05-.09-2.57l-12.06,6.1c-.58.66-.27,1.65-.32,2.48l1.33-.15c1.42-1.45,10.56-4.86,11.14-5.86ZM105.68,85.54l-25.57,8.61c-.72.39-.53,1.26-.52,1.95.2.22,4.17-.99,4.8-1.31.34-.17,2.87-2.38,2.1-.55-.44,1.04-3.16,2.07-4.26,2.37-.67.19-1.22-.14-2.05.21-.91.38-2.63,1.82-3.54,2.1-1.57.47-3.93-.51-4.82,1.49-.18.4.33,1.65-.31,1.63-.42-.02-.58-1.24-.5-1.64-1.1.68-4.34,2.43-4.62.33,1.99-.18,4.82-.39,4.62-2.98l.66,1.32c2.24-1.77,7.54-.06,6.93-4.29-1.63.35-11.44,4.27-12.14,3.88-.18-.1.12-1.09-1.34-.2.39,4.64.31,9.33.61,13.98.08,1.23.96,6.48.51,7.13-.88,1.26-7.2-1.32-7.78-2.5s1.84.28,1.98.17c-.4-.58-.2-1.47-.5-1.98-.46-.78-2.6-.37-2.14-1.98l1.98.66c.48-2.16-1.22-1.88-2.31-3.14-.09-1.3,1.91.26,1.98.17,1.21-1.6-3.08-2.93-2.31-3.63.46-.42,1.72,1.09,2.3.5-.49-.42-.16-1.43-.38-1.77-.24-.37-2.45-.32-2.59-1.54l2.64.5c.77-2.3-2.02-2.24-2.64-2.98-1.2-1.42,2.21.11,2.31,0-.09-.47.17-1.71-.04-1.94-.09-.1-3.17-.64-2.27-1.36,1.25.17,1.93.68,2.97-.33-.67,1.68,3.29,1.39,3.3,2.15.02,1.23-3.14-.31-3.29-.16.24.46.24,2.11.37,2.27.11.13,2.77.75,3.26.71-.36,1.42-3.1.1-3.3.33-.56,2.11,1.38,2.12,2.97,2.64-.3,1.34-2.41.08-2.64.33-.45,2.26,1.22,2.14,2.97,2.31.25,1.27-2.01.59-2.64.33-.45,2.41.9,2.66,2.97,2.64,1.25.94-2.54.55-2.64.66-.48,2.54,1.33,1.55,2.64,2.81-1.26,1.04-2.62-.9-2.29,1.3.3,1.95,2.33,2.02,3.94,2.17l-.99-20.47-20.8-5.95c-.69,2.64,2.28,1.65,3.63,3.14.11.72-.19.52-.69.36s-2.65-1.14-2.93-.86c.09.5.18,2.13.55,2.33.23.12,3.92,1.46,4.07,1.3.08-1.24-1.2-3.47.66-3.63-.52,1.22,3.29,2.13,4.22,2.26.72.1,1.15-.29,1.53-.28.19,0,.18.49.3.54.55.22,1.16.08,1.54.62-.28.67-1.55.41-1.65.5-.08.07.27,1.82.39,1.92.27.22,1.27-.1,1.58.55-1.25.96-1.97-.17-1.67,1.99.11.81.83.58,1.01.99.29.63-.58.4-.66.71-.61,2.3.96,1.6,1.32,2.27.41.75-.91.28-1.01.67-.23.91-.21,2.63,1.01,2.13.39.95-.6.96-.65,1.21-.48,2.22.32,1.38,1.64,2.26.22,1.01-1.76.17-1.64.65.06.27.35,1.36.39,1.42.28.43,1.54,0,1.26,1.06l-1.45.26-4.5-2.73c.86-.92,3.26,1.59,3.63,1.16-.07-.44.16-1.29-.04-1.61-.11-.18-3.65-1.01-3.92-1.37-.18-.23.22-.91.49-.95.49-.06,2.89,1.57,3.14,1.28.98-2.68-2.95-1.49-3.63-2.81s3.18.3,3.3.17c-.07-.66.21-1.78-.15-2.32s-3.44-.71-3.47-1.47c-.05-1.06,3.03.46,3.29.16.49-2.39-.97-1.46-2.64-2.15-1.02-.42-1.6-1.41-.23-1.09.94.22,1.78.83,2.87.59-.03-2.77-1.46-1.89-3.4-2.71-1-.42-2.05-1.49-.43-1.23.58.09,3.35,1.13,3.49.97.78-3.23-3.15-2.67-5.28-3.63.82,1.69-.15,6.76.84,7.92.19.23,1.4.47.81.99-.15.13-1.71-.45-1.01,2.11.1.35,1.13.22,1.34.7.23.86-.77.31-.95.51-.78.89.44,1.92,1.28,2.13l-1.32.66c.18.35.21,1.23.42,1.42.28.25,1.11-.28.9.55l-1.11.8c-.74-1.14-3.01-1.5-3.69-2.28-1.23-1.42,2.84.17,2.81.65.69-2.54-2.22-1.68-3.47-3.3l.17,2.31-3.63-.49c.59.53,1.28.96,1.99,1.32,3.36,1.67,8.19,3.35,11.8,4.71,2.18.82,8.22,3.45,10.13,3.37,2.08-.1,11.46-4.02,14.14-5.02,3.5-1.31,21.49-7.98,22.84-9.85.28-.39.6-.77.52-1.29-1.25.48-2.89.75-3.47,1.98-.3.03-.07-.67-.33-.68-.46-.02-2.77,1.37-3.78,1.53-.52.08-1.52-.3-1.65-.18-.06.06.03.76-.33,1.15-.41.43-4.63,1.99-4.3.17,2.3.17,3.94-1.33,5.95-2.14.34-.14.8.05,1.21-.11,1.45-.54,3.61-1.06,3.07-3.04-.27-.3-3.02,1.73-2.97-.33.69-.02,2.26-.26,2.77-.63.34-.25.06-1.65.85-1.02.03.03-.08.67.19.67.5,0,1.41-.61,2.13-.35.2,1.12-1.71.9-2.15,1.65-1.32,2.23,1.74.62,2.97.68l1.82-15.7c-.23-.21-.24-.49-.65-.34-.8.29-1.69,1.31-2.84,1.48-.46.06-1.79.04-1.79-.48,0-.45,2.41-.82,2.96-.99.46-.14.84-.68,1.2-.74s1,.35,1.11.24c.08-.09-.15-1.83.33-2.31ZM185.43,85.53h-12.22c-1.11,0-.08,5.08-.17,5.95,4.64-.27,9.24-.45,13.87,0-.56-1.01-.67-5.68-1.48-5.94ZM188.07,91.48h8.42l-1.01-5.6c-2.03-.1-4.08.06-6.11,0-1.07-.03-2.61-1.08-2.46.47.08.82.7,4.98,1.15,5.13ZM208.01,85.58l-11.52.29c.3,1.01.41,4.7.81,5.3.44.66,4.96-.26,5.97-.34,2-.16,4.1-.08,6.11-.34l-1.36-4.91ZM226.54,91.14c.28-.27-1.46-4.48-2.22-4.88-1.44-.75-4.8-.3-6.55-.39-2.39-.13-5.51-.73-7.91-.35-.3.05-.72.17-.77.49-.05.28,1.09,4.3,1.47,4.43l15.97.7ZM171.73,85.86l-22.91.71c-.69.23-1.08,4.57-1.2,5.57l24.44-.66-.33-5.62ZM119.22,86.19h-12.22l-.33,5.29c3.47-.48,7-.26,10.51-.39l2.04-4.9ZM132.43,86.19h-12.05c-1.03,1.43-1.54,3.29-2.15,4.95,1.55.09,12.22.98,12.59.47.66-.94.97-4.17,1.61-5.42ZM147.12,86.52h-13.21c-.07,0-.36-.47-.49-.33l-1.65,5.61c4.93.53,9.9.29,14.86.33-.23-1.52.82-3.61.87-4.93.01-.31-.11-.62-.37-.68ZM284.67,86.2c-1.88.39-3.91,1.04-5.69,1.73-.35.14-.98.1-.91.57l1.64.19,4.96-2.5ZM45.24,87.84c-.51-1.59-1.23-1.48-2.64-.98.1.73,2.38,1.18,2.64.98ZM42.93,92.14c-1.58.04-3.12-1.24-4.47-1.65-.5-.15-.54.02-.47.47.91,6.51,1.82,13.04,2.94,19.52l.52.81.17-.99,2.97.99c.29-1.72-3.26-2.16-3.3-2.8-.08-1.4,2.69.72,2.97.49-.11-2.65-2.12-1.31-3.63-2.8.93-1.22,1.95.1,2.96.16,1.15-2.76-2.79-2.51-2.98-3.14-.56-1.88,2.2.32,2.65-.17.23-2.25-.11-1.3-1.29-1.84-.26-.12-1.66-.88-1.69-.97-.68-1.98,2.34.51,2.65.16,0-1.09.32-1.8-.75-2.39s-2.98-.03-2.55-1.57l2.97.66c.44-2.88-.95-2.06-2.64-2.81-1.29-.56-1.17-1.53-.32-1.34,1.48.34,2.99,1.76,3.29-.8ZM278.39,94.78c-.06-.5-.47-.53-.86-.63-3.01-.73-8.35-2.54-10.99-2.82-.72-.08-1.58.29-2.36.15l3.98,7.91c.53.38,4.56-2.47,5.47-2.92,1.4-.69,3.22-1.32,4.75-1.69ZM199.14,101.05h7.6c-.01.52-2.1.99-2.48.99h-4.79c-.42.92,1.06,4.61.16,4.95-.7.26-.49-.65-.59-1.05-.27-1.17-.59-2.35-.57-3.57h-7.76c-.11,0-.56.49-.44.75l2.6,11.12c1.55.08,3.04-.17,4.55.25.59.16.85-.11.72.76h-4.62l2.64,12.22h20.81c.07-.87.04-.55-.5-.65-8.09-1.51-13.1-1.64-16.73-10.35-.97-2.33-2.23-5.88-.75-8.13,1.61-2.46,5.94-2.82,6.27-3.3.24-.36.08-1.17.46-1.85.67-1.19,2.53-1.38,2.63-1.5.32-.38-.61-1.94,1.27-2.86,1.46-.72,2.07.05,2.83-.13.63-.15,1.22-1.58,2.37-1.58,1.3,0,2.66,1.61,3.3,2.61,2.02-1.21.28-2.61.19-4.5-.08-1.57.27-2.23,1.75-1.39,1.95,1.11,3.19,3.67,2.85,5.9,1.97.03,2.23-4.76,3.76-4.27.21.07,1.54,1.83,1.5,2.08-.12.69-3.24,2.32-2.62,2.85,1.66-.31,3.11,1.12,4.61.65.49-.68-2.63-7.24-2.79-8.58l-16.68-.98c-.47.47,1.8,5.54,1.15,6.61-.8.02-.69-.66-.84-1.14-.56-1.76-.97-3.62-1.34-5.43l-12.19.96,1.65,8.58ZM237.44,91.81h-9.25c.4,1.13,2.98,8.92,3.47,8.92h5.45c-.25,1.86-3.54.67-4.95.99-.25.24,1.83,3.22-.76,2.59-1.18-.29-3.24-4.13-3.53,1.37,1.9-.93,4.9,2.69,5.21,4.21.69,3.45-3.16,10.6-5.72,12.96-2.86,2.63-4.96,2.96-8.57,3.64-.48.09-1.02,0-1.16.65,4.8.03,9.58-.75,14.36-.66.55.01,1.14.38,1.65.33,1.03-.1,3.68-3.33,5.45-2.98-.4-1.44-2.98-9.22-3.85-9.52-.6-.21-1.44.01-2.09-.05-.08-1.19,1.2-1.02,1.98-.99l-1.32-4.62c.88-.18.57.22.82.65.47.8,1.36,3.81,1.54,3.92.3.18.89,0,1.27.05v-21.47ZM262.71,91.81h-9.74v9.25s14.53-1,14.53-1c-.9-1.1-3.99-8.02-4.79-8.25ZM324.24,105.07c-.13-.23-4.03-1.87-4.78-2.31-5.96-3.53-10.8-8.22-18.33-9.08-3.71-.12-7.86-2.75-11.3-1.18-.85.39-1.36,1.09-2.18,1.45-2.18.97-5.52,1.25-7.93,1.98-7.03,2.12-10.41,5.18-16.08,9.35-.67.5-3.43,1.89-3.42,2.53.67,1.43,2.3,2.01,3.5,3.13.69.65,1.06,1.51,1.8,2.17,7.23,6.41,17.47,8.94,26.43,12.04-2.6-4.58-7.62-5-11.78-7.21-2.05-1.09-3.94-3.15-5.83-4.08-2.03-1-10.7-2.65-11.45-4.4-.17-.4.06-.61.49-.49.81.24,2.02.99,2.97,1.32,2.43.85,5.21,1.45,7.52,2.39,2.79,1.13,4.88,3.32,7.55,4.67,3.6,1.81,7.02,1.97,9.86,5.33,1.05,1.25,1.13,2.86,2.8,2.82,2.81-.07,12.67-3.95,15.38-5.46,4.15-2.32,9.81-8.09,13.04-11.73.59-.66,2.23-2.43,1.75-3.25ZM116.58,92.14h-8.09c-.3,0-1.31.52-1.83.48l-.27.39-.7,8.71h7.43c.69-1.09,3.83-9.21,3.47-9.58ZM130.44,92.8c-4.18-.28-8.41-.56-12.55-.5l-3.3,9.42,12.9.19,2.95-9.1ZM173.71,101.71h15.19l-1.65-9.24c-4.76-.44-9.43-.07-14.2,0l.66,9.25ZM128.46,102.04h15.19l-.83.99-14.66.03-2.34,9.54c2.63-1.07,1.02-7.02,3.71-6.53,3.3.6.4,6.15-1.07,7.52,1.42-.12,2.63-.49,4.1-.29,1.88.26.84.91,1.24,1.55.51.81,6.79.97,7.65.67,2.26-.76.81-11.06,3.17-13.34,1.63-1.57,8.75-1.79,10.08.2,2.02,3.03,1.93,10.14-.48,13.04-.79.95-2.81,1.71-3.16,2.78-.27.82-.26,7.12.05,7.32.73.49,5.08.73,4.19,2.84-1.07,2.55-9.18,2.13-10.98.58-2.23-1.92,2.79-3.08,4.26-3.14-.02-1.25.23-7.76-.51-8.28-.12-.08-2.54-1.18-2.68-1.21-.47-.11-2.42-.2-2.7-.02-.48.31-1.97,9.81-2.03,11.19.1.11,3.88-.29,2.64.66-.6.13-2.66-.2-2.94.04-.31.26-1.13,6.84-1.35,7.89,6.92-1.02,14.63-.97,21.31,1.31,6.65,2.26,10.82,6.96,3.08,11.69-1.07.65-5.25,1.93-5.42,2.17-.4.57-.51,3.17.84,2.83-1.3.56-1.04,1.17-.99,2.48,2.45-2.81,6.29-4.67,8.92-7.1,1.56-1.44,1.48-3,2.96-4.63.96-1.06,5.31-3.79,5.45-4.1.05-.11-.08-2.25-.16-2.33-.27-.28-6.74-.03-7.77-.01-1.42.02-2.87,1-4.11-.48l11.56-.49c.06-3.31-.14-6.64-.66-9.91h-7.76c-.22,0-.63-.71-.5-.99h8.26c-.21-1.42-.28-10.51-.66-10.9-.11-.12-1.28.07-1.65,0v-.99s1.66-.19,1.66-.19l-.67-11.7c-.35-.12-.72.33-.82.33h-14.53s-.77-.32-.83-.5c0-.14.77-.5.83-.5h14.86c1.02,0,.19-2.89.17-3.47-.07-2.05.28-4.19-.53-6.13l-24.33.68c-.72.39-.96,4.7-1.23,5.79-.13.52-.01,1.16-.83,1.15-.79.01.82-6.31.82-6.94l-14.65-.29-.47.52-2.71,8.69ZM196.82,92.47h-8.59c.26,1.34,1.3,8.65,1.97,9.09,2.58.08,5.28-.38,7.94-.18l-1.32-8.91ZM240.09,93.79v12.71c0,1.47,9.91,1.79,9.91,0v-12.22c0-.14-.32-.43-.68-.36-1.53.27-2.65.92-4.44.88-1.54-.03-3.3-.64-4.79-1.01ZM221.92,98.41c-.4-1.5-.84-2.84-2.31-3.63-.03,1.82-.19,4.13,2.31,3.63ZM47.88,101.71c.66-2.88-2.18-2.86-4.29-3.3.16,2.71,1.99,2.86,4.29,3.3ZM215.59,101.32c.09-.05,1.06-1.6,1.03-1.71-.1-.5-1.52-1.33-2.08-1.16-1.57.46-.63,3.85,1.05,2.88ZM220.77,99.54c-1.24-.05-1.99.79-1,1.86,1.72,1.87,3.34-1.77,1-1.86ZM211.95,99.8c-1.23-.72-3.46.62-2.28,2.1.99,1.24,2.14-.44,3.33-.2-.26-.34-.88-1.8-1.06-1.91ZM252.96,102.04v4.79c0,.34,2.87,5.18,3.14,6.11h7.1c-.7-2.35-5.63-3.01-4.57-6.05.39-1.13,6.81-4.01,7.55-5.83l-13.21.99ZM217.53,101.42c-1.54.4-2.23,3.29-.4,3.28.44,0,2.07-1.58,2.12-1.87.1-.55-1.08-1.57-1.72-1.41ZM227.87,101.72c-.22-.23-3.64-.67-3.63.16,0,.14,2.34,1.03,2.48,1.03.19,0,1.6-.74,1.15-1.19ZM48.21,104.69c.62-2.47-2.56-2.47-4.29-2.97.11,2.35,2.43,2.33,4.29,2.97ZM153.89,103.03c-.71-1.77-8.59-.94-8.59-.16,2.74,1.1,5.82,1.1,8.59.16ZM105.18,115.25c-4.24.07-8.48-.05-12.71,0-.09,1.54-4.08,9.79-3.96,10.39.05.23.54.51.83.5l10.07.33v.99s-11.01-.61-11.01-.61c-.49.16-2.58,5.08-2.51,5.37.09.37,1.11.75,1.48,1.17,1.03,1.17,1.54,3.21.81,4.64,4.06-.02,8.15-.06,12.19.3-.02-1.15,1.26-3.04,1.05-4.05-.07-.34-3.31-.55-2.94-3.59.23-1.86,1.76-1.95,2.09-2.55.17-.3-.58-2.01.8-3.41.53-.54,1.17-.36,1.59-1.14,1.23-2.27-.79-3.78.58-5.7,1-1.4,2.41-.67,3.14-1.15.44-.29.35-1.68,1.32-2.31.68-.43,2.2-.45,2.27-.53.21-.23-.4-1.91,1.58-2.88,1.73-.85,2.07.24,3.23.22.92-.01,2.14-1.33,3.46-.3.18-1.03-1.12-.65-1.2-1.82-.05-.72.8-.79.86-1.05.31-1.37-1.15-4.64,1.24-3.48.5.24.82.75,1.29,1.02.91.53,1.93.61,2.59,1.7l.65-.66,1.82,2.31,1.32-5.94-13.16-.29c-.36.23-2.01,6.88-2.69,7.95-.2.32-.64.44-.98.59l2.64-8.58c-1.06.34-6.95-.44-7.29-.2-.63.45.11,4.65-3.82,6.76-1.9,1.02-6.88,2.29-8.18,3.38-.55.46-.5.93-.86,1.46l13.87.49c.23,1.16-1.03.65-1.48.66ZM222.58,105.02c1.08-2.55.82-3.27-1.65-1.65l1.65,1.65ZM189.23,102.71h-15.52l.66,11.89c5.81-.44,11.66-.34,17.51-.33l-2.64-11.56ZM211.4,105.3c1.29.67,2.84.59,2.93-1.14.13-2.54-3.8-1.22-2.93,1.14ZM209.99,105.64c.31-.37.08-1.85-.48-2.25-2.62-1.88-4.03,2.49-1.28,2.59.29.01,1.69-.26,1.76-.34ZM223.95,105.96c.46.73,3.38.27,2.44-1.61-.89-1.78-3.33.21-2.44,1.61ZM154.88,108.32c-.02-.82-.16-4.08-.85-4.25-.33-.08-2.01.53-2.66.58-2.19.18-4.1-.08-6.21-.63l-1.18,4.3c3.55-.89,7.35-1.02,10.9,0ZM48.54,107.99c.65-2.88-2.06-2.61-3.96-3.63-.5,2.77,1.98,2.86,3.96,3.63ZM221.26,105.02c-.26-.4-2.04-.48-2.66.14-1.13,1.14-.34,1.93.02,3.15.37-.75,3.15-2.52,2.64-3.3ZM216.64,105.68c-1.6-.31-3.73,1.91-1.64,2.82.52.22,1.75-.27,1.92-.57.24-.42-.46-1.64-.29-2.25ZM122.09,107.43c-.25-.18-2.76-1.54-2.87-1.42-.06,1.39,1.08,2.5-.66,3.13.31.48,1.31,1.06,1.49,1.5.39.94-.99,1.96,2.14,1.64.33-.32-1.16-3.33-1.65-3.8,1.9-.89,2.75,5.99,3.96,5.12.48-.35.34-3.23.17-3.97-.51-2.17-1.13-.77-1.82-1.12-.39-.2-.5-.89-.75-1.08ZM207.35,109.6c1.94-4.09-4.02-3.26-2.44-.61.3.5,1.99.9,2.44.61ZM212.34,107c-.99-.44-3.06-.46-3.31.82-.18.94.2,2.38,1.34,1.66l1.97-2.48ZM203.76,107c-2.36.47-5.57,2.74-2.81,4.95.29-.54.29-1.05.67-1.64.85-1.3,2.14-1.11,2.13-3.31ZM229.8,109.26c.8-1.29-1.26-2.93-1.93-2.26-.24.23.47,2.1.33,2.64.11.11,1.5-.21,1.6-.38ZM126.82,113.6c1.54-1.31,3.77-4.29,2.47-6.27-.43.96-.5,2.07-.9,3.06-.46,1.14-1.2,2.08-1.57,3.21ZM221.49,107.38c-1.25.38-1.64,2.74-.34,3.19,3.1,1.08,3.17-4.06.34-3.19ZM226.46,107.74c-.78-.79-1.92-.2-1.84.99.15,2.1,3.37.56,1.84-.99ZM239.09,107.33v7.76c0,.15,1.63,1.16,1.98,1.32,2.39,1.06,6.84,1.37,9.03-.22,1.5-1.08.79-3.96.86-5.74.02-.36.62-2.93.18-2.79-3.49,1.91-8.8,2-12.06-.33ZM48.87,110.63c.36-2.32-2.44-2.27-3.96-2.97-.08,2.55.61,1.62,1.98,2.13.69.25,1.22.86,1.97.84ZM154.88,109.31c-3.44-1.49-7.04-.98-10.57-.17,2.97,1.43,6.42,1.37,9.58.66.36-.08,1.07,0,.98-.49ZM254.94,113.27l-.71-2.1-1.6-2.85v4.95s2.31,0,2.31,0ZM212.06,111.25c1.17.73,3.78-.43,2.1-1.94s-3.11,1.31-2.1,1.94ZM227.21,113.6c.38.31,6.76-3.11,3.97-4.62.51,1.87-3.14,1.84-3.31,1.98-.11.1.66,1.83-.66,2.64ZM218.89,111.23c.94-1.64-2.77-3.3-2.61-.43.11,1.87,2.26,1.04,2.61.43ZM154.88,110.3c-2.93,1.17-5.92,1.07-9,.58-.58-.09-2.03-1.16-1.89-.1.3,2.29,3.38,6.13,5.79,6.09,2-.04,5.44-4.42,5.11-6.57ZM202.98,110.35c-1.04.35-.74,2.61.82,2.44,2.63-.28,1.65-3.27-.82-2.44ZM207.15,113.19c1.05,1.05,3.25-.33,2.74-1.56-.96-2.32-4.32-.02-2.74,1.56ZM223.9,110.96c-.39,1.46,2.01,3.28,2.81,1.65.97-1.97-1.48-1.74-2.81-1.65ZM114.26,114.59c.1-.09.12-2.19-.3-2.5-1.35-.98-3.7,1.65-2,2.69.1.06,2.22-.12,2.31-.19ZM118.81,112.36c-1.56-1.51-4.01.38-3.22,2.56.64-.43,3.1-.21,3.27-.36.25-.22.36-1.81-.05-2.2ZM213.89,112.35c-1.48.12-1.76,2.21-.3,2.81,3.93,1.63,2.39-2.98.3-2.81ZM220.81,112.33c-.87.29-.98,2.31.62,2.3,1.97-.02,2.1-3.21-.62-2.3ZM211.68,114.92l-.49-2.31-1.82,2.31h2.31ZM218.95,112.94c-2.11-.05-1.69.93-1.65,2.64h2.31s-.66-2.64-.66-2.64ZM204.21,120.75c4,4.12,11.32,5.25,16.74,3.92,5.38-1.31,8.62-6.46,10.22-11.4-6.72,4.27-15.56,4.28-23.18,2.88-2.74-.51-5.04-1.31-7.53-2.54.51,2.49,1.98,5.33,3.75,7.15ZM122.75,116.47c1.03-.82.56-2.65-.74-2.87-3.56-.6-1.82,4.91.74,2.87ZM264.36,113.93c-1.74-.5-5.74.37-7.76,0,.81,2.07,2.19,3.91,2.66,6.1.1.48.7.95-.18.84-.82-.74-3.31-6.86-3.69-6.95-.29-.07-2.65-.08-2.75.01s0,1.74-.52,2.62c-2.02,3.39-11.23,2.86-13.69-.14-.88-1.07-.61-2.81-1.98-2.48,1.31,2.87,2.63,6.12,2.97,9.24,2.58-.51,5.48-2.09,8.09-2.31,1.23-.1,2.42.31,3.3.26,5-.29,8.86-1.26,13.01,2.91.67.68.94,1.66,1.7,2.26,3.28,2.63,10.95,3.01,8.57,9.42l13.54-.33c.46-.45-4.4-8.47-5.28-9.41h-15.85c.37-.46,1-.65,1.56-.74,1.09-.19,3.05-.34,4.22-.41,3.01-.18,6.07.12,9.08,0,.02-.46-.05-1.04-.31-1.43-.32-.49-8.91-3.9-10.48-4.79-1.34-.76-5.84-4.57-6.22-4.68ZM132.43,114.27c-.25-.19-3.39.33-3.98.48-.41.1-1.58.34-1.64.83,1.98.07,4.6-.44,5.94,1.32l-4.95-.66c.27,2.46,2.7,1.24,4.29,2.64.07-1.99,1.45-1.21,2.98-1.32-.48-1.49-3.57-1.69-2.64-3.3ZM91.48,115.25h-4.79l-12.71,4.8-2.66,5.59c2.03,1.2,4.66.2,6.77.17,3.12-.06,6.26.11,9.38-.03l4.01-10.52ZM110.58,118.17c.07-.11.31-2.49.24-2.6-.93-1.3-3.68.67-2.53,2.42.41.62,2.02.62,2.29.17ZM195.17,127.14l-2.95-11.74-17.85.19.66,10.9,20.15.66ZM114.6,115.92c-.46-.61-2.31-.03-2.59.89-.58,1.91,2.19,3.28,2.92,2.41.06-.07-.62-1-.66-1.51-.05-.55.41-1.68.33-1.78ZM119.22,117.23c-.74-3.15-5.02-.94-3.12,1.31,1.45,1.72,1.49-1.21,3.12-1.31ZM141.67,116.24h-5.94c-.08.55.84.36.99.84.6,1.9-2.83,1.26-3.33,1.62-.38.27-.15,1.15-.49,1.2-.5.08-1.7-.47-1.8-.35-.19.22.31,1.52.26,2.07-.12,1.3-1.42,1.93-1.51,2.42-.17.94.84,2.43-.55,3.78s-2.81.46-3.6.68c-.56.15-.74,1.69-2.39,1.93-1.35.2-2.09-.19-3.11-.98l-2.31,9.24,3.63.17c-.78,1.55-3.4.27-4.13,1.15-1.38,1.67-2.34,10.88-3.78,13.36.25.51.65.48,1.12.53,4.25.48,9.77-.16,14.23-.03,1.05.03,4.34.91,4.95.03.16-.22.58-2.78.46-2.96-.22-.31-5.24-1.81-6.74-3.34-6.06-6.16,5.65-10.64,10.36-11.27l1.36-8.21c-2.79-.08-6.01.01-8.76-.33-.46-.06-1.02-.23-.49-.66,3.16-.62,6.34.33,9.56-.02l2-10.88ZM55.48,119.22l-7.38-2.62c-.71,1.14-5.53,7.38-5.49,8.06.01.17.54.52.82.5l8.19.6c.91-.27,3.26-5.4,3.86-6.54ZM124.41,116.64c-1.54.46-1.94,2.94.29,3.22,3.22.41,2.75-4.13-.29-3.22ZM149.93,126.65c-.34-2.08,0-5.94,0-8.26,0-.06.66-1.2-.17-1.15-.75.05-.53,4.86-.51,5.79.02,1.25,1.02,4.07-.82,4.77-.82.31-.36-.87-.49-.99-.31-.29-2.63.85-2.63,1.16,1.88,1.47,5.72,1.41,7.93.67,2.56-.86-.66-2.1-1.99-1.82l.66.82c-.64.48-1.86-.24-1.98-.99ZM108.65,119.55c-1.52.26-1.34-1.82-2.73-1.61-1.23.18-1.81,1.44-1.56,2.6,1.36-1.42,3.43.24,4.29-.99ZM121.78,118.64c-1.9-1.89-4.7,1.28-2.42,2.92,1.96,1.41,3.66-1.68,2.42-2.92ZM128.34,119.26c-.85.17-2.13,2.27-.67,3.22,2.98,1.93,2.97-3.67.67-3.22ZM109.73,120.29c-2.12,2.22,2.94,5.31,3.2,1.36.12-1.83-2.02-2.6-3.2-1.36ZM53.17,125.82h16.68l2.81-5.28c-2.85.87-4.61,2.2-7.77,1.99-1.95-.13-7.78-2.68-8.2-2.59-.92.18-2.89,4.9-3.51,5.88ZM115.49,120.27c-2.44.71-.98,5.08,1.24,3.24,1.73-1.44.85-3.84-1.24-3.24ZM125.4,121.61c-.26-.28-1.8-.91-2.17-.7-3.03,5.71,4.86,3.53,2.17.7ZM107.61,121.25c-1.25-.79-4.11.98-3.1,2.6.9,1.44,1.82,0,2.53-.48.26-.18.85-.13.92-.21.18-.2-.15-1.79-.35-1.91ZM256.93,122.52c.51,1.87,2.54,4.38.45,5.92-.78.13-2.41-2.81-3.08-3.46-2-1.95-4.82-3.08-7.61-2.46l2.14,1.32c1.28.72,4.21,7.22,2.31,7.59-.64.12-3.54-3.07-4.48-3.77-3.23-2.41-6.12-3.85-9.88-1.51l3.1,1.02c1.8.47,5.43,4.91,4.67,6.56s-2.15-.64-3.04-1.25c-3.4-2.34-9.72-5.66-11.68.09-2.25,6.59,7.23,6.77,11.4,6.45,4.63-.36,17.56-4.71,20.98-7.75,4.5-4-.78-8.76-5.29-8.75ZM257.25,126.81c-.35-2.18-1.33-4.82-3.96-4.62l3.96,4.62ZM119.04,122.99c-1.32.19-1.63,2.65-.14,3.32,2.84,1.28,3.82-3.87.14-3.32ZM250.32,129.45c-.44-4.39-3.88-6.93-8.25-5.61l5.06,2.7,3.19,2.92ZM128.38,124.25c-1.39-1.39-3.34,1.59-2.74,2.57,1.21,1.95,4.43-.88,2.74-2.57ZM108.23,124.22c-2.25.4-1.87,3.89.25,3.89,2.43,0,2.71-4.42-.25-3.89ZM112.05,124.93c-1.3,1.59.62,4.35,2.53,2.7s-1.07-4.48-2.53-2.7ZM105.3,125.54c-.5-.81-3.17-.6-3.53,1.19-.64,3.14,5.1,1.33,3.53-1.19ZM297.87,126.15c-2.82,1.8-5.02.95-7.92.16-.93-.25-2.46-1.09-3.17-1.15-.95-.09-2.06.57-3.1.33l5.51,9.93,13.31-.36-4.63-8.92ZM122.67,125.57c-.7.11-2.77,3.58.02,3.58,2.48,0,1.94-3.9-.02-3.58ZM51.52,126.49c-3.33.29-6.54-.51-9.84-.59-2.27,3.91-5.69,7.08-7.66,11.15l11.22.51,6.28-11.07ZM119.19,127.85c-.05-.08-1.24-.58-1.61-.88-.53-.43-.48-1.06-1-1.14.35,1.31-1.45,2.59-.69,3.73,1.27,1.89,3.97-.77,3.3-1.71ZM69.35,126.81l-16.62.05c-.44.15-3.41,5.61-3.19,5.89,3.69-2.33,8.45-3.64,12.75-4.25,1.64-.23,5.39-.07,6.51-.42.54-.17.75-.97.54-1.27ZM86.85,126.81h-16.02c-.11,0-.63.77-.68.98-.24,1.01,2,.59,2.66.67,4.17.52,8.53,1.2,12.22,3.29l1.81-4.95ZM197.48,137.71c-.35-1.4-1.57-9.21-2.52-9.53l-19.93-.7c.53,3.25.68,6.62.66,9.91l21.8.33ZM232.49,127.48c-1.51-.08-14.13.34-14.2,1.18l1.5,4.43,9.86-3.33,2.84-2.27ZM241.29,129.57c-1.72-1.59-4.72-2.76-6.82-1.27,3.15.06,5.52,1.89,8.09,3.46.3-.49-1-1.93-1.27-2.19ZM273.11,134.74l-29.87,10.55-.51-.81c3.81-1.71,8.08-2.69,12.07-4.12,4.28-1.53,9.21-3.34,13.35-5.14.91-.4,4.8-1.79,4.61-2.92-.24-1.37-5.87-3.55-7.08-4.5-.24,1.17-.45,2.45-1.15,3.47-2.32,3.36-16.8,8.31-21.06,8.99-6.46,1.02-18.14.81-14.94-8.82-1.38.45-7.96,2.38-8.42,3.29-.33.65-.28,2.57.39,3,8.33,2.86,16.53,6.14,25.01,8.55,7.17-3.04,14.83-5.06,21.99-8.09.4-.17,6.57-2.7,5.62-3.46ZM109,129.14c-1.29,1.53,3.05,2.85,3.23.41.03-.42-.88-1.37-1.1-1.37-.15,0-.61.53-.93.68-.36.17-1.16.23-1.2.28ZM105.91,128.5c-1.77.45-2.11,3.9.26,3.9,2.83,0,1.51-4.35-.26-3.9ZM217.3,128.46h-20.81l1.98,9.25h12.71c.67,0,.52.99-.33.99h-12.05l1.02,4.59c4.15-.07,7.79,1.07,11.43,2.94.49.25.95.91,1.32,1.01.64.16,1.18-.38,1.71-.45,2.18-.28,7.45,6.71,8.63,5.78-1.11-2.07-1.21-6.99-2.35-8.71-.42-.64-4.39-2.44-5.55-3.36-6-4.76-.99-5.58,3.6-3.11.41-3.22-.58-5.88-1.32-8.92ZM118.88,131.11c-1.22.5-2.87.37-3.79-.67-.37-.42-.46-1.27-.52-1.31-.05-.04-1.2.35-1.24.4-.17.2-.03.86-.24,1.23-1.22,2.08-2.58.95-4.21,1.41-.62.18-.95,1.07-2.07,1.24-1.05.16-1.92-.29-2.79-.16-2,.29-1.9,3.54-2.63,5.13l15.51.32,1.99-7.58ZM102.95,129.87c-.99-1.15-3.08-.51-3.19,1.41s3.44,2.07,3.6.32c.03-.31-.24-1.53-.41-1.73ZM63.67,129.88c-2.52.22-5.28.82-7.7,1.55-11.32,3.41-8.82,8.95,1.22,11.34,6.94,1.65,21.85,1.19,27.79-3.14,2.45-1.79,2.74-4.51.2-6.36-4.34-3.17-16.23-3.86-21.51-3.39ZM310.76,146.95c-2.85-3.45-5.31-7.13-7.82-10.84-4.43.04-8.95-.39-13.32.28l2.62,4.79,8.69-1.44,9.82,7.21ZM291.27,141.34c-.89-1.11-1.73-3.55-2.62-4.47-1.14-1.17-6.04-.17-7.76-.13-1.35.03-6.3-.43-6.88-.29-.34.08-.98.84-1.54,1.11-1.52.74-3.13,1.27-4.66,2,.6,1.2,4.27,9.58,4.81,9.71,1.32.31,1.16-2.46.75-3.39s-1.6-.98,0-1.8l17.91-2.73ZM144.58,136.82c-3.41.19-6.86.71-10.1,1.79-4.35,1.45-11.05,5.17-4.25,9.07,7.97,4.57,23.26,4.59,31.49.67,6.96-3.32,5.28-7.25-1.13-9.56-4.8-1.73-10.93-2.25-16.01-1.96ZM239.73,146l-25.73-8.62,2.14,2.31c1.96,1.44,18.72,9.15,20.07,8.86.39-.09.86-.67,1.47-.87.51-.16,1.38.08,1.7-.11.15-.09.5-1.36.36-1.57ZM44.91,138.37c-3.86.06-7.7.07-11.5-.62l-7.32,12.51c3.86.01,7.69,1.15,11.56.5l7.27-12.38ZM90.49,148.94c-.9.21-4.76,1.82-4.95,1.65-.75-.67,3.43-2.38,3.96-2.31.08-.6-.69-.27-1.01-.18-.92.26-4.74,1.71-5.35,2.16-3.15,2.32-5.96,2.38-9.74,3.56-1.39.43-7.19,2.16-7.91,2.83-.11.1-.47.86-.43.89.79.06,1.55.01,2.33-.15,3.88-.79,10.01-4.9,13.51-5.32,1.7-.2,2.9,1.02,4.72.77,2.25-.31,4.68-2.62,6.7-3.22.42-.13.66.08.49.49-.39.94-2.88,1.96-3.82,2.45-.33.18-.63-.18-.47.69,1.53-.85,6.13.34,6.94-.16s3.58-11.69,4.49-13.36c.27-.22-.32-.68-.36-.68h-11.89c-.21,0-2.32,2.15-3.25,2.7-7.93,4.68-30.05,5.55-36.41-2.02-.68-.81-.1-1.73-1.58-1.29l-7.48,12.5,19.67.88c.67-.11,2.58-6.11,3.28-6.16.56-.04.38.85.27,1.25-.25.87-2.56,4.32-2,4.95.1.11.84-.05.57.56-.18.42-1.18.44-1.62,1.02-1.11,1.47-1.68,5.66-3,7.4l18.62,1.35c.4-.11,1.91-5.96,2.48-6.76.21-.29.89-.29,1.02-.19.3.21-2.58,6.69-2.31,6.93,2.39-.19,15.61.45,16.68-.65.28-.29,2.76-7.33,2.47-7.6-2.04-.03-4.08.03-6.12.01-1.48,0-3.56.27-4.57.21s-2.16-1.06-3.31-.87c-3.41.62-13.28,6.37-16.07,5.46-2.29-.74-.61-2.9,1-3.65,4.61-2.14,11.36-2.66,15.59-4.47.32-.14.62-.93,1.34-1.38.81-.51,6.59-2.72,7.27-2.58.17.04.43,1.01,1.22.67.24.22-.76,1.42-.99,1.65.69-.16,2.59-.7,1.3.48-.5.46-4.96,2.43-5.27,2.16-.74-.66,3.5-2.18,3.96-2.64ZM194.02,143.32c1.5-.18,3.26.13,4.79,0l-1.21-4.64-21.91-.31.33,1.98c.24.22,4.49-2.39,4.53-.11.03,1.82-4.25,3.95-4.4,4.88-.26,1.71,1.1,6.09,1,8.13.47.69,4.56.11,5.61.33,1.09-5.35,5.81-9.61,11.25-10.26ZM116.25,139.69l-15.19-.66-4.29,14.2,15.54.52,3.94-14.06ZM271.79,150.26c-.96-1.25-4.47-10.01-5.17-10.21l-18.61,7.08c1.99.96,10.26,3.05,11.05,4.79,1.35,2.97-2.23,5.48-5.2,3.63-.29-.18-.33-.68-.81-.92-.28-.14-1.95-.51-2.08-.4,1.16,1.9,1.72,5.08,2.89,6.84.64.96,2.97,1.02,4.19,1.09,4.44.26,8.97-.12,13.39-.35-.4-1.85-.75-4.18.82-5.62.39-.36,1.77-.79,1.79-1.14.02-.21-1.77-3.54-1.95-3.64-.69-.42-9.84.25-11.73.17-.51-.02-1.31.31-1.15-.49.38-.58.89-.47,1.47-.52,3.54-.29,7.46.19,11.08-.32ZM179.32,140.36c-2.8.5-8.6,4.01-9.87,6.48-.47.91-.25,1.93-1.03,2.76.51.37,2.35-1.29,2.8-1.66,2.76-2.26,5.59-5.06,8.1-7.58ZM309.77,148.61c-2.76-2.81-6.14-5.21-9.44-7.26-8.26,1.4-16.53,2.95-24.9,3.63l.5.98,7.97,6.52c8.66-1.05,17.21-3.11,25.88-3.87ZM245.37,152.57c-.61-.54-2.08-1.78-2.73-2.06s-1.33-.18-1.9-.41c-.81-.32-1.43-1.27-2.4-1.11-.87.15-1.8,1.61-3.23.8l-13.35-5.47c.72,2.73,1.18,5.72,2.31,8.26h21.3ZM211.35,148.27c-.31-.68-1.23-.96-1.86-1.27-5.51-2.66-14.9-3.41-20.27-.22-1.42.84-2.79,1.77-3.29,3.47,5.15-4.73,13.65-5.17,20.15-3.48,1.88.49,3.52,2,5.27,1.49ZM175.69,145.64c-.57-.15-.66.23-.99.49-1.12.89-2.86,2.58-3.96,3.63-1.37,1.31-2.74,2.68-3.96,4.13,1.52-.51,8.25,0,8.94-.47.85-.6-.62-6.41-.02-7.78ZM257.5,152.33l-15.35-5.65c-.53-.17-1.24.34-1.37.84-.38,1.46,1.86,1.25,2.58,1.61.8.4,1.82,1.39,2.77,1.85,2.42,1.19,5.05,1.17,7.16,2.09,1.4.61,1.16,1.63,3.11,1.47,1.26-.1,1.96-1.34,1.1-2.21ZM283.01,157.19c0-1.34.24-2.43-.51-3.62-.63-1-5.53-5.16-6.75-6.13-.33-.26-.42-.64-.99-.49.89,1.07-.55,2.65-.03,3.47l8.28,6.76ZM201.12,153.56c-.37-1.43-.56-6.01-2.19-6.18-.51-.05-3.24.17-3.89.27-3.12.45-12.31,4.18-8.43,8.37,1.76,1.9,6.5,2.13,8.87,3.14l1-1.81,3.97-2.79h-11.72c-.25,0-.97-.55-1.49-.33v-.66h13.87ZM208.71,149.27c-.4-.42-7.24-2-7.6-1.66l1,5.61c1.88-1.02,4.43-2.09,6.18-3.22.26-.17.92-.22.42-.74ZM217.63,178.66c2.42-.36,4.72-2,6.78-3.3,2.62-1.65,7.39-4.9,9.56-6.95.34-.32.77-.52.77-1.09-.02-1.92-6.6-6.85-8.2-8.32s-11.03-10.56-12.04-10.61-17.35,9.58-17.34,10.6l19.65,19.64c.44,1.85-1.93-.13-2.83-.47l-16.99-17.68c-1.02,1.37-.63,3.33.32,4.62,2.45,3.3,8.24,8.27,11.41,11.38,1.77,1.73,3.49,3.89,5.45,5.45.33.26,2.22,1.63,2.47,1.33-.3-.55.28-3.64,1.32-2.64.13.12-.09,2.45,0,2.97,4.82-2.89,10.81-5.86,15.01-9.59,1.44-1.28,1.91-2.27,1.82-4.28l-7.49,5.55c-1.4.96-7.15,4.73-8.48,4.6-.52-.05-1.35-.58-1.2-1.23ZM314.72,152.57l-2.64-3.96c-.02,2.36-.02,3.75,2.64,3.96ZM310.35,153.48c.49-.48.67-3,.09-3.42-1.07-.77-22.91,4.16-26.1,3.83v3.63s26.01-4.04,26.01-4.04ZM168.09,151.24c.22-.29-.31-1.1-.82-.98l-8.24,6.62-.51,1.63c.81.12,1.3-.12,1.96-.51,2.1-1.23,4.75-4.49,6.61-6.28.36-.35.96-.44,1-.48ZM36.99,151.91c-3.92.18-7.77-.6-11.65-.95l-2.54,2.77-3.97,5.77,13.98-.05c1.45-2.38,2.63-5.12,4.18-7.54ZM157.19,151.58c-7.21,1.22-14.66,1.62-21.79-.33l-.33,2.97,22.13-.66v-1.98ZM276.41,154.22c.34-.46-2.51-2.49-2.97-2.97l1.31,3.48c.1.07,1.61-.44,1.66-.51ZM58.45,152.91l-19.92-.93c-.9.27-3.83,6.34-4.52,7.53,6.96.64,13.9,1.61,20.91,1.34l3.52-7.93ZM314.39,153.57c-2.93-1.39-1.46-.08-2.79,1-1.11.9-14.1,2.87-16.58,3.23-3.16.47-8.17,1.45-11.18,1.41-2.04-.03-4.76-3.89-6.07-4.18-.69-.15-2,1.03-2.67,1.34l20.31,8.07,18.56-10.13.42-.73ZM232.32,161.82h20.64c-.65-2.17-1.65-4.21-2.41-6.35-.15-.43-.16-1.37-.29-1.52-.11-.13-2.65-.74-3.08-.75-.94-.02-1.75.37-2.63.37-6.77.05-13.55-.07-20.32-.01-.07.46.06.82.25,1.23.24.52,7.33,6.88,7.84,7.02ZM112.28,154.56l-15.64-.64c-.69.22-2.4,6.74-2.85,7.9l16.15,1.29,2.34-8.56ZM176.02,154.22c-1.79.63-3.88.27-5.79.32-.8.02-1.56.39-2.31.38-.78-.01-1.61-.64-1.81-.55-2.15.98-4.97,7.47-8.58,4.81v3.96s19.15-.99,19.15-.99c.06-2.65-.3-5.31-.67-7.93ZM177.67,162.15h13.21l-4.37-1.41c-2.49-1.35-4.29-3.52-3.89-6.52-1.97.05-3.63.64-5.61,0l.66,7.92ZM156.87,154.55c-7.32.94-14.71.59-22.08.71l-1.37,7.22,22.75.63c.44-.38.55-7.33.7-8.55ZM133.75,154.88l-20.43.04-2.03,8.21,21.13-.33,1.32-7.92ZM323.31,167.43c.43-.41-1.98-4.36-2.25-5.17l-4.68-7.37c0,.83-.67,1.87-.17,2.64.34.53,1.98.65.85,2.17l-14.55,8.72c6.88-1.13,13.83-1.79,20.8-.99ZM194.84,161.82c.12-.86-.08-1-.75-1.39-2.6-1.53-5.95-.62-8.51-3.38-.6-.65-.71-1.41-1.3-1.83.23,5.41,7.02,4.59,10.56,6.6ZM314.72,155.55l-18.02,9.9c-.88.82.49,3.03-.48,4.3l19.15-10.57c-.6-1.25-.84-2.2-.66-3.63ZM273.77,162.14l20.37,8.22c1.23.11,1.63-4.41-.11-4.86l-19.17-7.58-.76-.06c0,1.45.13,2.89-.33,4.29ZM32.36,160.5c-.5-.7-12.2-.2-13.98-.28-.6.9-4.68,6.71-4.18,7.21,4.62-.5,9.41.44,13.97,1.27l.53-.47,3.66-7.73ZM54.49,161.82l-20.58-1.28c-.5.76-4.88,8.22-4.51,8.55l21.92.02,3.17-7.28ZM74.3,163.14l-18.27-1.28c-1.08,1.72-2.58,4.34-3.34,6.24-.14.34-.26.58-.18.97,3.12-.48,6.27-.3,9.42-.34l10.38.66,1.99-6.26ZM92.14,162.81l-16.29.38c-.91.31-2.23,5.09-2.53,6.22l16.29.28c.97-.33,1.97-5.69,2.53-6.88ZM109.64,163.8l-15.96-.95c-1.03.34-1.96,5.66-2.86,6.72l.82.49,16.13.34,1.87-6.62ZM253.63,162.81h-19.81c.26,1.31,1.6,1.7,2.15,2.97.46,1.08.74,2.55.17,3.63,6.74.2,13.4-.56,20.14-.33l-2.64-6.27ZM277.64,165.21c-.35-.35-5.69-2.36-6.35-2.42-1.13-.1-2.15.35-3.29.36-4.29.05-8.87.2-13.06-.35-.24.33,1.54,4.92,1.9,5.52.24.4.33.73.9.75l21.96.33-2.07-4.2ZM177.67,169.41c-.64-1.06-.25-5.98-1.2-6.25l-19.28.96-.33,5.95,20.81-.67ZM194.02,163.14h-16.02l.33,6.28c7.07-.24,14.08.37,21.14.33-1.23-1.58-2.93-3.03-4.12-4.63-.55-.73-.24-1.7-1.33-1.97ZM156.21,164.13l-22.58-.62c-.81.27-1.26,5.45-1.2,6.56h23.45s.33-5.94.33-5.94ZM132.1,163.8l-21.26.31-1.85,6.29,21.92-.37c.87-.29.89-5.11,1.2-6.23ZM287.31,168.76l-8.25-2.97,1.89,3.64,6.37-.67Z"/>
  <path class="cls-1" d="M16.85,136.39l.47-2.99c-.18-.82,2.58-7.28,3.48-6.26.13,2.97-1.21,6-.32,8.91l2.81-3.63c.27-.12.8.35.81.49.02.27-1.34,4.89-1.47,5.13-.09.16-.42.42-.5.33l.32-3.63c-.7-.06-1.91,4.16-2.64,3.3-.57-3.03-.25-5.88,0-8.91l-1.83,4.6c-.16.82-.29,4.72-.48,4.97-.49.64-.57-.2-.69-.47-1.18-2.62-1.61-6.06-3.93-8.12.68,2.52,2.17,5.47,2.31,8.09.03.52.06.56-.5.49l-3.47-3.96c.36,1.92,2.3,3.54,1.81,5.61-.75-1.22-1.09-2.58-1.76-3.85-.47-.89-1.89-2.45-2.04-3.24-.27-1.44,2.69,1.06,2.98,1.31.68.6,1.02,1.3,1.65,1.82.75-1.65-3.67-9.22-3.3-9.57.43-.4.98.25,1.27.55,2.39,2.37,4.16,5.78,5.01,9.03Z"/>
  <path class="cls-1" d="M325.29,128.14l-1.98,9.9,3.46-3.96c.36-.25,1.95-1.44,2.15-.49.14.68-1.54,2.86-1.94,3.67-.57,1.13-.59,2.76-1.69,3.43-.05-.57.01-1.11.14-1.67.36-1.52,1.47-2.84,2-4.28-2.12.89-2.78,3.25-4.03,4.87-.21.28,0,.6-.76.41-.49-3.21.61-5.9,1.17-8.9.06-.34.44-1.08-.18-1-1.38,3.36-3.32,6.5-3.64,10.23-1.02.92-2.01-4.59-2.97-4.62.25,1.69.96,3.38,1,5.11.02.7.27,1.37-.67,1.16-.19-3.06-.92-6.35-2.31-9.08.02-1.21,1.78.75,1.97.99,1.16,1.5,1.44,3.41,2.64,4.79.09-2.17,1.12-4.69,2.14-6.61.22-.42,2.84-4.68,3.47-3.96Z"/>
  <path class="cls-1" d="M74.64,182.62l.99-6.27c.75-.14.52.05.73.42.72,1.29.8,3.69.92,5.19,1.18-.76,2.05-2.33,3.63-2.31-.63,1.84-1.25,3.71-1.89,5.55-.19.53.17.88-.74.72-.34-1.7.82-3.01.99-4.62-1.03.61-2.26,4.23-2.64,1.49l-.65-4.13c-.14.89-.18,6.27-.83,6.27-.39,0-2.65-6.22-4.12-6.6.65,2.03,1.66,4,1.94,6.15.09.66.37,1.7-.62,1.45-.13-3.56-2.24-6.55-2.97-9.91.78-.86,5.53,5.42,5.29,6.6Z"/>
  <path class="cls-1" d="M316.7,79.26c.81-.63,1.18-1.74,2-2.46.32-.29,2.48-1.89,2.3-.68-.04.27-1.99,4.89-2.15,5.12-.36.52-.81.02-.82-.16-.05-.77,1.27-2.57,1.31-3.47-1.52.8-2.01,2.46-3.13,3.63-.47-.33-.51-.58-.51-1.14.02-2.07.83-4.75,1.33-6.78-2.23,2.36-2.61,5.72-3.79,8.58l-1.42-2.86-1.71-2.41c.06,1.62.99,3.36,1.15,4.91.03.3.02,1.11-.49,1.03l-1.98-7.92c2.02.69,3.02,3.08,3.93,4.81.12.22.15,1.11.69.47.21-.25,1.09-5.37,2.25-6.18.41-.39,1.78-2.55,2.21-2.41.74.25.24.75.16,1.13-.46,2.24-1.42,4.45-1.31,6.79Z"/>
  <path class="cls-1" d="M268.49,184.27c1.28-1.19,2.27-3.17,4.29-3.3l-1.32,4.95c-1.69.02.21-2.75,0-3.63-1.08.56-1.95,2.8-2.62,3.42-.36.33-.56.23-1.01.22l.33-7.26c-.39,1.22-1.16,2.33-1.58,3.54-.23.65-.85,4.06-1.23,4.05l-2.8-4.29c.32,1.2.86,2.18.98,3.47.06.66.32,1.74-.65,1.48.66-1.26-2.24-6.68-1.98-6.93.19-.18,1.13.11,1.33.48l2.95,3.81c.25-1.72.96-3.45,1.81-4.96.46-.81,2.91-4.49,2.67-1.96-.2,2.11-1.32,4.65-1.17,6.92Z"/>
  <path class="cls-1" d="M30.71,175.69v6.44c0,.05.32.97.66.82.03-.49.25-.9.52-1.3.32-.47.79-1.5,1.46-1.34-.05.45-.44,5.37-.99,4.62v-2.64s-1.49,2.3-1.49,2.3c-.21,0-.83-1.6-.83-1.81v-5.45c-.47-.07-.45.55-.58.9-.25.67-.56,1.63-.66,2.32-.14,1.05.22,4.35-.58,4.7-1.14-1.46-2.36-3.31-3.63-4.63-.22-.23-.86-.96-1.16-.65-.21.22,2.69,4.59,2.31,5.61-.94.18-.53-.25-.75-.72-.46-1-.75-2.04-1.3-3.01-.45-.82-2.89-3.78-2.9-4.03-.05-1.31,2.83.92,3.12,1.16.66.54,1.21,1.23,1.81,1.82l2.32,3.13c-.33-2.23.05-5.76,1.51-7.57.31-.39.54-.79,1.14-.68Z"/>
  <path class="cls-1" d="M223.58,70.67c.51-.61,3.6-3.98,4.29-3.3l-1.65,5.28c-1.32-.41.47-3.49.33-3.63-1.22-.2-2.27,3.15-3.13,2.97-.77-.17-.47-2.75-.5-3.47-.01-.4.25-1.23-.33-1.15-.56,1.59-.61,3.55-1.03,5.09-.1.38-.12.79-.63.86l-2.15-4.29c-.58.91,1.6,3.95-.16,3.96l-1.32-6.28,1.32.83,2.31,3.47c1.26-4.74,3.02-8.41,2.65-.33Z"/>
  <path class="cls-1" d="M116.9,64.07c.31.3.68,3.88.67,4.62l1.48-2.32,1.82-1.31c.18.2-.99,4.96-1.15,5.29-.07.15-.43.42-.5.33-.25-1.44.32-2.63.65-3.96l-2.64,3.3c-.36-1.05-.04-2.96-.99-3.63l-.5,4.95c-1.19-1.62-1.75-3.73-3.47-4.95.21,1.15.98,2.03,1.24,3.22.07.33.37,1.47-.25,1.4l-2.64-6.6c2.18.4,3.13,2.6,4.21,4.19.2.3-.05.61.74.43-.05-1.4.07-2.96.51-4.29.1-.31.28-1.16.81-.66Z"/>
  <path class="cls-1" d="M314.06,176.35l-3.14,7.26-2-3.61-1.13-1.01c.22,1.23.89,2.58.95,3.83.02.34-.09,1.76-.62,1.78l-1.32-6.93c1.8.07,2.79,2.14,3.6,3.49.12.2.12,1.07.69.47.22-.23,1.82-6.49,2.97-5.28Z"/>
  <path class="cls-1" d="M19.81,91.48l-.91,2.56-.42,3.38c-.58-.21-.38-1.98-.34-2.49.13-1.79.69-5.25,2.65-5.76l-.33,8.58c-.21.02-.66-.44-.66-.5v-5.78Z"/>
  <path class="cls-1" d="M187.91,63.74c.91.17.54-4.36,1.64-3.3.17.17,1.48,4.43,1.32,4.62-.87,1.07-1.2-3.66-1.98-2.64-.52.68,1.1,5.19-2.31.33l.32,2.64c-1.02-1.15-1.34-3.44-1.64-4.95,1.08.86,2.42,1.84,2.64,3.3Z"/>
  <path class="cls-1" d="M17.17,97.42l-2.64-2.64c.31,1.32,1.8,2.83,1.98,4.14.09.63-.43.71-.65.49-.14-.14-1.26-2.92-1.59-3.53-.21-.39-2.88-3.7-.83-2.8,1.32.58,3.72,2.76,3.74,4.35Z"/>
  <path class="cls-1" d="M315.38,177.34l-.66,4.62c.88-.47,1.93-1.97,2.81-2.31.42-.16.61.06.49.49-.65.24-3.52,3.97-3.96,3.47-.11-1.85.11-3.72.61-5.51.16-.56-.25-.92.7-.76Z"/>
  <path class="cls-1" d="M158.51,70.01c.16.16-.07,4.07-.99,4.29v-2.64c-.56-.04-.35.79-.59,1.23-1.1,2.06-1.73-.83-2.06-1.89,1.1-.56.76,2.53,1.65,1.65.18-.18.96-3.64,1.98-2.64Z"/>
  <path class="cls-1" d="M192.2,65.06c-1.02-.32-.31-2.16-.1-2.91.39-1.36,1.12-3.33,2.41-4.03-.52,2.41-2.11,4.42-2.31,6.93Z"/>
  <path class="cls-1" d="M154.88,74.96c-.63-.1-.54-.7-.7-1.12-.51-1.33-1.05-2.75-1.28-4.17,1.76.97,1.94,3.47,1.97,5.28Z"/>
  <path class="cls-1" d="M326.94,142.66c.26-1.94,1.98-3.99,3.63-4.95.33.37-3.09,4.44-3.63,4.95Z"/>
  <path class="cls-1" d="M196.82,61.43c.23.23-1.62,2.56-1.91,2.88-2.35,2.56.15-2.96,1.91-2.88Z"/>
  <path class="cls-1" d="M322.97,78.93c.34.35-2.04,3.87-2.64,3.3.12-.46,2.02-3.93,2.64-3.3Z"/>
  <path class="cls-1" d="M316.37,184.6c-.17-.64,1.5-3.92,1.81-3.96.72-.07.25.79.11,1.09-.39.89-1.19,2.22-1.93,2.86Z"/>
  <path class="cls-1" d="M157.53,54.82c-.06-1.31.1-3.15,1.31-3.96-.29,1.2-.3,3.17-1.31,3.96Z"/>
  <path class="cls-1" d="M154.22,55.81c-.79-.37-1.14-1.7-1.32-2.49-.09-.41-.56-.86.17-1.14.18-.07,1.35,3.17,1.15,3.63Z"/>
  <path class="cls-1" d="M320.99,107.66c-.93,2.55-4.69,2.83-6.93,3.8-2.89,1.26-6.25,3.5-8.75,5.45-1.02.79-8.07,7.68-9.09,6.6-.85-.91,1.88-1.86,2.29-2.17,2.05-1.54,3.8-3.5,5.81-5.09,5.11-4.03,10.52-6.49,16.67-8.59Z"/>
  <path class="cls-1" d="M298.54,102.05c.48.46-.03.6-.49.66-2.05.25-3.03.04-5.22.73-1.27.4-2.12,1.59-3.54.91,1.6-1.29,5.02-2.68,7.1-2.67.31,0,2.07.29,2.15.36Z"/>
  <path class="cls-1" d="M165.16,132.38c8.72,2.09,3.19,5.08-2.53,4.68-6.03-.42-5.97-3.97-.15-4.31-.4-1.03.43-4.19.29-4.76-.35-1.46-5.6.59-6.56-1.02,2.11-.16,4.2-.58,6.27-.16.62-2.9-1.27-2.81-2.82-4.28-2.93-2.78-3.08-5.88-2.38-9.67.61-3.28,1.18-4.76,4.74-5.17,2.74-.31,6.44-.21,7.49,2.68,1.32,3.66,1.46,9-1.41,11.98-.72.74-2.62,1.44-2.9,2.38-.17.59-.23,7.33-.03,7.65ZM167.76,109.97c-1.08-1.43-3.76-1.45-5.41-1.28-.7.07-3.82.84-2.02,1.28,2.43.58,4.99.39,7.43,0ZM168.42,110.63c-1.33.47-3.41.94-4.78.92-.91-.01-4.01-.96-4.27-.89-.68.18-.99,3.44-1.18,4.26,3.44-.94,7.49-1.06,10.89,0l-.66-4.29ZM168.75,115.59c-3.34-.77-6.96-1.14-10.24.16,3.1.83,6.17,1.01,9.33.41.31-.06.99-.14.9-.57ZM165.43,134.05c-.6.44-1.19-.93-1.28-1.48-.23-1.46-.2-6.38.06-7.83.37-2.03,1.83-2.21,2.89-3.38s1.99-3.2,1.98-4.79c-3.27,1.74-7.35.9-10.89.33.38,1.1.4,2.03,1.05,3.08,1.11,1.81,4.01,3.01,4.24,5,.14,1.21.2,7.62-.07,8.52-.54,1.82-1.45.21-1.7.23-.34.02-2.84.55-2.52,1.16.62,1.16,7.58,1.06,8.68.43.31-.18.86-.53.56-.92-.09-.12-2.62-.96-2.82-.99-.18-.03-.12.59-.17.63Z"/>
  <path class="cls-1" d="M66.5,73.76c-2.32,2.05-3.84,3.51-7.22,3.84-2.41.24-8.26-.42-9.92-2.29-.53-.6-.39-1.19-.68-1.63-2.53-3.8-4.1-6.19-3.76-11.09.06-.82.59-1.81.58-2.38,0-.53-.64-.8-.54-1.51.02-.19.89-1.96,1.05-2.13.59-.63,1.7-.65,2.38-1.08,2.21-1.41,2.86-3.16,6.29-3.61,3.01-.39,4.18.27,6.72.82,1.03.22,1.7-.52,3.01.62,1.93,3.35,4.52,6.58,4.93,10.59.21,2.05-.22,5.85-.74,7.84-.38,1.45-1.5,1.47-2.12,2.01ZM48.88,56.8l8.75,5.94c.49-.01,3.96-7.68,3.76-8.36-.73-2.57-11.58-1.02-12.52,2.42ZM59.77,61.75c.53.02,1.15.56,1.66.2.29-.21,2.73-5.96,2.64-6.61-.06-.41-.49-1.04-.84-1.17-.6-.23-.52.37-.64.66-.99,2.27-1.57,4.76-2.82,6.93ZM47.38,57.17c-.53.46-1.11,1.21-.49,1.77.81.72,4.18,2.3,5.46,3.13.65.42,3.71,2.93,3.96,2.92.12,0,.78-.65.81-.78.14-.58-8.58-6.38-9.74-7.04ZM65.38,57.13c-.54-.46-.57.18-.73.42-.5.77-3.3,7.05-3.17,7.6.26,1.11,4.78,3.21,5.73,4.19,1.32-2.43.96-5.82.09-8.34-.16-.47-1.75-3.73-1.91-3.87ZM46.57,60.43c-.43,2.31-.5,4.38.09,6.67.26,1,2.39,6.04,3.55,5.75,1.6-.4,4.58-5.13,5.57-6.59-.77-1-8.62-6.43-9.22-5.83ZM50.53,74.63c1.04.32,1.71,1.18,2.83.36l4.93-6.97c.6-.65-.46-1.62-1-1.57-.36.03-2.88,4-3.47,4.71-.38.46-3.43,3.27-3.29,3.47ZM60.6,66.46c-.27.03-.57.55-.82.74,1.73.89,5.07,4.44,6.6,4.97.81.28,1.28-.8.15-1.82-.52-.47-5.59-3.92-5.94-3.88ZM54.16,75.95c4.08.82,8.17.16,11.22-2.8l-6.26-4.79c-1.02,2.86-3.42,5.02-4.96,7.59Z"/>
  <path class="cls-1" d="M73.71,71.92c-1.5-.87-2.44-10.09-3.2-12.15-1.07-2.9-3.81-2.81-3.06-7.35s4.88-1.55,5.46,1.65c.31,1.71-.44,3.03-.17,4.8.51,3.3,3.52,8.08,3.39,11.64-.05,1.36-1.31,2.05-2.41,1.41ZM71.66,59.44c-.66-2.97,1.35-6.41-2.15-8.21-1.3.83-.81,2.67-.74,4l2.89,4.21ZM74.96,71c-.33-2.24-.93-5.52-1.82-7.59-.17-.4-.33-.91-.82-.99.57,2.6.91,5.38,1.89,7.86.2.5-.19.89.74.72Z"/>
  <path class="cls-1" d="M61.84,151c.98-1,8.85-3.35,10.74-3.95,1.33-.42,3.11-.52,4.37-.92,3.77-1.19,8.47-3.62,12.2-4.31,3.36-.62,2.05,1.86.32,3.29-1.99,1.64-6.17,3.56-8.73,3.82-1.27.13-2.63-.18-3.89.08-2.29.47-6.74,2.94-9.4,3.81-1.31.43-3.43,1.35-4.72.94-1.1-.36-1.72-1.9-.89-2.75ZM90.16,142.67c-4.05,1.4-8.18,2.65-12.2,4.14-.56.21-1.89.31-1.67,1.13,1.41-.62,2.56.04,3.78.02,2.71-.05,8.54-2.89,10.09-5.29ZM75.29,148.6c-.22-.73-.78-.68-1.4-.6-1.77.23-7.41,2.22-9.25,2.99-1.7.72-2.97,1.92-.16,1.5,3.36-.5,7.38-3.2,10.81-3.89Z"/>
  <path class="cls-1" d="M98.65,98.32c-.34.3-1,.27-1.16.49-.68.92.02,2.92-2.08,4.7-1.76,1.49-10.05,4.04-12.32,3.81-1.82-.19-2.9-1.82-3.39-1.91s-1.9,1.05-3.52.55c-1.31-.4-1.69-3.98-.74-4.91.57-.56,3.71-1.33,4.56-1.24,2.27.25,2.18,2.34,4.04,2.27,1.15-.04,9.22-2.76,9.33-3.47.06-.39-.54-1.38-.52-2.01.06-2.5,5.27-4.6,6.39-2.13.45,1,.25,3.12-.58,3.86ZM96.99,94.5c-2.28.19-.51,3.08.26,2.92,1.16-.25,1.14-3.04-.26-2.92ZM80.58,101.72c-.46,6.19,6.22,3.65,9.83,2.4,3.88-1.35,7.48-3.27,4.04-7.68-.11.97.57,2.13.34,3.07-.18.73-7.49,3.35-8.66,3.64-1.11.28-2.7.73-3.68.19s-.87-1.63-1.87-1.61ZM79.26,101.38c-2.29.3-3.89.41-2.66,3.16.35.31,2.89-.41,3-.52.09-.09-.61-2.08-.33-2.64Z"/>
  <path class="cls-1" d="M73.97,101.72c-.55,1.8-2.7,1.04-1.98,3.63l1.97-.16c-1.21,1.32-2.63,1.32-1.64,3.47.76-.37,6.58-1.8,6.89-1.61.36.22.62,2.19.71,2.27.19.18,2.69-1.24,2.63-.17-.03.48-2.4.91-2.58,1.21-.39.63.28,2.16.28,2.92l1.98-.5c-1.14.98-5.37,3.08-6.7,2.76-.26-.06-.68-.49-.56-.61,2.8-.91,4.83-.27,4.29-3.96-1.01-.04-1.83.61-2.82.68-.54.04-1.38-.37-1.44-.33-.08.06-.14.7-.51.98-1.24.94-2.55.76-1.84,3.4.07.27.69.19.66.37-.26,1.53-4.11,2.46-5.41,2.11-2.17-.58,1.89-1.03,2.12-1.09,2.32-.61,1.99-1.01,1.63-3.16-.16-.16-4.26,1.55-4.28.17-.01-.8,4.31-.03,4.31-2.29,0-.59-.39-1.21-.35-1.83-.57.66-3.78,1.55-4.29.99-.57-.63.48-.65.72-.74,2.28-.81,4.2.02,3.57-3.22-.3-.31-4.14,1.72-4.62,0,.6-.1,4.12-.86,4.26-1.03.2-.23-.05-1.49.03-1.95-.16-.18-3.73,1.67-4.29,0,2.8.18,4.76-2.04,7.26-2.31ZM79.26,107.99c-1.02-.14-1.88.45-2.83.63-1.84.35-5-.02-3.95,3.01.51.84,1.48-.4,2.08-.58,2.02-.6,4.36-.15,4.7-3.06Z"/>
  <path class="cls-1" d="M87.51,108.32c-.53,1.41,1.77.7.97,1.95-.16.25-4.86,2.42-5.59,1.35.77-1.05,2.54-.6,3.49-1.63.75-.81.05-1.87,1.14-1.67Z"/>
  <path class="cls-1" d="M93.79,91.48c-.86,2.28-3.86,2.36-5.94,2.31-.17-1.02.28-.52.81-.66,1.77-.48,3.38-1.16,5.13-1.65Z"/>
  <path class="cls-1" d="M81.9,99.07c-.16-.91.19-.56.72-.74,1.17-.41,2.29-.95,3.33-1.31,2.41-.83.31,1.46-1.41,1.9-.89.23-1.75.18-2.65.15Z"/>
  <path class="cls-1" d="M103.36,98.74c.79.7-3.65,2.96-4.29,2.31-.08-.08.05-1,0-1.32,1.71.4,2.72-.89,4.29-.99Z"/>
  <path class="cls-1" d="M94.45,91.14c-.16-1,.26-.53.8-.67.81-.21,2.28-.33,2.95-.71.23-.13,1.2-1.93,1.53-.43s-4.28,2.17-5.28,1.81Z"/>
  <path class="cls-1" d="M92.14,98.08c.69.59-2.39,1.68-2.7,1.75-1,.24-1.89.3-2.91.22.1-.6.68-.56,1.11-.7.62-.21,4.29-1.46,4.5-1.27Z"/>
  <path class="cls-1" d="M99.73,92.47c.56.02,1.12.04,1.66-.15.99-.35,2.11-2.16,2.95-1.01-.02.57-4.65,3.62-4.62,1.16Z"/>
  <path class="cls-1" d="M87.19,96.76c-.17-.98.26-.52.77-.69.97-.33,2.01-.74,2.96-1.02.37-.11,1.24-.41,1.21.23-.04.84-4.08,1.82-4.95,1.48Z"/>
  <path class="cls-1" d="M93.46,105.68c.16.85-.15.58-.66.81-.94.43-3.17,1.28-3.97.34,1.46-.57,3.03-1.19,4.62-1.15Z"/>
  <path class="cls-1" d="M103.69,94.78c-.29,1.81-1.63,2.17-3.3,1.98-.69-.57,2.88-1.96,3.3-1.98Z"/>
  <path class="cls-1" d="M214.21,151c1.13-.1,3.67,2.49,4.41,3.38.53.63,1.61,1.67,1.17,2.49l-12.27,7.93c-1.01.05-5.68-4.28-5.77-5.14-.03-.32.05-.53.18-.8.34-.73,11.37-7.78,12.28-7.86ZM202.77,159.18l4.79,4.61c.9-1.6,11.24-6.91,11.05-7.73-.07-.29-3.61-3.92-4.37-3.78l-11.47,6.9Z"/>
  <path class="cls-1" d="M220.93,166.44c.5.4,4.42-3.38,5.61-2.97.15.8-.08.83-.54,1.27-.69.67-4.59,2.7-4.71,3.22.49,1.72,3.43,6.13-.2,6.04-1.82-.05-2.26-2.53-2.47-3.93-.43-.39-2.66,2.3-2.97.82-.15-.7,2.1-1.49,2.26-2.35.1-.55-4.87-9.58-.57-8.54.14.03,2.52,1.2,2.62,1.3,1.02.96,1.8,3.82.97,5.14ZM217.13,161.16c-.54-.03-.3.66-.27.91.12.89,1.59,5.9,2.57,5.68.78-.82.67-3.3.35-4.31-.18-.57-2.48-2.28-2.66-2.29ZM220.11,168.76c-.89-.04.07,3.05.24,3.39.5.97,1.69.76,1.31-.31-.18-.49-1.26-3.07-1.55-3.08Z"/>
  <path class="cls-1" d="M134.08,131.11c-.46.4-2.32,2.27-2.48,2.31-.89.19-.42-1.88-1.98-.33-.82.82-.77,1.49-.9,2.57l-10.71,9.09c-.92,1.59-.02,1.89,1.38.89,3.12-2.25,6.12-7.35,9.24-9.25,1.32-.8,2.89-.34,3.99-.96,1.22-.69,3.15-3.9,3.82-5.26.13-.09.91-.08.95-.04.55.49-2.96,5.23-3.62,5.79-1.69,1.44-2.36.82-4.07,1.21-2.04.47-7.59,8.41-10.02,9.8-1.96,1.08-4.04-.27-2.78-2.45.24-.41,1.83-1.83,2.32-2.3,2.16-2.04,6.26-4.5,7.94-6.59,1.54-1.91,1.58-3.24,3.94-5.3.31-.27,2.42-2.05,2.64-1.81-.06,1.75-2.31,2.35-2.64,3.96,1.03-.26,2.66-3.07,3.15-3.29,1.57-.7.11,1.48-.18,1.97.62-.54,1.29-1,1.82-1.65.69,1.02-2.69,4.73-3.3,4.62-1.26-.24,1-1.89,1.17-2.14.22-.34.22-.67.31-.83Z"/>
  <path class="cls-1" d="M157.19,147.62c-.09.56-.64.59-1.06.75-4.85,1.84-14.47,1.59-19.25-.42-1.72-.72-3.29-1.43-3.13-3.64,5.6,6.13,16.01,4.3,23.44,3.31Z"/>
  <path class="cls-1" d="M151.91,139.36c.53.43-.04.6-.49.66-1.94.25-4.41-.19-6.61,0-3.69.32-8.26,1.11-11.06,3.63.29-2.68,4.08-3.32,6.27-3.8,3.91-.87,7.93-1.16,11.89-.49Z"/>
  <path class="cls-1" d="M160.49,142.34c.32.27.18,1.88-.06,2.39s-1.67,1.9-2.08,1.89-.47-.36-.17-.82c.78-1.17,2.25-1.52,1.32-3.46.27.04.89-.08.98,0Z"/>
  <path class="cls-1" d="M81.57,136.06c-.55-.17-.57-.86-1.15-1.33-4.37-3.53-18.6-2.8-23.61-.48-5.87,2.72.85,5.08,3.89,5.67,4.6.9,8.97.75,13.61.43l-2.56.9c-4.43.79-10.73.25-14.93-1.41-5.11-2.02-3.97-5.29.56-7.02,5.69-2.16,14.9-2.34,20.64-.31,1.49.53,3.82,1.62,3.55,3.54Z"/>
  <path class="cls-1" d="M243.39,81.57c-.12,1.26-1.07,1.97-1.57,3.21-.34.84-.41,1.8-.7,2.6-.51,1.39-.87-.18-.84-.91.09-1.83,1.2-4.35,3.11-4.91Z"/>
</svg>