<?xml version="1.0" encoding="UTF-8"?>
<svg id="Capa_1" data-name="Capa 1" xmlns="http://www.w3.org/2000/svg" viewBox="0 0 1024 1024">
  <defs>
    <style>
      .cls-1 {
        opacity: .76;
      }
    </style>
  </defs>
  <g class="cls-1">
    <g>
      <path d="M511,556c.65.31.9,2.69,2.49,1.99,2.16-1.16,2.15-5.63,3.47-6.59.73-.53,5.31,1.11,6-2.14.89-4.17-1.11-5.87-1.49-8.72-.17-1.3.89-3.23.59-5.01-.34-2.02-8.11-8.22-11.05-7.52,1.43,4.15,9.08,5.44,8.5,9.99l-12.5-11.51c-.48-2.38,1.95-1.62,3.26-1.26,3.71,1,7.72,3.9,10.23,6.77,1.18-2.95-.64-6.29-3.5-7.5,5.41-.91-3.05-6.89-5.32-7.76-2.46-.94-4.09.71-5.67-1.25-.48-2.39,1.94-1.61,3.26-1.26,2.92.77,4.95,3.79,7.72,3.28-1.39-1.82-1.53-5.21-3.45-6.63-1.62-1.2-8.39,1.28-10.39-4.54s6.1,1.16,7.36,1.64c1.72.67,2.01-1.39,1.48-1.97-.15-.17-2-.26-3-1.47-2.17-2.66-6.65-10.58-7.27-13.8-.18-.96-1.09-2.37.79-2.75,4.1-.82,11.56,15.02,10.49,18.99l2.52-7.96c6.73-3.18,1.36,10.31,1.44,13.5.06,2.52,1.72,4.11,2.04,6.46,2.97-2.18,4.2-8.75,3.49-11.99-2.71,2.3-2.7,5.67-2.51,8.99-1.64.28-1.13-2.5-1.04-3.54.27-3.28,1.16-6.04,3.55-8.44,5.44,3.93-1.24,12.74-1.44,17.55-.1,2.51,1.65,5.58.94,8.42,2.6.47,1.55-.35,2.09-1.42,1.82-3.63,4.18-9.98,4.41-13.57-2.76,2.32-4.83,5.38-5.52,8.99-2.06.14-.6-2.84-.22-3.72,1.27-2.94,3.56-6.77,7.23-6.26,2.29,2.38-5.58,16.29-6.9,19.43l1.91,15.55c1.4-.18,2.06-5.72,1.98-6.46-.23-2.16-4.38-4.67,0-6.53,2.84,7.14-2.14,14.82,1.52,20.99.58-3.93,2.76-7.85,3.27-11.74.22-1.68-.9-3.26-.75-4.71.26-2.58,3.8-5.13.97-9.54l-3,3.99c-2.6-.71.56-6.44,2.5-5.99,2.22.52,1.56,5.59,3.5,5.99,1.43-3.81.04-5.5-.98-8.99l2.99,2.99c-.38-4.91,1.6-9.21,4.8-12.71.98-1.08,1.05-2.8,3.21-2.28l-5.53,7.96-9.46,39.02,3.97-10.51,2,1.5c-3.08-.13-2.78,4.58-2.97,7.02,10.92-4.29,13.44-19.85,20.96-26.53,5.73-5.09,26.98-13.98,29.46-18.54,20.43-113.57,30.36-260.08,112.06-348.94,13.61-14.81,30.89-29.55,50.51-34.98-4.26,3.88-10.14,6.32-14.91,9.58-29.92,20.48-43.83,44.12-58.26,76.74-42.54,96.11-45.66,203.44-60.97,306.03-4.25,28.51-9.93,56.95-17.87,84.64-1.77.25-.98-2.25-.76-3.26,2.08-9.58,5.3-19.03,7.31-28.7,24.83-120,18.76-248.76,71.6-362.4l19.36-36.64c-49.91,62.93-71.1,146.79-85.22,224.78-10.78,59.57-14.42,126.21-31.27,183.73-24.99,85.28-70.6,71.58-145.53,74.47-30.48,1.18-69.07,1.85-98.27,9.73-14.67,3.96-12.29,4.9-21.2,14.8-6.04,6.71-10.17,7.48-18.82,9.18-34.22,6.76-71.68,5.74-101.2,27.8,11.03,4.5-4.91,5.72-8.57,7.43s-4.73,5.14-7.43,7.57c6.01.97,13.03,3.13,17.49,7.5,2.86,2.8,8.09,10.35,3,12.98-4-4.18-8.64-6.54-14.28-7.71-2.31-.48-11.01-2.42-10.22,1.21,3.39,3.28,7.07,7.59,9.18,11.83,1.42,2.85,2.39,8.23,3.35,9.65,1.16,1.73,7.68,2.9,10.52,5.48,3.36,3.07,5.64,10.32,9.58,12.42,2.71,1.45,6.24,1.32,9.38,2.62,2.83,1.18,4.88,3.8,7.11,4.89,5.36,2.6,35.92,12.44,40.13,11.43,2.43-.58,6.2-5.66,9.14-4.76,2.65.81,1.89,7.11,3.23,8.05,3.84,2.68,23.66,6.24,24.3,8.53.31,1.13-.97,2.64-.42,4.32.42,1.29,2.59,2.98,3.25,4.8,1.59,4.31,2.73,12.22,5.39,15.61,1.83,2.34,6.95,4.03,9.78,6.22,3.38,2.62,6.3,7.34,10.4,8.68,3.23,1.06,9.45-2.35,14.19-2.36,6.26-.01,21.13,4.33,26.73,7.35,7.07,3.8,8.48,9.41,17.54,11.46,43.69,9.92,95.13,11.92,139.68,11.23,22.51-.35,53.36-.33,74.76-7.24,5.76-1.86,11.58-8.4,17.8-11.2,4.99-2.24,18.91-4.01,20.57-5.43,1.85-1.58,1.22-4.63,2.2-6.8,2.91-6.48,3.48-7.76,5.45-14.55,3.07-10.58,12.41-11.18,18.73-16.27,2.16-1.74,3.41-4.65,6.12-6.88,11.89-9.74,26.28-8.21,39.37-2.07l52.53-8.53-14.5-8.98c-1.66-1.42-2.91-2.54-2.5-4.99,9.17-2.3,18.93-.7,26.99,3.99,1.04-1.13-6.77-11.75-7.99-13.56-.38-.46-.81-.39-1.34-.34-.8.07-11.54,5.4-14.67,6.4-20.22,6.47-47.26,10.58-68.5,12.5-18.22,1.65-71.25.61-84,12-3.55,3.17-5.1,9.98-8.49,13.51-6.26,6.51-25.56,10.08-34.61,11.39-32.25,4.65-66.99,1.94-98.39-6.38,12.89.23,25.69,3.48,38.52,4.49,20.7,1.63,73.06,1.55,89.82-10.16,10.91-7.62,4.63-15.42,24.24-20.76,23.99-6.53,53.02-5.5,77.92-8.08,26.3-2.72,52.55-7.37,77.5-16,1.27-1.35-10.74-11.67-2.74-10.79,3.92.43,11.01,6.26,13.68,5.32,5.01-1.76,15.81-12.79,16.82-18.26,3.7-19.93-17.93-26.95-30.77-36.26,21.31,6.26,47.91,25.97,26.02,48.49,4.04,4.01,9.2,6.82,11.98,12.02,1.68,1.25,4.4-9.24,5.15-10.87.92-1.99,7.12-16.13,9.93-12.05,1.95,2.83,2.33,12.62,2.94,16.41,19.73-24.74-5.96-46.86-27.13-58.38-21.18-11.52-49.41-16.52-61.05-39.95-11.48-23.1-10.84-61.52-9.81-87.17,1.83-45.85,8.1-96.09,13-142,8.27-77.61,17.09-210.58,58.58-275.42,12.97-20.27,40.63-47.45,65.61-50.43,3.96-.47,5.8,1.17,1.36,3.4-11.24,5.65-20.99,7.62-32.29,15.71-55.68,39.86-69.75,146.17-77.13,209.87-3.95,34.13-10.12,104.39,3.67,135.05,3.51,7.8,11.48,11.27,13.2,19.31,5.24-6.51,15.39-13.41,24.05-11.55,3.1.66,6.02,2.92,9.12,3.87,4.04,1.24,8.78.9,12.74,3.26,6.01,3.58,12.12,19.32,14.84,26.16,1.42,3.58,4.94,18.32,7.2,19.73.51.32,2.31-.27,3.72.26s3.1,3.5,4.32,1.78c-1.58-1.35-7.36-10.11-5.99-11.5l7.99,2.98c-.47-2.47-5.35-6.22-5-8.47.53-3.46,6.45,1.82,8,1.47.51-.44-9.18-11.69,0-8.99.2-1.57-1.12-3.01-1.04-4.5.29-5.48,5.81,1.64,7.04.49-1.76-2.55-3.53-4.61-2.99-8l1.98,1.02c.43-.6-2.47-6.79,1.49-6,1.03.2,3.72,5.6,4.9,7.13.41.52,1.14,3.57,2.61,1.86,1.03-1.2-7.23-10.61-4.99-14,7.09,3.24,2.34-12.02,8.98-3l1.02-8.01,1.97,1.02c.17-2.59,1.95-7.02,5.01-7.01.91,1.05-1.4,14.83-.82,17.52.14.68,4.4,1.53-1.18,6.47,7.87-.3-2.29,7.09-3.99,9,17.97-5.13,1.73,4.4-4.05,7.5-.72.39-3.6.88-1.94,2.51.42.41,8.6-4.25,10.73-4.76,10.24-2.46-1.34,6.12-4.21,7.79-6.54,3.81-9.5.95-10.53,10.96,2.62.82,1.6-1.38,2.74-1.94,4.92-2.41,11.69-2.8,15.25-7.55-4.86-.39-10.31,3.21-14.5,5.5-1.59-1.04.16-2.23,1.15-2.85,1.61-1.03,11.66-5.34,13.35-5.71,8.92-1.98-.46,7.56-3.98,9.08-.14,3.21,6.15-.84,8,.49,1.58,8.29-10.01,9.35-16,11.01-.23,1.79,2.25.97,3.37.87,3.57-.33,7.19-1.54,11.05-.9,2.52,2.51-2.94,5.01-5.13,5.81-4.91,1.79-11.73,1.24-15.29,5.19l19.42-2c5.63.77-7.16,6.39-8.16,6.77-4.83,1.85-9.89,2.61-14.78,4.22-1.01-.4-1.06-1.47.16-1.97,5.65-2.29,13.97-2.21,19.37-6.51-.03-.98-18.04,1.59-19.35,2.41-2.17,1.34-2.81,10.48-1.61,13.05l7.95-.97-4.99-1.98c6.02.17,13.41-.29,17.99-4.51-6.25.67-12.51,2.24-18.74,3.28-2.03.34-1.76-1.29-1.26-1.77.73-.7,12.76-1.97,15.05-2.46,3.19-.67,5.76-2.41,8.94-2.56.46,6.17,4.6,9.72,5.04,16.49.16,2.48-.28,2.8-1.15.15s-1.08-6.43-3.87-7.63c-.34.45,2.19,9.48,2.75,10.74,1.56,3.51,3.95-1.34,3.99-3.04.11-5.22-5.94-15.08-3.75-21.69,2.37-.61,2.47,1.54,3.32,3.13,1.43,2.69,2.59,5.83,3.23,8.81.23,1.09,1.49,5.06-.54,5.05-1.17-3.4-.82-8.68-4-10.99l3,13.99c7.48-3.91,2.2-7.84,1.23-12.74-.89-4.52-1.75-9.93-.23-14.25,5.37,3.41,5.06,11.42,6.98,16.99-2.99.52-1.58-.79-2.1-2.34-1.17-3.46-1.99-7.11-2.91-10.64-1.69-.26-1.08,2.4-.98,3.48.26,2.79,1.54,7.87,2.54,10.5.31.83.31,2.85,1.94,2.01.53-.27,3.16-4.01,3.16-4.48,0-.78-3.23-8.27-3.43-11.32-.16-2.34.57-3.98.79-6.19,3.48-.73,1.89,3.63,3.98,3.99-.5-2.02.02-8.87,3.07-6.52,1,.77.18,3.38,2.94,2.53-.89-3.39,1.71-9.11,3.5-4,2.06-2.08,1.2-5.35,4.01-6.98l2.49,2.97c.19-6.34,3-3.51,5.28-4.19,1.49-.44,2.43-2.58,3.23-2.55.67.03,1.4,1.77,2.5,1.31.9-.37,4.72-6.01,5.99-4.57.27,3.38-2.76,5.55-4.22,8.29-.71,1.34-.39,3.01-.82,3.97s-5.01,1.38.04,3.23c-2.46,2.68-6.69,1.16-9.99,1.52.54,2.19,7.8-.38,6.99,3.47-.5,2.39-8.96,1.86-10.99.52-.73,4.37,8.22.06,8.99,3.51.65,2.91-5.15,2.09-5.99,3.99,8.47,2.54.33,6.24-5,5.5l7.99,3.48c-3.32,3.65-14.19,3.29-18.26,1.47-1.41-.63-.02-4.6-3.73,1.55,4.11.96,8.13.85,12.33,1.66,1.49.29,6.09.14,5.66,2.32-5.39,4.37-12.77,2.18-18.99,1.5,1.28-3.05,7-.39,10.33-.38.83,0,4.89-.18,4.66-1.6-3.05-.09-13.4-2.32-15.41-1.84-1.34.32-2.86,4.49-4.58,5.34,2.67,2.11,19.2,2.53,19.99,3.51,1.82,2.25-1.46,3.61-3.58,3.88-5.56.7-10.84-1.66-16.42-.88l15.26,4.23c4.43,2.16.24,3.49-2.75,3.77-5.11.47-12.64-1.05-17.76-2.25-1.09-.26-2.29-2.06-2.73-1.75-.33.23-2.62,6.01-4.02,6.99,7.35-1.41,13,3.08,19.99,3l-14.01-4.48c-.42-.42-1.33-1.16-.99-1.5,1.54-1.54,10.19,2.78,12.95,3.54,1.96.54,4.5.09,6.07.93,3.07,1.64-4.59,4.38-6.02,3.53l1.02,1.99h-3.03s1.02,9,1.02,9l5.49-10.98,2.49,5.97c-.25-3.33.92-5.93,3.51-7.97l2.49,5.97c-.07-1.32,2.98-8.53,5-6.99,2.21,5.31-2.52,10.54-2.48,16,3.28-1.11,2.14-5.97,3.59-9.41.55-1.29,4.59-7.56,5.4-7.58l1.51,4.97c1.8-.14,1.98-4.58,4.48-3.99,1.13.27,1.6,2.83,1.53,3.99l3.48-2.99,2.01,3.01,3-4.01.99,2.01c1.83-5.21,2.74.07,2.98,0,.77-.23,2.34-1.85,3.04-2.02.59-.14.38,1.65.61,1.82,1.25.93,6.18-3.93,8.55-4.63,7.55-2.23-2.94,6.32-3.2,6.78-.78,1.35,2.75,3.74-2.48,3.05,2.95,4.82-2.02,2.62-3.84,4.14-.13.11,1,2.3-.68,2.86l-4.47-1,1.99,4.99-6.98-2,2.99,5.99c-1.51,1.33-11.11-2.96-11.81-4.15-.39-.67-.83-3.17.8-2.83-.05,2.59,3.85,3.68,6.01,3.98-1.08-2.39-6.79-8.05-9-4.98-2.01,2.79,8.8,9.53,9,12.98-2.71,2.03-14.3-7.45-12.99-8.99l2.99.99c-.94-4.79-4-2.89-7.51-1l6.98,5.03c1.51,2.41,5.92,3.78,6.54,6.46s-.89.92-1.67.93c-2.44.02-4.88-.51-7.34-.41l2.99,4.98-9.99-1.98c1.09,2.07,3.69,3.12,2.99,5.98-7.14.3-12.32-5.98-15.03-11.97-1.37-.95-9.47,6.22-8.96,6.96,5.28,2.08,8.91,8.59,15,9.01-2.22-5.94-12.15-5.52-10.99-11.99l5.99,2.99-.97-3.52c2.69,4.99,18.69,17.29,3.7,14.3-1.94-.39-4.75-2.5-6.28-2.76-.41-.07-.25,2.94-1.94,1.99-.56-.19-9.95-10.76-9.49-5.49.06.67,9.87,8.28,10.51,8.48,2.15.67.75-2.68,2.95-1.97l3.53,6.99c1.89.15,1.56-3.67,2-3.99,1.21-.88,3.3,2.6,4.98,2-.05-1.76.92-5.23,2.52-5.99,2.93-1.39.16,5.27,2.47,4.98.02-2.33,1.98-7.5,4.03-8.52,1.26-.63,3.41.39,4.99.15,2.69-.41,5.43-3.43,7.99-.12-2.1,2.42-6.21-.47-6.99,2.48l2.99.5c-2.72,2.68-6.02,3.26-8.56,6.46-1.36,1.71-1.31,3.89-1.45,4.05-.49.55-2.25.55-1.98-1.48.37-2.76,3.47-4.89,2.5-7.52-2.83,2.95-3.7,7.11-4.5,10.95,5.88,2.61,3.15-.51,5.48-2.99,1.33-1.42,4.95-1.11,5.51,1.02l-5,3c1.82.5,2.35-1.4,3.73-1.77,1.58-.42,3.23.07,4.57-.25.88-.21.35-1.99,2.16-2.08,3.02-.15,5.67,1.66,8.53,2.12-.33,2.02-3.08-.1-.99,2.98l-9-1.99c-.53.66,1.39,3.52.99,3.99-1.49,1.74-2.47-3.73-5.01-1.98-.17.12,1.71,1.86.5,2-1.69.09-2.2-1.97-3.97-2.05-.22,0-2.65,2.99-2.58,3.49.9,5.91,4.13,1.54,5.95,1.11,2.91-.69,12.91-.07,14.1,2.96,1.07,2.72-6.5.21-8.04,1.07s-1.75,3.51-2.5,3.48c-1.82-.06-4.33-3.31-6.44-.48.08,8.66,6.2,10.84,10.43,16.47,1.38,1.83,10.39,15.1,10.79,16.21,2.23,6.11,1.84,16.43.76,22.73-1.37.25-1.52-1.79-1.72-2.75-1.14-5.34-.41-13.59-2.05-17.96-1.35-3.6-6.1-7.26-8.46-10.54-3.47-4.81-7.65-9.76-10.76-14.23-1-1.44-1.84-5.2-2.12-5.39-.39-.26-8.28-1.12-9.37-1.12-3.33,0-7.67,1.96-11.5.99l13.55-3.02,6.43,2.03c.69-7.07-5.64-12.27-11.93-13.56-7.34-1.5-23.81-1.35-31.32-.2-11.66,1.78-17.76,13.92-25.73,21.27-10.35,9.55-26.66,16.2-29.58,32.45-1.14,6.34,5.88,14.42,10.07,19.03l.5-1.99c2.9,1.55,5.31,4.46,6,8.99l2.98-2.99.02,5.99,1.99-12.99v16c4.35.02,2.84-5.18,2.99-7.99l-1.98,4.99v-11s2.98,0,2.98,0c.32,3.36-.41,7.25,0,10.52.18,1.38.75,3.14,2,1.49v-4c1.97-.33.53,2.49,1.02,2.99.73.75,16.24-3.09,16.98-4.01.27-.34-1.49-1.78-1.01-2.98l-2.98,2.99,3-9.99c1.81-.4.63,1.68,1,1.99.55.47,2.54-2.55,2.98-2l-1.98,6,3.49-3c.77-.3.65,2.61,2.06,2.95.71.17,11.33-3.55,14.04-3.85,4.31-.48,11.55-.49,15.88-.09,2.2.2,22.86,4.39,18.51,8.98-.53.56-11.92-4.46-14.58-4.91-4.19-.72-14.49-1.37-18.66-.82-9.63,1.26-17.67,8.09-26.2,10.79-4.03,1.28-8.06,1.2-12.24,2.76-12.13,4.53-17.89,20.89-24.32,31.17,3.9-.9,6.5-4.81,10.99-3.98,1.51,2.73-4.96,10.82-3.98,11.99,2.41-1.37,4.44-3.33,6.99-4.5,3.57-1.63,21.12-6.97,21.04-.98-.03,1.86-25.49,20.33-27.04,25.47,3.34-1.02,5.67-3.18,9.2-4.29,10.72-3.37,20.66-.54,30.79,3.3,3.04-5.51,2.06-7.98,1.96-13.46-.02-1.13-.64-3.79,1.04-3.53-1.56,2.98,2.05,8.95,1.81,10.31-.22,1.29-5.07,7.29-4.8,7.66.43.6,5.69,1.25,4,6.01-2-.09-9.83,0-10.82,1.19-.38.45-1.68,7.38-2.19,8.81-3.13-.78,1.56-8.61,1.01-8.99l-20.82,3.67-9.17,3.32c7.74-.58,14.7.39,21.67,3.84,3.31,1.64,19.23,12.49,17.32,16.17-4.12-.5-7.88.24-12.21-.28-10.72-1.28-20.83-9.25-31.78-5.71,9.44,11.21,13.22,26.81,8.99,40.99-2.97.51-4.7-2.09-6.5-3.99-3.43-3.62-9.52-12.55-12.49-17.01l-2.02,3.99-.99-2.98-2.49,2.99-1.48-1.99-3,5.99c.23-1.38,1.72-8.66,2.04-8.99.28-.29,6.93.71,7.95.99-1.59-2.38-3.04-7.61-5.54-9.96-1.05-.98-.85-1.5-2.49-.58-6.62,3.69-10.8,33.5-21.47,38.52-7.62-9.24-5.35-23.89-3.51-34.98l-17.37,14.95c-5.32-3.65-.74-11.31-2.63-16.94l-1.98,5.99c-.41-5.2-2.84-6.7,2.98-8.99.77,1.04-1.36,7.43,1,7.99.12-5.36,4.61-8.68,7.01-12.98-1.9-1.46-19.57,8.1-22.99,8.99.19-6.91,3.69-12.91,7.99-17.99-11.97-3.97-25.3-4.43-37.25-7.26-14.67-3.47-22.17-11.93-38.28-4.77-9.79,4.35-8.89,11.09-14.01,18-2.09,2.81-1.15-1.41-1.97-.97-8.4,7.56-7.78,19.68-9.52,29.99-4.23-3.12,1.25-8.22-.49-12l-1.55,4.98c-1.23-2.11-3.94,3.65-4.81-.57-.15-.73,2.02-4.36-.14-2.91-1.16,1.33-1.8,3.04-2.31,4.69-.96,3.08.72,6.83-3.68,5.83l7.67,1.9c8.56-1.76,11.32.41,18.33,3.65.9.42,2.27-.51,2.81-.29.32.13,3.51,4.7,5.18,4.73.06-2.15-1.53-3.33-1.94-5.55-.2-1.07-.86-6.28.94-6.45.22,6.26,2.63,11.88,6.01,16.98-3.16.5-12.88-7.85-14-6.98,4.18,7.51-.72.25-2.45-1.06-2.35-1.77-29.98-4.36-33.82-3.71-7.85,1.33-16.81,8.12-22.73,13.27l13.99,3.48c-3.64,1.04-7.4-1.21-7.01,4.01l-1.48-1.99-2.52,4.99-.48-4.99-5.01,4.99c-.9-4.68-6.21,1.33-6.49,1,0-3.24,2.96-5.4,4.99-7.5-2.89-.71-6.82,3.41-9.67,5.33-1.43.96-3.5,1.03-4.86,2.13-3.1,2.51-.75,6.52-7.46,4.55,2.49-1.39,4.64-5.82,6.3-7.19,1.77-1.46,6.29-3.11,8.84-4.68.66-.41,2.91-.71,1.34-1.65-15.83,3.3-31.84,5.85-48,7.01-32.71,2.34-69.25,1.3-101.98-2-16.03-1.62-31.96-5.59-47.98-7.04-.8-.07-3.66-.29-2.01,1.04,3.71.84,9.99,1.1,10.48,6-2.43-1.02-4.73-3.03-7.53-3.1-1.21-.03-2.73,3.26-4.99,2.98-.36-.04-1.65-1.36-1.46-1.87.06-.17,3.19.41,1.96-2.97-2.03.05-7.31-3-8.51-2.82-1.41.22-2.72,5.9-5.51,7.23-2,.96-4.86.73-7.25,1.75-16.95,7.25-25.56,6.26-43.93,3.52-3.27-.49-21.42-4.3-22.77-5.74-2.9-3.09,4.67-.74,4.99-.99l-4-5.98c1.22-1.24,4.63,4.25,5.79,4.9,4.41,2.48,17.63,5.89,22.98,6.81,15.17,2.6,23.6.54,37.25-5.2,3.37-1.42,9.29-.55,7.82-5.82-.51-1.81-15.24-13.84-17.81-15.24-4.85-2.65-19.2-6.81-24.5-6.51-1.49.08-21.08,5.43-22.06,6.02-4.42,2.66-9.15,13.32-11.99,18.05-.76,1.26.2,2.53-2.48,1.97,3.23-8.43-1.9-5.96-3.99-11.99,9.75,3.8,6.37,2.02,10.15-3.34,2.87-4.06,6.3-8.61,11.84-8.67-2.06-2.8-7.81-11.21-11.47-11.05-.5.02-.42,1.86-1.19,2.05-6.93,1.69-20.32-1.09-28.33,2.02,8.94,9.42,12.18,25.12,6.5,36.97l-11.51-14.97-2.48,15.99-12.53-10.47-4.97-7.51c-3.15,16.23-9.29,6.49-9.99,6.99-.14.1-.45,1.87-1.47,3.03-1.45,1.64-12.17,12.17-13.04,11.96-5.04-8.11-2.43-19.49.48-27.99-5.39,3.18-12.16,5.19-16.03,10.49-.8,1.09-1.28,5.73-3.94,3.51-1.66-1.39.18-11.22.92-13.56,1.77-5.55,5.69-9.86,9.06-14.43-4.26.93-6.84,4.99-10.81,6.67-2.11.89-5.97,2.55-5.2-.67h-.98c.51,3.11-1.83.66-4.01,2-1.06-7.24,5.38-11,.99-2.01l5.99-4.99c-.39,1.31-1.98,7.25.99,4.98.09-.07-.16-1.45.69-2.04,1.37-.94,3.31-.07,4.33-.59,1.6-.8,3.41-3.33,5.06-3.88,2.24-.75,5.17.89,7.92-1.49l-6.73-2.75c-7.41-1.9-13.28,2.18-20.26,2.76,3.25-11.93,15.74-18.88,27.99-17l-11.95-10.57-10.04.57c4.02-10.8,18.28-9.43,26.99-6-6.19-6.76-10.42-19.57-18.29-24.2-3.54-2.09-12.07-3.7-14.44-6.06-1.04-1.03-2.64-5.19-4.29-7.21-6.59-8.03-10.68-6.12-18.95-9.05-3.8-1.35-7.49-3.59-11.24-4.76-7.06-2.19-14.33-2.16-21.21-4.76-2.32,2.67-8.85,21.09-11.07,21.02-5.6-6.24-6.14-15.07-4.5-22.98-3.64.97-8.54-.99-11.56-.88-2.51.09-5.8,4.24-5.45-.12h-.98c-1.82,8.08-10.64,8.75-12.81,17.76-.92,3.84,5.22,6.4,4.79,11.23l-5.99-6.99c-.14,1.02,5.29,9.59,1.49,7.16-1.86,2.58,1.07,1.34,2.2,2.07.56.36,2.67,4.45,3.78,5.8,1.79,2.17,6.38,2.66,4.04,6.95-7.61-9.72-18.76-13.23-12.99-27.98,2.87-7.35,14.84-17.28,19.99-24.01.77-1,1.94-1.27,1.49-3-10.27-.98-18.84,6.02-25.51,12.99-2.36.97-1.48-3.26-1.37-4.38,1.48-14.66,12.73-17.21,24.68-18.85,1.58-.22,2.77.05,1.2-1.75-.87-1-13.78-6.83-15.99-7.52-6.8-2.13-13.89-2.89-21-2.5-3.77-3.64,10.91-6.71,12.6-6.89,7.3-.78,13.33.95,20.39,1.88-3.78-6.17-19.79-13.64-22.52-18.97-2.86-5.59,11.21-1.07,13.3-.3,3.35,1.23,7.22,4.42,9.74,5.27,3.2,1.07-1.11-4.33,1.96-2.98,1.28.57,11.99,9.56,12.51,8.99-.12-2.91-9.2-15.44-8.99-16.48.9-4.65,8.06,3.55,9,2.47l1.01-23c4.43-.76,4.79,4.69,7.5,6.98,1.25.02,7.75-13.95,9.53-15.45,2.92-2.48,9.9-1.97,14.31-4.69,3.89-2.41,6.99-7.73,10.73-10.27,2.72-1.84,6.01-2.22,8.28-3.72,2.06-1.37,12.69-9.35,12.26-10.89-.5-1.8-2.56-3.52-3.6-4.95.18.16.62,4.02.91,4.86-5.9,3.28-10.5,10.29-17.91,10.14.41-4.33,12.75-18.78,17-14.99-6.84-9.46-15.13-16.06-25-22l-9.64,10.81c-1.17.86-6.69,5.13-7.36,1.67-.48-2.47,9.76-13.62,12.51-14.47,1.78,2.09-2.6,3.28-4.05,4.95-.78.9-4.76,6.74-4.46,7.03l13-9.99c-.94-.57-7.06-5.68-7.98-5-.77,3.22-11.77,14.92-15.02,11.99l2.99-6.99c-8.95,7.05-8.31,1.23-2.99-4.99-1.58-1.52-5.42,6.08-7.99,3.49l10.99-8.49c-7.41-2.89-8.51,7.48-14.99,7.98l.99-4.99c-5.68,2.3-9.04.88-3.99-3.99-3.71-1.35-11.86,1.58-14.47.98-.99-.22-1.9-1.33-.53-2.48,3.75-3.16,12.61-3.73,16.99-1.51,1.37-2.41-4.85-3.09-2.99-4.99,1.31-1.34,5.45,4.65,5.99,3.99-.79-3.56-2.93-5.11-.98-9,5.68,2.17,8.2,7.81,11.98,12-.64-4.05-3.22-6.91-4.5-11-.38-1.21-1.08-1.39,1.02-1.01,1.72.31,8.51,5.13,9.58,6.48,1.24,1.55-.68,7.83,4.9,8.53-.79-5.2-3.1-9.98-4.76-14.73-1.97-5.62,5.58.05,7.33,3.67,2.67,5.56-.91,12.58,4.44,14.05-1.13-6.51-1.16-13.36-.5-19.99,6.73,4.96,7.51,12.63,6.51,20.51-.19,1.46-.77,3.1-2,1.48-.3-4.03.44-8.47-.07-12.43-.15-1.2-1.41-5.24-2.93-5.56.87,7.56-3.41,19.05,6.98,19.99-.52-4.51.52-15.29,2.24-19.27,2.94-6.82,4.81,7.18,4.85,9.76.02,1.64-3.62,18.82.91,15.51.83-.61,3.68-15.9,5.77-19.72,2.64-4.82,3.39,5.72,3.3,8.23-.13,3.98-2.04,11.6-5.06,14.49.43-4.31,2.48-8.17,2.98-12.51.17-1.45.81-6.88-.98-7.49-.62,4.66-5.25,14.25-4.61,18.54.28,1.87,11.51,11.14,13.6,13.46,1.01,1.12,2.77,3.5,4,5,.33.41.14,2.45,1.5,2.98,2.74-3.95,4.52-8.23,9.49-9.98.75,2.71-3.67,3.22-3.99,4.51-.38,1.51,2.07,3.16,2.98,2.48.43-.32,2.78-6.8,4.45-8.06,1.57-1.17,4.02-1,5.91-2.09,2.71-1.58,5.8-5.7,8.65-4.35l-5.99,5.5,9-2c1.3-1.24-4.4-9.52-5-10.99-.66-1.61-1.34-3.41-2-5-.72-1.74-1.7-8.8-3.17-9.89l-21.17,4.05c-2.82.85-.32,4.2-.84,7.08s-3.75,8.93-5.15,11.97c-.49,1.08-.56,3.65-.69,3.79-.44.48-2.15.73-1.8-1.29,1.12-6.39,5.95-11.17,5.8-17.71l-6.42,8.07-3.56,7.93c-.76-7.94,7.39-13.08,9.98-19.52,1.12-2.79-4.26-.61-4.98-1.98,4.9-6.38,15.08-3.65,18.99-10.5-7.99,1.18-17.52,5.05-24-2,5.19-1.57,10.5-2.53,15.8-3.7,1.5-.33,3.12-1.7,4.16-1.85,1.4-.21,4.92,3.18,7.04,1.05-6.04-5.91-7.44-17.94-17.98-15.06l-11.01,3.55c3.12-.05,6.26.2,9.38-.09,2.84-.27,7.8-3.44,9.61.09-8.01.17-14.85,3.81-22.99,1-3.05-3.33,13.93-4.6,13.99-7.5l-13.99.5c-2.3-2.06,10.25-7.05,12.46-7.04,1.99,0,1.62.13,1.54,2.04-3.46.28-8.86.99-11,4,2.23-.09,13.88-1.8,13.98-3.48.26-4.49-9.01-3.66-11.98-3.51,2.17-2.65,5.17-2.46,7.99-1,.19-4.95-6.91-1.95-9.99-1,.26-.31,1.13-1.9,1-1.99-2.31.25-4.43-.44-6.65-.88-1.6-.31-3.82.79-3.35-1.62,3.55-3.57,8.7-1.87,12.99-3.01l-14.99-1.51,3.99-4.98-4.99-2,5.99-1c-10.31.73-4.99-2.59-5.46-3.99-.32-.97-9.29-9.91-5.04-10,1.26-.03,10.14,6.79,11.01,8.97v-4.99s2.51,6.99,2.51,6.99l2.48-5.99c2.7,2.53,1.15,6.75,1.52,9.99,1.58.32,1.05-9.9,3.98-7,.49.48,1.19,7.57,1.02,9,2.49-1.3.71-7.38,4.98-6.99,1.45,7.46-3.87,15.44,2.5,20.98l3.49-13.98c-1.39,0-2.05,2.91-2.45,4.04-.79,2.24-1.32,4.59-1.55,6.95-1.76.22-1.11-3.51-.92-4.43.41-2.06,2.89-8.39,4.41-9.59.9-.71,1.17-1.57,2.03,0,2.24,4.09-3.91,13.04-2.5,18.01l3.58-7.9c.82-.69,4.98-7.74,6.4-6.09,1.4,7.58-4.28,12.83-5.01,19.99-1.75.23-1.11-3.53-.93-4.43.85-4.07,4.55-7.12,3.93-11.57-5.28,4.95-8.61,12.73-3.98,19,2.97-3.65,3.41-8.13,6.14-12.34.95-1.46,4.98-7.25,6.84-5.65.83.72-5.57,19.32-6.49,21-2.61,4.79.82-8.61.48-9.01-1.84-2.15-4.79,6.73-4.8,7.7-.03,2.3,5.71,6.31,5.83,9.3l10.97-16.52-.48-1.48c-4.7,3.44-9.05,8.96-9.52,14.99-1.69.29-1.12-2.47-.93-3.42.88-4.35,4.41-7.63,6.89-11.13l7.04-5.44c1.27,1.48-3.53,11.82-4.77,13.72-1.46,2.23-7.74,7.88-7.91,10.78-.05.9,5.82,9.62,6.87,11.8,2.5,5.2,5.05,11.34,7.29,16.71.97,2.32,4.93,15.39,5.57,15.93,1.39,1.17,6.66-1.08,5.94-3.95-.31-.31-4.6,4.61-6.58-1.97-2.16-7.19,7.65-8.13,9.59-14.02-4.68,2.43-9.39,1.15-12.5,5.99-.74.16-.68-1.04-.49-1.48.7-1.6,14.92-11.43,12.98-13.51-5.98,2.18-9.53,6.34-13.5,10.99-2.24-2.82,7.13-8.48,5.5-9.99-4.62-.8-5.17,6.68-8.99,4.5,4.89-5.6,12.42-7.48,15.99-14.49-2.1-1.61-10.45,5.84-12.03,7.51-.75.8-.68,2.49-1.26,3.18-1.05,1.23-4.74,2.23-3.7-.18.52-1.22,6.8-6.92,8.3-8.7.73-.87,3.02-2.34,1.69-3.8-.82-.89-10.91,7.03-11.5,8.99-.76.14-.62-.94-.51-1.51.9-4.6,15.66-10.34,16.01-17.49-3.26,3.35-7.58,4.57-11.23,7.05-2.6,1.77-3.69,6.65-7.76,5.94,4.09-2.45,3.47-7.29,5.59-10.9,1.39-2.37,6.21-4.72,4.92-8.08-2.96,2.78-6.27,4.93-9.03,7.97-1.63,1.79-2.21,6.29-4.47,4.54,1.74-2.41,2.5-5.24,4.46-7.54,2.21-2.6,10.11-5.97,8.33-8.82-.16-.26-5.16-1.94-1.18-3.03,5.66-1.54,16.56.87,21.37,4.38-6.36-.12-12.41-4.32-18.99-3.49l17.99,7.98c-3.1,1.72-16.23-5.73-16.99-4.98,2.37,5.07-1.22,8.36-3,12.98,4.27.1,5.7-5.34,9.99-5l-5.99-1c-.26-1.38,1.74-1.49,2.69-1.6,2.1-.24,10.87.55,11.8,1.6.19.22-1.05,3.41,3.51,3.01-1.36-8.82.92-17.82-.14-26.85l-16.86-5.13c2.86,5.49,9.61,5.2,14.36,8.13,1.01.62,3.07,2.07.16,1.84-7.17-3.83-16.12-4.32-19.52-12.98,1.74-1.29,18.52,5.62,21.99,5.98l-.16-6.84-14.84-6.15c2.88,4.37,8.76,5.71,12.99,8.51,2.32,3-.68,1.52-1.92.92-3.42-1.64-11.36-6.09-13.75-8.72-.95-1.05-1.71-3.35.2-3.71,1.69-.32,14.59,7.11,17.48,8v-16c0-.49-7.92-3.46-9-3.99.56,2.77,7.31,4.31,8,5.01.45.45.47,2.49-1.44,1.94-2.99-.87-9.14-5.92-9.57-9.44,3.7-1.73,6.63,3.22,10.01,3.48-2.17-3.79-8.46-4.84-8.01-9.99h4.01c.33-.24-2.85-4-2-5,1.87-2.17,1.93,2.93,2.98,1.98,2.72-2.47,1.69-6.06,2.28-9.25,1.57-8.45,6.17,4.9,4.74,8.26l2.98-2-1.98,6c.95.93,6.45-3.63,7-.48.14.79-.73,2.47-1.33,3.18-1.59,1.87-6.69,3.24-6.66,6.3,15.52-11.65,8.47,1.22,0,6.99,5.32-1.16,9.15-6.56,15-5.98-2.6,8.82-16.82,7.83-14.99,17.98,1.97,2.01,10.11-3.86,5.49-3.98-.39,0-3.43,4.48-3.49.49,3.5-2.78,9.05-5.88,12.99-6.02-1.87,3.59-8.18,1.67-6.99,6.5,3.71-.8,7.01-2.7,10.99-1.99-3.49,5.27-8.35,8.24-14.2,10.3-3.78,1.34-5.63-.95-4.79,4.69,4.91-2.19,11.78-5.62,16.97-6.59,1.57-.29,3.18-.78,4.01,1.11s-5.43,3.15-6.3,4.67l-12.2,5.8c-2.02-1.57-.04-1.66.77-2.28,3.81-2.93,8.85-3.22,11.74-6.7l-15,4.99v41l12-4.01c-2.31-6.93-4.1-1.59-9-1,1.92-3.21,7.82-3.4,7.99-7.99l-6.99,2.5c2.89-2.93,6.88-3.8,10.36-5.66,1.46-.78,2.45-2.77,2.63-2.84-2.7.8-5.39,1.1-8.26,2.24s-4.92,3.06-7.74,3.75c1.05-4.56,21.58-10.01,23-8.98-.77,2.9-4.15,1.48-6.19,2.07-.77.22-.75.9-.81.92,4.92-1.97,4.01,4.65,4.87,6.55,2.91,6.41,10.19,7.46,11.14,14.45,1.65.37,2.02-.54,2.97-1.51,2.91-2.98,5.77-8.74,9.01-12.49,1.18-1.37,3.47-3.39,5-5,1.09-1.14,4.38-2.8,4.62-4.47.35-2.42-4.38-14.33-6.61-16.53-.48,5.45,2.97,11.3,3.37,16.22.09,1.11.21,3.26-1.38,2.78.44-7.17-5.96-14.92-2.99-23,1.82-.38,1.97.49,2.76,1.73,1.56,2.49,5.81,17.27,6.74,17.24,2.55-2.2,4.98-4.79,7.5-6.98,1.22-1.06,2.25-1.01,4-3,.32-.37,1.46-.33,1.6-1.41.3-2.26-1-6.45-.51-10,.41-2.93,3.08-9.05,4.2-3.41l1.7,10.81c-.33-5.43.14-11.29,4.52-14.99l1.98,5.99,5.02-6.99,1.98,4.99c1.25-1.83,13.23-6.97,14.5-5.99-.95,2.38-2.54,4.35-4.49,6-3.31,2.79-5.76.39-3.51,5.99l-7.99.02c-.46,1.24,8.63,2.49,5.01,4.51s-9.28-1.07-13.02-1.51c2.36,2.84,6.66,2.63,10.04,4.49,1.38.76,2.47-.1,1.95,2.5-7.43,1.7-14.71-3.69-20.99.02,2.29,4.4,8.3,3.8,12.49,5,1.58-1.05-3.15-2.39-3.5-2.5-2.27-.69-4.71-.82-6.97-1.53-.26-1.7,2.39-1.07,3.47-.98,3.19.28,8.7,1.79,11.02,3.99.91.86,2.22,1.56.52,2.51s-10.77-.33-13.09-.94-5.1-3.33-5.41-3.34c-.41,0-5.73,2.67-2.54,3.47,3.52.88,6.61,1.12,10.07,2.75,3.02,1.42,9.9,6.78,2.93,6.13-1.44-.13-15.37-4.03-15.98-4.6s-.54-2.18,1.45-1.95c4.42.5,8.72,4.6,13.55,3.95-.49-1.39-3.95-2.65-5.31-3.18-9.62-3.75-8.75-3.1-15.69,3.19.98-1.45,9.18.9,10.89,1.61,1.32.55,11.92,6.6,10.1,8.39-3.28-.02-24.47-4.88-20.99-10-2.04,1.85-4.7,3.38-6,5.99,6.51-1.36,15.63,3.7,21.26,7.25,1.24.78,2.12.93,1.73,2.76-3-.82-8.69,1-11.03.4s-13.05-6.16-12.98-9.4c-.85-.59-5.42,5.56-4.98,5.99,3.7-1.3,23.9,8.96,23.98,10.51.09,1.69-3.08,1.29-4.19,1.23-5.91-.29-14.56-2.22-19.49-5.54-1.29-.87-2.73-1.14-2.3-3.19,3.44.9,5.32,3.36,8.96,4.53,2.63.84,8.79,2.14,11.55,2.46,2.21.26,1.74-.94.49-1.5-6.64-3-13.36-5.78-20.55-7.14-2.25.28-8.03,11.33-9.46,13.65.23-.22,5.35-1,6.36-.94,6.01.32,13.73,6.07,20.64,4.93l-12.46-6.03-10.54-1.97c1.2-3.18,5.87-.18,8.43-.91l18.56,8.41c-9.28,5.55-17.93-2.74-26.99-2.47,3.63,4.21,10.56,2.76,13.99,8.49-2.12,1.57-5.15-3.21-7.03-3.97s-3.83-.24-5.2-.8c-.74-.3-7.25-3.3-5.76-4.74-4.43,7.18-12.96,20.76-14.78,28.76-1.07,4.69,1.21,2.69,3.73,4.77s4.28,4.81,7.04,6.47c1.29-7.47-2.7-4.76-4.8-6.18-.75-.51-.56-2.44-1.08-3.22-.95-1.44-3.93.67-3.11-2.59,4.66-1.32,8.07,1.95,11.51,2.98s-.47-4.49-2.17-4.84c-.67-1.41-8.24-1.31-7.34-3.63,1.57-4.05,7.72-2.27,10.69-.72,2.71,1.41,3.83,4.73,7.3,4.19-3.64-4.5-8.78-9.05-15-8,1.34-3.08,6.41-.23,8.99-1-.81-2.74-8.75.04-7.99-3.99,8.1.72,14.8,6.51,22.99,5.99-1.26-1.82-4.97-3.74-7-4.48-4.69-1.72-10.57-1.32-13.99-4.5,1.88.69,4.36-.88,5.56-.87.46,0,.35,1.53,1.19,1.78,7.87,2.35,18.51,2.83,17.24,14.07-2.09.23-.46-3.49-.98-4-.32-.32-6.41.62-8-.99.33,1.64.61,3.38.99,5-1.88-2.03-2.34-4.92-4.99-4.99,3.43,7.62,7.85,9.36-4,8,.64,3.31,3.81,5.1,3.01,8.99,1.61-1.39,6.84-5.47,7.48-6.96s-1.16-3.62-1.49-5.04c.27.3,3.59.35,3.01,4,7.48-2.85,6.17-9.2,6.99-16-6.76.85-11.97-2.76-17.96-4.55-2.5-.74-6.85.77-6.04-2.45,9.15-1.43,18.16,9.7,26.5,3.01,2.2-.01,1.1,10.03,3,9.99,1.16-4.83,5.77-20.88,7.51-8.01l6.48-5.01-3.49,11,5.99-2.5-2-1c1.73-4.12,1.15-6.85,5.99-4.47l-2.47,6.99c3.07.15,4.69-7.9,5.99-7.99l1.49,4.99c-2.67-1.76-1.68-.2-2.99,1.98l9.99-4.98-1.99,4.99c3.45.53,8.18-.26,7,4-3.03.55-7.59-1.74-8.51,2.02-.62-3.83-4.61-.72-6.88-1.05-.71-.1-.53-1.75-1.3-1.95-6.67-1.67-17.54,4.07-23.35,7.49-.69.41-3.57.72-1.97,2.48,2.22,2.44,11.68-5.8,14.75-6.74,10.9-3.36,26.51,5.03,37.66,6.79,4.53-8.42,17.01-7.72,23.57-2.04-4.39-12.85-13.16-11.47-22.98-5l4.99-4.99c-2.75.74-5.43,1.2-7.99-.5,1.7-1.54,4.21-3.87,6.27-4.73,1.93-.8,6.62-.15,5.71-2.26l-7.64-7.37-13.35-4.63c11.73-9.38,27.12,2.68,35.01,11.96l5.97,8.52c.64-10.42-8.06-15.01-12.79-22.69-3-4.87-4.29-10.31-6.83-15.17-2.25-4.31-5.78-7.64-7.37-12.12,1.14-1.12,16.51,9.29,17.41,12.08l6.57,9.91c-1.44-4.78,3.82-33.75,6.02-35.99,1.65-1.68,1.72.25,1.95,1.51,2.28,12.29,4.93,23.41,2.95,35.9-.69,4.38-3.54,8.78-2.91,13.58l4.13-12.35c4.55-10.48,15.96-23.05,27.85-23.63-2.88,3.84-6.81,7.05-9.21,11.28-2.64,4.67-3.92,12.17-6.78,16.22-2.47,3.49-8.51,5.87-10.87,10.13-2.67,4.79-2,11.99-3.12,17.36l4.81-11.68c6.06-12.51,18.23-24.51,33.18-22.82-11.38,4.13-14.39,17.67-23.03,23.97-2.73,1.99-9.96,3.37-9.47,8.53,6.01-4.54,13.92-5.44,19.84-10.16,3.57-2.85,5.61-6.88,9.2-9.8,10.46-8.52,30.24-12.24,43.47-12.03l-8.01-5.51-1.98-2.47c2.56-.02,5.9.22,8.23,1.26,3.08,1.37,4.22,5.43,7.76,5.73.71-3.79.3-4.69-.7-7.72-1.42-4.28,2.28-2.01,3.6,1.33.74,1.88,2.56,7.17.11,8.39l-2-6.99c.68,1.58-1.01,6.51-.59,7.05,1.57,2,9.45,3.81,8.65-2.45-.08-.66-2.04-.63-2.12-1.13-.5-3.33,5.45-8.25,5.02-2.04-.12,1.75-3.78,7.8-2.97,8.55,2.79,2.6,5.04-5.62,6.99-5.99-.58,5.15-1.26,12.19,5,6-.36,4.25-2.76,5.1,2.58,5.97l6.43-9.95c-3.06-.4-6.45-2.25-9.54-2.12-2.42.1-.64,2.34-2.45,2.11.09-1.74.52-4.63,1.47-6.02,2.05-2.99,2.38,2.82,2.57,2.99.43.39,7.36-2.4,8.46,3.03.88-.13.6-2.27.5-3,.95.62,1.78,1.22,2.99,1,1.25-5.88-5.27-8.18-4-14l-4,4c-.48-4.42,4.81-6.44,1-9.99,4.85.14,3.4,6.4,4.68,9.78.57,1.49,5.11,3.54,3.32,8.22,2.96,1.28,4.45-1.79,5-2.01.16-.07,2.16,1.75,2.84-.64.5-1.73.52-7.99-.37-9.37-.47-.73-2.22-.65-2.49-1.68-.29-1.11-.99-12.3-.98-14.3ZM721.99,585.99c.52-5.2.26-12.31,1.24-17.26.67-3.36,4.33-16.83,5.57-19.43,1.89-3.97,6.57-6.57,8-9,3.43-5.79,4.2-13.77,9.37-20.63,2.46-3.27,10.6-8.46,10.88-10.2.9-5.62-7.46-10.4-10.47-14.56-9.26-12.79-10.07-40.42-11.59-55.91l-1.98,11.5c-2.21,37.77-8.21,75.31-11,113-.41,5.57-.77,11.38-1.06,16.94-.06,1.17-.7,5.54,1.04,5.54ZM510.99,504c-1.23-5.32-2.84-11.16-7.98-14,1.5,4.74,4.63,10.28,7.98,14ZM792,593v-17l-2.94,8.64c-.58,3.07,2.38,7.87-1.05,9.36l-1-8.99c.08,6.71.21,13.38-1,19.99l3-4.99,1.98,2.99c.21-.98-.52-4.06.51-4.01,1.23.07-.46,2.87,1.5,1.52,3.86-2.67,5.72-6.77,5.01-11.5l1.98,1.99.02-7.99c3.98-.98,1.09,5.97,2,6.99,2.85.2,4.04-2.54,4.01-4.99,1.26-.59,1.13,4.24,2.98,2,.3-.36-.5-4.11,1.51-5-.23,1.54,2.39,1.89,2.49,2.02.45.63-3.64,2.64-.48,3.97,2.09.88,1.51-1.9,1.5-2.98,1.64-.43.46,1.72,1.63,2.01,5.13,1.31,3.57-3.51,7.35-1.02l-2.01-6-3.97,3c-1.71-2.26,5.07-7.54-.53-8.01-.35-.03-.61,2.06-.96,2.03-4.06-.37-.97-3.4-1.49-6.47-.38-2.26-2.76-2.83-2.8-4.81-.05-2.08,1.6-5.44,1.78-7.73,1.91-.06.62,3.08,2.5,3.98,2.02.97,1.67-3.03,3.48-2.99-1.26,4.25-1.1,8.59-.98,13,4.86-2.11,8.88,2.09,12.78,3.75,1.18.5,3.16-.11,4.04.42.23.14,2.69,7.61,3.16,3.35-2.26-1.84-2.86-7.92-4.22-9.29-1.64-1.66-9.79-2.29-11.75-5.73,1.76-2.44,1.71-.8,3.22-.25,2.24.82,5.39,2.23,7.26,3.75.87-3.04-3.28-12.13-5.46-14.27-3.38-3.31-8.85-.75-8.04-9.72,2.47-1.93,4.07,7.8,4.98,3.52l-12.48-33.53c-4.69-10.29-10.7-8.92-20.02-11.98-2.78-.91-6.74-3.84-9.04-3.99-5.32-.35-18.12,7.12-16.43,13.97,1.53.58,7.64-2.23,7.98-2,.3.21,1.62,5.89,2.03,7l5.98-1.5c-9.76,10.43-7.47.01-9-1.5-2.59-2.57-4.49,4.58-5.5,5-2.91,1.21-1.74-3.5-5.49-1l-.02-6c-6.18,2.95-11.23,7.9-14.79,13.7-2.86,4.66-5.68,15.97-7.72,18.28-1.51,1.71-6.12,3.06-7.47,6.53-.64,2.68,2.48.97,2.97,1.51,1.08,1.2-4.49,18.67-3.98,21.98-4.06.8.12-4.74-1-7-.93.2-2.91,2.72-3.15,3.38-5.37,15.27-7.41,41.96-6.89,58.16.23,7.07,1.21,15.37,2.06,22.44,1.33.23,1.71-4.08,1.72-4.77,0-4.38-1.62-8.49.28-13.22,1.49-.25,1.24,1.88,1.49,2.98.81,3.57,1.33,7.35,1.51,11.01,1.88.12,1.06-2.96,2.27-3.8.64-.44,2.3.03,2.59-.27.66-.68-.19-5.4.14-6.92,2.22-.34-.36,5.23,2.48,3.99.8-.35,1.74-2.14,3.23-2.78,2.43-1.04,5.38-.75,7.28-2.72l-7.99-1.51c-.58-1.3,4.2-1.07,1.99-2.99-.93-.81-3.54,1.74-4.65,1.83-.28.02-5.14-1.65-5.35-1.84-1.65-1.56.7-1.77,1.31-2.21,5.74-4.14,10.66-2.1,16.69.21-3.11-6.73-16.16-1.5-13.99-10.99,4.37,1.29,8.62.47,12.99-.5-2.03-.87-2.77-5.28-3-5.52-.39-.4-2.06,1.07-2.87.79-.17-.06-.12-1.24-.37-1.35-.63-.28-2.54.41-2.77-.96s2.2-2.6,1.97-3.87c-.28-1.51-3.55-2.35-4.4-3.66-1.4-2.14-.95-6.48-2.56-8.93,3.57-.95,1.35,3.22,2.01,3.99l2.98-1.01c-.42,1.41,2.56,7.48,3.16,7.83.36.21,1.77-1.21,3.38.06,2.94,2.31,6.48,8.14,8.97,11.1,1.51-.02,2.83-6.75,2.5-6.94-2.12-1.22-4.03,2.47-2.01-4.6.46-1.59-1.06-2.95,2.01-2.44-1.96,6.44,3.38,5.13,3.98,6.04,2.39,3.62-2.77,2.74-2.98,2.96-.94.96,1.49,4.37,1.72,5.62.05.29-1.63,7.51,1.27,4.38,2.1-2.27-2.59-9.15,1-10l2.15,5.91,3.17-.86,2.68-9.05,2.01,6c-.07-3.72.62-8.91,3.99-11l1,2.99c2.55-12.02,3.68-.58,3.02,5.01,5.83-4.81,2.95-13.4,2.98-19.99l-1.98,6.99v-11.99c2.85-.47,1.66.6,2.13,2.31.89,3.25,1.06,6.33.87,9.68l2.98-6.99-2.98,17.99c.64-.41,2.74-1.04,2.83-1.17,1.25-1.93.6-19.43,1.17-22.84l1.98,1.01c.59-9.58,7.61-17.11,13.51-23.99,2.26,1.68,1.04,1.59.26,3.26-2.11,4.53-6.68,5.61-8.75,10.24.17,4.06,2.94-3.24,3.98-2.52v12.99s-1-8.99-1-8.99l-1.5.99-2.49,17.01ZM578.28,536.34c.65-.89,1.87-.57,2.74-2.8,1.45-3.71,1.6-10.42,1.97-14.54-1.82.89-2.89,2.68-4.65,3.84-5.25,3.43-18.68,9.17-22.27,12.73-4.38,4.35-8.63,15.63-14.53,21.47-3.46,3.43-9.71,6.02-12.56,9.44-3.2,3.85-4.17,10.07-6.98,14.02-4.66,6.56-10.97,5.44-16.5,9.5-3.92,2.88-9.58,10.56-1.51,10.99l1-4.99.02,5.99,1.98-3.99c2.56,12.54,3.49-.46,4.06-1,.14-.13,3.81-.17,3.9,0,.43.84-.55,2.97.55,3l1.49-3.01-.98,7.99,2.98-4.99.02,5.99,1.98-4.99,1,5.99c1.2-3.74-2.94-9.27,1-11l1,2c.48-5.19,9.4-7.59,1.01-12.49l4.48-1.51c-.49,2.41.48,9.34,2.51,10.58,1.64,1.01,3.69-.62,5.44-.52,2.26.12,4.46,1.9,7.1,2,8.15.3,6.62-6.23,9.48-11.54,3.17-5.88,9.79-10.72,13.86-18.1.84-1.52,1.75-2.46,3.12-1.4-3.04,6.06-8.58,12.15-9.01,18.98l-.99-3.99c-6.39,1.26-6.06,13.12-10.03,16.46-5.53,4.65-13.18-3.23-19.02,1.16-1.14,7.68,2.04,13.34,4.07,20.38l3-8.99c2.3.43-1.19,5.79,1.97,5.99l4-8.99c-1.72,7.23-5.32,13.13-3.98,20.99,3.46-1.13,1.42-10.6,3.08-11.9.77-.6,3.36.45,4.72-.3.64-.36.69-2.83,2.18-2.79-.03,3.08-1.81,6.24-2.5,9-.26,1.02-1.46,3.16.49,2.99l6.03-14.98c1.83-.24.88,2.1.54,3.03-.89,2.36-4.4,5.94-.56,7.96.27-2.49,3.1-4.76,3.57-6.96.62-2.9.39-8.6,1.17-11.71.11-.43,2.22-5.01,2.46-5.16,1.01-.63,3.05.49,3.94-.74.53-.74,4.72-15.04,5.39-17.42,3.1-11.08,6.83-26.37,8.37-37.64.42-3.06-5.85,1.78-6.81,2.07-.72.22-1.95-.68-2.07-.44-.3.58.92,2.19.73,3.35-.17,1.01-1.49,1.93-1.95,2.96-.5,1.13-1.99,7.42-2.78,2.19-1.03-6.79,2-3.73,3-4.51.41-.32-2.73-5.54,5-7.55,1.33-.34,2.89.67,2.98.55.18-.23-.33-1.8.3-2.67ZM852.77,529.2c-.28-.46-7.31-5.95-8.76-6.19-1.31,1.34,6.55,7.68,7.51,8.99,1.94.8,1.87-1.77,1.25-2.79ZM867,527.01c-3.37.46-6.25,2.92-9.33,4.22-1.04.44-2.1-.1-2.2-.05-.84.43-.56,2.71-.46,2.81,1.21,1.29,11.31-4.57,11.99-6.99ZM851,535.99c-2.68,1.2-9.41-7.61-9.99-6.99-.67,4.33,8.49,7.42,8.99,8.01,1.54,1.82-4.52,2.48-.48,3.98,1.88.7,1.47-1.06,1.79-2.18,1.77-6.16-1.87-6.71-6.29-9.81l5.99,6.99ZM258,536.01c-3.6.85-9.64,2.99-12.7,4.79-.89.52-3.47,2.1-2.29,3.2,1.01.94,13.78-5.61,14.99-7.99ZM849.82,543.19c-.48-.81-9.82-7.24-11.82-7.18-1.49,1.44,8.55,9.67,9.99,10.51.81,1.64-4.55,1.97-.48,3.48,2.14.79,2.83-5.92,2.31-6.8ZM322.99,542.01c-2.94-1.1-4.34,8.61-3.99,8.99,4.85-.29,4.13-5.38,3.99-8.99ZM847.99,556c3.29-3.59-11.52-12.27-13.98-13.99-1.75,1.95,12.32,15.81,13.98,13.99ZM864.99,543.01c-3.62-1.47-9.08.09-12.32,1.97-1.35.79-.53,1.8-.67,3.02,3.26-2.84,6.44-2.16,10.19-3.29,1.04-.31,3.04-.29,2.8-1.7ZM872,543.01c-.8-.7-8.12,3.86-9.79,3.7-1.9.58-10.43,1.78-11.03,2.47-.79.9-2.47,13.43-3.16,15.82,5.37-7.84,13.97-6.46,21.98-10.01-.24-1.87-5.15-1.06-6.39-.88-3.67.51-7.65,2.45-11.18,2.84-1.98.22-1.46-.22-1.43-1.94l6-1.02c.94-2-8.55,1.36-4.99-1.98.52-.49,11.38-2.88,13.69-3.82.98-.4,7.91-3.78,6.32-5.18ZM525.99,563.99c.35-4.52-.09-9.07-2.49-12.99-1.84,1.27-1.39,2.36-1.27,4.17.07,1.04,1.53,11.61,3.76,8.82ZM845.79,560.2l-13.78-9.19c-2.12,2.17,13.89,11.57,12.01,15.99,2.33-.46,2.62-5.35,1.78-6.8ZM517.01,580c6.88-5.86,6.92-20.02,1.49-26.98-1.53,0-5.13,13.59-4.49,15.97l2-3c4.61,2.94.03,9.54,1,14ZM841.99,566c1.2-1.36-8.41-9.95-9.98-11,.57,4.89,6.77,7.56,9.98,11ZM380,574.5c-.6,5.3,0,12.43,0,18,0,.74,1.63,2.93,1.01,4.49h.99s0-17.99,0-17.99h1v15.5c0,.25.98,4.79,1.99,4.5.98-6.96,1.85-12.92,1.02-19.99l1.98,4.99-.11-10.37-3.87-16.62c-.1,5.65-3.42,12.27-4.01,17.49ZM843.78,569.21c-.27-.46-8.27-6.69-8.78-6.2,2.14,5.62,8.15,5.99,8.01,12.98,1.86-.08,1.08-6.26.77-6.79ZM908,566.01c-4.94,1.08-10.6-3.25-12,2.98,3.73-1.86,9.74.68,12-2.98ZM413,570.01c-9.53,3.82-19.94,14.96-22.57,24.93-.26.98-1.28,3.3.55,3.05l3-4.99-2.98,8c13.37-6.78,12.15-21.32,21.99-30.99ZM906,573.01c-4.46.82-7.78-2.54-11.99-3l1.61,4.06,10.39-1.06ZM381.99,608c-2.62-13.44-9.26-31.72-22.99-36.99,7.21,9.51,8.52,21.44,17.5,29.99,1.52-3.2-4.45-6.55-3.01-8.99l1.94,2.06,6.56,13.93ZM315.99,577.01c-1.83-1.32-13.43-5.51-13.98-5.01-1.8,1.64,1.32,2.12,2,2.45,1.75.85,5.29,2.55,6.96,3.08,1.02.32,5.04,1.53,5.02-.52ZM846,589.99c-2.62-5.33-1.18-14.77-8-16.98,1.5,2.94-.26,5.9,4,4.99l-1.99.99c-.6,5.68-.39,9.71,5.99,11ZM240.96,578.04c-.34-.34-7.47-.94-8.94-3.04l-2.02,4.99c3.41,0,8.08-.73,10,3-5.67-.69-10.53-4.94-14,2,6.05-1.87,9.61-.67,14.99,2-.3-1.64.46-8.46-.04-8.95ZM266.99,612c-.2-4.19,9.11-14.8,8.78-17.29-.65-4.85-4.22-4.66-6.28-6.61-4.93-4.68-6.12-14.77-14.49-11.08l5,3c.93,2.77-7.91.08-5,2.98.37.37,7.98,2.47,9.91,3.61,1.47.86,9.07,8.04,9.07,8.91,0,.21-1.58,1.77-1.96,1.5-.03-3.72-12.65-12.77-15.02-10.99.54,4.62,6.15,5.75,7.7,7.29.58.57.57,2.26,1.32,3.16,1.38,1.68,5.12,4.55,3.49,6.53l-13.46-14.51-6.03,2.01c6.32,4.93,13.95,7.46,18.98,14-3.29,1.23-5.79-3.39-8.06-4.94-2.13-1.46-4.7-2.28-6.93-3.56,1.72,5.34,6.29,8.13,10.34,11.15.93.69,3.13,2.02.17,1.84-7.06-3.42-10.72-8.65-15.4-14.64-.71-.9-.94-3.11-1.19-3.29-2.18-1.59-10.12,4.48-.93,1.95.97,3.56-3.35,1.35-4,1.99-.38.37-.9,10,2.02,9.51-.03.99-1.81-.41-2.1,1.93-.72,5.72.46,12.83,1.09,18.58l2.98-3c1,5.2,8.75,5.31,13.01,6.98-2.84-4.51-10.05-8.23-14.99-6.99,0-4.17-1.01-4.57,2.99-3.01.45-1.17-4.97-2.33-2.99-3.99,1.25-1.05,3.27,2.69,4.99,1.99.51-.42-9.62-8.85-4.49-10.98,1.61-.67,3.11-.16,2.48,1.99l-2.97.5c3.35,4.78,8.01,7.81,11.98,12-4.39-1.14,2.13,5.29,2.51,5.49,1.65.85,1.32-.8,1.58-1.38,1.65-3.68,2.33-7.85,4.9-11.12-4.06-3.66-9.12-4.51-13.98-6.49-.51,6.44,7.18,5.36,8.56,6.98.22.25,1.46,6.17,1.44,6.5-.13,3.13-3.17-2.3-3.43-2.53-1.79-1.61-4.02-2.59-5.61-4.44-2.98-3.46-4.13-9.23-7.98-12.51,8.58-3.41,13.78,8.58,21.99,10.99ZM313,585.99c-1.51-2.99-16.38-9.38-17.99-7.98-.39,1.98.93,2.38,2.3,3.19,3.7,2.19,11.45,5.01,15.7,4.79ZM859,580.01c-3.52-.01-7.23-.38-10.61.88-5.62,2.1,1.21,1.46,1.58,1.54,4.31,1.03,5.66,3.52,9.03-2.42ZM870.01,597c1.91-.62,1.95-1.22,1.53-2.99-.5-2.11-3.18-11.93-5.04-11.99-1.41-.04-1.62,2.81-1.27,4.25.61,2.51,3.33,3.52,3.69,4.5.57,1.54.23,4.39,1.09,6.22ZM900,588.01c-4.61.77-13.76-3.26-17.55-2.62-1.89.32-4.01,5.63-5.42,7.12.13,2.17,17.22,4.24,19.97,3.48l-14.75-3.67c-6.38-6.84,6.15-3.49,10.2-3.27,1.61.09,6.86.73,7.54-1.04ZM859.01,586c-1.11,2.88,5.85,16.86,7.49,16.98,2.36.17.57-2.59.32-3.29-1.34-3.85-5.4-10.35-7.81-13.69ZM210.99,600c-3.49-17.93-14.93-11.17-27.99-8.99,5.3,4.76,15.77.62,21.99-1.01l-2.99,5.99c2.57.18,4.97-2.33,6.99.51-6.51.23-12.58,2.03-18.67,4.32-1.04.39-3.46.84-3.32,2.16,4.59.06,9.75-.39,14.25-1.24,3.19-.6,6.1-4.14,9.74-1.75ZM801,601c.2-.3,6.68-1.71,7-1.56,3.97,1.91.31,7.93,1.01,8.55,3.33,2.99,5.81-6.17,6.49-1l3.49-3,.02,5c.83.97,9.47-4.18,7.98-.51-2.92,3.67-9.15,6.03-9-.49-4.19,2.16-10.97,5.54-11.01-2.01l-1.97,1.02c2.76-7.63-2.8-1.7-4-3.01-.1-.11-.1-2.86,0-3-3.57,5.13-16.7,8.9-22.48,14.02-4.79,4.24-8,11.26-12.48,15.52-6.61,6.27-17.63,9.88-23.56,17.44-6.21,7.92-7.31,21.5-5.47,31.02l2.98-1,.02,5.99,1-3.99,2,2.99,1.97-1.98c.06,4.9,2.44,2.98,3.45,3.96,1.53,1.5,3.6,4.81,3.58,7.02l1.48-2.99,5.5,4.99-3.02-9.49,2.02.49,1-3.99c.49,3.75,2.5,7.77,4.52,10.99l.99-2.99c1.29,1.17,3.84,6.97,4.75,7.75.39.33,9.36,3.56,9.76,3.23-3.87-6.95-15.24-9.3-15.5-18.99.45,2.93,4.16,2.9,4.35,3.12.55.63-.22,2.57.37,3.64,1.28,2.33,10.97,6.6,11.35,7.17.44.66-2.08,5.27,3.96,7.05,3.97,1.17-1.72-4.95-.02-5.98,3.19,2.09,1.07,7.42,5.09,7.94,2.53.33.48-2.2,2.4-1.94-.82,5.28,2.3,1.99,5.13,2.53,2.64.5,6.05,5.16,7.37.47,4.26,4.4,8.94,1.85,10.52-3.49-2.88.58-1.75-.42-3.51-2.51l-1.48,1.99c-1.84-3.15-3.76-6.81-3.96-10.62-.48-9.46,4.12-19.09,4.89-26.93.24-2.4-2.98-6.25,2.05-6.43-1.7,3.23.71,7.77,3.31,9.69.28.21,5.96,3.17,6.31,3.23,2.78.46,2.58-4.18,2.4-5.92l5.99,3.99c.22-.23-1.77-5.8-2.03-5.99-.44-.32-8.13,3.82-2.99-5.52l-4.97-1.99c4.69-1.43-.39-1.55,0-1.99,3.19-3.55,2.61-.5,3.35.08.95.74,2.78,1.58,3.19,2.41.71,1.4-1.64,4.91,2.44,6.01.02-2.08-.02-4.69-.8-6.61-1.13-2.8-1.54-.58-2.72-5.86-.25-1.09-1.39-1.98-1.41-3.01-.02-1.44,4.08-13.44,5.45-13.5,2.19-.09,1.31,11.74,2.49,13.98-3.5-1.4-3.19-4.76-3-7.99-2.57.91-.33,6.46-3.98,6.01v.97c3.1-.49,1.57,2.44,2.24,4.23.96,2.57,2.47,5.29,3.22,7.81.93,3.12.39,6.41,2.04,8.97,3.24-7.02-1.72-11.79-.5-19,5.12-1.02,1.58,2.59,1.25,6.72-.17,2.06.81,2.29,1.74,1.29.55-.59,3.98-14.52,5.51-15.02.48-.16,2.57-.35,2.51.58l-1.01,7.44,3.99.49c-4.61,1.94-2.68,6.25-3,6.49-.25.19-1.52-.25-2.17.07-.82.4-1.22,3.52-2.82,1.94-1.03-1.02,2.97-4.4,3.02-4.69.16-.91-.37-6.09-2.01-6.3-.04,4.34-6.53,14.13.98,14-.29,2-2.55-.1-2,3.49.13.86,2.07.7,2.5.5,3.17-1.44,1.13-6.98,1.63-7.81.4-.66,6.58-3.31,7.86-4.19,1.32,5.49-5.65,8.01-4.5,12.99l5.51-2.98c-1.72,2.41-4.04,4.73-3.99,7.99,5.67-2.55,4.22-6.53,5.67-10.82,1.69-4.99,4.65-7.25,2.33-13.17,2.77-.41,1.88.47,2,2.47.25,4.13.44,8.41,0,12.52,4.24.73.29-7.34,2-8.99,6.28,2.54,3.13-1.03,4-2,2.08-2.34,3.1,5.98,4.99,6.51l-1.99,1.48h6c.45-.43-.26-8.27-1.02-8.99-3.5-3.34.23,7.71-2.98,7,.81-4.32-2.12-7.11-3.02-10.99-1.71-.44-.6,1.57-1.08,1.93-.77.58-.79-1.35-2.92.35-3.24,2.58-2.41-3.26-1.98-5.28,3.02,2.68,2.91,1.72,5.49-.98,3.14,4.57.9,5.69,6.49,2.99l.02,3.99c1.82.4.63-1.69,1-2,.35-.29,1.96,1.25,1.97,1.5,0,.15-1.46.91-1.51,2.55-.17,6.31,2.33,8.63,8.52,6.46-5.08-5.15-5.48-13-8.49-19.51-1.42-3.07-3.93-5.54-5.38-8.62-5.54-11.84-12.35-33.99-27.73-36.32-1.16-.18-2.94,1.01-3.26.79-.3-.21-.24-1.86-1.8-2.65-8.02-4.05-21.12,2.93-29.64,3.98-2.67,1.02-2.67,5.36-3.68,6.82ZM418,590.01c-9.16,2.86-17.88,9.67-20.99,18.99l9.5-8.99c.4,3.82-5.57,6.56-7.5,9.5,1.25,1.2,4.7-1.75,5.49-2.51,4.68-4.52,8.24-12.45,13.51-16.98ZM150.99,606c-.25-4.99-.05-12.26-4.98-15,2.62,4.64,1,11.18,4.98,15ZM240.88,592.12c-1.61-1.98-12.42-1.78-11.87,3.88,2.33.17,4.23-1.94,6.52-1.9,1.65.03,4.77,2.69,5.47,1.9.13-.15.18-3.51-.12-3.88ZM134,600.99c-.83-1.1-6.43-9.61-7.99-7.99.62,4.43,3.25,7.93,7.99,7.99ZM143,602.99c-1.22-1.09-5.76-12.11-8-9.98,2.53,3.53,2.72,10.1,8,9.98ZM464,653h28.5c2.47-1.44,18.65-2.09,19.5-3.01.1-.11.09-2.84-.01-2.99-.22-.32-3.97,2.47-3.98.01,3.1-.4,5.27-1.56,5-5.01l1.48,1.99,7.5-4.01.5,3.01c1.66-.68,1.22-3.67,1.52-4,4.37-4.69-1.31,7.63-1,8,9.91-5.49,22.12-5.78,13.83-19.38-3.92-6.43-12.37-13.46-19.16-16.8-7.65-3.77-38.15-16.01-45.64-17.36-19.14-3.46-44.77,2.67-56.05,19.54,3.36,1.35,5.64,1,9,.02l-1.02,1.97,4.53,2.01.98-2.98c7.39,9.91,17.84,12.06,29.28,14.72l15.22,2.26c-2.15-.07-4.44-.79-4.01,2h-.97c.04-4.82-4.55-.27-6.59.01-2.33.32-4.96-1.31-7.42-1.02l4.99-1.98c-8.24-.57-16.52-1.93-24.04-5.47s-11.7-9.28-21.44-8.58c-3.2.23-17.46,5.2-18.3,7.75-1.08,3.27.4,10.77-3.23,11.77l1.52-10.48c-1.59,2.28-6.93,10.07-6.38,12.4.3,1.23,7.12,4.28,8.91,6.06s1.9,3.03,2.99,4.82c.56.92,3.02.54,1.96,3.21-.62,1.54-3.87.64-2.98,3.5l35.54-.95,20.45-2.03c-4.61.79-9.13-.85-13.45-1.05-14.74-.66-21.34-2.57-35.19-4.65-1.11-.17-2.8.97-3.36.67-.11-.06.83-1.45.11-2.51-2.07-3.05-8.56-4.98-7.1-11.48,2.08-.03,1.63,4.64,2,5,.21.2,2.82-1.5,3.99-1,.31.26-1.65,2.61-.91,3.87,1.76,3.01,18.53,7.63,22.53,8,11.36,1.03,15.34-4.15,25.88-5.67l43.49,4.81-4.99,1.98,8.99,1c-8.18-.04-16.34.94-24.43-.93l-8.57,2.94ZM531,611v-14.5c0-.23-2.19-3.5-2.99-3.5.39,8.17-8.01,15.65,1.98,20.99.1-2.39-1.76-4.01-1.82-6.47-.02-.87.54-6.3,1.82-6.53l1.01,9.99ZM374.99,610.99c1.1-1.08-5.06-6.68-5.98-7.51-6.65-5.93-14.74-10.82-24.01-9.48-.52,2.98.79,1.58,2.34,2.1,2.84.95,7.6,2.1,9.92,3.86,4.46,3.39,6.45,12.29,14.74,12.02l-3.99-4.5c1.71-2.25,5.38,5.08,6.99,3.5ZM166.99,615c-.76-6.06,3.82-15.25-.98-20,.99,4.51-2.36,9.45-2.1,13.52.13,2.1,2.26,4.29,2.09,4.47-.32.35-2.42-.78-1.99,1l2.98,1.01ZM240.99,597c-5.92.21-8.03,3.51-10.99,7.99l10.04-.44.95-7.55ZM888.01,605.01c-6-1.58-11.89-1.94-18-3-.41,2.78.47,1.88,2.48,2,5.36.33,10.03.37,15.03,2.98l.49-1.98ZM886,609.99c2.38-2.02-7.93-4.67-8.78-4.8-2.09-.32-7.49-.45-9.21,1.32l17.99,3.48ZM908,616.99c2.51,2.62,5.59-10.48,4.99-11.99-1.32-.14-1.77,2.28-2.16,3.32-1.08,2.86-1.38,5.94-2.83,8.67ZM150,608.01c-5.99-2.92-6.52-2.14-8.99,3.99-.31.11,7.79-6.76,5.98-2.51-.38.9-9.67,7.66-7.98,9.51,4.62-2.57,8.41-6.37,10.99-10.99ZM241,606.01c-6.63-1.28-9.37,5.32-13.99,8.98,3.24-.37,6.62-2.45,9.31-4.18,1.48-.96,5.09-2.68,4.69-4.8ZM900.01,620.99c2.75,3.16,4.33-12.78,4.99-13.99-1.44-.24-1.31,1.69-1.73,2.74-.64,1.62-3.87,10.54-3.26,11.25ZM309.99,608.01c-2.83-.51-1.64.67-2.25,2.19-1.29,3.24-1.83,6.79-3.75,9.79,1.54-.84,8.72-3.05,9.03-3.69.75-1.5,1.34-5.4,1.96-7.3-3.12,1.26-1.75,7.21-5.99,6.99l.99-7.99ZM895.01,624c6.86-1.84,3.1-10.49,3.98-15.99l-4.48,12.91.5,3.08ZM870.81,609.27c-1.79-1.16-5.54.02-3.8,1.72,1.32,1.3,14.29,3.23,17,2-1.17-3.31-4.44-1.1-6.72-1.73-1.37-.38-4.05-3.04-5.21-2.15-.44.34.68,2.3-1.06,1.88.03-.5.1-1.52-.21-1.72ZM243,624.99l-2.99-14.98c.13,4.53-2.76,6.22-6.01,8.5l4.99.98-7.99,5.5h11.99ZM301.3,618.77c-1.25-2.07,1.13-6.66-1.29-7.76l-1,11.99c.14.19,3.59-1.73,3.98-2.51.88-1.74-1.47-1.36-1.69-1.72ZM893,626c.75-1.16-.56-12.42,0-15l-2.77,6.73-1.24,9.76c.58.11,3.9-1.31,4.01-1.49ZM880,615c-4.96.57-9.55-1.06-13.99-3-.04,7.2,2.74,3.5,4.02,4.39,1.62,1.14,1.27,6.19,3.48,7.6.55-1.68.47-7.94,3-7.97,2.32-.03.48,5.97,2.49,5.97l1.02-6.99ZM237,613.01c-1.97.37-12.94,4.78-12.98,5.48-.06,1.05,1.87,3.75,4.03,3.13,1.79-.52,6.83-7.02,8.95-8.61ZM380.99,630c.97-8.42-3.74-15.18-11.99-16.99l7.84,8.65,4.15,8.33ZM883.01,631.99c7.21-.91.08-9.95,1.98-14.99-1.31.48-1.76,5.34-1.87,6.62-.23,2.79-.14,5.58-.12,8.37ZM749,620.99c-2.12-3.44-6.77-3.29-9.99-1.98-.29,1.68,1.47.67,2.65,1.33.41.23.39,1.6.99,1.69,1.64.23,4.31-1.53,6.35-1.04ZM279,624.99c-2.35-3.56-7.09-4.38-11-3.98l6.26,3.18,4.74.8ZM361,656h-14.5c-.41,0-3.48,1.94-3.5,2.99,8.47-2,17.11,1.32,25.26-1.05.87-.25.75-1.92,1.32-1.95,1.6-.08,3.74,1.37,6.83.98,3.69-.47,8.95-4.08,12.59-5.46,1.56-.59,8.9-.75,7.98-2.99-1.1-2.7-18.79-12.18-22.47-13.53-8.54-3.14-16.19-2.68-24.58-4.42-10.01-2.08-19.55-6.03-29.43-8.57l5.85,3.15,1.63,2.86c-3.78-2.91-3.31,1.91-4.49,1.98-.86.05-5.04-8.2-8.5-6.98-1.14,1.1,5.33,5.91,1.5,5.97-1.29.02-3.9-3.82-5.55-3.56s-19.89,11.73-21.5,13.55l-7.98,11.04c8.59,9.09,23.01,9.91,29.02,20.99,1.05-3.48,3.27-2.43,5.43-3.57,1.41-.74,2.43-3.28,3.93-2.25.19.13.09,1.85.66,1.88,4.67.19,6.26-6.52,9.48-5.57l-1.99,2.5c5.05-.65,10.2-2.94,12-7.98-1.05-.77-12.17.58-13.97,1.52-1.61.84-4.27,8.31-6.02,6.47-.78-.82,2.77-6.55,3.98-7.5-3.75-4.52-11.2-2.01-13.98-7.49l17.56,5.93,22.98-.98,10.46,2.04ZM371,624.99c-3.79-4.93-10.11-2.61-14.99-.98l14.99.98ZM876.99,622c-3.78,3.08-2.42,12.52.51,15.98l-.51-15.98ZM905.01,622.01c-.86-.64-2.84,1.18-4.01,1-1.37,1.74,9.39,4.89,11,4.98-.73-2.13-2.93-3.1-5.01-3.01,2.16-3.14.18-1.85-2.47-.96-1.23-.15.81-1.77.49-2.01ZM908,632.99c-1.37-3.15-4.85-4.31-7.05-6.49-1.92-1.9.17-4.22-4.95,0,5.08.47,7.1,5.9,11.99,6.49ZM372.99,629.01c-6.28-2.95-12.06-3.53-18.99-3,.41,1.94,2.01,1.75,3.49,2,3.84.62,8.57,1.08,12.51,1.5,1.05.11,3.2,1.45,2.99-.49ZM298.99,630c.6-.54-.7-2.8-1.55-2.98-2.26-.48-9.29,7.24-11.45,8.98,3.12,1.51,8.43-6.54,9.16-6.8.64-.23,3.18,1.41,3.84.81ZM286.99,688.99c9.3-1.25,24.6-5.01,19.26-17.73-2.03-4.84-18.47-11.18-23.73-15.28-10.34-8.07-12.36-18.01-25.54-23.46s-38.93-5.53-48.52,5.45c-1.16,1.33-10.14,14.66-10.41,15.6-.58,2.04.53,1.16,1.35,1.52,3.89,1.71,8.09,2.83,11.51,5.51,3.78,2.96,3.96,6.15,7.06,8.94,4.54,4.08,13.08,4.46,15.04,10.46l2.98-5.99-1.99,13.99c3.68-.16,4.61-1.41,4-5l1.98.49-.98,3.51c12.69,1.2,24.6-2.26,36.99-4.01l-15.31-9.17c-7.37-2.58-16.78-2.37-23.59-6.41-.41-.25-2.9-1.93-1.59-2.41,6.25,3.06,13.13,4.96,20.03,5.99,2.85.43-.95-3.06,1.94-1.96,5.83,2.21,16.24,12.18,20.28,12.82,1.01.16,19.35-.21,20.36-.38,2.38-.39,5.09-3.62,7.88-3.45-1.24,2.27-7.57,6.37-9.77,6.8s-3.7-1.45-5.79-1.77c-5.05-.78-8.42,2.26-11.43,5.95l8.49-5-1.49,2.51c-.24.82,3.12-.26.99,2.49ZM211,630.01c-8.19,0-6.89,4.87-9.99,9.5s-8.89,4.18-6,10.49c.98,1.03,13.67-19.27,15.99-19.99ZM905,639.99c-2.95-3.14-6.33-8.87-11-8.98,2.88,3.38,6.31,8.32,11,8.98ZM276.99,632c-4.11-3.06-1.57,8.8.51,9.99,3.85-.87.19-9.47-.51-9.99ZM183,638.01c-3.79-2.12-14.25,9.67-12.99,10.99,1.63-.26,15.22-9.1,12.99-10.99ZM194,652.99l-4.53-9-9.47,6.51c4.41,2.36,7.09-1.89,10.99-2.5l-2.99,3.98,5.99,1ZM463,648h-21c1.34,2.24,8.97,2.97,11.55,3.04,6.19.17,14.77-2.78,18.92-2.91,2.93-.09,7.05,2.77,10.53,1.87-1.4-2.18-6.97-2.5-9.62-2.87-7.27-1-16.49-1.76-23.85-2.17-.8-.04-3.67-.29-2.01,1.04l15.49,2.01ZM731.99,664.99c-.53-6.7,4.22-11.74,6.19-17.34.39-1.12,1.05-2.41-.7-2.66-2.12-.3-5.72,3.35-7.49,4.36-.76.43-1.92-.44-1.98-.35-1.24,2.08,1.44,10.12,1,13l1.98-5.99,1,8.99ZM887.99,657c2.51-6.91-3.84-6.89-7.98-11,1.19,4.44,3.28,9.45,7.98,11ZM397,652.01c-3.46-1.69-6.23,2.89-6.62,2.95-.98.14-5.83-1.74-6.38,1.03,4.57-.38,11.5,1.9,12.99-3.98ZM230.99,688c2.06-11.03-8.56-10.38-14.48-15-3.57-2.78-4.11-6.77-7.56-9.44-5.19-4-22-9.04-28.48-8.6-14.14.96-14.98,10.73-23.76,15.24-3.99,2.05-8.26,1.04-11.26,2.74-2.27,1.28-10.37,14.04-10.37,16.56s3.26,6.58,3.42,9.5c5.74-6.09,6.14-14.12,13.37-18.86.69-.45.72-1.94,3.14-1.12-4.71,4.27-7.41,6.47-10,12.5-.3.7,1.59.15,1.96,1.2.77,2.15.12,6.11,1.53,8.29.91-2.27,14.91-16.82,16.5-14.99.8,8.13-4.67,14.67-6.98,21.99,5.33-6,12.26-12.77,20.99-11.99l-13,17.98c5.17-2.27,10.17-5.4,15.73-6.76,1.33-.32,5.36-.3,3.26,1.76-.41.4-8.79,2.57-10.96,3.55-5.46,2.47-12.68,5.27-12.54,12.46,2.09-1.39,6.09-5.21,8.24-5.76,3.21-.83,13.92.21,15.35-.68,1.16-.73.06-2.64.86-4.05,1.86-3.27,10.96-14.32,15.06-12,2.35,1.33-2.47,3.94-.51,5.5,1.49-1.25,4.67-5.77,4.57-7.42-.07-1.12-5.03-1.67-5.06-3.56,5.1,1.09,6.94-1.17,10.99-3-2.44,2.98-2.44,7.22-2.5,10.99,3.03-1.79,3.64-7.34,5.95-9.05,2.63-1.95,6.18-.65,9.02-3.97,1.97-2.31,1.79-4.78,2.61-7.21.4-1.18,2.75-.02.93-4.76,1.06.11,1.86,1.35,2.23,2.26.82,2.02.04,5.27,1.75,5.74ZM814.99,670.99c-1.81,1.45-1.66-7.04-3.98-6.99.77,3.45-1.86,7.34-1.7,10.36.33,6.26,6.56,8.18,5.68,14.64l-6.98-10.99.98,13.99-1-4.99c-3.42,1.54.2,7.69.02,10.99l1.49-5,1.49,5c.43-3.87,4.62-6.78,5-10.59.52-5.25-4.97-10-4.97-15.41,2.82.96,5.24,11.38,6.06,11.94.3.21,5.34-.99,7.27-.59,1.37.28,1.87,2.14,3.66,1.64-5.5-4.35-8.26-10.53.51-4,1.46-2.19-4.33-5-6.01-6.97-3.6,1.86,1.91,6.63-2.49,5.99,1.03-4.05-3.36-5.2-3-9.01,7.5,5.36,3.28-2.25-1.5-2.06-.72.03-.43,1.98-.53,2.05ZM137.99,717.99c3.14-11.85-3.85-25.74-10.98-34.99-.49,7.22-2.09,15.11.27,22.21,1.13,3.4,3.69,3.86,4.75,5.51,1.13,1.76.84,5.55,2.96,6.27-.2-3.56-1.65-6.97-1.97-10.51-.11-1.15-.83-5.48.97-5.48l4,16.99ZM268,686.01c-10.63,2.2-22.79.54-31,8.98,3.99,0,6.89-3.93,10.64-4.66,1.92-.37,6.87.5,9.35-.32l-1.99,1.98h6.99s-3.99-1.98-3.99-1.98l9.99-4ZM219.16,699.27c.53-.29,3.49,1.23,6.3-1.32,1.51-1.37,4.65-6.66,4.54-8.94-1.64-.37-.47,1.14-1.48,1.74-.18.11-1.31-.51-2.52.63-1.33,1.25-3.86,5.35-4.49,5.62-.4.17-.25-5.42-4.49,3.51,2,2.3,1.99-1.15,2.15-1.24ZM163,690.01l-8.97,7.51c-4.76,7.19-9.88,14.68-11.02,23.47,1.88-.84,2.92-4.64,4.99-5.51,3.18-1.34.56,5.7.99,7.51l-1.98-4.99-3.02,15.99c-1.69.27-1.09-2.42-.98-3.48.35-3.27,1.88-6.22,1.98-9.52-8.23,6.22-2.54,13.26-.98,20.99l18.99-51.98ZM145.99,695c-1.59-1.63-5.49,5.53-5.75,6.73-.45,2.07-.26,4.18-.23,6.26,2.1-.87,2.74-5.01,3-6.99,3.86,2.57-1.9,10.5-2.77,14.73-.42,2.06-.26,4.18-.23,6.26l6.77-17.72c.66-1.42-.34-8.81-.79-9.27ZM809.99,709c-21.02,3.7-40.18-11.78-60.99-13.99,1.53,2.41,5.12,3.64,7.64,4.85,14.66,7.05,28.26,11.74,42.27,20.73,2.42,1.55,7.81,6.61,9.6,7.4,3.31,1.46-1.38-8.12-1.38-9.49,0-2.2,3.52-8.65,2.86-9.5ZM173,700.01c-9.78,3.03-15.98,12.31-17.99,21.99,1,1.1,4.29-2.72,4.97-3.52,4.56-5.37,7.72-13.32,13.02-18.46ZM135.99,726c-3.02-9.27-8.03-17.26-15.98-23,3.08,8.97,8.29,17.37,15.98,23ZM122,724.99c-7.2-11.02-18-17.78-31-19.98,4.45,4.03,9,8.01,13.5,11.99,4.85,4.29,9.96,8.42,14.47,13.53,3.75,4.24,7.04,9.01,10.53,13.47.12-11.42-12.01-17.53-18.5-25.5,2.98-1.76,9.39,7.99,10.99,6.5ZM130,723.99c-3.26-5.24-9.04-7.75-13.99-10.99-.65.67,5.37,7.9,6.04,8.45,1.89,1.53,5.49,2.43,7.95,2.54ZM153.01,732c3.96-2.3,6.42-6.49,6.98-11-3.03,2.79-6.26,6.85-6.98,11ZM188,723.99c-.39-2.02-2.13-1.62-3.5-1.98-17.04-4.46-38.5,15.12-39.49,31.99l5.51-8.98.98,3.98c5.75-5.71,9.75-16.08,16.55-20.45,5.07-3.26,14.01-4.79,19.95-4.56ZM116,732.99c-6.83-10.01-22.25-9.13-32.99-7.98l17.52,4.97,8.97,4.03c3.94-.3-1.91-2.64-2.5-2.04-.12-.11,1.09-1.8.99-1.94-.84-1.15-6.58-.1-6.97-2.02,5.96-1.22,9.89,3.21,14.99,4.98ZM142.99,752c.47-7.32-3.08-20-9.64-23.85-2.9-1.7-6.64-1.73-9.34-4.15-.44.53,5.46,10.58,6.18,12.31,2.7,6.44,3.13,17.51,11.81,17.68l-2.5-9.99,3.49,7.99ZM176,728.01c-5.43.53-9.66,4.5-13,8.49-.94,1.12-2.43,1.63-1.99,3.5,2.21-2.87,7.78-2.88,9.7-4.29,1.18-.87,3.42-6.28,5.29-7.7ZM830.95,749.06c-.08-.12-1.68-.27-2.36-1.11-1.06-1.33-10.47-14.93-12.6-12.94,4.26,6.83,8,13.85,9.01,21.98l5.97-6.52c-.04-.5.17-1.12-.03-1.41ZM128,745.99c-.53-1.25-8.28-10.74-8.99-9.99l4.99,6.5-1.99,1.48,5.99,2ZM194,750.99c-5.12-10.98-21.71-16-31.69-9.18-1.29.88-2.75,1.1-2.3,3.19,5.66-4.66,13.78-5.02,20.67-3.14,1.71.47,2.79-.72,2.31,2.13-7.99-3.44-17.7-2.91-23.99,3.51,3.24.12,6.13-1.97,9.61-2.39,3.02-.37,7.81-.43,10.8-.03,5.28.7,9.81,4,14.58,5.91ZM128.09,755.94c.92.65,4.15-1.45,4.89-2.44-12.2-13.65-37.97-15.31-42.97,5.49,1.48.04,1.25-1.81,2.61-2.87,5.94-4.65,15.04-8.47,22.66-6.89,3.01.62,5.48,3.65,8.72,3.76l-5.29-5.2-11.71-2.78c7.08-.78,13.42.89,18.39,6.09,1.21,1.27,2.47,4.68,2.7,4.84ZM170,757.99c-5.94-1.33-10.43-8.27-16.99-4.98l7.92,3.56c3.44,2.76,6.21,6.66,9.59,9.41,1.37,1.12,9.45,7.98,8.28,2.72-.55-2.47-2.56-6.92-3.97-9.04-1.5-2.25-6.57-8.05-8.83-7.17l3.99,5.5ZM123.66,757.33c-5.26-5.95-8.73-4.61-12.65,1.66,4.53,1.56,9.28.94,14,1,.14-.1-.96-2.23-1.34-2.66ZM136,756.01c-10.37-2.61-8.93,22.66-5.99,24.99,1.42-.09,1.54-1.53,2.02-2.47,2.77-5.35,7.3-14.53,8.94-20.07.69-2.34-2.78-1.7-3.98-.97-2.35,1.42-1.73,7.18-3.97,8.51-.65-3.8,1.32-6.84,2.99-9.99ZM170,768.99c-.94-1.96-11.68-11.02-12.51-10.95-.88.08-2.76,5.55-5.48,4.97l17.99,5.98ZM811.01,791.99c0-8.15-.72-17.08-2.51-25.01-.25-1.1,0-3.23-1.49-2.98-1.96,6.85-7.96,15.85-8.82,22.76-.4,3.23.69,11.86,4.8,10.24,1.16-1.17-.2-16.79,2.51-19l-1.5,16.99c.56.7,2.82-3.43,4.48-3,2.29.59-.67,6.08,6.5-1l-.98,6.99,4.51-6.97,4.47-10.02c-1.14-1.18-9.04,6.13-10.04,7.45s-.27,3.65-1.94,3.54ZM781.99,788l-2.49-14-7.5,5.49,9.99,8.5ZM794.01,793c4.74-1.67-1.77-8.95-3.99-11.52-1-1.16-6.84-7.45-8.02-6.47,2.44,8.32,2.96,17.34,7.53,24.96l5.46,5.02c.09-4.05-2.73-8.8-2.93-12.57-.15-2.86,2.63-1.79,1.95.58ZM785.99,799c.75-6.56-24.32-25.18-26.99-22.99,10.73,12.82,15.72,28.72,28.5,39.99.59-2.1-2.45-5.73-3.68-7.33-1.32-1.73-4.85-4.6-5.36-5.72s.52-2.38.25-2.79c-.11-.17-4.36-.61-.47-2.37,2.58-1.17,5.49-.27,7.74,1.21ZM846,784.01c-12.87-.31-22.97,7.29-31,16.5,4.17,1.03.3,2.85,1.49,5.49,2.46-3.18,4.19-7.08,6.99-10.01.76-.8,2.39-3.09,3.51-1.49l-5.82,7.18-9.17,18.32c11.33-12.13,19.97-26.23,33.99-35.99ZM800.99,814.99c-.04-2.45.22-4.94-.1-7.39-.14-1.11-3.07-15.44-5.89-12.59,1.76,4.5,2.23,9.33,3.51,13.98.43,1.55,1,5.46,2.48,6.01ZM778,809.99c-6.29-11.1-19.83-15.06-31.99-13.98l15.95,9.53,12.05,2.47-1.01,1.98h5.01ZM811,798.01c-4.9,1.69-7.48,8.27-6.99,12.99,3.72-3.09,6.04-8.35,6.99-12.99ZM796.99,814.99c-.87-7.98-8.93-15.25-16.99-14.98l10.01,6.48,6.98,8.51ZM805,814.99c1.95,1.9,10.7-10.38,9.99-12.99l-9.99,12.99ZM237.01,807.01l-15.01-4,14.5,20.99c.98-5.61-2.28-11.53.5-16.99ZM267.99,806c-7.27,2.66-12.54,11.38-15.17,18.32s-.59,9.71-.84,16.67c-2.63-1.04.18-9.57-3.98-8.99-.65,5.07,1.97,9.76,4.49,13.97,3.92-2.9,1.72-7.8,2.52-11.3.17-.75,1.79-.6,1.97-1.36.51-2.27-1.27-8.41,3.03-6.81.43,4.4-4.16,9.55.49,12.47,3.85-2.44,1.22-5.92,1.71-8.25.79-3.8,7.85-22.33,5.79-24.72ZM863.99,811.01c-15.18-6.58-33.48-7.66-44.99,5.98l11.99-4.99-9.99,9.5c-.16.75.97.64,1.48.48,3.37-1.06,7.01-3.5,11.3-4.7,9.09-2.55,18.28-2.83,27.47-4.54.92-.17,3-.41,2.74-1.73ZM793.01,821c8.16-2.43-5.07-14.08-6-13l6,13ZM256,812.01l-14-3c2.96,4.06,7.82,7.47,8.01,12.99l5.99-9.99ZM248.99,827c2.05-3.9-9.93-18.67-11.99-16.99,1.29,5.65,2.07,11.37,3.47,17.01.46,1.84,1.7,3.11,2.16,4.67.66,2.26-.76,7.74,3.36,9.31.36-5.16-4.05-9.85-1.98-14.99l2,6.99,1-8.99,1.98,2.99ZM774,814.99c-7.64-1.26-9.42-7.11-17.99-2.98l17.19,6.29c3.97.45,8.49,2.25,12.3,2.71,4.02.48-1.23-2.01-1.31-2.16-.18-.36.84-1.65.33-2.8-2.18-4.9-9.06-4.04-13.53-5.04l3,3.98ZM803.18,829.34c.59-.33,1.61.81,2.71-.87,2.42-3.69,2.99-11.2,5.1-15.47-2.52,4.91-15.15,5.97-15.95,9.57-.34,1.51,4.94,4.3,5.47,6.42l1.49-5.99.02,7.99c1.62.43.69-1.38,1.17-1.66ZM279,818.01c-2.06-.25-8.44-3.23-9.92-1.93-.38.33-2.45,9.41-2.07,9.92l11.99-7.99ZM772.99,820.01c-10.56-4.45-23.71-6.64-34-.51,9.24-.53,18.51,3.05,27.49,3.53,1.1.06,3.78.66,3.52-1.02-2.85-.47-5.76-1.23-8.54-2.01-1.59-.44-2.97,1.08-2.44-2,3.64.72,7.33,1.77,10.94,2.56,1.02.22,3.26,1.33,3.04-.55ZM736.99,817.01c-4.74,1.04-9.73,1.13-14.49,2.02-1.63.31-1.73-.66-1.5,1.96l8.26-.23,7.73-3.76ZM820,819.01c-6.47,2.51-14.17,9.51-13,16.99l-2.01-2.99-1.49,1.99c-5.92-6.81-11.51-11.03-20.74-12.27-1.29-.18-1.98-1.89-1.76.77l6.5,7.51c1.9-5.32,2.76,3.14,4,4l.99-2.99,1.52,3.99c3.82-1.45,1.31-4.89-1.01-6.5,3.43-1.44,4.53,3.73,4,6.5l2.49-3c1.77.7.21,2.58,1.04,3.05,7.4,4.13,9.24-5.01,13.05-9.97,1.95-2.53,4.77-4.31,6.42-7.07ZM291,820.01c-6.21-2.69-24.79,7.29-25.97,12.52-.22.98-.45,3.8.47,4.47,2.09-1.9,3.88-4.14,6.03-5.97,1.27-1.08,4.7-4.36,6.47-3.53l-10.03,8.97-3.96,9.53c8.35-9.36,17.6-17.71,26.99-25.99ZM244.99,845c-3.41-7.2-6.8-15.27-13.66-19.83s-15.69-5.75-23.33-2.15l8.37,2.11,16.13,14.87c3.43-5.03-3.85-7.76-6.5-11.5-.16-.75,1.02-.67,1.48-.48.91.37,12.23,9.73,12.51,10.49s-2.68.73-2.99,2.04c-.41,1.71,3.9,6.24,4.01,8.45,2.92-.52-1.27-5.77-1.01-5.98l4.99,1.99ZM761,825.01c-5.42.32-12.33-2.62-17.52-2.09-2.03.21-3.75.51-3.47,3.07,4.89-1.88,4.81.65,5.74.93,2.41.73,5.3.98,7.78,1.99l7.47-3.91ZM861,839.99c-9.82-9.4-25.91-18.79-39.52-13.01-2.12.9-7.59,3.7-5.98,6.02,4-3.67,11.66-5.51,16.91-4.92l7.59,2.92-9.48-2,.5,2-7-.98,1.99,1.98c-2.59-.87-7.88-1.12-7.99,3,15.18-6.34,27.66,6.77,42.99,5ZM297,839.99c-3.46-21.32-9.42-13.9-19.99-2.49,3.57,1.9,8.05-.57,11.42-.44,3.11.12,5.52,2.68,8.57,2.93ZM779.99,828.01c-13.67-6.08-28.76,3.77-32.99,16.98,5.25-1.99,9.66-5.63,15.04-7.45,6.98-2.36,14.16-3.44,21.4-1.49,1.96.53,8.22,4.28,8.55,3.94,1.63-1.65-1.34-2.15-1.87-2.6-5.71-4.94-13.75-6.41-21.12-6.41l10.99-2.98ZM827.99,874c5.32-7.43-5.64-40.24-14.47-39-4.37.61,5.46,6.66,3.47,9l-6.49-6.98c-3.11,1.51,1.12,3.53.5,3.97-1.03.72-4.85-3.29-6.99-1.98l23.98,34.99ZM783.99,839.01c-13.9-2.82-22.1,9.58-22.98,21.99l19.98-17.5c-2.33-2.18-10.48,5.03-10.99,4.5-.89-.93,2.39-3.8,2.73-3.97,2.24-1.13,4.74-1.83,7.25-2.04l-3.99-1.98,7.99-1ZM240.99,852c.44-1.88-1.04-2.38-1.99-3.5-10.4-12.39-27.18-11.61-37,1.01l12.49-1.49c6.6,2.23,9.89,2.37,15.99,2.45,2.54.03,4.9,1.79,7.52,1.53-2.48-4.12-7.55-5.48-12.01-5l1.01-1.98-8-1.02c-.17-1.78,3.38-1.06,4.47-.97,7.54.62,12.16,4,17.51,8.98ZM304.99,850.02c-4.85-2.35-8.5-6.91-13.7-8.81-11.6-4.23-25.72,1.12-30.29,12.78,6.16.89,6.07-7.14,10.51-7.98,2.11-.4,19.71-1.69,20.48-1.01l-.48,1.98c-6.2-1.47-15.67.13-21.03,4.01l-1.48-1.99c-2.4,3.11,1.65,4.5,4.71,4.78,7.07.65,18.81-3.19,27.81-2.82,2.59.11,3.9,2.53,3.46-.95ZM784.01,864c.72-2.59.78-5.46,1.46-8.03,1.09-4.13,5.47-9.85,2.02-12.96-5.5-1.68-8.48,15.72-8.56,19.48-.04,1.77,1.68,20.14,4.06,18.51,6.57-8.98,8.11-20.27,12.84-29.67.73-1.46,5.91-7.64,5.17-8.32-2.52-2.3-3.89,4.43-5.9,2.85-.52-.4.24-4.54-4.09.65l-7,17.49ZM249.72,856.84c2.95-4.2-13.09-13.7-2.72-.33-4.58,1.35-.62,5.55,2.53,5.47,3.76-.1,4.69-5.64,5.76-6.69,1.41-1.37,5.19-1.68,5.71-6.28-2.7.37-5.71,2.05-5.01,4.99l-2.98-2c2.73,3.83-2.89,8.82-5,7-1.98-1.71,1.64-2.05,1.72-2.16ZM238.64,855.37c-13.17-6.94-27.28,10.52-27.63,22.63,9.08-8.12,20.76-12.41,30.99-19.01-.57-.6-3.08-3.47-3.35-3.62ZM268,860c-1.33-1.09-2.68-2.35-3.99-3.51,5.26-.81,11.12,6.25,11.99,11.5-2.5-1.46-2.82-4.45-4.94-6.6-1.11-1.12-2.65-1.07-3.05-1.4.1.04,1.09,1.93,1,1.99h-5.5c-2.1,1.93.74,1.86,1.48,2.74,2.47,2.96,17.07,22.2,18.52,22.25,2.99.1.73-13.16.22-15.2-3.52-14.25-14.29-22.91-27.7-13.28,2.98,4.65,8.75.25,11.98,1.5ZM245.01,870c.46-4.37,1.07-6.8-2.51-9.99-5.06,7.38-.6,17.62,5.49,22.99.08-4.05,10.27-19.38,8.01-21.99-2.33-.38-2.78,2.14-4.73,2.79-1.26.43-3.55-.14-4.15.32-.79.61-.03,5.71-2.11,5.88ZM236.01,876.99l.98-11.99c-7.97,6.18-10.12,18.52-7.98,28,2.3-1.71,12.36-8.72,12.86-10.71.66-2.62-3.43-6.18-2.88-9.28l-2.98,3.99ZM263.99,876l-5.98-9c-5.76,9.9,3.71,17.48,10.98,23,0-7.29,3.22-13.47-3.5-18.99l1.49,8.99-2-5.99-1,2Z"/>
      <path d="M505,550c1.49,1.57,2.57,4.27,4.99,4-.27-4.07,3.77-9.37,5-3l-2.98-1.01c-.02,2.04-.99,3.96-1.01,6.01-1.57-.77-3.63-.57-5.08-2.45-1.16-1.5-.59-2.49-.92-3.55Z"/>
      <path d="M186,633c-1.16-6.15,5.19-11.69,6.33-16.19.37-1.47-.49-3.11-.17-4.12,1.14-3.55,9.87-3.48,11.87-5.19,1.49-1.28.24-5.14,2.96-3.01l-.98,2.51,6.99,1c-4.58.64-9.55,1.28-14.01,2.5-1.3.36-4.79.95-4.98,2.5,7.4,1.16,13.77-2.45,20.99-1.99-2.27,2.23-5.21,1.34-6.5,5-.81.43-.14-1.85-1.12-2.06-.51-.11-10,.7-10.37,1.07-.32.32-.58,7.52-1,8.99,7.24-3.38,12.23-8.81,20.99-8-5.16,3.55-11.87,3.39-16.51,7.99-1.45,1.77,2.09.92,2.77.76,2.26-.53,4.3-1.98,6.74-1.75-3.55,5.11-9.94,2.98-14.95,2l-5.05,12.99c.04-7.57,5.57-14.19,4.99-22l-5.19,8.29c-1.18,1.93-1.23,4.18-1.79,6.25-.44,1.62,1.07,2.94-2.01,2.45Z"/>
      <path d="M512,582l-3.5-11c-1.57-2.77-3.81-7.27-7.24-7.86-1.92-.33-4.63,1.11-5.12.77-.31-.22-4.93-5.95-1.62-5.95,5.13-.01,7.8,3.13,11.47,6.04.55-.71-3.38-10.54-4.09-12.22-.42-1-1.3-3.49-1.41-3.69-1.23-2.33-4.22-7.66-7.48-6.59,1.46,3.43,3.45,5.02,5.99,7.5-.39-.65-13.67-3.68-10,0,1.52,1.52,13.18,1.93,11.99,9.01-2.16-1.11-2.38-3.45-4.61-4.88-1.53-.98-10.02-3.72-10.33-4.18-2.72-3.98,5.49-4.71,7.95-2.95-1.91-4.74-6.02-12.44-10.62-14.87-3.33-1.76-7.66-.75-10.36-3.62,2.69-3.94,6.13-2.32,9.93-1.93.84.09,3.02,1.18,2.05-1.06-.5-1.15-6.77-6.79-8.25-7.76-7.87-5.16-15.69-5.67-24.75-3.76,2.6-4.66,8.45-6.38,13.48-6.02,3.66.27,22,6.21,24.48,8.57,3.78,3.59,1.14,2.39,6.36,5.54,4.24,2.56,6.3,8.14,5.69,12.92,6.4-3.29,4.68,3.26,6.28,5.73,1.17,1.8,4.26,1.91,2.7,7.27l-.99-4-2.98,3c-.71-2.45-.44-11.1-2.52-11.99-1.57,1.28-.37,4.83-3.49,3.99.37-4.88-.22-12.9-5.27-15.25-1.43-.66-4.02-.48-4.55-.93-1.01-.85-.19-6.77-3.17-4.34v4.51c.04-7.32-5.49-9.94-12.01-9.98-.07,1.52,1.91,1.24,3.01,2.47,3.47,3.84,6.02,9.42,9.97,13.04.19,2.6-.39,1.06-1.72.72-2.02-.52-3.99-1.56-6.01-2-1.01-.22-3.51-1.01-3.25.76,7.79.05,11.93,11.35,17.51,13,4.2,1.24-3.11-7.51-3.58-8.43s-1.84-2.84-.45-3.56c3.74,5.26,7.11,10.79,10.53,16.25,1.77,2.83,1.53,1.16,2.97,5.75-.39-.41-3.28-4.97-2.98-1.52l10,28.54,1.98-1.01-1.99,6Z"/>
      <path d="M293,572c-.04.66.02,1.34,0,2-4.69-4.49-5.5-12.01-10.99-16-.09,7.56,6.43,13.34,5.99,21l-7.55-16.94.04-7.08c1.21-1.65,1.48-.44,2.54.5,3.5,3.11,9.05,16.25,9.98,16.52Z"/>
      <path d="M175,559c-.57.68-3.53,1.47-1.99,3,.38.38,3.02-.95,3.99-1-.21.26.63,1.77-.59,2.05-1.96.46-5.2-.41-7.41-.06-.16-3.79,3.82-3.32,5.99-3.99Z"/>
      <path d="M485,565c-8.82-3.83-17.79-5.84-26.99-1.99l9.59-.08c1.26-.21,1.66.5,2.4,1.07-.22-.24-5.35-.12-6.44.06-1.21.2-9.48,4.85-8.54,1.46,2.29-8.33,21.85-6.65,27.75-3.78,2.46,1.2,1.68,2.54,2.23,3.25Z"/>
      <path d="M311,558l-2.02-2.43-1.97-8.56v14c-3.59-5.31-1.95-13.05-1-19,4.85,3.6,3.64,10.79,4.99,16Z"/>
      <path d="M470,564c1.35,1.04,1.92,2.33,2.01,4l1.99-5c3.86,1.95,9.07,2.74,12.51,5.99l1.48-.48c-1.29-.95-2.05-2.28-3-3.5,5.9,2.56,9.23,5.77,13,11,1.79,2.49,4.57,5.97,5,9-3.62-2.36-6.64-9.41-8.71-11.06-2.19-1.75-10-4.98-11.29-.95l9.99,2.51c-2.47,2.35-11.6,3.87-12.07-1.02-.29-3.05,3.44-4.24,2.59-5.48-1.28-1.04-5.84-2.92-7.07-2.91-.58,0-.91,4.2-4.85,2.84-2.32-.8-1.33-4.64-1.59-4.92Z"/>
      <path d="M408.5,770c-1.14.06-6.56,2.89-7.49.01,10.19-3.78,21.36-.78,31.52-1.99,6.2-.74,14.1-11.59,22.48-11.03-6.15-8.56,4.11-11.93,11.43-11.91.84,0,3.78.49,3.56,1.91-3.19-.55-15.17.48-13.89,5.35.68,2.59,8.89,4.65,11.4,4.66,13.58.03,23-17.43,30.49-26.52.62-2.74-4.92-2.59-6.79-3.18-6.63-2.11-12.96-4.91-19.56-7.03-10.15,6.82-27.95,7.95-35.47,17.41-4.56,5.74-6.83,16.43-16.17,15.33l.5-8c-19.25,22.9-22.45-5.73-4.21-16.21,4.14-2.38,9.79-3.66,14.03-5.97,10.21-5.56,21.57-16.11,32.41-19.59,11.85-3.81,54.64,3.2,65.94,9.6,1.99,1.13,10.86,8.56,12.33,7.16-3.92-9.68-8.52-16.6-3.74-27.24,7.5-16.68,36.62-18.96,42.26-1.78,2.54,7.73,2.55,38.55-6.45,41.58-4.47,1.5-8.83-1.98-11.07,1.43,15.56,3.63,27.89,10.42,44.53,9.05,17.88-1.48,46.28-13.01,62.51-8.58,3.41.93,12.3,4.43,7.98,9.06-2.85,3.05-8.34-.26-12.02.49,3.67,11.08-18.73,3.97-25.45,5.06-9.81,1.58-21.95,9.58-34.18,10.81-12.83,1.3-22.91-2.29-34.89-2.86-13.43-.65-14.11,5.59-24.47,11.5-8.83,5.04-20.25,9.65-30.01,12.49,0,1.75,4.38,1.1,5.53,1.03,9.39-.6,19.28-3.46,27.95-7.05,1.26.81-1.84,2.35-2.35,2.65-12.38,7.28-25.15,5.51-38.38,7.62-26.4,4.2-50.08,19.12-76.51,25.49-2.44.59-5.05-.04-7.51.49-10.3,2.22-15.5,6.98-27.55,4.08-6.89-1.66-10.24-8.19-16.91-11.09-14.64-6.36-33.22-9.88-48.49-4.93-4.32,1.4-20.13,11.17-18.62,1.43.85-5.45,11.05-10.34,14.76-13.29,2.67-2.12,11.05-10.42,13.04-11.02,5.6-1.7,10.59,4.65,15.79,6.33.37.12,7.21,1.99,6.23-.23-11.18-11.72-22.03-23.82-39.66-24.43-4.33-.15-11.02,2.78-14.26-1.69-3.82-5.28,6.28-9.46,10.15-10.67,5.25-1.63,20.1-4.42,25.44-4.66,10.61-.47,8.67,10.2,14.29,15.49,5.17,4.87,18.37,10.06,24.97,15.03,1.59,1.19,4.35,3.44,5.73,4.77,2.74,2.63,9.97,13.44,12.9,13.7,4.82.43,22.43-16.32,28.44-18.06.4-1.06-3.29-1.99-3.49-1.99-6.25,0-12.79-.33-19,0ZM576.01,694.99c-4.57.55-13.19-1.53-16.57,1.94-3.17,3.26-.52,13.77-6.87,13.09-1.77-.19-3.27-2.66-5.56-2.02,4.79,32.26-19,6.92-31.77,4.26-11.64-2.43-40.78-7.7-51.05-4.58-9.42,2.86-22.53,14.05-31.86,19.14-9.94,5.43-23.68,6.6-23.32,22.17,2.88-2.39,13.46-12.44,16.99-10.57,1.67.88,1.26,3.52,2.98,3.56,4.14-14.27,14.5-14.8,26.26-19.24,4.1-1.55,11.17-5.69,14.52-6.49,6.46-1.53,13.62,3.75,19.69,5.77,6.95,2.32,20.28,2.72,21.51,11.54,1.15,8.27-5.67,18.36,4.03,26.41-8.95-1.09-9.28-9.18-9.04-16.53.16-4.89,3.81-12.11-3.39-13.51-4.82,10.34-12.3,18.86-20.55,26.55,22.37,12.09,47,7.39,69.98-.49l-7.78,4.7c-20.21,9.47-34.96,8.56-55.97,2.55-5.78-1.65-11.81-6.67-17.58-2.35-2.7,2.02.13,13.11,2.95,14.98,3.75,2.49,26.72,5.34,31.94,5.15,9.35-.34,31.41-10.13,39.76-15.24,5.91-3.62,12.91-11.44,19.44-12.56,10.41-1.8,24.51,3.21,35.75,2.75,14.48-.6,26.39-9.26,38.1-10.9,6.54-.92,12.93.98,19.41.9.14-1.91-3.43-.64-3.99-2.5-1.8-5.98,9.85-3.54,12.46-3.44,1.11.04,3.8.62,3.53-1.04-13.17-4.25-23.29,1.32-35.77,3.72-15.14,2.91-31.03,6.89-46.28,3.83-8.27-1.66-19.23-8.37-26.51-8.6-5.48-.17-5.18,4.23-8.94,7.03-3.41.09,1.38-7.96,2.06-8.92.79-1.11,5.82-5.51,5.44-6.04-3.53-.94-10.09-7.39-8.89-11.35,1.55-5.1,3.36.76,4.02,1.67,3.76,5.28,15.19,13.47,18.95,4.24,4.2-10.3,1.6-18.89,1.92-29.59ZM314,754h15.5c8.09,0,21.17,9.51,27.03,14.97,2.16,2.02,12.02,14.03,12.97,14.03h17c.19,0,1.83,2.09,2.49.51-9.33-14.01-28.32-15.52-37.18-29.82-1.45-2.34-1.83-6.69-4.52-7.51-1.14-.35-20.95,2.51-23.56,3.07-2.91.62-8.16,2.14-9.74,4.76ZM466.01,760.99c-5.03-.36-9.18.06-13.96,1.55-1.29.4-13.24,5.56-11.04,7.45l26.99,6c-1.07-4.94-2.53-9.85-1.99-15ZM479,789.99c-2.77-2.36-7.61-9.82-10.26-11.23-7.35-3.92-22.88-4.34-31.23-6.76-8.61,4-25.54,21.87-34.1,22.97-5.77.75-5.79-2.93-9.48-5.4-6.01-4.04-13.95-3.65-20.93-3.56-.45,1.73.72,2,1.49,3,3.63,4.73,15.86,17.83,20.81,20.19,7.05,3.37,14.14,1.82,21.23-.16,6.55-1.83,46.51-21.79,48.46-20.03l-2.05,3.44-19.43,10.58c12.45-2.58,23.16-10.02,35.48-13.03ZM376,797.99c-2.57-2.14-6.51-9.34-9.02-10.47-2.75-1.23-7.44-.23-11.04-.96s-12.05-6.65-13.3-6.41c-1.34.26-6.29,6.37-8.17,7.83-4.96,3.84-12.24,6.09-15.49,11.51,8.01-2.8,15.77-6.99,24.47-7.52,11.25-.68,21.87,3.43,32.54,6.02ZM497,783.01c-7.52.66-14.57-2.54-22-3,1.68,2.07,6.16,7.76,8.53,8.01,2,.21,11.79-3.08,13.47-5.01Z"/>
      <path d="M800,127.01c-8.57,6.24-18.09,11.33-26.01,18.48-63,56.75-63.36,155.44-75.13,232.87-6.18,40.67-25.53,71.61-32.57,110.43s-3.06,81.93-9.58,120.43c-.18,1.06-.26,3.97-1.71,3.77l3-86.48c2.26-25.21,5.68-49.08,13.97-73.03,5.3-15.32,13.48-29.86,17.53-45.47,12.73-49.02,11.52-104.37,23.98-155.02,12.08-49.11,38.73-103.72,86.51-125.98Z"/>
      <path d="M644.99,402.01c-6.24,43.99-10.91,88.37-18.3,132.19-6.73,39.89-16.56,102.5-53.38,125.62-5.01,3.15-11.29,7.06-17.31,7.18,3.72-3.67,8.89-5.18,13.31-8.18,38.41-25.97,47.52-89.56,54.53-132.47,6.42-39.32,9.31-80.85,17.32-119.7.62-2.99.03-5.53,3.84-4.64Z"/>
      <path d="M771.99,127c.6,2.72-.83,1.7-1.99,2.47-78.79,52.15-94.98,129.04-113.07,216.97l-2.93,6.55c8.95-69.48,30.82-158.04,85.46-206.02,8.89-7.81,21.14-17.01,32.52-19.97Z"/>
      <path d="M693.99,485.01c-3.46,31.89-9.14,63.48-11.99,95.5-2.94,33.05-8.38,93.36,13.48,120.51,4.67,5.8,11.02,9.17,16.51,13.98-10.67-.88-20.56-12.08-25.53-20.96-21.25-37.89-7.55-135.77-.17-179.24,1.33-7.86,3.11-20.45,5.44-27.61.54-1.68-.45-2.64,2.27-2.18Z"/>
      <path d="M721.99,698c-12.8-9.55-18.76-27.45-21.67-42.82-6.78-35.74-1.41-82.2,2.7-118.67,5.59-49.56,15.06-98.8,19.48-148.53.81,0,.59,11.01.49,12.5-2.47,38.11-9.62,76.2-13.87,114.13-5.15,46-18.73,128.56,3.36,169.39l9.51,13.98Z"/>
      <path d="M541.5,818c5.37-.55,17.55-4.05,22.21-6.79,9.21-5.43,4.79-12.99,21.51-17.49,30.61-8.24,116.95-4.1,134.21-35.79,7.72-14.16-5.39-24.3-17.08-29.79l-30.84-11.16c13.62,1.75,28.11,5.91,39.81,13.19,19.87,12.37,16.61,28.94-1.6,41.05-21,13.96-52.52,18.04-77.23,20.77-12.51,1.38-50.05,1.13-58.19,10.31-1.17,1.32-1.54,3.93-2.87,5.64-7.96,10.23-22.13,10.57-33.92,12.14l-11.52-2.08c5-.36,10.58.5,15.5,0Z"/>
      <path d="M595,544.01c-1.82,14.03-3.23,28.2-6.49,42-11.22,47.54-33.96,81.62-84.31,91.69-32.53,6.51-65.16-4.96-97.2,5.29,1.37-1.96,5.71-2.82,8-3.49,39.4-11.44,74.44,6.77,116.87-15.13,48.7-25.13,49.8-71.61,61.1-117.95.41-1.7-.99-2.92,2.02-2.42Z"/>
      <path d="M471.99,665.01l-14.51,1.98c-30,1.33-61.07,2-90.86,6.14-10.57,1.47-28.49,3.77-36.95,10.05-8.05,5.97-6.72,12.78-18.42,17.58-27.17,11.15-65.41,3.78-92.94,18.06l-21.32,11.17c15.34-14.38,39.01-20.92,59.63-23.86,14.8-2.11,48.19-2.56,59.39-11.61,4.89-3.95,6.82-10.49,12.65-14.35,14.76-9.8,63.01-13.04,81.84-14.16,20.48-1.21,40.96-1.13,61.48-1Z"/>
      <path d="M823,123.01l-15.92,7.57c-49.51,29.98-64.47,105.21-72.79,158.21-3.16,20.12-4.57,40.45-7.42,60.58-.18,1.27-.41,5.44-1.87,5.62,3.93-45.1,7.38-91.49,20.49-134.99,9.93-32.96,24.48-64.38,52.58-85.42,6.88-5.15,16.16-11.4,24.91-11.58Z"/>
      <path d="M615.01,664c2.87-6.79,7.33-12.5,10.01-19.48,16.9-43.94,14.65-104.04,19.98-151.02,4.11-36.17,11.67-71.85,18.46-107.54l13.53-52.96c-9.33,45.36-20.39,90.63-26.86,136.62-6.65,47.24-5.76,95.82-14.42,142.58-3.27,17.66-8.68,38.28-20.7,51.79Z"/>
      <path d="M271,781.01c.07.08.36,2.11-.48,1.97-15.33-2.54-56.03-19.37-40.52-40.48,17.07-23.23,70.69-27.19,97.2-32.8,3.89-.82,14.51-3.11,16.31-6.7,1.5-2.99-.96-4.58-.02-7,7.53,9.4-7.04,13.9-14.31,15.68-24.07,5.88-82.63,11.77-97.19,32.81-9.47,13.69,11.43,25.63,21.64,30.36,2.97,1.37,16.73,5.48,17.36,6.15Z"/>
      <path d="M660.99,815.01l-21.8,4.69c-5.69,2.06-14.33,6.16-15,13.04-.31,3.18,2.76,8.04,2.84,11.81.35,16.88-31.2,23.8-43.85,26.14-34.6,6.41-72.25,6.55-107.18,3.31-.23-1.75,2.27-.94,3.48-.99,19.28-.8,38.77.82,58.05.04,13.42-.54,27.33-2.12,40.64-4.36,11.73-1.97,38.8-6.9,44.69-18.31,3.44-6.66-1.78-12.15-.82-18.8,1.88-12.93,28.26-17.22,38.94-16.56Z"/>
      <path d="M171,819c1.58.28,9.81,4.09,11.33,5.17,10.34,7.3,4.46,24.75,10.68,34.82l2.98-2.99c.06,1.97.16,8.88-1.01,9.99-2.56,2.42-2.44-6.35-3.08-6.89-.69-.59-5.21.31-7.21-.29-1.4-.43-2.31-2.48-3.19-2.55s-2.06,1.69-3.59,1.33c-2.27-.54-2.66-3.38-3.62-3.6-3.06-.71-6.94,1.51-9.29-2.49h8.99s-4.5-5.49-4.5-5.49l-.5,1.99-8.99-10.5c6.94-.02,12.06,8.72,15.84,14.19.61.88,2.94,6.86,4.05,1.71.31-1.42-8.84-26.41-9.91-27.39-2.26-2.07-2.31,6.21-5.98,4.99-.24-2.16,1.86-3.02,2.51-4.98.76-2.27,2.57-10.04.51-11.61-.87-.66-13.14-.54-15.02.6l4.48,3-17.48-5.01c4.6-1.05,8.91.13,13.54.03,2.64-.06,5.1-1.06,7.95-1.13,2.22-.06,5.17,1.5,6.87,1.17.46-.09,3.06-5.82,5.6-7.62s5.33-1.73,6.76-2.76c1.35-.98,2.09-5.8,3.74-.7,5.07-2.64,11.84-2.75,17.54-2.99-.01,1.6-3.12,1.78-4.37,2.12-6.78,1.85-14.36.89-19.96,4.03-5.84,3.27-8.94,7.55-5.67,13.84-.61-.11-1.35.05-1.99,0-1.46,5.93,1.77,5.6,3.88,9.62,2.94,5.61,4.94,13.15,6.13,19.37l.48-8.99c5.97,5-2.29,17.8,8.5,16.99-5.99-9.84,4.28-23.55-6.66-30.83-2.19-1.46-9.42-3.44-10.16-4.37-.47-.6-.04-1.51-.18-1.79Z"/>
      <path d="M514.99,855.01l-16.45,2.03c-43.63.18-90.76-2.1-132.06-17.02-11.24-4.06-40.2-16.19-25.49-31.02-1.02,4.07-3.74,5.02-2.25,9.7,4.39,13.78,41.38,22.81,54.25,25.82,39.96,9.33,80.98,11.68,122.01,10.5Z"/>
      <path d="M687.99,463.99c-1.82.25-.83-2.09-.56-3.05,1.48-5.19,4.17-10.77,5.84-16.17,14.51-47.23,19.04-97.16,24.9-146.1l8.82-45.66c-12.51,70.37-12.35,143.89-39,210.99Z"/>
      <path d="M758,128.99c-.1.1-1.87.05-2.86.6-42.29,23.71-67.02,70.16-84.16,113.89l-18.97,65.51c6.7-40.46,20.95-82.34,41.82-117.67,15.1-25.57,36.21-51.77,63.69-64.31.85-.14.56,1.9.48,1.97Z"/>
      <path d="M313.99,831.99l-2.93-10.55c-3.8-9.8-12.45-13.36-21.84-16.16-13.56-4.04-28.57-5.86-42.21-9.79-15.93-4.59-36.18-13.03-47.01-25.99-.94-1.12-2.43-1.62-1.99-3.5,10.95,10.05,22.67,17.67,36.74,22.75,16.26,5.86,33.89,7.69,50.46,12.54,16.37,4.78,30.81,10.44,28.77,30.71Z"/>
      <path d="M751.01,866.99c2.78-.45-1.28-6.98,2.99-5.99-1.83,5.12.43,8.84-4.99,11.99l.98-13.99-3.53,2.02.03,15.97c.99-1.6,8.22-3.65,8.51-4.02.17-.22-1.19-3.18-1.04-5.41.23-3.28,1.49-7.24,2.05-10.55,1.77-.04,1.1,4.41.98,5.48-.38,3.26-1.86,6.21-1.98,9.5,2.24,2.18,13.96-9.02,16.51-9.98,1.6-.61,2.1.71,1.01,2.01-7.79,9.22-38.02,24.05-50.03,24.96-12.83.97-26.73-5.46-39.48-6.99-.24-1.74,2.27-.93,3.48-.98,20.98-.85,29.5,11.05,53.2-.82,7.7-3.86,5.74-9.29,6.31-17.18-3.33.77-4.95,10.45-6.49,5l-7.01,5.99-.49-1.48c6.29-5.59,13.57-11.55,18-18.51l1,12.99Z"/>
      <path d="M839,124.01l-18.35,7.13c-32.95,15.4-48.99,49.44-61.35,81.65l-11.28,37.2c10.36-50.33,33.26-115.92,90.98-125.98Z"/>
      <path d="M588,778l8.51-1.99c12.28-.16,26.94.78,37.44-6.5.26-2.47-12.91-7.19,1.83-11.23,11.09-3.04,49.09-1.56,53.69-12.3,1.78-4.15-.47-5.45-1.46-8.98,7.01,4.08,3.71,12.01-2.09,15.42-9.69,5.7-52.3,6.02-54.92,9.59-.41,2.91,4.3,4.48,4.89,6.69.88,3.33-3.72,4.71-6.11,5.58-2.51.91-14.14,3.72-16.28,3.72h-25.5Z"/>
      <path d="M900,753.01c-5.09,6.48-12.26,10.43-16,17.98,10.11,2.25,17.97,11.6,23,20l-15.06-13.43c-8.64-6.04-11.85-3.2-20.27-3.64-6.82-.36-15.05-4.21-20.29-4.59s-10.48,2.73-15.37,3.66c2.89-3.93,10.87-6.37,15.51-6.99,2.6-.34.77,1.11.48,1.99,8.56-.21,20.79,5.78,29.35,2.85.92-.31,4.93-7.64,7.13-9.87,2.65-2.68,7.93-7.09,11.53-7.96Z"/>
      <path d="M774,135.01c-25.4,18.36-43.4,43.87-56.17,72.32l-17.82,49.67c-.12-4.42,1.53-8.61,2.72-12.76,10.58-36.69,29.26-76.12,58.8-101.2,3.38-2.87,8.31-6.76,12.47-8.02Z"/>
      <path d="M339,722.01c.25,1.49-1.88,1.24-2.98,1.49-18.72,4.24-36.66,4.99-54.37,13.64-12.04,5.88-21.8,12.91-6.97,23.69l13.32,7.16c-9.94-1.69-28.62-11.63-20-23.5,11.33-15.61,52.8-20.73,71-22.48Z"/>
      <path d="M389,745.01c-1.31,2.96-7.94,3.21-6.89,7.29,2.05,7.96,31.66,8.27,38.37,7.69,6.12-.53,15.81-2.26,20.02-6.98,1.6,2.65-4.48,5.24-6.82,6.18-12.5,5.03-39.91,5.55-51.42-1.96-7.32-4.77.04-12.88,6.73-12.22Z"/>
      <path d="M614,727.99c6.24,1.25,11.91-8.54,17.49-8.05,5.99.53-.58,5.15-1.5,6.55-3.04,4.63,6.06-.21,7.57-.44,3.58-.54,7.76.23,11.43-.05l-10.25,1.23c-10.05,4.44-15.84,3.67-5.75-5.75-4.05-2.38-16.4,12.26-19.54,7.55-5.39-8.07,17.11-19.5,18.53-24.57.56-1.99-1.07-1.69-2.44-1.44-14.18,2.56-23.91,35.51-43.54,29.95l8.02-1.46c11.31-2.76,26.02-30.56,36.49-30.6,12.71-.05-9.56,15.7-10.91,17.18-1.05,1.15-6.68,8.91-5.6,9.89Z"/>
      <path d="M730.01,780.99l24.93-12.56c23.35-18.73.64-30.18-16.2-38.67-1.18-.59-3.23-1.75-.26-1.75,11.77,4.99,31.04,13.64,28.47,29.43-1.86,11.44-26.56,21.81-36.94,23.54Z"/>
      <path d="M174,626.01l-11,12.98c1.59,1.44,10.61-9.96,11.02-11.99.39-.27,1.96,1.29,1.96,1.5,0,1.12-13.61,14.09-15.98,15.49,7.57-1.4,12.58-7.61,17.5-12.99,1.15.33.41,2.2-.02,2.98-1.91,3.41-14.16,12.86-17.96,12.02-2.03-.45-.32-3.25-.73-3.77s-2.61.33-1.79-2.22c6.69-2.42,9.98-12.88,16.99-14.01Z"/>
      <path d="M662.5,904c2.84-.57,6.24-4.84,8.79-6.21,3.03-1.63,8.26-2.9,11.71-3.8.26-.28-1.39-5.62-1.81-6.69-.75-1.93-2.6-3.48-2.69-5.31,4.86,1.53,6.66,7.8,5.29,12.32-1.18,3.89-8.49,4-11.52,5.47s-5.18,5.48-8.83,6.17c-6.54,1.23-15.01-2.24-21.96-.95l-3.49-1c7.17-.99,17.82,1.34,24.5,0Z"/>
      <path d="M389.99,712l-10.46-11.02c-2.83-1.64-11.18-8.28-6.59-11.54,7.23-5.13,19.18,16.2,17.05,22.56ZM386.99,705c.33-3.49-9.26-17.68-12.99-13.99-3.02,2.99,11.21,11.81,12.99,13.99Z"/>
      <path d="M151.01,831.01c1.66-.42.41,1.71,1.66,2.02,1.14.28,3.29-.57,3.34.47l-5,2.49c2.31.03,6.42,1.17,6.49,4.02l-31.5-8.51,6.01-.51-2.99-7.99c4.16,2.62,3.52,6.89,8.43,9.06,3.1,1.37,15.11,5.21,13.57-1.05Z"/>
      <path d="M267.99,557c.25,1.5-.11,2.35-.93,3.56-.71,1.05-21.15,13.33-22.05,12.44-1.75-1.73,1.42-2.1,1.98-2.47,4.52-2.99,9.58-4.88,13.99-8.03-1.57-2.2-1.83-1.26-3.67-.71-4.67,1.41-9.48,3.48-12.81,7.2-1.6-1.39,1.6-3.74,2.57-4.43,2.45-1.74,19.76-8.88,20.93-7.56Z"/>
      <path d="M902,708.01c-.58,1.76-3.98,2.58-5.57,2.93-2.99.65,1.16-2.82-1.91-1.92-4.12,1.21-17,6.86-20.18,9.32-1.93,1.5-4.21,6.58-7.33,7.66-.19-4.56,6.18-10.63,9.93-12.56,2.06-1.06,15.93-5.72,18-6.01,2.33-.33,4.68.93,7.06.58Z"/>
      <path d="M484,738c.14,2.34.33,1.77-1.48,2-10.94,1.4-23.48-1.9-34.52,1.99.27-1.72,1.98-1.75,3.22-2.27,10.46-4.38,21.82-2.64,32.78-1.72Z"/>
      <path d="M240,557.01c.07.08.37,2.11-.49,1.98-5.24-2.93-12.5-3.66-18.5-3.98l17.99,6.5-.49,2.47-23.5-8.97c2.44.99,3.15-1.84,3.7-1.97,2.31-.55,20.12,2.76,21.29,3.98Z"/>
      <path d="M180.99,797.01l-10.23.77c-4.9-4.95-12.36-7.7-19.4-7.71-4.35,0-9.41,5.14-14.36,3.43,3.24-1.41,13.41-5.61,16.42-5.45,1.63.08,10,2.44,11.87,3.15,5.14,1.96,8.97,6.04,15.7,5.81Z"/>
      <path d="M196.99,577.01c.83,3.61-4.61.5-6.19,2.25l-11.8,4.74c6.02,1.84,10.77-2.38,16.49-2.99,1.97-.21,5.33-.93,4.5,2-9.03-1.1-15.82,5.51-24.99,2-.32-1.68.37-2.09,1.74-2.75,4.75-2.29,14.98-4.71,20.26-5.23Z"/>
      <path d="M279.42,568.58c1.77,2.49,3.3,3.18,4.64,6.86.38,1.04,2.16,5.39-.05,5.55-.84-6.97-6.15-12.03-10.52-16.99-2.37,2.51,2.08,4.96,2.21,5.26.61,1.37.13,3.11.84,4.67.8,1.75,7.46,10.73,3.95,12.06-2.33-8.79-10.93-16.23-8-25.99,2.68,2.53,4.82,5.6,6.93,8.58Z"/>
      <path d="M162.99,617.01l-11.98,15.99c1.33,1.34,13.43-10.95,15.96-11.56,1.36-.33,2.25.88,2.03,2.05-1.24,1.88-2.75.31-4.5,1.41-4.79,3.01-8.37,11.2-16.5,9.09,3.17-4.24,6.93-10.28,10.49-14,.8-.83,3.41-3.95,4.51-2.98Z"/>
      <path d="M382.99,723c-5.59-4.87-13.59-12.94-21.51-13.01-5.19-.05-6.1,3.51-1.77,4.8,3.78,1.13,9.2-.84,13.29,1.22-.3,1.76-5.2,1.11-6.54,1.03-3.22-.18-13.06-.63-10.74-5.76,1.87-4.15,9.65-2.25,13.29-.78,1.96.79,15.98,10.36,13.99,12.5Z"/>
      <path d="M265.99,548.01c-1.49,8.5-12.35,8.58-17.51,13.98-2.87.25-.81-1.19.05-1.96,4.53-4.03,10.08-4.17,13.47-9.02-3.27,1.12-7.48,1.69-10.54,2.95-1.63.67-6.64,4.73-7.45,4.03-1.73-1.49,1.33-2.19,1.88-2.58,2.23-1.59,19.15-8.32,20.11-7.41Z"/>
      <path d="M688,859.99c-1.48,1.79-2.17-1.28-2.51-1.94-1.55-2.99-3.21-12.63-5.64-13.96-.74-.41-2.4,1.16-3.84.47-1.53-.74-4.19-5.6-4.02-7.58l-1.97,1.02,1-8.01c2.87,2.96,1.54,8.25,4.93,11.56,2.3,2.24,4.86.49,6.96,3.04.52.63,5.61,14.77,5.09,15.4Z"/>
      <path d="M553,509.01c-3.12,5.17-7.09,9.63-8.67,15.64-.24.89.7,2.52.26,4.35-1.03,4.25-7.44,7.69-6.09,12l4.5-1.99c2.25,2.46-7.42,8.49-8.99,9.99,2.51-12.97,7.72-25.48,15-36.52-5.06-.74,2.22-4.8,3.99-3.47Z"/>
      <path d="M474.31,818.71c-4.88-5.94,5.01-14.69,10.16-8.67,6.25,7.31-4.59,15.46-10.16,8.67ZM482.75,818.77c4.92-5.32-3.36-13.62-7.02-5.47-1.75,3.91,4.79,7.88,7.02,5.47Z"/>
      <path d="M870.99,682.01l-17.97,12.52-22.03,7.46c4.83-5.1,13.22-4.68,19.68-7.81,7.15-3.46,12.36-11.4,20.31-12.17Z"/>
      <path d="M878,691.01c-3.89,4.54-7.46,9.59-11.49,14-2.56,2.8-5.85,4.6-8.05,6.95-2.92,3.12-4.28,8-8.45,10.04-2.31-2.54,22.79-25.34,24.47-29.02l3.52-1.97Z"/>
      <path d="M699.99,874l.51-4.01,2.51,7,1-3.99c2.81,1.76,2.06,6.38,4.99,8.99-9.72-4.27-16.63-11.9-19.99-21.99,4.73,3.8,5.59,10.9,10.98,14Z"/>
      <path d="M305,561.99c-3.04.5-1.59-.77-2.02-2.43-.84-3.29-.85-8.59-3.97-10.56-1.02,5.74,2.69,10.34,1.98,16-.21.29-1.28-.53-1.52-1-.29-.57-2.55-11.61-2.55-12.5,0-2.53.72-5.68,2.58-7.49,3.27,5.5,4.38,11.78,5.49,17.99Z"/>
      <path d="M163.99,849c-4.61-3.35-8.28-1.89-12.99.01,2.38,4.27,7.95,2.78,12,3-.18,1.37-1.35,1.73-2.54,1.94-1.9.34-11.72-1.2-12.47-1.96-3.49-3.54,15.27-12.48,16-2.99Z"/>
      <path d="M240,529.02c.14.14.36,2.03-.51,2-3.39-.11-6.33-3.41-9.49-4.01.68,4.06,8.89,4.83,10,6.01.49.52.51,2.39-1.37,1.88-4.6-1.25-18.41-12.04-9.34-10.7.74.11,10.31,4.39,10.72,4.82Z"/>
      <path d="M405.25,717.76c-4.86-4.82,3.96-14.05,8.82-7.33,4.15,5.73-4.63,11.5-8.82,7.33ZM408.69,710.11c-5.27,1.32-1.81,11.59,2.86,5.95,2.71-3.27.3-6.74-2.86-5.95Z"/>
      <path d="M913.01,772.99l3,.02c-2.05,2.83,1.77,6.59-2,7.99l-.02-5.99-3,2.48c-2.54,1.24.71-5.09.9-6.09,1.17-5.96-.06-13.91,6.09-17.4-.35,2.99-3.57,4.41-3.85,7.77-.17,2.15,1.44,2.92,1.51,3.76.12,1.46-3.98,4.71-2.64,7.46Z"/>
      <path d="M515.87,796.14c.8.5,1.69,5.66.69,6.91-9.42,4.53-7.75-11.33-.69-6.91Z"/>
      <path d="M883.9,804.11c.15.06,2.15,2.31,2.15,2.47.02,1.86-2.49,3.31-2.04,5.42l2-2.99c2.07-.37.12,4.83-.1,4.98-.45.31-2.63-1.46-3.45-.04s.43,4.17-1.46,4.05c-.62-2.44-1.22-15.58,2.89-13.89Z"/>
      <path d="M910,713c-.39-.32-.6-1.32-1.57-1.89-1.57-.92-4.32-.42-4.43-2.1,2.97-1.52,7.58,3.73,8.84,2.78.29-.22-.09-1.79.65-1.82,3.06-.08,1.46,2.82,2.25,4.68,1.2,2.84,3.07,5.48,4.26,8.33l-6.51-2.98,2.53-1.01c-.92-4.42-2.38-4.48-6.01-5.99l3.51,4.99c-3.25-2.61-8.43-3.07-10.51-6.98,2.27.09,4.91,1.12,7,1.99Z"/>
      <path d="M668.01,884.01l-1.02,1.98,3.01.99c-8.06,3.95-14.94,6.18-23.98,7.01-.5-3.01.72-1.61,2.42-2.03,4.71-1.14,19.26-1.4,16.57-7.97h3.01Z"/>
      <path d="M115.77,829.26c.28.15.33,1.42.92,1.73,1.72.91,3.96.79,5.3,2.52-.62,4.68-6.45-2.05-7.72-2.37-3.6-.92-7.94,3.36-11.27-4.13,2.38-.26,3.46,2.48,5.7,2.81s4.86-1.72,7.07-.56Z"/>
      <path d="M364.01,738c-.45-2.53.38-1.86,2.2-2.32,5.23-1.32,8.49,2.68,13.79,2.31l-.99-5.99c3.85,1.96,4,7.4-.57,8.02-4.61.64-9.07-5.72-14.43-2.03Z"/>
      <path d="M627.01,686c.27-2.25,4-7.77-1.02-4.51-1.32.86-5.74,8.37-1.99,8.01l-2.99,2.5c-1.24-3.57,2.66-13,6.49-13.04s3.1,6.02-.49,7.04Z"/>
      <path d="M453,871.01c-.01,1.82-4.29,1.06-5.48.98-5.07-.37-10.53-2.11-15.72-2.28l-9.79-2.7,30.99,4Z"/>
      <path d="M602.71,699.17c3.74-1.11,7.92,1.51,5.35,5.38-4.94,7.45-12.21-3.34-5.35-5.38ZM602.01,704.99c1.47.17,4.48.16,4.98-1.51,1.39-4.55-6.64-5.1-4.98,1.51Z"/>
      <path d="M134.99,811.01c.26,1.76-2.27.98-3.26.76-5.43-1.22-14.55-5.13-17.73-9.76,6.98,2.95,13.33,7.73,20.99,9Z"/>
      <path d="M426.84,696.16c3.05,4.97-4.29,7.01-5.72,4.72-2.74-4.37,3.76-7.92,5.72-4.72Z"/>
      <path d="M569,769.99c5.34-7.38-6.83-6.17-1,0-4.43-.09-5.46-5.56-1.29-6.81,5.8-1.74,9.04,5.72,2.29,6.81Z"/>
      <path d="M842.99,742.99c-1.77.18-1.07-3.39-.97-4.47.44-4.98,1.98-13.3,5.97-16.52-2.85,6.7-3.68,13.87-5,20.99Z"/>
      <path d="M352,884.01c.1,1.9.48,2.04-1.51,2.03-3.53-.02-9.74-1.66-13.25-2.77-1.21-.38-4.23-.75-4.23-2.25,6.59-.2,12.33,4.02,18.99,2.99Z"/>
      <path d="M644,703.99c.35-1.75,3.59-1.38,5.27-2.21,2.61-1.29,4.66-4.5.27-3.73-2.95.52-3.86,2.75-6.55,2.95,9.72-11.67,17.29,2.69,1,3Z"/>
      <path d="M894,807.99l10.04-6.45c.81-.86,1.68-1.72,2.2-2.8.83-1.7,0-4.64,1.74-4.74.89,6.83-7.12,15.42-13.98,13.98Z"/>
      <path d="M395.99,744.99c-1.78-.89-.9-4.83-1.44-7.05-1.27-5.16-3.96-9.91-5.54-14.95,5.34,5.51,7.62,14.42,6.98,21.99Z"/>
      <path d="M568,899.01c-1.24,3.28-4.3.63-7.24,1.16-2.01.36-6.89,4.56-7.75,3.82-1.74-1.49,1.33-2.19,1.88-2.58,4.73-3.37,7.33-4.15,13.12-2.4Z"/>
      <path d="M868.11,831.82c.49.47,2.54-1.68,2.88-.33-1.19,2.52-2.12,4.82-4.49,6.49-2.41-1.4-.9-7.34,1-7.98.96-.16.23,1.46.61,1.82Z"/>
      <path d="M164,803.01l-6.73,2.75-7.26.23c-.23-1.45,1.76-1.38,2.8-1.68,3.6-1.03,7.44-1.5,11.19-1.3Z"/>
      <path d="M709,855.99c-4.27-1.54-8.91-1.94-13.21-3.29-1.05-.33-3.02-.26-2.78-1.69,5.35.46,11.87.88,15.99,4.98Z"/>
      <path d="M207.99,872c-2.11-.86-6.1-2.22-4.99-4.99l5.56.96-.57,4.03Z"/>
      <path d="M362.98,871.01c.14.12.19,1.77.99,2.52,2.31,2.16,4.96,3.26,5.02,7.47-1.6-.86-9.04-9.09-7.99-9.99.61.05,1.79-.16,1.98,0Z"/>
      <path d="M302.99,861.99c.73-.65-1.67-2.69,4.02-.98l-3,1c4.94,7.33-.69,1.73-.99,1.99-.37.32.82,2.39-1,2,.35-2.73-1.77-3.99-3.01-5.98,1.67-.78,3.44,2.48,3.99,1.98Z"/>
      <path d="M271.99,577c-.5,4.84,7.55,4.87,6,10.99-1.7-.07-1.37-2.7-2.5-3.98-.88-1-9.31-6.55-3.5-7.01Z"/>
      <path d="M297,888.99c-1.5,1.41-9.06-7.38-7.99-9.99l7.99,9.99Z"/>
      <path d="M902,727.99c-3.83,1.18-5.87,2.16-9.99,1,1.45-2.23,8.48-4.28,9.99-1Z"/>
      <path d="M831.37,613.71c.31.52,2.05-.26,1.63,1.28-4.05.06-2.54,2.66.73,1.58.22-.07.18-1.43.88-1.51,1.17-.15,3.51,1.16,5.38-.06l.51,3.02c4.5-.11,3.33-3.31,4.46-5.34.52-.93,1.85-.52,2.66-1.04,1-.64-.11-3.78,2.87,1.38l1.99-3,2.51,3.99c-1.06-.56-6.55.3-7.02.6-1.72,1.09-2.08,4.98-5.54,5.42-.53.07-10.23-.02-10.74-.19-2.36-.79-2.44-5.05-3.19-4.82-4.86,2.4-6.91,6.91-10.02,10.99l-1.48-1.98c.99,1.39-3.11,2.71-3.7,2.72-1.38.02-2.23-1.35-2.84-1.29-3.72.36-9.45,3.09-11.49,6.31-2.33,3.68-1.56,8.6-6.67,9.86-1.29.32-2.85-.77-4.6.3-1.13.69-3.04,4.55-5.23,6.09-2.5,1.77-6.84.37-5.5,5.99l-1.49-1.99c-1.73,5.65-6.63.95-10.23,2.69-3.32,1.61-3.34,9.21-7.78,8.33-.87-.17-.3-1.69-.51-2.02-.7-1.12-2.46,5.19-4.98,3.99-2.38-7.01,8.51-4.54,8.99-4.99.66-.62-1.07-6.08,4.31-8.29,2.11-.87,2.82.86,4.16.88,3.78.06,5.12-3.5,7.6-5.02,1.94-1.19,4.67-1.07,6.47-2.53s2.61-5.73,4.43-6.62c1.53-.75,4.05,4.28,7.29-1.7,3.16-5.82,1.7-8.15,9.42-11.61,3.69-1.65,6.34.24,8.67-.19.65-.12.52-1.38,1.42-1.83.96-.48,2.59-.05,3.81-.99s1.22-3.31,2.44-4.57c3.09-3.19,8.7-.57,7.98-8.53,1.61.33,1.29,2.88,2.36,4.71Z"/>
      <path d="M785.82,615.26c.63.55-.66,2.31,1.67,1.74,1-.24.19-1.95.93-1.93,2.56.07,5.56,1.77,9.07-.1,2.7,1.22-4.57,4.82-5,4.79-1.04-.07-2.7-3.24-3.47-2.76-.24.15-.83,3.93-4.01,3v-3.01c-6.96,5.03-3.11-5.14.81-1.73Z"/>
      <polygon points="849.99 632 850.84 638.28 845.01 644.99 845.2 638.7 849.99 632"/>
      <path d="M743.64,660.67l-2.63,3.33c.88-5.77-3.52-9.68,3.98-10.99l-1.35,7.67Z"/>
      <path d="M724.01,606.99c1.38-.59,1.66-5.09,1.87-6.62.29-2.13.1-4.26.13-6.38.81.12,2.78-.2,2.99,0,.49.47-1.98,10.99-2.03,13.48-.06,3.03.72,2.92,1.04.03.14-1.26-.82-3.72.99-3.5v10.99s-1-2.99-1-2.99l-1.98,1.99-.02-5.99c-.64.4-2.72,1.03-2.82,1.17-.96,1.42,1.12,5.55-1.16,5.82l.12-9.37,2.86-12.62-.98,13.99Z"/>
      <path d="M767.98,598.99c-5.78-.49.84-4.19,1.42-5.1,4.48-7.05,6.24-17.69,2.59-25.39l3,1.49c-1.55-10.25-5.6-23.41,5-30-1.12,4.03-4.26,6-4.9,10.59-1.61,11.36,2.53,22.87-.36,34.64-1.33,5.41-4.32,9.03-6.74,13.77Z"/>
      <path d="M795,526.99c.28.31-.32,3.03.05,4.27.31,1.04,5.01,4.06,2.96,5.72,4.47-.98,2.53,2.46,3,3.02.84,1.01,4.44-3.14,5.99-4,2.25,3.83-6.02,8.45-6.9,6.89-.29-.52.25-2.05-.29-2.64s-2.5-.2-3.3-1.22c-.85-1.08-.52-3.47-1.19-4.82-.63-1.27-2.34-1.16-2.38-1.83-.14-1.99,2.93-4.84-.92-4.39-.47-1.6,2.89-1.11,2.99-1Z"/>
      <path d="M746.99,533.01v9s2-1.02,2-1.02l-1,11c-1.22,1.64-1.81-.02-2-1.48-.42-3.27.31-7.15,0-10.51l-2.98,5.99c.2-3.54,1.09-7.14,1.97-10.56.43-1.65-1.02-2.93,2.02-2.43Z"/>
      <path d="M815.95,529.06c.63.85-1.06,6.98,0,9.3.66,1.44,4.39-.83,3.04,4.64-.64.83-4.6-2.97-4.74-3.21-.79-1.4.09-3.49-.26-5.1-.1-.44-3.93-1.28-1.52-5.72.46-1.28,3.38-.05,3.48.09Z"/>
      <path d="M791.99,547.01l-7.98,14.99c.6-5.91,1.56-13.46,7.98-14.99Z"/>
      <path d="M787.21,519.75c1.46,2.38,11.88,1.03,3.81,6.24.13-.73-2.03-3.72-2.23-3.8-1.75-.76-8.54,2.86-1.8-5.18.06.86-.22,2.03.22,2.75Z"/>
      <path d="M758.99,541l1.02,5.01,1.98-1.01v3c-3.5.71-3.37-1-4-3.99l-1,1.99c-4.01-2.21-2.09-4.87,2-5.01Z"/>
      <path d="M730.99,624c-1.75.23-.93-2.26-.99-3.48-.1-2.25-.18-4.77,0-7,.12-1.37.48-6.04,1.98-6.51l-1,16.99Z"/>
      <path d="M472.99,621.01l-7.75,2.73-8.24.75c3.61,2.7,9.73,1.43,14.02,1.99l8.97,2.51c-2.8-.1-5.67.23-8.48,0-3.1-.26-18.61-2.56-20.53-3.47-.46-.21-1.26-1.3-.98-1.51l5.99-1-7.99-2c2.39-.55,4.65.51,6.79.71,1.1.1,3.4,1.18,3.2-.7l-9.35-3.15-19.64-10.85c11.29.97,16.37,9.61,27.2,12.29,6.12,1.52,10.87.74,16.79,1.71Z"/>
      <path d="M501.39,622.61c.58.59,1.93.14,1.61.88-5.95,4.43-14.79,6.96-21.99,4.49l10.26-1.22c1.76-1.62,7.52-2.11,8.59-2.9.14-.11-1.02-2.32.65-2.87.77-.25.27.98.88,1.61Z"/>
      <path d="M495.99,611.01c.24,1.44-1.76,1.4-2.79,1.68-2.69.74-5.84.79-8.42,1.59-6.81,2.09-12.77,6.3-20.77,4.71l8.04-1.44c7.86-2.93,15.41-6.15,23.94-6.54Z"/>
      <path d="M513,639.99c-3.27-1.05-6.74-.78-10.06-1.43-1.71-.34-6.11-1-6.93-2.55,4.28.68,9.36.96,13.49,1.99,1.39.35,3.12-.01,3.5,1.99Z"/>
      <path d="M512,623.01c.3,2.64-.15,2.03-2.26,1.76s-6.74-1.67-7.73-3.77l9.99,2Z"/>
      <path d="M256,646.01c.26,1.45-1.89,1.29-2.97,1.51-10.25,2.1-21.08.76-30.76-3.28l-8.26-8.22c4.66-.75,5.83,5.06,8.69,6.79,7.71,4.67,24.49,4.32,33.3,3.21Z"/>
      <path d="M224.99,672c-3.35-1.3-3.13-5.24-4.59-7.9-1.73-3.17-5.13-5.06-4.39-9.1,4.71,3.77,9.69,10.74,8.98,17Z"/>
      <path d="M271.99,662.01c-.28,1.77-5.23,1.12-6.53,1.02-5.77-.43-15.79-2.53-19.46-7.03,8.52,3.68,16.8,5.11,25.99,6Z"/>
      <path d="M542.01,563.99l1.98-1.99c.68,7.18-.9,3.82-1.77,4.29-.38.2-.58,2.94-4.22,1.7l2.99-5.5,1.01,1.51Z"/>
      <path d="M206,682.99c-6.53-3.33-12.1-4.09-19.03-5.47-1.07-.21-3.23-.07-2.96-1.51,7.32.65,16.68,1.48,21.99,6.98Z"/>
      <path d="M182,684.99l-6.43-3.06-10.56-2.92c5.88-.22,13.55.76,16.99,5.98Z"/>
      <path d="M296.98,636.01c.17.15.09,1.68,1.04,2.43.75.59,16.36,5.74,17.98,6.09,4.57.97,12.95-1.35,16.01,4.46-3.1-.01-5.61-2.49-8.56-2.93-3.19-.47-6.53.49-9.69-.31-3.76-.94-9.04-5.92-14.26-5.74-1.74,1.24,2.01,4.57,1.52,4.97-2.19,1.79-2.43-2.84-3.22-4.26s-2.47-2.58-2.77-3.25c-.73-1.66,1.38-2.02,1.97-1.48Z"/>
      <path d="M522,772.01c-.35,1.92-2.09,1.65-3.46,2.03-8.41,2.36-22.31.2-30.76-2.33-2.46-.74-6.54-1.3-7.78-3.71,13.67,3.42,28.08,5.48,42,4Z"/>
    </g>
  </g>
</svg>