<?xml version="1.0" encoding="UTF-8"?>
<svg id="Capa_1" data-name="Capa 1" xmlns="http://www.w3.org/2000/svg" viewBox="0 0 446.95 352.9">
  <defs>
    <style>
      .cls-1 {
        fill: #4d4d4d;
      }
    </style>
  </defs>
  <path class="cls-1" d="M246.58,295.29c-.19-6.1-3.41-11.79-6.69-16.77-.47-.72-1.28-.86-1.73-1.5-4.37-6.34-3.89-12.97-7.1-19.38-1.59-3.18-4.45-3.96-5.58-6.29-1-2.05-.57-4.23-1.02-6.29-.95-4.44-11.62-11.72-15.33-15.7-2.42-2.6-4.91-5.89-6.89-8.85-.91-.52-2.03.99-3,1.21-4.67,1.1-6.72-4.55-9.03-4.94-.89-.15-1.4,2-1.5,2.63-2.51,15.71-.88,24.69-13.55,36.64-2.68,2.52-8.32,5.78-10.29,8.1-1.31,1.54-1.59,3.85-2.56,5.53s-4.79,6.28-4.78,7.58c0,3.13,8.55,8.24,11.33,9.25,5.14,1.85,11.12-.04,16.73.61,4.98.58,16.61,6.94,10.56,12.75-2.08,2-14.88,7.2-14.87,2.49.01-3.46,18.47-2.88,8.54-8.98-3.76-2.31-7.28-3.08-11.71-2.66,4.85,5.69-.3,7.8-5.69,8.23-10.01.78-20.94.03-31.04.43-5.6-.91-10.87-2.21-14.2-7.2l-13.65,2.69c-2.48.16-3.52-2.12-1.37-3.7,1.7-1.25,7.28-1.67,9.57-1.84,1.35-.1,4.52.66,5.3-.29.92-1.11,1.48-5.3,2.03-6.98.39-1.19,1.84-3.02,1.96-3.99s-.55-1.64-.19-2.88c.41-1.42,3.67-3.67,4.72-5.81,2.85-5.84,3.06-13.77,6.27-20.2,3.6-7.21,12.08-10.94,14.15-17.8.64-2.12.94-5.26,1.15-7.52.4-4.23,1.3-13.99.92-17.8-.29-2.88-2.19-7.19-2.88-10.35-1.61-7.35-2.7-16.85-2.15-24.35.32-4.42.92-4.92.51-9.6-.64-7.33,3.47-14.17,4.06-21.42,1.01-12.29-.96-25.77-.47-38.35.16-4.04.58-8.26.94-12.3.91-10.28,1.57-25.9,10.07-32.82,1.21-.98,5.16-2.84,5.64-3.48.68-.9,2.07-9.39,1.61-10.02-3.44.91-10.6,4.83-9.47-1.95.99-5.92,8.43-8.98,9.02-14.25.44-3.89-1.09-8.16,1.98-11.48,2.3-2.49,19.87-9.35,23.3-9.24,3.82.12,7.36,3.93,8.71,7.26.61,1.51,1.01,5.28,1.86,5.9,1.42,1.02,9.86,2.05,12.35,2.71s11.6,2.83,8.58,6.86c-2.6,3.47-14.06,2.47-15.47,4.16-2.47,2.94,1.56,6.31,1.56,7.97,0,1.26-2.06,2.92-2.25,4.61-.29,2.6,1.72,7.63-.45,10.01-2.92,3.2-11.35.33-13.26,2.26-1.35,1.37.33,5.5.48,7.34.1,1.22-.61,2.35-.29,3.41.3.98,3.59,4.75,4.46,6.53,3.3,6.74,4.54,14.45,8.35,21.31,1.04,1.88,7.94,12.3,9.23,12.67,1.76.51,4.92-.1,7.09.21,2.58.37,4.78,2.54,6.97,2.53,1.9,0,4.63-1.51,6.85-1.74,3.74-.38,7.48.48,11.21.25,4.08-.9,2-6.5,5-8.69,2.82-2.06,4.16.89,5.58.61,3.42-.68,12.55-15.39,17.17-6.04,1.9,3.84,3.52,14.21,1.11,17.84-.88,1.32-3.02,1.38-3.33,3.1,0,9.58-.02,19.19-.45,28.76-1,22.3-3.78,44.1-2.75,66.6.83,18.15,4.84,36.9,5.03,55.2.03,3.05-.33,9.9-4,10.66-4.28.89-5.73-4.95-6.38-8.04-2.7-12.9-1.42-26.54-1.94-39.59-.28-6.96-1.56-14.01-1.86-20.95-1.1-25.62.27-51.59,1.41-77.12.14-3.11-.14-6.27-.02-9.37-5.02,2.92-11.48,1.92-16.89,3.41-2.81.77-5.62,2.76-8.57,3.75-5.14,1.74-10.93,2.43-16.26,3.82-1.36.36-8.73,2.29-9.2,2.67-.38.31-.63.68-.65,1.18.47,4.46,1.56,9.25,1.82,13.69.19,3.14.47,10.79-.1,13.58-1.22,6-11.48,4.81-12.16,7.5-.32,1.25,3.63,7.1,4.59,8.5,5.12,7.39,13.1,17.59,19.07,24.28,3.34,3.75,12.36,10.31,13.14,14.7,2.09,11.73,6.12,18.93,9.35,29.89.82,2.79,1.52,8.69,2.5,10.73.78,1.62,2.34,1.13,3.56,1.92,2.23,1.44,2.35,7.49,3.19,10.05.5,1.52,2.52,5.28,3.62,6.42,3.78,3.89,8.21,1.43,12.85.96,5.34-.55,19.68-2.36,23.68.84,2.48,1.98,2.4,6.23,3.02,9.07,7.13.59,13.64.93,20.19,4.23,14.18,7.14,1.94,13.97-7.76,14.95-1.97.2-13.33.03-13.85-1.55-.85-2.59,6.97-1.9,8.43-2.05,3.6-.36,8.55-.88,11.81-2.34,1.62-.72,3.52-1.35,2.14-3.39s-10.62-5.22-13.15-5.55c-1.51-.2-7.43-.6-8.29.13-2.28,1.93-2.15,2.85-5.67,3.92-10.9,3.33-31.22,7.12-42.49,7.26-4.69.06-12.18-.99-10.74-7.33-2.36-.37-12.63,2.56-13.21-.74-.26-1.48,4.19-2.91,5.22-2.91h6.62ZM179.08,22.81c1.36.48,2.13-.71,3.15-1.1,4.52-1.72,8.66-2.77,12.93-5.32,1.15-.69,3.33-3.82,5.1-1.75,1.26,1.48-.49,4.67.89,4.91.65.11,5.28-.72,5.2-1.84-.21-3.26-3.7-7.81-7.33-7.53-2.15.17-16.4,5.92-18.31,7.28-2.02,1.45-2.69,2.99-1.63,5.36ZM196.83,19.66c-.29-.32-6.76,3.42-7.76,3.87-2.63,1.16-6.14,1.06-7.75,3.88,3.87-.11,8.55-2.37,11.96-4.23.75-.41,4.67-2.31,3.55-3.52ZM193.19,28.78c3.37-.94,4.25,4.24,6.15,4.37.67.05,4.15-.87,5.05-1.15,2.13-.67,5.22-2.76,6.93-3.11,2.22-.46,3.79.39,5.81.37,1.1-.01,8.9-1.16,8.91-2.07-3.97-2.36-8.91-2.25-13.33-3.09-2.29-.44-4.4-1.83-6.95-1.71-3.36.15-5.19,1.82-7.4,4.05l-5.17,2.35ZM188,30.78c-1.79-1.13-4.37.6-6.46.75-1.16.08-3.29-.47-3.86-.24-.72.29-7.33,8.41-7.3,9.14.03,1,1.86.21,2.35.08,1.54-.42,3.04-1.34,4.58-1.81,5.56-1.69,11.31-2.71,16.79-4.66.62-.49.46-.44,0-.92-.98-1.05-2.66-.56-4.13-.9-1.31-.3-1.47-1.12-1.97-1.44ZM211.9,34.26c-5.69-.29-9.46,4.47-15.45,3.26-2.23,3.72-.11,8.38-.56,11.99-.31,2.54-2.96,3.38-.65,5.29,3.44,2.85,3.44-.24,6.03-.82,2.23-.5,9.58.65,10.67-.74,1.26-1.6-.41-6.32-.02-8.69.23-1.4,1.62-2.39,1.7-3.29.12-1.22-2.89-4.75-1.73-7.01ZM189.99,39.28c-.33-.37-9.19,2.18-9.58,2.51-.96.81-.95,4.44-.91,5.7l8.18-4.82c.97-.98,2.53-1.8,2.31-3.39ZM181.32,52.52h7.07c.79,0,3.38-1.77,3.69-2.72s-.13-4.53-.95-4.58c-.91-.05-9.85,5.09-9.81,7.29ZM197.75,63.46c-3.27-8.8-10.66-6.69-18.03-5.93-1.49.15-3.03-.16-4.52.05-7.16.97-10.85,11.84-11.67,17.99-1.03,7.67-1.96,17.37-2.31,25.08-.78,17.68,2.62,31.67-1.57,49.54-.54,2.31-2.16,5.72-2.33,7.74-.04.52-.19,1.25.51,1.38.32.06,4.45-2.38,6.03-2.63,3.06-.48,4.79.81,6.75.75.45-.01,4.28-1.38,4.34-1.61-.64-2.95.96-6.68.34-9.42-.7-3.06-6.27-2.97-4.22-8.98.28-.83,1.43-2.41,1.41-2.97-.02-.39-1.76-3.97-2.05-5.54-.82-4.4.29-8-.06-12.26s-1.96-9.25-2.27-13.7c-.13-1.87-.28-10.97.41-11.91.35-.48,1.48-.56,1.4-.86-.6-2.28-3.79-4.46-4.12-8.19-.43-4.92,5.49-17.95,11.32-15.47,3.32,1.41-3.35,4.95-4.45,6.32-3.34,4.18-4.04,8.49-1.29,13.15,3.1,5.26,11.25,13.88,15.66,18.57,7.59,8.08,16.73,15.26,23.98,23.48,1.96,2.23,2.76,5.44,5.92,6.17l-1.74-3.55.37-3.3c-10.11,2.76-.82-7.94-2.93-10.98-1.74-.89-3.77-.16-5.76-.62-6.36-1.47-7.94-13.76-14.92-17.02-1.92-.9-8.44-.94-7.81-3.46.72-2.89,9.06-.31,11.05.68,6.98,3.47,6.66,11.68,11.94,15.44,2.83,2.02,4.34.37,7.21,1.01,4.99,1.11.51,9.23,1.24,9.94,5.41-1.03,2.99,4.99,3.38,7.55.32,2.1,3,.09,4.14.2,1.23.12,1.54,1.73,2.65,1.73,6.42-1.91,13.22-2.26,19.49-4.7,2.72-1.06,4.9-2.65,7.88-3.53,3.98-1.18,8.13-.88,11.78-1.91.8-.23,1.95-.59,2.2-1.49.35-1.28-2.3-12.56-4.04-13.82-.49,3.18-.73,6.27-4.12,7.52-5.15,1.9-9.77-.98-15.05.46-2.28.62-4.08,2.28-6.85,1.6-.51.52,2.11,7.5-1.16,7.78-4.26.36-1.37-8.77-5.57-10.4-8.4-3.24-1.33,6.87-4.97,8.04-2.7.87-2.84-5.57-3.86-7.88-2.62-5.93-8.94-12.11-12.06-18.52-5.1-10.47-4.95-22.71-16.17-29.01-3.7-2.08-7.23-2.97-11.53-2.38-1.45.2-12.25,5.21-9.05.08,1.3-2.09,8.77-4.16,11.22-4.3,5.35-.31,9.11,2.66,13.91,4.1ZM209.61,167.52c.83.83,6.18-.98,7.05-2.31,1.09-1.67.85-9.23.7-11.61-.11-1.85-1.64-15.07-2.04-15.75-.31-.52-1.49-.7-2.03-1.16-2.88-2.44-4.62-5.66-7.09-8.42-6.61-7.38-15.23-14.24-22.15-21.66-3.99-4.28-7.14-9.41-11.85-13.02,1.29,13,3.23,25.96,5.15,38.89.97,4.83,14.67,10.65,3.95,12.95-.15,1.12,1.57,9.07,2.28,9.92.61.73,4.6,1.19,5.1.49.56-.78,1.1-4.32,1.26-5.49.82-5.93.53-13.87,1.98-19.46.88-3.39,4.37-2.54,5.84.34,3.12,6.13-2.95,10.26-1.03,16.09.39,1.2,2.49,3.46,3.53,4.23,2.3,1.69,9.72,2.96,7.11,7-.84,1.3-10,1.57-11.58,1.12-2.08-.61-2.22-3.3.07-3.77.98-.2,3.55.97,4.16-.23-1.46.15-5.53-5.78-6.38-5.02-.43,3.23-1.18,6.47-.86,9.75.32.94,3.3.97,4.5,1.43,3.03,1.17,5.75,4.47,7.54,7.07l1.39-4.08c4.37-3.53,3.11,2.43,3.4,2.72ZM280.29,97.75c-.6-.38-1.77.15-2.39.46-1.27.65-8.72,7.11-9.2,8.16-.32.71.8,6.86,1.17,7.95.16.46.12.92.69,1.14,4.61-2.44,12.9-.37,12.08-7.53-.41-3.63-4.09,1.08-6.22-.62-3.63-2.89,4.92-4.28,5.24-4.65.52-.6-1.05-4.71-1.38-4.92ZM275.78,118c-.63,2.23.47,7.23,0,9.81,1.87-.54,2.2-10.1,1.82-10.49-.6-.12-1.65.06-1.82.68ZM277.61,132.38c-5.14-.16-3.43,5.85-3.63,9.37-1.18,20.65-1.67,44.08-.95,64.8.33,9.58,1.73,19.2,2.3,28.73.42,7.1-.08,14.76.47,21.9.11,1.4,1.73,15.3,2.51,15.3,1.56-3.1.28-6.7.21-9.8-.42-19.04-3.14-37.21-3.61-56.17-.47-18.87,1.33-37.25,2.28-56.09.3-5.99.37-12.05.44-18.04ZM179.04,141.5c.32-.41-3.36-4.31-3.64-4.1-1.38,3.27.42,4.84,3.64,4.1ZM187.71,159.76c-2.27.05-5.64.23-7.32-1.58-.64-.7-.55-1.9-1.35-2.07.16,1.43-.61,4.51.91,5.25.97.47,8.89,1.05,7.76-1.6ZM235.63,257.88c.96,3.47,1.62,7.13,2.97,10.49.64,1.59,2.54,6.15,4.44,5.87,1.11-.16,7.78-2.81,8.87-3.5,1.19-.75,2.73-2.08,2.88-3.55.11-1.12-3.57-12.8-4.24-14.89-2.74-8.64-7.52-18.31-8.94-27.11-.22-1.33.15-2.77-.08-4.03-.42-2.34-8.73-8.59-10.92-10.99-9.61-10.51-17.71-22.81-25.84-34.4-2.1-3-7.3-9.94-10.94-10.51-6.83-1.07-11.16,2.06-18.76-1.32-2.83-1.26-4.27-3.59-7.62-3.24-4.42.46-1.87,3.36-1.65,6.13.2,2.53-.15,5.14.06,7.7,1.22,14.6,11.75,25.31,22.08,34.51l1.65-6.56c3.09-5.97,9.72-8.25,14.68-12.25,1.73-.96,3.35.11,3.06,2.11-.3,2.16-3.93,3.58-5.48,5.06-3.04,2.9-3.54,6.41-3.18,10.49.58,6.64,4.12,7.34,7.98,11.64s6.48,8.31,10.71,12.11c3.71,3.33,9.04,5.75,10.72,10.73.77,2.27.48,6.29,1.8,7.78,1.19,1.35,2.49.63,3.95,1.07,2.42.74,10.17,4.57,9.05,7.72-1.03,2.92-6.84-1.48-7.25-1.07ZM136.14,276.12c3.56.34,8.32,3.06,11.72,3.05,5.55-.02,9.59-11,11.76-14.93,2.81-5.06,8.52-7.17,12.78-10.95,5.01-4.44,8.48-9.78,10.14-16.32l3.23-23.93c-.47-1.87-5.98-5.37-7.66-6.96-6.93-6.55-15.22-18.83-16.3-28.43-.53-4.71,1.03-10.26-1.72-14.24-3.76,3.52-3.21,10.86-2.96,15.73.82,16.05,6.43,29.13,11.19,44.02.86,2.69,4.7,8.44-1.4,6.41l-5.24-11.87c-1.06,5.47-.04,11.64-2.06,16.88-2.56,6.64-9.27,9.12-12.63,14.75-3.87,6.48-3.74,13.93-6.53,19.94-.68,1.47-4.94,5.97-4.33,6.84ZM195.01,202.2c-1.17-1.26-2.7,4.42-2.69,5.2.04,2.46,1.58,7.82,4.05,8.95-1.24-4.66-2.73-9.3-1.37-14.14ZM258.9,269.28c-1.05-.26-.75.19-1.04.57-.71.92-1.1,2.13-1.91,3.09-3.08,3.62-7.22,3.35-11.19,5.25,1.37,3.08,3.47,5.78,4.79,8.89,1.41,3.32,2.44,12.16,5.37,13.34,2.25.91,15.07-.62,18.36-1.03,7.18-.89,19.48-2.83,26.04-5.45,4.35-1.74,3.83-5.28,2.03-8.91-7.09-1.82-14.78-.92-22.07-.17-3.77.38-8.05,2.17-11.65.58-4.48-1.98-8.85-11.35-8.72-16.15ZM141.85,295.29c6.93.74,15.07-.55,22.13,0l-3.34-1.45c-3.58-1.48-5.04-4.88-7.38-7.23-3.48-3.5-3.92-.98-7.35-.49-1.99.29-6.22.23-7.52-1.52-.8-1.08-.44-2.56.82-2.93s2.74.93,3.32-.07c-2.06-.31-5.88-1.59-7.76-.69-1.75.84-3.15,7.87-2.53,9.84.82,2.6,7.15,4.28,9.61,4.54ZM165.35,295.29c1.33.18,9.17.06,9.12-1.59-3.42-2.63-7.81-3.51-11.54-5.79-2.36-1.45-4.3-3.54-6.7-4.93-.84,1.01,4.56,6.15,5.76,6.78,1.45.76,5.81,1.18,5.13,3.86-.27,1.07-1.66.82-1.77,1.68Z"/>
  <path class="cls-1" d="M378.01,97.01c-.33,2.11-2.1,5.7-4.5,5.91-4.62.41-8.46-8.82-5.22-9.73,3.04-.85,2.88,4.22,4.69,5.41,2.76-5.39.56-10.38.02-15.75-.17-1.69-.91-6.34,1.52-6.04,2.78.35,3.07,6.63,4.84,8.73,1.46,1.73,2.26-4.22,2.32-4.95.37-4.76-1.9-12.37-.72-16.24.44-1.44,2.06-2.43,3.45-1.58.63.38,2.25,6.55,3,7.95,2.31,4.26,3.16.53,3.39-2.45s-.93-7.17-.46-9.59c.63-3.24,4.61-.48,6.38.44,8.61,4.48,12.52,11.56,19.15,18.04-.21-1.36-1.1-2.73-1.81-3.89-2.77-4.57-8.91-13.71-13.39-16.28-1.38-.79-6.01-1.97-6.19-2.25-1.1-1.7.83-2.97,2.44-3.15,7.14-.8,13,1.62,19.86,1.83,1.06-3.65-6.48-5.75-4.8-9.13.25-.5.82-.86,1.39-.92,2.18-.21,11.45,5.75,14.69,6.75,9.19,2.81-.13-4.67-.58-6.7-.73-3.29,4.84-1.22,6.17-.72,2.21.83,7.71,3.61,9.75,4.85,1.18.72,2.47,2.07,1.02,3.16-2.19,1.66-6.74-1.88-8.93-2.77,3.95,10.66-10.41,6.35-15.06,2.74,4.25,9.78-9.43,5.81-14.6,5.02-.21.79.32.91.68,1.37,5.47,7.07,14.23,16.19,17.34,24.64,1.82,4.96.28,8.12-4.56,4.1-6.29-5.23-9.58-10.48-14.82-16.21-.76-.83-2.51-3.05-3.67-2.72,7.94,19.68,14.84,39.56,16.65,60.93.7,1.32,1.89-2.07,2.14-2.44,2.07-3.02,6.86-8.23,10.42-4.19,3.32,3.77-.19,9.91-1.37,13.92,4.44-1.62,9.13-2.92,13.94-2.3,1.51.19,2.74,1.46,2.74,2.99.01,3.85-7.57,5.05-10.14,7.69-.69.71-3.42,5.91-3.85,1.45-.5-5.27,5.66-6.43,8.71-8.9-4.16.07-7.92,1.63-11.17,4.11-1.26.96-8.85,9.76-9.12,4.17-.19-3.94,9.51-14.26,7.51-20.15-1.4-1.36-5.16,3.84-5.58,5.14-.56,1.73,0,3.73-.85,5.08-.92,1.45-2.95,1.03-3.13,1.21-.56.56,1.18,12.45-2.52,12.74-4.3.34.77-10.71-6.19-6.52.39,2.84.05,10.35-3.82,6.05-4.5-23.92-5.61-48.74-13.05-72.06-2.93,2.52-4.77,1.31-6.84-1.37-.02,4.88.62,18.88-7.53,15.06-.64.08.22.58.22.69,0,2.01.28,5.01,0,6.85ZM394.9,65.75c-.07,3.09.61,9.49,2.33,12.05.86,1.28,3.14.21,3.08-.78-.14-2.31-3.88-9.17-5.41-11.27ZM406.18,97.58c.41-.46.6-1.29.55-1.89-.1-1.4-4.48-13.86-5.2-14.47-.88-.74-3.35.71-2.98,2.06,1.19,2.13,3.26,14.21,4.45,14.89.79.45,2.61.05,3.18-.58ZM405.5,114.92c1.13,1.3,5.06.2,5.38-1.49s-2.37-12.71-3.41-12.86c-.81-.12-3.73.81-3.92,1.93-.12.72,1.55,11.95,1.96,12.42ZM411.74,117.81c-.47-.4-5.49.61-5.47,2.03.94,5.82,1.34,11.83,2.56,17.53.53,1.45,4.17.39,4.33-.27.37-1.54.11-8.86-.03-10.88-.19-2.73-.93-5.7-1.4-8.41Z"/>
  <path class="cls-1" d="M57.2,58.91c1.16.22,1.38-.28,2.02-.94,1.94-2,3.96-9.77,6.44-10.03,2.97-.31,1.58,3.84,1.55,5.25-.08,5.06-.74,11.46,2.07,15.75,1.1.01,3.42-7.2,4.99-8.23,4.29-2.82,1.73,6.23,1.63,8.02-.13,2.42-.38,11.06,1.81,12.33,2.33,1.36,2-4.49,4.42-4.67,1.73-.13,1.99,1.57,2.32,2.96.43,1.78,1.32,6.53,1.38,8.21.21,5.79-5.38,1.74-4.46-2.63-7.99,4.99-9.87-7.25-9.58-12.78-8.76,5.77-7.63-9.23-8.44-14.14-1.53,1.65-2.64,4.98-5.05,5.45-1.16.23-2.75-.5-3.33.78-5.44,17.32-10.11,34.87-12.86,52.86.36.7.79.06,1.15-.21,2.18-1.64,4.49-5.48,7.1-7.5s10.89-6.07,13.66-3.69c2.37,2.03-3.2,8.36-5.81,7.21-1.9-.84.68-2.89,1.24-3.78-4.37.6-8.79,4.52-11.64,7.75-1.84,2.08-6.21,10.21-8.28,10.41-4.21.39-1.92-9.73-1.98-12.23-2.22.22-4.37-.56-6.17-1.82-.78,1.68-.91,3.69-.48,5.51.68,2.87,6.26,6.74,2.32,8.23-3.66,1.37-5.65-5.58-7.7-7.64-3.36-3.38-9.65-3.73-7.69,2.45.87,2.75,5.55,5.76,2.54,8.3-2.54.75-5.73-7.44-12.04-6.15-1.28.26-9.84,5.27-8.11-.34.75-2.45,10.3-4.11,12.7-3.51-.36-4.33,3.56-6.8,7.53-6.88,1.66-.03,5.11,1.7,5.95.51,1.03-5.16,1.98-10.35,3.26-15.45,3.09-12.34,7.67-24.2,11.77-36.14,1.37-3.99,10.03-16.08,13.77-17.71,5.84-2.55,1.8,4.76,1.53,7.92-.19,2.22,0,4.45.45,6.61ZM41.3,76.16c.31.53,4.5,2.38,4.9.72l6.78-20.14c.36-1.45.04-2.84-.35-4.23-4.78,3.54-7.17,10.23-9.14,15.72-.45,1.24-2.58,7.24-2.18,7.92ZM44.87,80.81c-2.06.33-3.24-1.38-5.02-1.83-.26,2.57-3.68,8-1.62,10.07.92.92,3.65,1.4,4.6.44.56-.57,2.36-8.37,2.04-8.68ZM36.22,91.78c-.55,3.38-4.06,7.99.88,9.35,3.67,1.01,4.24-2.47,4.53-5.54.4-4.19-2.34-2.54-5.41-3.81ZM37.97,111.78c.39-.25,1.83-6.44,1.23-7.27-.2-.28-4.82-1.07-5.73-1.79-.24,1.88-1.91,5.63-1.15,7.29.69,1.51,4.48,2.53,5.64,1.77Z"/>
  <path class="cls-1" d="M88.61,194.84c.11-.07.38-1.04.99-1.53,4.25-3.36,17.81-2.95,22.63-.72,1.46.67,1.85,1.76,1.1,3.21,4.6-1.2,9.32-.09,13.92.46.85.1,10.18-.03,6.4,3.22-2.5,2.14-12.77-.09-16.43-.03-4.42.08-8.84,2.02-13.02,3.21.61,2.05,3.05,2.57,4.2,4.69,2.23,4.11-.59,5.71-4.29,6.85-10.02,3.07-22.08.85-32.53.31-1.39-.07-3.16-.76-4.59-.68-2.23.13-5.21,1.79-7.74,2.05-5.77.58-13-.62-19.18-.47-1.62.04-5.43,1.45-6.38-.43s.7-2.4,2.16-2.88c3.45-1.12,8.78-.93,12.48-.8,3.38.13,9.99,1.66,12.99.25s-2.54-6.86-3.87-8c-7.25-6.23-18.34-7.2-26.88-3.13-1.26.6-8.66,6.43-8.98,2.45-.28-3.5,9.55-7.28,12.46-8.1,5-1.41,9.37-.94,14.49-.34.66-.58-2.32-2.61-2.78-2.92-1.65-1.12-6.65-2.74-6.77-4.59-.03-.38.31-1.52.73-1.63,4.72-1.17,13.56,6.73,16.12,10.51-.09-4.35-7.02-10.83-5.84-14.74,1.34-4.43,9.56,2.5,11.09,4.24.77.87,3.36,5.2,4.1,5.02.34-.08,2.94-4.95,3.69-5.89,2.33-2.91,8.54-7.48,12.31-6,6.12,2.39-1.82,11.9-2.97,15.27.81,1.46,2.17.26,3.35.32,1.06.05,6.74,1,7.05.81ZM67.69,198.09c1.55,1.54,6.83-5.96,7.67-7.16,1.44-2.06,3.71-5.17,4.32-7.56s-2.6-.56-3.64.03c-5.04,2.84-8.4,8.89-8.35,14.69ZM62.67,201.28c1.31-5.98-2.58-14.02-8.21-16.42,1.05,2.42,2.69,4.55,3.74,6.98s1.69,6.16,3.02,8.39c.37.63.55,1.23,1.46,1.05ZM109.67,196.27c-6.3-1.89-11.96-2.8-18.26-.23,6.06,2.66,12.52,4.87,18.26.23ZM78.99,198.21c-3.83.52-13.26,4.75-13.15,9.22.13,4.77,2.98,3.08,5.73,2.99,9.43-.29,20.58,3.53,29.63.42,1.07-.37,2.18-.68,2.98-1.56-5.27-7.09-16.35-12.27-25.19-11.07Z"/>
  <path class="cls-1" d="M388.05,220.91l3.77.55c3.31,1.24,1.56,3.57-1.31,3.96-7.64,1.05-13.19-1.5-20.08-2.19-4.29-.43-8.65,1.77-12.87,2.55-8.84,1.65-27.03,2.73-35.94,1.98-3.58-.3-3.71-3.09-1.26-3.56l27.52-1.03-4.8-2.27c-1.62-.84-1.18-3.39-2.36-4.03-2.32-1.26-6.09.2-8.59.37-8.97.59-17.93.23-26.94.44-2.68.06-9.74,1.34-11.84.47-1.64-.68-1.63-1.55-.12-2.39,8.93-1.76,18.19-1.51,27.26-2.18-.37-.95-1.82-.89-2.19-2.15-.4-1.36.35-2.47.37-3.77-5.75,1.37-10.88-.76-16.56-1.01l-1.65-1.9c3.14-4.5,9.25-.79,13.45-.74,10.47.14,13.48-7.23,21.34-11.05,8.8-4.27,19.35-4.64,27.65.81,1.37.9,6.16,5.4,6.76,5.58,1.21.36,7.16-.57,9.48-.37,7.29.65,13.96,4.78,19.41,9.34,2.05,1.72,4.08,5.07,6.72,5.61,2.23.45,9.6-.12,8.27,3.91-.75,2.29-6.16.4-7.93.31-6.41-.33-11.54.77-17.56,2.74ZM322.79,209.95c2.37.72,5.02.62,7.4,1.04,2.98.53,10.94,3.03,13.26,2.53,1.75-.38,8.87-6.4,11.32-7.86,2.58-1.54,6.6-2.84,8.8-4.44,1.64-1.2-.87-2.79-2.11-3.69-13.13-9.5-31.02.54-38.67,12.42ZM372.44,203.25c-7.49.8-17.23,5.94-22.73,11.04-.86.8-3.6,3.15-2.99,4.34.75,1.47,9.42,1.66,11.46,2.76,9.37-4.6,17.56.4,26.77-2.43,2.31-.71,3.87-2,5.83-2.84,2.99-1.28,8.83-1.1,5.04-5.04-4.98-5.17-16.33-8.59-23.38-7.84Z"/>
  <path class="cls-1" d="M381.21,50.23c-.17.15.29,1.9-1.61,2.27-10.37-.59-20.51-1.11-30.45,2.41-10.56,3.74-23.58,14.27-27.49,24.99-.87,2.38-1.39,8.72-2.02,9.73-1.32,2.11-3.81.28-3.72-2.66.52-17.11,22.11-33.24,37.1-37.78,1.02-.31,5.53-.93,5.85-1.56.35-.7.59-2.45.9-3.33-.78-.72-10.34,4.23-13.87,2.23-3.79-2.15,1.26-6.11.63-6.79-1.95.68-10.18,5.99-11.34,2.43-.55-1.67.99-2.45.63-3.8-1,1.49-7.19,6.84-7.12,2.5.04-2.38,8.2-9.42,10.78-9.39,1.76.02,2.19,1.39,1.49,2.88-.2.43-4.05,4.82-1.96,4.91.54.02,8.03-4.28,9.7-4.9,1.25-.46,3.48-1.54,4.57-.45,2.51,2.51-4.86,6.18-4.44,9.01l17.08-4.57c4.8,1.81-2.6,5.68-2.92,7.12-.6,2.7,8.02,1.07,9.31,1.09,2.44.04,5.51,1.19,8.01,1.38.81-.77-6.21-7.48-7.06-8.22-13.42-11.83-34.3-17.12-49.49-5.2-1.63,1.28-6.35,8.13-8.04,4.75-1.25-2.5,3.96-6.58,5.76-7.94,17.39-13.19,39.75-8.11,55.19,5.43,1.85,1.62,9.4,10.56,10.72,10.57,1.65.01,5.96-4.39,7.57-5.5,12.6-8.74,28.78-11.94,43.31-5.96,1.96.81,8.89,4.09,8.71,6.37-.27,3.47-8.15-1.92-9.76-2.58-13.82-5.68-30.07-2.38-41.39,7.15-1.23,1.04-6.25,6.89-6.71,7.01-2.84.76-6.97-4.39-7.88-3.58Z"/>
  <path class="cls-1" d="M355.24,132.43c-.18.22-.14,1.35.05,1.69,1.13,2.03,13.29,4.53,13.61,7.64s-5.32,1.16-7.08,1.1c-3.58-.12-9.2-.53-11.66,2.52-3.66,4.53,5.75,6.09,7.06,8.02.98,1.44.36,3.27-1.36,3.61-2.57.51-9.61-2.46-13.21-2.75-5.11-.41-11.8.08-15.29,4.36-4.83,5.92,5.86,6.66,6.65,9.78s-10.11.13-11.46.03c-3.63-.26-16.41,1.28-13.39,7.01,1.65,3.13,7.63,3.19,9.08,4.61,1.59,1.56-.08,3.34-2.1,3.4-3.09.1-6.6-.42-9.96.07-.81.12-3.58,1.06-3.95,1.64-1.42,2.19,2.06,4.97-.63,6.57-1.19.71-5.37.57-7.46,1.2-.64.19-4.93,2.21-5.11,2.43-.82.97,1.56,1.32,2.05,1.36,4.19.38,8.49-.88,12.78-.46,1.89.19,4.27,1.38,5.94,1.37,2.88-.02,5.77-2.28,9.54-1.79s4.74,3.91.45,4.48c-6.3.83-28.32,1.61-33.49-.19-6.9-2.4-.04-8.63,4.12-10.02,1.81-.6,3.38-.49,5.03-.9,3.19-.8,1.09-2.31,1.35-4.55.4-3.46,7.13-4.92,10.03-4.84.31-1.88-2.03-2.47-2.53-4.08-1.85-5.94,5.23-9.38,9.94-10.65,1.28-.35,6.98-.96,7.19-1.26s-.49-2.04-.43-2.89c.25-4,5.1-7.83,8.49-9.34,5.18-2.31,9.72-2.08,15.22-1.43-1.48-7.56,4.44-10.64,10.95-11.42l-4.42-2.87c-1.93-2.99-1.21-4.81,1.83-6.33,5.74-2.86,13.06-2.09,19.02-.38-1.42-12.37,14.66-8.6,20.76-3.64,2.74,2.23,7.29,8.46,6.62,12.06-.99,5.38-4.85-3.96-5.55-4.92-2.98-4.12-10.84-9.01-16.03-7.51s3.94,9.68,2.67,12.22c-1.56,3.09-7.14-2.66-9.07-3.72-2.31-1.27-6.58-2.69-9.18-2.68-.89,0-6.72,1.05-7.04,1.43Z"/>
  <path class="cls-1" d="M121.08,313.55c-1.62,1.52,6.94,2.66,7.53,2.73,1.59.19,6.46-.83,5.64,2.43-.76,3.01-9.18,1.22-11.45.64-4.69-1.19-6.04-2.79-11.56-2.63-11.32.33-22.88,1.16-34.2,1.85-6.45.4-14.8,2.09-21,1.85-1.81-.07-5.5-1.28-2.93-2.96,1.73-1.14,11.12-1.34,13.88-1.63l4.33-.91c-4.83-.41-11.56-3.61-16.2-3.56-3.05.03-12.55,3.94-14.71,2.07-.72-.62-.7-2.13-.15-2.88,1.36-1.88,10.27-1.3,12.94-2.58,1.88-.9,6.21-5.85,8.86-7.57,17.43-11.38,31.83-14.63,50.03-2.73,5.51,3.6,6.08,5.57,9.7,10.38,2.27,3.01,4.09,1.51,7.27,1.86,5.01.56,10.02,1.96,15.07,2.27,4.78.29,10.49-.55,15.07,0,2.69.32,5.27,2.86,2.06,3.91-2.11.69-15.05.4-18.04.2-3.44-.23-20.63-4.15-22.14-2.73ZM90.41,293.59c-7.69.21-21.96,6.44-28.25,11-5.55,4.01,1,5.15,4.62,6,11.26,2.62,30.29,3.94,41.71,2.45,8.27-1.08,11.86-2.6,4.4-9.31-5.07-4.55-15.59-10.32-22.47-10.14Z"/>
  <path class="cls-1" d="M74.19,261.87c-1.22-1.18.16-2.81,1.49-3.07,1.95-.38,3.68.42,5.45.46,7.64.18,18.59.36,25.98-.98.83-.15,1.66-.31,2.34-.85.73-.95-1.68-2.09-2.21-2.37-6.28-3.35-13.82-7.93-21.07-7.22-2.46.24-10.01,3.37-11.76,5s.45,5.46-3.57,7.96c-5.51,3.43-25.31,2.67-32.61,2.99-5.7.25-12.21,1.35-17.78,1.39-1.12,0-2.75-.27-2.77-1.6-.04-2.22,5.08-1.58,6.65-2.27-4.9-1.93-15.57-2.34-14.12-10.02.63-3.32,9.4-8.42,12.44-9.92,14.17-6.96,27.66-7.92,40.89,1.72,2.77,2.02,4.81,4.79,7.67,6.51,1.45.22,8.77-4.36,11.17-5.09,4.44-1.34,8.68-.86,13.04.47,3.22.98,17.37,8.43,19.49,10.62,2.78,2.87.37,4.44-2.41,5.35-5.77,1.87-29.86,3.1-35.81,1.85-.56-.12-2.17-.6-2.5-.92ZM40.67,239.76c-6.98.43-17.12,4.5-22.49,9-6.12,5.12-1.74,6.54,3.77,8.07,9.8,2.73,33.83,3.77,43.56,1.38,7.26-1.78.31-7.43-2.84-10.16-6.26-5.42-13.56-8.81-22-8.3Z"/>
  <path class="cls-1" d="M68.6,31.52l11.4-3.2-4.36-1.8c-2.19-3.42,10.03-2.64,11.25-1.2.97,1.15-.28,2.81-.05,3.01,14.88-1.27,35.65,12.66,39.22,27.18.4,1.64,1.46,6.94-1.1,7.03-2.81.1-2.26-4.19-2.73-5.94-4.77-17.74-30.36-29.25-47.36-23.13l-4,2.15c8.92.98,14.24,7.83,21.22,12.32,2.44-1.93-2.63-11.6,2.06-10.31,3.12.86,6.88,13.45,12.19,14.79,4.06,1.03-.77-6.73,3.07-6.32,1.28.14,4.96,6.62,5.64,8.09,3.86,8.31-1.73,7.81-3.58,1.06-5.67,4.78-12.5-3.58-15.28-8.21-.89,12.13-12.02-.97-16.23-3.85-3.9-2.67-7.55-3.52-12.18-4.25-2.34-.37-6.33.7-7.23-2.39-.63-2.15.9-2.06,1.63-2.97,2.82-3.5,4.32-7.72,7.54-11.19,8.63-9.34,24.03-17.84,36.99-13.71,1.77.57,8.4,4.24,7.31,6.41s-5.77-1.54-7.78-2.28c-7.54-2.78-14.48-.69-21.24,2.97-6.44,3.48-13.22,9.1-16.42,15.75Z"/>
  <path class="cls-1" d="M240.03,334.84c-6.23,6.46-30.48,3.03-39.09,2.44.06.78,1.22.37,2.08.88,3.29,1.95-1.11,3.52-3.2,3.7-8.98.75-24.35-.28-33.27-1.91-1.71-.31-11.97-2.3-8.3-5.43,2.01-1.72,6.01.67,8.45,1.18,11.12,2.3,22.49,1.44,33.78,1.58l-22.1-5.5c-3.07-.98-13.93-4.6-8.44-8.84,3.42-2.64,18.32-8.06,23.13-9.73,15.02-5.19,26.48-4.09,39.32,5.63,3.68,2.79,12.19,11.28,7.64,16ZM206.78,314.14c-6.78.53-17.65,4.68-24.09,7.4-1.44.61-7.03,2.78-7.27,4.16-.27,1.57,6.21,2.99,7.55,3.3,12.35,2.87,36.41,7.96,48.19,4.95,8.31-2.12,4.18-6.75-.1-10.6-6.13-5.53-15.97-9.86-24.28-9.21Z"/>
  <path class="cls-1" d="M75.33,111.73c-.64.59-6.6,1.9-8.22,2.5-1.07.4-7.23,3.09-7.63,3.55-.65.75-.3.62.43.77,1.24.26,2.93-.03,4.25.24,2.25.46,9.5,4.2,7.22,7.01-1.2,1.48-7.06.03-9.35.24-.35.03-3.72.47-2.56,1.31,2.29-.25,4.33,1,5.69,2.76.39.51.66,1.72.74,1.77.28.21,5.56-.96,7.04-.91,5.51.2,8.86,2.98,7.52,8.69,4.89-1.81,15.24-3.53,17.67,2.64,1.52,3.86-.35,5.45-1.69,8.77,6.87-.28,14.34,2.14,10.5,10.5,6.33-1.56,14.52-.05,12.58,8.25-.36,1.54-2.71,5.35-4.5,4.1-2.53-1.75,2.7-4.83.36-7.78-3.66-4.63-14.11,4.09-15.99,1.4-2.08-2.97,6.13-7.15,4.6-10.51-.65-1.42-4.44-2.3-5.94-2.33-2.51-.05-11.62,3.93-11.2-.17.26-2.51,11.86-8.74,6.29-11.76-2.7-1.47-6.25-.54-8.99.35-1.82.59-8.08,4.5-8.69,1.35-.66-3.44,4.59-9.15-2.04-9.82-4.76-.48-8.6,3.53-10.93,3.22-1.94-.26-1.34-2.01-1.87-3.19-1.24-2.7-6.51-1.03-8.57.06s-4.03,4.3-5.9,3.95c-2.96-.55-1.6-3.4-.11-4.94,3.22-3.32,8.98-4.44,13.45-4.12-.84-1.28-3.87-1.03-5.24-.9-2.62.25-12.78,5.73-9.91-1.71,2.31-6.01,19.61-16.48,26-17.35,1.38-.19,7.53-.25,5.02,2.06ZM65.86,122.8c-3.83-2.13-8.48-1.48-11.41,1.82l11.41-1.82Z"/>
  <path class="cls-1" d="M404.48,187.14c4.2-4.14,14.42-13.99,20.72-13.22,7.74.95-4.79,10.09-4.75,12.76,3.13-1.31,6.24-2.77,9.76-2.69,1.5.04,7.78,1.16,7.12,3.36-.48,1.59-6.01.21-7.45.28-3.51.17-7.21,2.21-10.04,4.15-1.33.92-5.87,5.81-7.41,3.6-2.38-3.41,7.81-13.76,9.38-16.91-5.13,1.76-9.62,5.39-13.22,9.36-1.52,1.67-5.88,8.26-7.3,8.7-1.67.52-3.07-.52-3.08-2.23-.02-5.31,5.85-15.18,4.22-20.42-1.55-4.98-6.44.99-7.32,3.68-2.04,6.27,1.2,10.67,2.02,16.22,1,6.8-4.64,2.25-4.98,2.49-.09.06-.3,1.32-1.12,1.85-2.95,1.92-7.73-2.73-11.03-3.19-1.27-.18-3.15-.15-4.42.07-2.23.38-3.77,2.58-6.07,1.28-.42-.24-.97-.86-.92-1.42.3-3.42,7.49-3.82,10.07-4.09.4-.04,1.55.3,1.14-.66-.22-.52-3.66-2.89-4.42-3.34-2.18-1.27-10-3.25-6.99-6.71,3.22-3.71,18.21,1.61,21.9,4.34-.17-3.96.19-8.49,2.54-11.84,2.66-3.79,8.98-6.97,12.26-2.28,3.5,5-.07,11.47-.65,16.85ZM392.15,194.9c-.62-7.9-10.92-12.05-17.79-12.32l17.79,12.32Z"/>
  <path class="cls-1" d="M323.13,342.88c1.7,2.04-.81,3.19-2.85,3.11-4.4-.17-11.22-3.5-16.49-4.09-1.03-.12-8.1-.37-8.38-.05.23,5.19,10.33,2.66,12.13,4.06,2.84,2.21-2.11,3.76-4.15,3.73-5.33-.08-7.33-2.03-11.65-3.45-5.26-1.73-8.57,1.01-13.51,1.53-5.94.63-11.87-.86-17.75-1.31-4.06-.31-21.08-.12-22.82-3.65s3.86-4.7,4.6-6.39c.17-.38-1.85-2.41.2-3.42,1.61-.79,3.37.38,5.12.14,2.53-.34,7.46-3.68,10.49-4.61,7.1-2.17,12.25-1.4,18.92,1.42,3.84,1.63,12.99,8.11,15.54,8.64,2.85.59,6.24-.83,9.03-.85s20.14,3.47,21.56,5.18ZM244.3,340.03c-.99,1.4,3.25,2.14,3.93,2.21,7.34.77,16.2,1.09,23.65,1.45,5.18.25,11.66-.03,16.21-2.53,0-1.33-13.73-8.04-15.84-8.79-8.1-2.86-15.9.71-22.95,4.67-.72.4-4.84,2.75-5,2.99Z"/>
  <path class="cls-1" d="M363.29,112.19c-.65.66-2.34.65-2.97,0-.46-.47-.98-4.95-1.04-6.03-.79-13.17,2.83-27.78,9.6-39.03-.86-.2-1.09.48-1.6.91-3.57,3-11.05,13.71-15.19,6.52l-.55-3.78c-1.36,3.48-7.17,12.11-11.43,10.76-.61-.19-1.14-.98-1.69-1.12-1.73-.44-2.49,2.9-3.78,3.81-.98.69-2.24.5-2.64.78-.55.39-.61,3.81-2.79,4.27-.95.2-2.21-.96-2.33-1.87-.23-1.75,2.64-12.38,4.75-12.04,1.89,1.1,1.11,2.78.88,4.45-.05.34-.52,1.88.32,1.23,2.14-1.77,4.88-11.87,6.71-12.46.58-.19,1.31-.2,1.9-.03,1.32.83-1.29,6.95-.39,8.61,1.86,1.29,6.58-6.38,7.49-7.8,1.28-2,5-9.75,6.64-10.28,4.68-1.53.05,8.62,0,10.57-.11,4.19,2.17,2.8,4.34,1.11,6.83-5.33,10.78-10.8,19.39-14.84,2.3-1.08,6.09-1.66,4.35,2.07-.25.54-5.17,4.09-6.39,5.48-8.34,9.45-13.38,25.63-13.49,38.11-.02,2.13,1.44,9.08-.07,10.61Z"/>
  <path class="cls-1" d="M298.02,308.65c2.65,2.76-3.43,3.46-5.13,3.53-3.88.16-8.17-.64-12.33-.47-13.96.57-31.28,2.45-44.95-.65-1.99-.45-7.22-1.6-7.17-4.06.08-3.72,6.87-.36,8.46.03,18.33,4.53,39.52-1.1,57.85.57.92.08,2.66.41,3.28,1.06Z"/>
  <path class="cls-1" d="M415.79,7.93c4.22-.3,7.69-.05,11.74,1.23,1.72.54,5.82,1.58,3.91,3.93-1.31,1.62-6.98-.39-9-.67-15.22-2.05-28.82,4.87-32.43,20.38-.53,2.29-1.02,10.87-2.4,11.75-1.56,1-2.61-1.45-2.77-2.75-2.28-19.42,12.69-32.58,30.95-33.87Z"/>
  <path class="cls-1" d="M34.74,25.27c6.27-.45,18.72,1.41,23.33,6.06,1.82,1.84.39,3.32-1.91,2.85s-6.37-2.93-9.11-3.69c-14.01-3.91-30.47,2.01-39.59,13.14-.86,1.05-3.76,6.18-4.1,6.4-1.31.85-3.62-1.55-3.02-3.46.75-2.41,5.75-7.77,7.78-9.58,7.07-6.31,17.09-11.04,26.62-11.72Z"/>
  <path class="cls-1" d="M36.2,41.1c4.08-1.81,7.54-5.12,11.88-6.6,1.01-.34,2.47-1.04,3.21-.06,2.12,2.79-3.27,3.81-4.91,4.75-2.76,1.59-9.09,6.83-11.79,6.96s-3.01-1.93-3.18-1.86c-1,.43-3.68,3.43-5.28,4.3s-3.83,1.79-5.58.74c-.99-.6-.97-3.13-1.91-2.76-1.46.57-5.86,10.37-8.03,6.99-.67-1.04-.39-2.17-.11-3.26.55-2.14,5.93-9.74,8.31-8.24.57.36.05,2.6.96,2.68.2-1.49,5.21-9.58,6.84-7.28.77,1.08-2.41,6.28-2.72,7.74,2.14,1.68,9.97-10.65,12.67-11.32,5.19-1.3-.71,6.92-.35,7.22Z"/>
  <path class="cls-1" d="M117.48,191.29c.08-.11,2.22-.79,2.57-.85,7.69-1.36,15.6.8,23.39-.56.25-1.56-2.48-.7-3.92-1.32-4.36-1.89,3.68-4.15-.67-7.54-3.89-3.04-9.91-2.75-14.23-4.02-1.45-.43-3.23-1.97-1.25-2.85,4.27-1.9,17.83,1.93,20.45,6,2.28,3.54-.13,5.29.09,6.29.14.66,10.61,2.93,3.89,6.21-3.97,1.94-22.55,1.89-27.35,1.29-1.21-.15-4.23-.81-2.97-2.64Z"/>
  <path class="cls-1" d="M59.58,30.04c-.77-.8-1.33-6-1.79-7.56-3.42-11.35-14.65-19.76-26.72-18.23-2.85.36-9.89,3.77-11.5,3.55s-1.97-1.64-1.19-2.88C20.03,2.32,31.05-.02,34.16,0c10.76.09,22.47,8.42,26.45,18.3.82,2.04,3.84,11.53.83,12.25-.51.12-1.5-.14-1.85-.5Z"/>
  <path class="cls-1" d="M416.34,18.75c6.25,6.15-8.03,7.17-11.86,8.21.21.78,1.69.42,2.62.8,2.54,1.04,2.57,3.64.35,5.13-1.05.71-11.66,4.1-13.34,4.45-2.17.45-3.19.23-2.16-2.16,1.44-3.35,9.95-3.42,12.54-5.72-1.08-1.21-10.04-.87-6.72-4.22,1.97-1.99,16.31-4.03,16.3-4.91-1.22-1.69-5.05-1.39-5.48-3.21-.61-2.6,3.43-2.59,5.28-2.51,1.41.06,9.17,1.28,10.14,1.72,1.26.57,1.55,2.37.27,2.79-2.2.72-5.6-.57-7.92-.38Z"/>
  <path class="cls-1" d="M123.49,302.93c-1.16-1.14-1.05-3.36.65-3.89,2.67-.84,3.28.98,5.07,1.6,8.97,3.15,24.96,3.54,34.57,3.35,1.75-.04,11.62-1.77,11.14,1.07-.27,1.58-9.43,2.75-11.22,2.95-7.73.88-14.49.69-22.15-.54-2.93-.47-16.53-3.06-18.04-4.54Z"/>
  <path class="cls-1" d="M46.76,270.59c-1.67-2.73,4.51-3.53,6.08-3.61,6.39-.31,12.95,1.87,19.66,1.4,5.17-.36,10.8-2.74,15.95-2.76,3.03-.01,6.77,1.23,9.95,1,2.94,2.15.37,3.73-2.25,3.97-3.07.28-6.26-1.02-9.52-.86-4.38.21-9.11,2.41-13.68,2.75-5.22.39-10.35-.6-15.51-.95-1.98-.13-9.76.55-10.68-.95Z"/>
  <path class="cls-1" d="M75.74,43.01c3.06-.58,9.56,10.73,10.74,13.31,3.57,7.86,8.12,26.41,6.74,34.73-.25,1.5-1.58,3.3-3.18,2.32s-.74-8.38-.91-10.5c-.77-9.86-4.68-22.81-9.84-31.23-.9-1.46-4.97-6.42-4.69-7.47.11-.41.73-1.09,1.14-1.16Z"/>
  <path class="cls-1" d="M210.89,265.31c3.11-.11,16.3-.56,18.1,1.25,1.65,1.66-.06,2.53-1.8,2.73-5.34.62-12.23-.22-17.83-.03-8.58.29-16.8,1.34-25.56.95-2.28-.1-8.58-.4-10.37-1.04-2.45-.88-1.21-2.82,1.33-2.92,6.41-.26,13.09.53,19.57.31,5.48-.19,11.05-1.06,16.54-1.25Z"/>
  <path class="cls-1" d="M71.39,277c-.87-1.24.75-2.47,2.03-2.67,5.62-.85,12.35.43,18.22-.04,10.36-.83,19.51-6.01,30.57-5.01,1.22.11,4.99.74,5.23,2.1-.15,1.38-1.92,1.71-3.06,1.88-3.28.49-6.97-.14-10.32.18-6.39.61-13.02,3.97-19.69,4.5-4.59.36-9.15-.3-13.66-.47-1.65-.06-8.59.57-9.33-.48Z"/>
  <path class="cls-1" d="M56.59,39.6c-1.18,1.38-4.45,3.23-6.03,4.69-6.19,5.7-12.61,13.8-16.72,21.15-1.42,2.55-4.6,10.74-6.34,11.92-2.28,1.53-2.49-1.3-2.22-3.14.89-5.98,10.91-20.17,15.04-25.12,2.43-2.91,11.48-12.5,15.26-12.12,1.45.15,1.96,1.51,1.02,2.61Z"/>
  <path class="cls-1" d="M304.18,316.18c-1.72-1.59,1.41-2.94,2.63-3.32,5.28-1.64,11.74,0,17.45-1.26,4.01-.89,7.42-3.52,11.59-3.92s7.84.93,11.82,1.31c2.35.22,7.15-1.19,6.08,2.43-1.31,4.37-13.5.22-16.57.28-3.36.07-7.03,2.2-10.27,3.01-4.72,1.17-13.07,1.92-18.01,2.07-1.19.03-3.88.19-4.71-.58Z"/>
  <path class="cls-1" d="M374.7,290.85c1.94-.23,6.56-.68,6.97,1.96.49,3.16-3.88,1.82-6.12,2.08-7.1.85-10.55,2.61-18.76,2.23-7.19-.33-13.4-.44-20.54-.55-2.86-.04-6.5-1.48-2.16-2.98,8.15-2.81,21.7.13,30.47-.56,3.41-.27,6.89-1.79,10.14-2.18Z"/>
  <path class="cls-1" d="M99.54,321.44c10.16-.74,15.84,3.4,24.12,3.49,2.27.02,9.48-2.64,8.84,1.61-.54,3.59-10.67,2.34-13.34,1.94-5.76-.87-11.09-3.4-17.01-3.05-2.72.16-12.5,3.28-13.4-.33-.16-.65.3-1.83.86-2.18.6-.37,8.56-1.37,9.94-1.47Z"/>
  <path class="cls-1" d="M260.17,316.42c5.72-.43,12.09,1.24,17.67,1.27,1.87.01,10.4-2.03,9.74,1.5-.75,4-17.4,1.32-20.67,1.18-2.73-.12-5.98-.11-8.71,0-3,.12-10.41,1.71-12.7.42-1.09-.61-1.61-1.38-.78-2.48,1.58-2.11,12.56-1.05,15.45-1.89Z"/>
  <path class="cls-1" d="M221.83,260.5c-1.9,1.76-9.27-.44-11.99-.38-7.69.17-14.19,3.09-23.29,2.33-1.51-.12-6.12-1.26-3.75-3.56,1.16-1.12,10.9-.4,13.35-.57,5.29-.38,11.09-2.35,16.44-2.31,1.56.01,12.53,1.44,9.24,4.49Z"/>
  <path class="cls-1" d="M110.65,209.56c.11-.19,2.37-.97,2.89-.98,8.37.45,16.77-1.01,25.13-.46,2.06.13,11.65,1.12,11.64,3.45,0,3.03-10.18.75-12.1.66-4.75-.22-24.8,1.71-27.18-.65-.46-.46-.69-1.5-.38-2.01Z"/>
  <path class="cls-1" d="M207.26,284.91c3.86-.08,7.46,1.94,11.24,2.18,5.22.34,10.87-2.34,15.99-1.84,1.41.14,4.06.73,3.9,2.49-.23,2.59-5.53,1.4-7.54,1.63-4.62.52-8.31,2.21-13.23,1.81-3.19-.26-6.66-1.95-9.64-2.23-2.06-.19-6.76,1.6-7.04-1.21-.23-2.31,4.68-2.79,6.33-2.83Z"/>
  <path class="cls-1" d="M373.79,234.95c-1.78,1.71-12.13-1.51-15.16-1.73s-7.35-.13-10.53,0c-1.82.07-10.92,2.43-10.16-1.05.42-1.93,5.71-2.3,7.5-2.52,4.52-.57,10-.81,14.54-.51,2.46.17,10.74,1.37,12.69,2.37,1.19.62,2.22,2.39,1.12,3.44Z"/>
  <path class="cls-1" d="M250.17,351.82c-.8,1.3-10.15,1.11-12.05.99-3.02-.19-16.13-2.56-17.57-4.9-.61-.99-.68-2.53.48-3.1,1.91-.95,6.12,1.54,8.32,2.17,2.99.86,6.57,1.5,9.68,1.73,1.45.11,13.65-.99,11.14,3.12Z"/>
  <path class="cls-1" d="M126.46,217.84c4.12.04,5.35,3.38,1.67,3.95-4.16.64-10.14.02-14.57.49-2.71.29-10.44,2.62-12.29,1.32-2.67-1.86,1.31-3.55,2.83-3.94,6.02-1.58,16.09-1.88,22.36-1.83Z"/>
  <path class="cls-1" d="M64.86,220.59c5.44-.54,10.89.03,16.27.34,2.02.12,4.46-.3,6.38,0s3.53,1.91,1.59,3.37c-2.4,1.81-13.16-.03-16.61-.22-2.23-.12-11.4.69-12.36-.88-1.36-2.2,3.34-2.48,4.72-2.62Z"/>
  <path class="cls-1" d="M240.3,200.27c-.87-.78-.07-2,.82-2.39,2.18-.95,16.16-1.09,18.89-.67,2.05.31,3.1,2.37,1.36,3.58-2.28,1.6-5.03.49-7.25.47-2.56-.02-12.26.41-13.83-1Z"/>
  <path class="cls-1" d="M85.55,231.46c.4-.65,5.44-1.34,6.56-1.42,2.52-.18,13.14-.43,14.62.88,1.12.99.84,2.14-.26,2.98-2.11,1.61-5.65.26-7.96.22s-11.9.64-12.8-.89c-.26-.44-.41-1.35-.16-1.77Z"/>
  <path class="cls-1" d="M226.4,298.17c1.17-.1,7.56-.59,5.82,2.17-.97,1.55-8.73,2.06-10.77,2.47-2.53.51-6.56,2.67-8.77,1.52-1.43-.75-1.65-1.83-.55-3.08,1.22-1.37,11.86-2.87,14.26-3.07Z"/>
  <path class="cls-1" d="M265.17,208.24c1.84,1.81-.63,3.25-2.44,3.5s-12.57.28-13.61-.45c-1.91-1.33-.05-3.28,1.81-3.59,2.44-.4,9.23-.27,11.86-.04.72.06,1.86.07,2.38.59Z"/>
  <path class="cls-1" d="M307.84,279.88c.47-.36,4.25-.97,5.12-1.03,1.87-.12,11.44.44,12.54,1.18s1.22,2-.09,2.6-12.75.57-14.68.3c-1.25-.18-4.61-1.75-2.9-3.05Z"/>
  <path class="cls-1" d="M36.52,14.73c2.98.44,11.95-.32,13.83,1.49,1.65,1.59-.41,2.79-2.05,2.99s-11.13-.45-12.07-1.17c-1.19-.92-1.29-2.83.29-3.3Z"/>
  <path class="cls-1" d="M121.43,260.73c2.18-.32,10.03-.44,11.53,1.01.95.91.53,2.13-.58,2.64-1.18.54-10.78.57-12.34.24-3.18-.69-1.88-3.4,1.39-3.88Z"/>
  <path class="cls-1" d="M29.02,11.1c1.21-1.16,12.34-2.39,14.16-1.84,2.44.73,1.04,2.71-1.02,3.35-1.53.47-9.21,1.61-10.76,1.59-1.64-.03-3.93-1.6-2.38-3.09Z"/>
  <path class="cls-1" d="M98.18,21.11c3.17,5.33-8.69,3.61-11.44,3.01-1.5-.33-4.23-1.99-2.5-3.43,1.27-1.05,11.47.42,13.94.42Z"/>
  <path class="cls-1" d="M106.86,19.27c1.34,2.18-1.02,2.8-2.84,2.62-1.47-.14-6.09-1.14-7.6-1.54-4.11-1.07-7.61-5.08-.26-4.3,1.31.14,10.32,2.6,10.69,3.21Z"/>
  <path class="cls-1" d="M56.7,24.64c-.66.98-10.54.03-11.94-.53s-2.45-2.96-.8-3.76c1.43-.7,11.28.76,12.35,2.24.36.5.69,1.58.38,2.05Z"/>
  <path class="cls-1" d="M37.51,67.18c1.45.92-.26,4.73-2.34,4.44-3.93-.54-.17-6.03,2.34-4.44Z"/>
  <path class="cls-1" d="M177.54,75.89c2.32-.68,13.67.59,15.63,1.98,1.54,1.09.37,3.11-1.18,3.28-1.22.13-6.16-1.49-8.16-1.69-2.73-.28-6.35,1.08-7.94-1.67-.1-.6,1.1-1.73,1.65-1.89Z"/>
  <path class="cls-1" d="M278.85,286.27c1.64-.36,5.44.28,5.85,2.14.77,3.46-8.31,1.66-7.52-1.04.33-.61,1.03-.96,1.67-1.1Z"/>
</svg>