<?xml version="1.0" encoding="UTF-8"?>
<svg id="Capa_1" data-name="Capa 1" xmlns="http://www.w3.org/2000/svg" viewBox="0 0 1024 1024">
  <defs>
    <style>
      .cls-1 {
        fill: #181818;
      }

      .cls-2 {
        fill: #0b0b0b;
      }

      .cls-3 {
        fill: #bdbdbd;
      }

      .cls-4 {
        fill: #f6f6f6;
      }

      .cls-5 {
        fill: #dadada;
      }

      .cls-6 {
        fill: #0f0f0f;
      }

      .cls-7 {
        fill: #f2f2f2;
      }

      .cls-8 {
        fill: #f0f0f0;
      }

      .cls-9 {
        fill: #f8f8f8;
      }

      .cls-10 {
        fill: #121212;
      }

      .cls-11 {
        fill: #f3f3f3;
      }

      .cls-12 {
        fill: #191919;
      }

      .cls-13 {
        fill: #ccc;
      }

      .cls-14 {
        fill: #0d0d0d;
      }

      .cls-15 {
        fill: #dfdfdf;
      }

      .cls-16 {
        fill: #d5d5d5;
      }

      .cls-17 {
        fill: #101010;
      }

      .cls-18 {
        fill: #020202;
      }

      .cls-19 {
        fill: #030303;
      }

      .cls-20 {
        fill: #060606;
      }

      .cls-21 {
        fill: #eaeaea;
      }

      .cls-22 {
        fill: #1a1a1a;
      }

      .cls-23 {
        fill: #242424;
      }

      .cls-24 {
        fill: #f7f7f7;
      }

      .cls-25 {
        fill: #0a0a0a;
      }

      .cls-26 {
        fill: #090909;
      }

      .cls-27 {
        fill: #151515;
      }

      .cls-28 {
        fill: #e9e9e9;
      }

      .cls-29 {
        fill: #ececec;
      }

      .cls-30 {
        fill: #e4e4e4;
      }

      .cls-31 {
        fill: #dcdcdc;
      }

      .cls-32 {
        fill: #e3e3e3;
      }

      .cls-33 {
        opacity: .77;
      }

      .cls-34 {
        fill: #070707;
      }

      .cls-35 {
        fill: #040404;
      }

      .cls-36 {
        fill: #f4f4f4;
      }

      .cls-37 {
        fill: #010101;
      }

      .cls-38 {
        fill: #d6d6d6;
      }

      .cls-39 {
        fill: #f5f5f5;
      }

      .cls-40 {
        fill: #e6e6e6;
      }

      .cls-41 {
        fill: #111;
      }

      .cls-42 {
        fill: #cfcfcf;
      }

      .cls-43 {
        fill: #0e0e0e;
      }

      .cls-44 {
        fill: #080808;
      }

      .cls-45 {
        fill: #f1f1f1;
      }

      .cls-46 {
        fill: #0c0c0c;
      }

      .cls-47 {
        fill: #050505;
      }

      .cls-48 {
        fill: #161616;
      }

      .cls-49 {
        fill: #d4d4d4;
      }
    </style>
  </defs>
  <g class="cls-33">
    <g>
      <path class="cls-37" d="M662,218c-10.21,9.72-24.53,20.82-33.54,30.96-1.56,1.75-2.69,3.57-2.45,6.04l36.99-35.99,202.67-183.85c7.65.61.03,6.81-2.66,9.36-70.88,67.41-146.85,129.82-217.54,197.46-4.93,4.71-9.54,9.78-14.45,14.53,3.46,3.07,5.67,7.27,3.96,11.94-1.16,3.15-3.72,3.89-4.46,5.58-3.63,8.3-2.37,10.52-8.52,19.48-4.89,7.12-5.91,9.9-15.76,11.25-5.29.72-14.67-1.41-17.52-.56-.55.16-7.47,6.2-8.73,7.3-2.05,1.81-15.57,15.04-15.79,16.15-.31,1.58,2.19,5.88,2.55,8.1.9,5.48-.73,13.71-4.75,17.76-4.85,4.87-5.91-.36-8.02.94-6.73,9.57-11.41,23.23-25.49,22.63-4.23-.18-6.62-2.47-10.46-2.62l-8.5,7.51c1.09,5.5,2.28,8.13-.68,13.4-.92,1.64-3.18,2.75-3.65,4.35-1.63,5.46,2.6,27.84,4.53,34.09,1.71,5.56,1.54,3.2,5.63,5.33,1.12.58,2.01,2.31,3.1,2.48,2.34.35,14.3-2.97,18.19-3.46,21.74-2.74,43.97-3.67,65.91-3.19,11.07.24,33.57.3,43.14,3.86,11.01,4.1,17.43,16.85,22.17,26.83,12.46,26.21,22.52,53.83,34.96,80.04,1.84,3.88,11.69,23.5,14.13,24.84.85.47,3.29-.93,5.33-.37,5.67,1.55,13.12,21.58,20.28,22.79,10.69,1.8,27.58-4.32,36.36-10.52s12.94-16.43,25.76-10.59c4.92,2.24,10.03,6.56,10.94,12.16.35,2.17-1.52,5.45.38,6.01,7.99-16.06,13.62-35.97,27.54-47.96,7.2-6.2,23.59-13.92,28.48-20.52,4.87-6.57,9.96-22.66,14.82-31.18,8.5-14.92,17.05-24.05,30.27-34.73,11.29-9.12,30.55-24.24,42.58-31.42,2.08-1.24,14.39-7.28,15.31-2.66.42,2.09-10.58,5.99-13.31,7.67-17.58,10.86-52.08,36.23-63.5,52.5-7.01,9.99-13.02,21.83-17.17,33.31,1.36,1.61,22.65-18.28,24.67-18.84,1.35-.37,2.97.16,3.31,1.35.97,3.42-2.72,2.5-2.99,4.48,2.93.32,5.09-1.69,7.32-3.16,8.62-5.69,19.28-16.97,26.19-24.81,9.7-11.02,18.27-23.23,26.92-35.08,1.48-1.72,4.67-1.08,4.45,1.41-.15,1.75-18.2,24.82-20.91,28.12-10.84,13.19-22.59,26.64-37.06,35.94-4.59,2.95-10.82,5.26-14.85,8.15-10.21,7.31-30.41,44.57-33.78,57.22-4.91,18.43-1.29,34.24-4.94,51.06-4.99,22.99-20.57,47.42-24.35,71.65-.09.59-.26,1.65.51,1.5,18.55-11.29,34.24-25.21,49.02-40.98,8.36-8.92,23-30.15,33.76-34.23,3.58-1.36,6.97-1.38,10.67-.72l.06,3.93c-3.36-.25-6.13.02-9.3,1.21-10.24,3.85-35.31,37.42-45.69,47.31-21.73,20.69-52.15,30.62-68.42,54.58-25.5,37.53-35.1,77.25-50.57,118.43-7.53,20.04-19.88,41.66-30.85,60.15-2.84,4.79-12.45,23.41-17.7,23.3-5.93-.13-2.61-11.23-1.8-14.8,5.5-24.25,18.25-48.6,25.56-72.44,1.33-3.47,5.07-3.78,4.59.52l-26.83,78.24c.78,1.21,2.46-1.65,2.84-2.16,27.4-37.1,38.85-77.72,54.16-119.84,2.11-5.81,6.25-12.73,7.81-18.19.21-.73.72-2.17-.29-2.28-5.61,6.25-11.17,12.97-17.49,18.51-2.78,2.43-6.27,4.18-9.01,6.49-1.32,1.11-2.88,2.01-4,3-12.84-.99-16.08,10.65-22.42,19.08l-4.58,8.92c-1.65,1.98-3.43,3.97-5,6-1.96-.02-2.78,1.34-4.01,2.48-19.82,18.28-41.79,34.29-57.21,56.8-6.35,9.27-10.89,20.73-17.81,29.19-5.05,6.17-14.99,11.22-18.42,16.58-4.37,6.81-5.48,20.55-9.06,28.94-2.58,6.03-16.7,25.01-22.41,26.61-7.04,1.97,2.85-8.79,4.42-10.6,7.28-8.4,13.97-13.77,16.01-25.99l4.01-17.99c-7.28,9.46-14.53,18.98-20.92,29.08-2.96,4.67-13.45,25.25-16.02,26.98-8,5.37-1.72-6.85-.74-8.73,10.32-19.78,25.18-41.38,39.66-58.34,8.2-9.6,19.89-19.11,26.93-29.07,5.32-7.54,7.99-17.47,13.61-24.39,4.96-6.11,13.55-10.17,19.87-15.13,14.06-11.03,25.77-24.51,38.1-37.39-9.07.55-8.55,7.81-18.02.52-14.06-10.83-20-32.64-27.8-47.2-3.25-6.08-12.44-13.33-14.4-18.6-1.3-3.5-.05-7.28-1.26-9.74-1.09-2.21-6.55-2.34-8.62-5.47-1.04-1.57-.1-3-.99-4.83-8.51-17.49-39.31-40.04-52.33-59.77-12.44-18.86-12.83-33.69-21.07-51.93-1.04-2.3-3.47-3.99-4.07-5.93-.72-2.34.04-5.1-.92-7.08-.26-.54-7.52-7.7-8.5-8.5-8.54-7.06-37.3-16.55-49.69-23.31-12.23-6.67-23.94-14.51-34.88-23.14l-1.48.47c-.58.8-.82,2-1.69,2.58-3.1,2.07-18.85-7.2-23.28-8.57-18.45-5.7-29.63-3.11-44.5-19.5l-13.48-21.01c1.29,6.05-4.66,6.35-6.74,8.25-.99.91-.95,3.69-2.23,5.29-2.08,2.59-5.18,1.78-7,2.99-1.54,1.02-1.49,3.87-3.64,5.36-1.52,1.05-4.01,1.17-5.75,2.25-4.55,2.85-3.47,5.96-11.09,4.81-2.06-.31-3.47-1.93-5.54-1.95-5.89,18.23-9.21,37.4-11.01,56.51-4.29,45.57-2.48,92.03-7.01,137.99-4.23,42.88-12.28,86.04-30.99,125.01,18.45-.81,36.44-8.93,54.99-7.01-1.58,1.99-3.94,2.21-6.16,2.84-16.21,4.61-34.48,5.45-50.78,10.22-17.76,35.2-40.79,67.56-67.54,96.46-8.02,8.67-22.67,24.73-31.5,31.5-3.81,2.92-7.43,3.75-5.07-2.07,37.95-36.83,74.75-76.82,97.04-125.45-.3-.3-5.58,1.16-6.49,2-1.31,1.22-8.95,16.49-11.09,19.91-5.63,8.99-11.95,19.15-18.9,27.1-1.68,1.92-10.7,11.24-12.17,11.83-6.35,2.57,3.25-7.25,2.65-7.84-7.15-.48-13.56-5.51-20.03-7.48-13.34-4.06-29.39-2.56-43.2-4.8-4.59-.74-12.14-1.35-13.62-6.41-.22-2.74,8.29-6.9,10.64-8.03,6.03-2.92,13.99-5.43,20.45-7.55,26.5-8.72,54.59-14.74,81.73-21.27,22.28-39.85,32.9-85.61,37.03-130.97,4.23-46.45,1.64-93.48,7.15-139.85,2.49-20.95,6.87-42,15.83-61.17-.04-2.12-8.16-7.7-10.39-10.56-3.65-4.7-4.61-10.14-7.58-14.42-4.55-6.56-16.43-11.27-19.23-18.77-1.43-3.82.54-5.83-.49-8.42-1.25-3.14-11.57-14.32-14.51-18.58-11.08-16.05-25-42.68-30.79-61.21-3.57-11.41-1.55-14.91,2.54-25.48,10.47-27.05,25.95-49.01,38.99-74.01,7.1-13.62,9.3-26.81,21.47-37.53,2.42-2.14,15.67-10.63,15.97-12.09-13.95-16.23,4.07-47.25,24.42-45.29,7.07.68,12.25,5.14,18.62,6.89-3.22-5.63-1.71-12.2-.77-18.26.19-1.2,1.45-2.36,1.55-3.4.2-2.09-3.56-7.95-.81-12.28-14.66-2.6-10.08-12.35-5.83-22.41,5.74-13.58,14.12-22.06,23.3-32.7,10.49-12.15,41.11-3.89,53.6,2.51,25.41,13.01,34.03,30.92,32.94,59.03-.12,3.22-1.93,8.03-1.82,11.05s3.31,5.97.59,9.21c-2.56,2.54-8.55-.45-11.74-.76,1.73,5.47-5.99,9.96-6.8,12.71-1.48,4.99,2.58,21.19-3.7,22.3-1.97.35-6.3-.58-7.38.13-.35.23-.99,3.57-1.73,4.77-3.1,5.07-7.23,9.43-9.4,15.09,13.41.42,21.35,12.29,30.53,19.98,13.89,11.64,32.72,17.75,48.52,26.59,13.3-9.64,38.72-12.05,50.31-22.7,1.96-1.8,2.14-3.72,3.71-5.29,3.26-3.28,10.49-5.64,14.47-9.53,6.99-6.82,8.28-16.87,18.41-21.59,3.53-1.64,18.95-6.05,22.66-6.41s5.11,1.62,8.36,1.51c44.39-43,89.78-84.94,134.56-127.53,28.27-26.89,55.47-55.46,84.46-81.54,1.86-1.67,9.74-8.94,11.5-8.48,1.2,1.1,1.94,1.26,1.04,3.01-1.17,2.27-14.03,14.13-16.99,17.01-59.2,57.59-119.69,114.04-179.53,170.97ZM466,202.99c-2.6-9.11,1.53-18.23,1.04-27.53-1.31-24.82-23.32-42.33-45.82-48.17-7.7-2-24.75-3.75-31.55.63-1.59,1.02-1.65,5.66-3.61,7.64-1.41,1.43-3.66,1.51-5.12,2.88-2.7,2.5-5.12,7.37-7.92,10.08,2.69,1.13,7.79-.71,8.85,3.21,1.01,3.71-7.12,18.25-12.2,14.36-1.96-1.5-.43-6.22-2.65-7.08-.03,3.46-6.44,13.2-3.07,15.55s16.91-1.66,21.55-1.64c14.18.06,29.47,13,42.54,18.54,12.17,5.16,25.23,8.13,37.96,11.53ZM393.98,218.99c5.61-9.89,10.94-20.38,19-28.5-12.34-9.94-22.11-13.16-35.07-1.87l3.58,9.38c1.18.02,1.49-13.67,11.02-14.08,10.66-.46,10.98,15.04,7.98,15.05-2.96-2.63-4.5-14.81-10.56-8.53-4.76,4.94-4.47,19.01,3.05,22.07.49,2.28-3.21,2.14-2.99,2.98.26.97,2.59,4.46,3.97,3.5ZM404,209.99c1.96.45,2.37-1.01,3.4-2.09,2.32-2.43,8.97-10.67,10.59-13.42.72-1.23,1.31-2.13-.51-2.47-2.68-.51-11.12,15.47-13.48,17.98ZM447,237v-18.5c0-1.98,8.83-8.32,7.59-12.54l-31.11-10.85c-8.56,11.86-22.74,24.07-23.11,39.55-.07,2.99,2.98,14.38,4.62,16.86,2.03,3.07,12.98,9.42,16.53,9.38,2.08-.02,3.06-1.17,4.34-2.54,4.31-4.65,8.82-14.92,12.56-20.43l8.58-.92ZM377.98,213.01c-5.97,1.41-7.91,7.32-9.9,12.39l23.91,21.6c-.17-3.17-1.13-7.3-2.26-10.23-1.67-4.31-2.71-7.23-4.27-11.73-1.11-3.2-6.98-7.72-7.48-12.03ZM348,214.01c-13.53.58-27.69,20.8-19.43,32.96,9.8-5.52,20.75-6.81,31.43-2.97l-10.49-14c-2.19-5.36-3.59-10.28-1.51-15.99ZM383.99,249c.44-1.88-1.05-2.38-1.99-3.5-4.29-5.12-20.56-17.44-22.08-19.92-2.14-3.52-.39-8.94-7.91-8.57-1.81,18.81,17.54,26.15,31.98,31.99ZM395.85,230.85c2.95-1.79.51-10.12-4.91-6.41-2.79,1.91.11,9.32,4.91,6.41ZM297.02,382.99c1.48,1.03,6.28-5.62,7.39-7.08,12.64-16.63,25.48-39.98,39.07-54.93,2.55-2.8,7.24-7.66,11.11-7.99,4.07-.34,4.17,2.95,6.95-1.96,5.67-9.99,5.33-26.41,6.46-37.53.44-4.33,3.05-12.81,2.94-16.11-.15-4.21-18.22-10.36-22.5-10.43-8.5-.14-16.78,10.01-22.97,15.01-22.26,17.95-17.65,16.79-30.3,40.7-8.21,15.52-18.92,29.74-26.12,45.84,14.8,11-4.73,26.71-4.1,37.95.27,4.89,4.75,13.41,6.31,18.76,2.5,8.59,6.37,27.86,6.65,36.36.1,3.22-2.39,6.23-1.51,9.42,2.02,7.31,15.67,19.03,18.61,26.98l2.06-.63c4.4-7.06,12.93-12.32,20.91-14.37.8-1.14-5.77-12.14-6.85-14.63-7.54-17.32-10.82-36.1-18.63-53.37-2.13-2.51-23.53-.38-15.86-8.89l7.35.89c2.33-2.15-11.32-6.49-8.54-11.98,3.09-6.1,20.63,1.4,21.57,7.98ZM389,257.99c-4.7-4.81-12.33-8.23-18.99-8.98l7.62,4.87,11.38,4.11ZM619.75,252.77c.41-.35.46-1.22.78-1.73l-1.02-2.01c-7.87,3.87-19.22,3.06-25.55,9.43-2.36,2.38-11.69,16.61-12.49,19.51-1.32,4.8.5,8.47,1.54,13.03,6.98-1.38,5.05-6.93,6.44-11.05,1.57-4.66,5.23-7.82,6.99-11.01.97-1.76.62-4.1,2.09-5.9,1.83-2.24,5.52-2.12,7.17-3.33,1.29-.95,1.72-3.76,4.56-4.94s7.45-.21,9.5-1.98ZM417.5,353c5.13-.76,13.42,0,19,0,.19,0,1.85,2.08,2.49.51-4-5.85-2.15-12.94-3.01-18.99-1.98-13.92-5.94-26.46-13.76-38.24-7.31-11.02-24.37-21.09-17.22-36.26l-11.5-4.03,2.49,8c-8.15,1.29-14.47-4.49-22-6-2.16,15.85-1.18,32.33-5.75,47.76-1,3.38-4.6,9.81-4.8,12.14s2.46,4.45,3.31,6.82c5.24,14.57,4.39,28.71,7.88,43.12,3.76,15.52,15.79,28.79,22.41,43.14l61.93-19c-10.33-9.47,1.9-21.39-14.78-25.71-6.03-1.56-32.52-.96-34.12-5.94-1.3-4.03,4.17-6.86,7.4-7.34ZM628.99,267.99c.2-.16.93-3.02.55-3.95-2.22-5.47-12.84-3.9-17.54-4.03l9.24,3.25c1.82.22,6.5,5.71,7.75,4.73ZM459,339v17.5c0,1.25,3.97,4.62,4.84,6.16,3.38,6.05,5.08,12.5,6.18,19.33,7.02-4.23,14.64-5.37,22.35-2.2l17.17-14.83c-4.79-17.83,11.36-24.05,21.5-34.45,4.78-4.91,7.49-12.85,15.47-13.57,3.88-.35,7.8,2.15,9.53,1.66,3.3-.94,6.45-9.31,10.97-9.63-5.18-4.71-3.75-11.64-6.5-16.96-9.93,8.15-23,10.47-34.49,15.5-6.7,2.93-13.39,4.7-14.75,12.25-.71,3.95-.26,8.23-1.33,12.17l-3.93.07v-12c-4,.92-1.66,11.81-5.49,10.99-7.15-1.51,3.1-18.15,2.49-18.98-13.96-7.61-31.93-13.32-44.01-23.5-4.35-3.67-8.11-8.84-12.52-12.48-3.35-2.77-13.91-10.08-17.51-11.57-1.96-.82-3.6,1.24-5.52,1.5-6.71.93-9.58-2.5-15.43-3.96-1.68,12.32,10.02,19.41,16.41,28.08,7.62,10.32,13.29,24.01,15.31,36.69,1.66,10.42-1.64,30.96,13.28,30.23.08-19.1-1.17-37.27-6.98-55.52-1.01-3.17-9.07-18.1-4.48-19.48,4.25-1.27,8.34,11.36,9.49,14.47,4.37,11.83,6.43,23.62,7.89,36.11,15.82,6.83,31.85,13.68,49,16.49,1.01,5.86-2.7,5.22-7.15,4.65-13.61-1.72-28.72-10.45-41.76-14.74ZM604.62,266.1c-1.17.3-2.1,1.4-.64,2.41,4.36,3.01,14.55,3.58,18.02,10.01,4.53-1.03,2.04-6.31-.63-8.39s-13.55-4.85-16.75-4.03ZM620.88,283.11c-.36-.61-10.73-6.75-12.2-7.3-2.96-1.12-10.49-4.07-10.68,1.17,6.04,1.99,17.42,5.08,15.99,13.01-6.51-.92-10.4-6.33-17.62-7.89-1.95-.42-1.74,1.09-1.39,2.4.98,3.64,11.78,6.85,11.57,13.53,6.79-.21,7.5-4.27,10.44-8.54,1.12-1.63,5.33-3.91,3.88-6.38ZM579.93,295.9l-3.94-15.9c-8.31,4.39-10.03,4.29-8.88,14.4.18,1.59,2.1,9.62,3.39,9.59l9.43-8.08ZM571,312c-3.54,3.57-7.5,6.82-11,10.5-.4.42-2.76,2.1-1.49,2.51,5.42-3.05,9.2-8.78,13.49-13.01,6.27-6.18,12.83-12.21,19.32-18.18.77-.71,2.96-1.56,1.17-2.83-8.17,5.89-14.48,13.93-21.49,21.01ZM342,331.99c3.62.92,14.92-10.94,14.98-12.49-1.47-2.36-2.86-.66-4.47.51-3.95,2.86-7.51,8.13-10.51,11.98ZM547,338.99c-1.45-6.91-.95-11.08,4.98-15.49-8.7-5.84-14.66,7.95-20.45,13.53-7.18,6.92-17.96,11.39-18.52,22.97,1.42,1.55,5.76-8.01,6.97-9.52,2.87-3.56,14.18-12.37,18.54-12.54,2.8-.11,5.58,1.6,8.48,1.06ZM393,412.99c-5.67-12.71-16.23-24.66-20.78-37.71-5.76-16.54-3.04-36-11.72-51.26-11.62,14.47-29.84,20.47-38.26,37.64,7.61,25,22.05,47.26,34.72,69.89,2.54,1.64,8.42-5.17,11.12-6.96,7.41-4.91,16.41-9.21,24.91-11.6ZM545,342.01c7.61,5.02-3.52,21.45-8.67,24.83-7.86,5.16-9.08.67-12.82,1.16-4.1.54,1.34,3.9,4.96,4.07,13.75.66,15.81-16.78,24.51-23.58,2.62-2.05,3.53-3.19,6.53-.51,2.78-.15,3.83-14.69-.01-16.97-1.8,5.62-1.72,13.69-10.07,10.08l-.97,1.98-3.45-1.06ZM528.01,365c5.61,1.08,15.52-13.68,14.59-17.02-.23-.84-3.68-5.88-4.08-5.92l-16.5,13.44c4.81,2.58,6.94,3.21,5.99,9.5ZM268.99,353c-1.78-.39-1.98.52-2.83,1.65-3.05,4.02-13.79,27.77-15.09,32.9-.59,2.33-1.24,4.42-1.11,6.9.23,4.16,10.37,25.82,12.87,31.21,2.81,6.05,6.02,13.26,10.17,18.32-1.87-7.33-1.26-14.89-2.25-22.24-1.42-10.52-10.5-27.12-10.79-35.28-.39-11.29,13.83-21.65,9.04-33.47ZM443,360.99c-6.88-5.54-18.62-4.38-26.99-2.98-.18,1.46,2.62,1.79,3.58,1.9,7.32.79,15.9.24,23.41,1.08ZM522.99,361.01l-155.97,136.49c1.82,2.97,4.57-.04,6.45-1.53,16.11-12.76,32.84-28.73,48.54-42.46,32.59-28.5,68.75-58.56,99-89,1.06-1.06,2.35-1.73,1.98-3.51ZM370,488.99c-3.89-5.43-2.51-13.68-4.22-19.27-.95-3.09-6.63-10.86-8.52-16.48-1.83-5.44-2.26-11.88-3.79-16.21-1.62-4.57-9.69-15.06-12.63-20.37-8.7-15.7-17.43-31.66-23.32-48.67-6.87,8.25-10.68,18.49-21.49,22.49,9.43,16.04,11.48,35.21,18.81,52.18,1.66,3.85,6.79,14.88,9.11,17.64,1.17,1.4,3.74.63,5.93,3.32,2.56,3.13,8.18,19.29,9.07,19.93,4.75,1.05,9.64.07,14.44.56,6.21.64,10.81,3.55,16.62,4.87ZM466,389.99c-2.45-6.52-2.17-17.86-8.99-20.99,2.36,4.34.44,9.21,1.43,13.02.45,1.73,5.2,10.09,7.56,7.97ZM291.65,382.35c-2.13-2.09-6.64-3.89-9.65-4.34l10.51,8.98c3.42.48-.25-4.04-.86-4.64ZM480,391.01c-40.83,13.29-81.62,28.26-119.02,49.49-1.11.74-.95,1.59-.83,2.74.26,2.37,7,19.72,8.34,19.74,4.56-3,.96-6.24.5-10.47-1.58-14.62,7.03-7.76,10.5.47,7.75-6.28,16.07-12.34,25.44-16.07.89-1.23-4.07-10.43,1.7-13.79,7.97-4.64,8.33,7.77,9.86,7.86,10.74-7.93,27.01-10.75,37.85-17.14,8.46-4.99,17.93-16.32,25.66-22.83ZM496.99,402l-8.99,3.03c.71,1.42,1.08,2.66.94,4.3-1.26,14.66-6.13,35.27-14.84,47.18,0,.68,8.23,6.06,9.42,6.48,2.81,1-.81-4.45-.37-6.28.28-1.14,2.56-2.76,3.36-4.69,6.21-14.87,6.68-34.32,10.48-50.01ZM484,407.01c-1.23-1.24-10.07,6.95-10.84,8.64l6.36,9.35c2.36.44,1.21-1.06,1.51-2.45,1.1-5.15,1.87-10.39,2.97-15.53ZM504.99,437l-4.98-23.99-3.08,19.34,8.06,4.65ZM478.82,430.19c-5.04-2.08-7.15-7.22-10.32-11.17l-80.07,69.96c4.66,8.34,11.65,27.48,22.16,28.94,6.34.88,12.98.12,19.31,2,4.13-15.76,12.05-29.05,21.28-42.23,2.01-2.87,8.6-9.56,9.34-11.75.9-2.64-2.52-3.6-.79-7.66.44-1.04,4.44-5.46,5.3-5.83,1.93-.83,3.58.77,4.96.11,3.27-1.56,10.4-19.7,8.82-22.37ZM440,426.01c-3.09.8-23.17,9.03-23.84,10.14-1.01,1.67.41,10.28-3.16,12.84,1.84.25,3.14-1.02,4.48-2.01,4.61-3.4,12.07-10.36,16.53-14.47,2.12-1.95,4.35-4.12,5.99-6.5ZM408,446c-3.04,7.97-16.16,16.65-25,15.01,1.67,3.92,10.23.39,13.32-1.19,4.16-2.12,10.7-8.63,12.68-12.82,3.03-6.41,2.37-13.2.99-19.99l-1.99,18.99ZM501.99,456c-.41-6.07,1.27-15.88-5.98-18-4.19,8.5.76,11.77,5.98,18ZM619.9,442.1c-34.14-1.43-68.17-1.25-101.85,4.95,1.05,11.47-2.81,30.1,3.2,40.19,2.64,4.44,15.15,13.14,19.76,17.24,2.35,2.09,10.26,11.35,12.29,11.32,22.39-5.56,42.99-16.8,66.04-19.72,1.24-.77,2.81-9.66,3.93-12.31,5.71-13.54,15.84-15.71,11.74,2.23.26.34,7.34-6.1,7.03-1.47-.35,5.29-10.5,13.59-13.63,17.92,1.7,12.25,5.58,24.18,11.78,34.86,8.11,13.96,20.92,24.5,31.32,36.68,2.89,3.38,9.76,14.41,11.95,16.11,1.13.87,1.19.85,2.54.51,4.3-1.07,24.74-16.36,23.48-20.61-13.2-20.58-20.81-44.3-31.44-66.28-17.95-5.88-21.84-33.02-34.72-41.54-8.71-5.77-22.24-6.06-23.43-20.07ZM671.99,494c.31-1.75-.24-3.11-.77-4.71-3-8.99-11.9-30.45-17.71-37.29-8.03-9.46-17.04-8.9-28.51-9.98.82,10.33,11.79,11.02,18.7,14.79,10.68,5.84,13.68,15.95,19.07,25.93l9.22,11.27ZM404,443.01c-.93-.85-19.95,11.31-19.98,12.49-.09,3.55,10.91-1.74,12.31-2.67,3.56-2.36,6.09-5.92,7.67-9.82ZM512.99,444l-6.98-1c2.05,6.19-1.31,13.91-.97,19.45.05.88,4.77,16.02,5.17,16.84.75,1.54,2.32,2.1,3.78,2.71-3.04-12.9-1.24-25-1-38ZM498.99,466c.33-5.42-4.33-9.39-6.48-13.99-1.33,1.26-2.87,3.45-2.39,5.3l8.87,8.69ZM466.52,458c-8.76,1.83,16.8,16.67,16.46,10.5l-16.46-10.5ZM497,470.99l-7.99-7.99c.28,3.63-.64,10.61-4.25,12.26-2,.92-4.59.23-6.28,1.72-.83.73-5.44,10.8-6.25,12.75-5.58,13.47-15.09,53.14-8.04,65.57,1.46,2.58,26.73,18.36,31.14,20.86,18.92,10.76,39.75,17.4,58.19,28.78,3.74-5.34,8.33-10.69,15.49-9.96-8.81-15.6-17.59-37.48.56-49.97l.34-1.35c-.35-2.49-30.54-32.23-34.89-36.18-12.09-10.98-28.42-20.71-39.54-31.46-.91-.88-4.38-3.82-3.47-5.02l4.99-.02ZM379.84,467.16l-5.34-3.14c-6.22,5.33-1.07,13.94-.48,20.98l7.45-6.95-1.63-10.88ZM392.99,467.01l-9,1,1.02,6.99c2.3-1.79,4.52-3.79,6.71-5.71.68-.6,1.92.06,1.27-2.28ZM473.99,473.02l-8.98-5.02c-4.18,7.09-9.95,13.18-14.43,20.09-7.14,11-18.91,33.34-17.48,46.31,1.4,12.67,8.56,14.3,18.4,19.6-.6-13.15-1.45-25.27,1.78-38.21,4.01-16.04,13.6-28.24,20.71-42.77ZM333,485.99l-7.5-16.99c-8.01,7.86-17.57,15.27-28.5,18.49,3.87,7.34,13,11.03,17.97,17.03,4.19,5.05,5.46,13.06,10.03,17.97,2.47,2.65,6.71,4.54,9.52,7.48,3.14,3.28,5.55,10.82,10.85,8.93l2.56-5.5c8.76,1.28,8.32.11,10.01-7.99,12.18,1.69,6.06-1.77,7.08-9.39l6.47,1.95c7.33-7.26-11.86-18.14-12.42-21.62-.17-1.05,1.08-2.47,1.88-2.83.94-.41,4.01,1.47,2.54-.54-7.09-3.79-16.6-2.41-24.5-3.55-3.37,4.82-13.03,20.59-20.01,17.07-7.34-3.7,6.85-21.83,14.01-20.52ZM315,470.01c-5,1.22-10.14,4.75-13,8.98,4.55-1.94,9.86-5.22,13-8.98ZM625.01,495c4.17-3.82,6.03-10.6,6.98-16-4.11,3.94-6.37,10.48-6.98,16ZM332,491.01c-1.72-1.57-10.73,7.92-9.99,10.99,1.83-.47,10.55-10.47,9.99-10.99ZM385.99,493c-2.31-.04-6.83,2.96-6.79,5.3.02,1.44,5.53,14.97,6.63,17.37,9.49,20.64,25.35,32.04,48.17,34.32-4.4-7.32-7.73-16.46-4.99-24.98-8.76-3.39-18.81-.06-26.94-5.58-6.99-4.75-12.66-18.77-16.08-26.43ZM740,677.01c-3.75,1.21-6.03,1.21-9.36-1.16-7.34-9.1-14.89-15.96-20.81-26.18-3.26-5.63-5.58-12.61-9.01-17.99-2.79-4.38-13.01-14.03-12.34-18.81.48-3.35,4.45-4.3.4-8.25-2.13-2.09-4.18-1.39-6.45-3.54-2.06-1.95-3.28-6.38-5.01-8.99-15.71-23.72-39.22-37.66-49.44-65.56-2.64-7.21-4.22-14.62-5.91-22.09-22.49-2.52-42.07,13.95-64.06,15.57-.42,1.52.4,1.66.98,2.51,7.13,10.38,23.21,22.62,32.54,31.46,22.62,21.42,25.58,52.13,38.62,80.38,9.38,20.33,21.33,46.39,32.69,65.31,3.33,5.56,9.27,14.91,14.66,18.42,2.05,1.33,3.1-1.25,5.93-1.1,6.27.34,13.87,18.71,20.64,23.44,9.19,6.42,25.55,5,35.96,2.08,9.24-2.59,19.55-13.22,28.47-12.58,5.74.41,19.97,8.74,18.52,16.06,9.14-10.88,13.88-25.24,24-35.49,3.25-3.29,16.25-11.48,17.45-13.55,5.17-8.93,9.23-31.3,13.28-42.72,2.64-7.46,6.39-14.56,9.02-21.98,8.4-23.73,2.73-44.66,10.54-68.46,5.11-15.57,15.88-28.24,22.7-42.79-5.58,3.44-10.32,8.04-15.68,11.81-14.63,10.3-23.85,13.26-32.84,30.16-14.14,26.56-18.63,47.77-41.46,69.54-14.79,14.11-26.94,28.41-41.49,42.51-6.91,6.7-11.92,8.65-17.35,17.65-5.55,9.2-14.84,32.69-22.13,38.87-2.8,2.37-5.89-.27-5.86-2.85.02-1.41,4.91-12.84,5.95-15.05,6.54-13.85,16.34-25.69,26.86-36.63ZM456,526.5c-.64,6.17.46,13.22,0,19.5l3.02-25.48h-2.02c.9,2.21-.85,4.58-.99,5.98ZM326,556c-15.28,52.78-10.17,111.04-14.01,165.49-3.5,49.57-12.97,99.26-35.99,143.5,2.05.03,4.65.05,6.06-1.7,3.13-3.89,8.96-20.22,10.96-25.77,24.13-66.75,23.2-140.07,26.97-210.03,1.24-23.07,1.39-48,7.01-70.49,1.54-6.16,5.46-12.77,6.99-19-4.31,4.37-6.29,12.14-7.99,18ZM573.49,547.19c-7.26,5.79-11.61,18.98-7.66,27.49,3.34,7.18,12.11,9.01,17.02,14.98,4.9,5.96,4.66,12.31,7.12,18.88,1.82,4.85,15.22,20.09,19.57,23.43,2.52,1.94,5.09,4.24,8.48,2.54,5.5-2.77-2.51-16.48-4.02-20.99-4.85-14.49-8.32-34.32-17.96-46.04-2.16-2.62-21.02-20.3-22.53-20.29ZM687,595.01l6.5,6.97c1.27.05,9.58-13.25,11.53-15.45,1.63-1.85,9.22-7.69,8.96-9.02-.15-.77-1.68-2.13-2.5-.52-6.53,7.78-15.04,14.36-24.5,18.02ZM721.98,576c-2.08-2.08-2.39,2.61-1.77,4.29.7,1.9,4.05,4.48,5.78,5.71.26-1.47-3.62-9.62-4.01-10ZM802.95,577.05c-3.61-.96-4.66-1.21-8,.39-1.06.51-16.27,12.28-16.97,13.1-2.04,2.37,2.14,6.19-1.56,8.39l-7.42-2.93c.05,2.47.58,6.23-2.02,7.55-4.17,2.12-8.51-6.14-9.98-4.54-.17,2.77-.61,8.98-3.71,9.86-4.88,1.39-6.27-4.76-8.05-7.58-.64-1,.09-1.78-2.24-1.28,1.2,4.37-1.31,23.02-8.6,17.09-5.17-4.21,3.18-17.29,2.6-18.08-7.15-2.26-12.45-7.83-17.5-13-4.85,6.77-10.39,12.83-16.49,18.49-2.71,2.51-8.43,4.13-7.35,8.28,1.3,5.01,7.86,9.43,10.52,14.53,2.16,4.15,2.69,8.49,4.94,12.56,4.51-1.04,7.52-3.22,12.5-3.75,9.2-.98,17.33.21,24.89,5.64,5.57-4.53,8.14-11.49,13.48-16.27,5.58-4.99,13.97-8.27,19.93-13.07,10.07-8.11,19.54-22.36,21.04-35.36ZM808.99,582c-2.02-1.93-2.92,5.66-3.5,6.98-11.01,25.14-21.6,25.1-39.5,40.5-12.44,10.71-18.75,33.28-39.99,31.52,2.4,2.12,7.54,10.84,10.3,10.8.67,0,7.33-2.62,7.54-2.96,1.95-3.29-2.95-11.47,9.18-8.28,1.41-6.29,1.06-11.89,9.5-9.98l1.55-1.02c1.28-1.7-.52-6.7-.01-10,1.03-6.64,16.36-14.21,22.94-13.56l.08-6.35c2.13-3.23,6.55-2.33,6.88-2.68.59-.62-1.42-5.36,2.53-8.01,1.05-.71,3.15-.84,3.37-1.09.66-.78-.59-4.11,1.07-6.45,1.18-1.67,4.68-2.12,4.98-2.53.85-1.17-1.23-4.55-.51-6.92,1.11-3.64,7.21-3.29,3.6-9.97ZM583.99,607c.77-9.42-5.53-17.56-13.98-21-1.36,1.62,11.25,19.09,13.98,21ZM644,734.99c.46-1.58-.52-1.69-1.01-2.48-18.02-29.24-38.76-45.1-51.26-80.74-6.4-18.24-5.69-39.71-20.72-52.77,1.47,5.32-8.78,17.87-7.88,21.29,6.87,9.31,8.03,22.03,12.12,32.96,13.2,35.32,40.95,53.87,62.91,82.62l5.83-.88ZM567,600.01c-2.23-1.72-13.61,8.41-6.5,11.97l6.5-11.97ZM623.01,635.01c-1.29,5.25-6.14,5.74-10.75,4.22-10.36-3.41-14.61-18.42-25.26-22.22,2.95,8.16,3.86,16.88,6.28,25.21,10.02,34.36,33.27,62.24,55.21,89.61,6.17-4.51,13.45-8.2,17.37-15.16l-42.85-81.67ZM784,632.01c-5.37-.52-17.89,6.95-14.51,13,1.01,1.81,1.61.24,2.52-.5,3.77-3.07,7.32-9.45,11.99-12.5ZM745,645.01c-9.26-4.66-18.14-5.18-28-2-.74,1.04,4.62,9.55,5.91,10.57,8.41,6.66,23.87-6.14,22.08-8.57ZM654.02,742c8.09-4.02,14.11-11.16,18.85-18.68-2.47-6.8-4.64.31-7.84,3.2-4.18,3.76-9.46,6.67-14,9.98l3,5.5ZM697.57,761.63c1.88-4.69,3.87-9.4,7.41-13.13-3.41-2.51-6.52-4.33-9.49-7.49-2.63-2.8-10.71-17.44-12.89-16.97-1.88,2.08-12.14,14.16-10.6,15.95,7.34.83,12.59,2.23,11.01,11.01,23.09-6.4,1.14,24.63,5,29,5.61-1.12,6.94-9.14,8.57-13.96.55-1.63-.13-1.59,1-4.41ZM770,737.01c-2.37-.05-4.71-.24-7.04.45-.84.25-14.32,8.44-14.93,9.07-3.03,3.15-4.33,20.13-11.32,18.33l-5.1-3.81c-2.45.52-7.47,14.4-10.7,2.06-5.61-2.15-5.64,6.9-9.56,7.7-3.26.66-4.33-3.26-4.44-5.71l-4.95.37c-1.9,5.89-7.27,26.61-16.94,19.01-7.38-5.8,5.11-27.47,3.98-28.47-3.61-.43-6.88,2.17-10.02-.49l-1.94-9.06c-12.11-5.41-16.6,7.15-26.02,12.04,8.45,9.08,15.51,18.29,19.96,30.02,11.81,1.04,23.65,4.57,33.39,11.41,7.96-11.73,21.94-11.47,32.53-17.54,7.73-4.43,28.6-24.81,30.88-33.12.93-3.4.87-8.54,2.23-12.26ZM775.69,757.76c1.16-.96,5.4-11.51,5.08-13.14-.22-1.12-4.73-5.54-5.76-4.62-.05,15.18-11.69,28.34-22.53,37.97-13.98,12.41-21.22,10.64-34.8,18.2-4.65,2.59-6.91,6.33-10.76,9.24-6.6,4.98-13.77,8.52-21.91,10.08,1.77,1.35,9,10.56,10.99,8.51l.93-4.59,8.12.16c2.23-1.61-1.25-8,4.47-7.51,2.06.18,5.57,4.64,6.48-.58,1.38-7.96-1.37-9.56,7.96-14.04,7.32-3.51,7.9-1.62,14.58-1.64,5.67-.02,1.54-4.98,6.53-8.28,3.73-2.47,5.96.38,7.98-.98,1.66-2.37-.36-3.64,1.46-6.48,3.43-5.34,7.57-.84,9.06-4.08.7-1.52-2.88-4.38.68-7.74,1.82-1.72,5.48-.69,6.59-1.41s1-6.7,2.07-8.25c.62-.89,2.21-.36,2.78-.83ZM699,802.01c-8.11-3.15-16.1-7.42-24.99-8.01,2.25,7.16,6.75,16.96,16.01,14.55,1.42-.37,10.4-4.65,8.98-6.54ZM266,872.01c-23.33,5.08-46.94,10.62-69.76,17.73-8.88,2.77-24.52,7.19-31.94,12.02-.97.63-1.79-.11-1.29,2.24,16.51,3.5,35.15,1.5,51.22,6.29,7.61,2.27,14.09,7.61,22.17,8.51l29.61-46.79ZM616,931.99c1.8,1.67,15.32-12.57,14.99-15.99-5.8,4.52-10.54,10.2-14.99,15.99Z"/>
      <path class="cls-18" d="M977.01,115v2.98c-45.1,8.81-86.15,45.52-104.47,87.05-26.49,60.06-.52,122.95-48.51,177.49-14.87,16.9-35.54,26.97-52.04,41.96-18.72,17.01-38.51,46.61-46.27,70.73-1.13,3.51-6.07,19.33-1.12,20.76,7.87,2.28,27.12-34.35,31.4-40.48,1.92-1.39.73,1.82.54,2.54-2.72,10.01-19.8,41.6-31.06,42.05-13.41.53-4.97-22.85-2.5-29.61,16.93-46.33,41.35-64.32,77.94-93.06,43.61-34.26,47.47-65.66,52.04-117.96,5.31-60.69,17.22-104.03,68.73-141.27,15.53-11.23,35.77-22.91,55.32-23.18Z"/>
      <path class="cls-18" d="M546.9,646.1c2.66,2.97-4.07,13.08-6.9,10.89l2.99-4.51c.31-1.37-.06-1.88-1.47-1.47-3.78,1.11-13.51,12-16.49,15.51-18.38,21.58-35.13,52.71-46.2,78.8-15.68,36.94-23.2,79.91-59.71,103.15,2.31,4.48,5.21,9.31,4.88,14.52-2.23,2.64-6.89-11.77-8.48-11.89-15.82,9.59-32.34,15.94-50.91,10.79-6.85-1.9-12.54-5.34-2.12-7.9l.42,2.51c17.71,6.52,36.39.84,51.04-9.98-7.4-12.47-16.62-26.35-30.07-32.88-4.81-2.34-13.2-5.79-17.85-2.13,2.21,2.02,3.25,4.39,5.63,6.35,5.33,4.38,16.05,6.15,20.39,10.61,6.15,6.32-1.37,5.57-6.4,3.4-14.34-6.21-14.3-10.73-33.14-8.84-6.02.6-18.09,4.5-13.85,12.04,3.99-.9,21.56-1.75,20.2,5.32-.84,4.33-10.79,3.97-14.12,3.39-3.59-.62-6.27-3.61-9.23-3.85-5.76-.47-15.02,3.02-21.06,3.13-5.72.1-6.08-3.23-.51-4.6s13.06-1.47,19.05-2.45c-1.41-16.6,20.79-19.57,33.01-17-4.18-4.06-7.85-11.91.45-13.04,22.94-3.13,40.91,20.64,51.04,38.03,36.98-24.82,44.03-71.56,61.33-109.65,10.72-23.59,27.09-52.37,44.15-71.85,3.72-4.25,18.03-19.85,23.93-16.37Z"/>
      <path class="cls-18" d="M844,413.99c-1.79-1.58,7.18-7.63,7.99-8.5,44.42-47.81,30.97-122.17,52.26-179.74,10.02-27.1,30.17-49.88,43.74-75.27.67-2.91-6.1,1.01-6.67,1.33-48.35,27.4-45,113.7-60.03,159.97-.73,2.24-5.66,16.58-6.43,17.07s-4.7.83-3.87-1.35c17.88-40.57,14.28-85.76,29.99-127.03,7.49-19.67,23.88-49.6,45.81-55.28,1.44-.37,3.2.66,4.27.26,1.2-.45,12.87-13.53,19.03-16.87,2.68-1.45,6.06-4.57,6.96-.07l-.5,1.52c-19.69,8.53-26.62,27.3-37.12,43.88-8.98,14.17-19.61,28.08-26.59,43.41-25.47,55.92-11.45,136.23-51.85,184.15-2.05,2.44-13.96,15.18-16.97,12.52Z"/>
      <path class="cls-18" d="M682.17,338.85c9.47,6.2,17.37-3.6,26.83-3.84,3.8,3.78-14.91,9.75-17.49,10-13.35,1.29-20.04-8.93-8.44-17.44,10.35-7.59,17.87-6.31,29.31-7.69,12.76-1.54,21.02-10.64,32.27-15.73,18.77-8.5,39.27-3.68,41.39-30.61,1.74-22.07.97-34.35,7.47-56.53,17.42-59.44,80.42-124.62,140.5-141.5,6.88-1.93,17.06-4.83,23.51-1.51.77,1.87-1.91,1.81-2.95,2.07-27.67,6.88-40.09,10.64-64.48,26.52-58.92,38.35-93.94,88.6-100.07,159.93-.85,9.92,1.79,17.74-3.8,27.2-7.76,13.14-28.43,13.14-41.59,19.41-9.64,4.59-18.22,13.47-29.23,14.77-4.19.49-8.41-.2-12.63.37-4.8.64-24.79,7.74-20.59,14.59Z"/>
      <path class="cls-18" d="M421,952.01c-.19,3.66,3.76,5.5,6.63,6.87,34.53,16.52,116.36,12.24,149.29-7.46,7.7-4.6,14.62-8.95,2.56-14.41l1.03-2.01c21.84,5.91,1.88,19.19-8.85,24.17-31.25,14.51-83.24,17.42-116.86,11.51-13.5-2.37-31.99-5-39.4-17.51-9.6,1.47-19.24,2-28.95,1.87-15.69-.21-69.68-3.33-81.2-10.8-4.47-2.9-6.25-7.67-10.24-10.76-9.57-7.43-27.03-6.25-38.44-9.39l-.59-3.09c12.67.11,34.31,1.52,44.03,10.47,2.93,2.7,4.22,6.74,7.25,8.75,9.14,6.07,54.29,9.27,67.19,9.81,8.25.34,35.53,1.14,41.85-1.23,1.94-.73,3.27-5.58,8.43-6.59,12.87-2.53,5.56,11.14-3.74,9.79Z"/>
      <path class="cls-19" d="M553,713c-2.31,4.69-2.06,7.19-3.46,11.04-11.31,31.11-36.63,70.34-32.56,104.48,1.05,8.83,5.08,6.44,9.53,1.49,17.45-19.39,14.77-54.43,35.98-77.02,7.65-8.14,21.13-14.4,15.96,2.97-6.32,21.23-21.7,41.82-28.16,65.83-4.52,16.79-5.59,33.95-6.78,51.21-6.37-9.15-2.94-24.57-1.19-35.18,2.39-14.5,6.92-28.94,12.51-42.49,6.49-15.7,16.21-30.04,21.17-46.32-11.46,3.5-20.41,20.02-24.76,30.73-6.44,15.83-10.89,47.45-25.73,57.27-13.4,8.86-13.09-13.81-12.55-21.54,2.11-29.93,24.44-76.15,37.04-104.46.43,1.43,1.54,1.99,3,2Z"/>
      <path class="cls-19" d="M550,711c3.93-8.83,11.22-15.55,13-24.99-3.42-3.28-19.29,11.64-22.02,14.47-26.63,27.53-46.97,70.59-57.99,107.01-4.26,14.08-15.11,56.04-10.28,68.32,4.42,11.22,10.63-6.52,14.3-10.3,3.45-3.55,12.28-6.13,12,.5-12.3-3.78-12.65,16.01-20.73,17.8-11.85,2.62-9.56-15.23-13.83-21.75-5.67-8.66-19.47-7.04-25.01.86-.84,3.69,7.68,7.93,9.56,10.61l-1.52,2.49c-7.85-3.69-18.46-12.32-7.81-19.83,6.8-4.8,16.6-5.73,23.67-1.01,2.76,1.84,2.82,4.74,5.66,4.83.51-24.31,7.95-49.48,16.26-72.24,10.98-30.07,28.41-64.18,50.24-87.76,3.82-4.12,25.04-25.06,30.6-17.34,4.94,6.84-9.88,23.86-13.09,30.36-1.46-.01-2.57-.57-3-2Z"/>
      <path class="cls-18" d="M826.99,323c2.57,2.99-10.53,25.69-12.97,29.52-5.82,9.12-18.46,25.67-29.79,27.28-12.88,1.83-6.45-17.39-20.48-16.57-15.15.88-31.8,21.29-38.14,33.9-10.04,19.96-7.56,32.34,15.29,17.29,4.34-2.86,10.92-12.04,14.63-12.41,1.24-.12,3.38.4,3.43,1.49s-12.74,14.36-14.81,17.17c-11.37,15.51-18.55,34.06-28.75,50.25-1.38,2.2-4.91,8.25-6.39,9.6-2.56,2.34-5.59,1.83-4.61-1.59.51-1.78,8.53-12.39,10.39-15.63,3.54-6.18,6.57-12.74,10.03-18.97,3.52-6.34,10.65-15.93,13.16-21.84.25-.59.18-1.69-.48-1.48-15.29,8.31-25.56,4.51-21.04-14.04,2.79-11.44,14.61-28.78,23.52-36.48,13.81-11.94,35.11-20.05,40.15,4.37,14.96-.05,27.18-19.29,34.04-31.19,3.07-5.33,5.66-13.34,8.99-18.01.98-1.37,1.8-3.01,3.83-2.66Z"/>
      <path class="cls-19" d="M849.28,434.71c-1.34-1.11-1.39-4.42-3.27-4.7-2.57,9.08-18.27,52.35-25.03,55.51-3.53,1.65-5.58-.48-6.03-3.97-1.45-11.12.37-23.42,5.04-33.54-.73-.76-4.57,2.31-5.47,3.02-24.76,19.54-41.29,85.3-55.48,114.52-.68,1.4-1.22,2.51-2.55,3.43-3-2.47-.71-7.64.22-10.76,3.27-11.04,9.38-24.27,13.81-35.19,7.65-18.82,27.81-70.87,46.12-78.87,14.83-6.48,2.01,18.37,1.36,25.34-.1,1.04-.42,12.17,1.98,10.49,4.95-8.78,9.6-17.68,13.5-27.01,4.47-10.69,7.28-22.42,12.49-32.55,4.3-2.31,4.44,8.73,5.99,11,.32,1.23,1.33.52,2.04.07,2.63-1.64,6.89-8.57,8.5-11.5l10.47-26.01c.43,5.24-.81,10.38-2.06,15.42-1.7,6.88-11.31,33.84-21.64,25.28Z"/>
      <path class="cls-19" d="M248.84,858.13l1.14,2.37c-.67.99-1.31,1.33-2.49,1.53-5.44.91-21.78-3.62-29-4.02-20.17-1.12-53.1,3.12-70.79,13.19-6.87,3.91-12.25,10.46-19.02,13.98-16.93,8.79-56.02,14.22-68.17,26.83-8.92,9.24,11.64,16.55,18.29,18.71,21.19,6.9,44.52,8.34,66.21,13.3.19,3.41-2.94,3.13-5.45,3-16.73-.84-68.42-11.09-80.87-21.19-5.12-4.15-7.16-8.79-3.12-14.78,8.8-13.04,53.58-21.34,69.12-28.88,6.49-3.15,9.09-6.84,14.41-10.59,29.11-20.5,76.06-19.55,109.76-13.45Z"/>
      <path class="cls-19" d="M442.01,755.99c-.29-1.98.4-3.7.95-5.54,11.61-38.77,36.27-80.68,64.55-109.45,2.12-2.15,9.44-7.01,10.49-9.52,1.29-3.11-5.1-.31-5.97.04-20.18,8.03-38.83,21.86-51.54,39.47l-2.49-1.52c9.32-17.31,27.32-29.73,44.65-38.34,3.56-1.77,29.19-13.47,30.84-13.15.5.1,1.83,1.65,1.56,2.51-10.36,12.22-23.69,22.41-34.55,34.48-25.73,28.61-41.06,63.75-54.6,99.4l-3.88,1.61Z"/>
      <path class="cls-19" d="M422,928c6.09-5.59,10.62-9.34,19.45-10.04,17.07-1.34,20.58,12.57,4.55,17.53,9.47,7.73,16.68,12.66,29.54,11.54,11.41-.99,17.99-10.3,28.22-11.78,10.46-1.51,32.4,2.2,40.55-2.44,4.8-2.74-2.64-6.38-2.25-10.18,1.03-3.67,16.1-2.96,19.43-2.63,3.86.38,15.36,3.49,17.62,6.47.99.52.03,3.41-.11,3.52-1.08.84-13.97-6-17.5-6h-14.5c4.22,5.83,5.88,10.49-2.03,13.47-13.73,5.17-28.78.49-42.23,2.77-8.68,1.47-15.47,10.96-28.2,11.79-18.22,1.19-20.34-8.85-32.81-13.27-9.54-3.38-13.7.22-20.73-9.77.36-.31.65-.68,1-1ZM427.01,928.02c-.38,2.01.89,2.41,2.41,3.06,2.2.95,12.73,3.14,15.07,2.98,6.75-.47,11.61-9.31,4.57-11.62-8.03-2.65-15.26,2.31-22.05,5.58Z"/>
      <path class="cls-19" d="M421,929c-2.24-3.18-4.51-5.21-4.01-10.01-7.91,1.17-15.86,5.76-23.75,6.75-11.9,1.5-24.2-.82-35.67-3.82-6.7-1.75-36.25-9.49-27.02-20.87l9.43-6.04c-5.86-1.58-26.73-2.74-29.55-8.01-1.01-1.88-.22-2.7.98-4.09,3.37-3.9,28.87-7.13,35.2-7.79,5.77-.6,26.29-3.08,29.46,1.56,1.37,2.37.37,4.6-1.6,6.31-3.93-.15-1.29-3.83-1.48-3.99-2.69-2.37-25.46.52-30.34,1.16-8.94,1.17-17.85,3.02-26.66,4.85l30.53,7.96.36,3.38-12.44,7.64c-2.16,4.07,7.82,7.93,10.87,9.19,15.63,6.42,37.4,10.53,53.88,6.52,6.39-1.55,12.14-4.99,18.79-5.71l4.01,14.01c-.35.32-.64.69-1,1Z"/>
      <path class="cls-19" d="M757.99,319.01c1.03,4.99-5.11,4.08-6.99,6.98,14.18-2.38,20.32,7.4,7.03,15.54-15.14,9.27-29.81,10.36-45.5,23.5-14.43,12.09-41.99,52.75-45.1,70.94-.56,3.25,1.76,8.95-1.47,8.56-7.37-.89,1.18-20.24,2.87-24.21,9.94-23.4,28.3-51.22,49.65-65.35,10.92-7.23,20.94-9.54,32.2-14.8,4.21-1.96,9.89-3.79,10.32-9.16-3.39-3.04-19.33,2.71-20.07-.63-2.03-5.49,15.33-13.12,17.06-11.38Z"/>
      <path class="cls-35" d="M88.07,848.92l-.07-2.91c25.18-1.39,53.99,5.73,77.99-3.52,8.62-3.32,14.44-8.5,24.53-9.47,19.78-1.91,40.26,3.8,59.99,3.99,2.57.03,15.74-3.03,16.49.52.43,2.01-3.08,3.19-4.56,3.42-24.92,3.89-56.88-8.53-79.98-.98-14.72,4.81-19.95,10.79-37.97,12.03-6.39.44-54.94-.66-56.42-3.07Z"/>
      <path class="cls-19" d="M420.99,979.01c.76,2.79-3.32,2.82-5.17,3.32-23.75,6.44-62.89,7.65-87.01,3.36-22.02-3.92-41.03-15.97-63.33-18.67-6.17-.75-15.3,0-20.98-1.02-3.84-.69-3.29-3.57.95-4.04,34.28-3.83,63.14,17.69,97.06,21.04,26.31,2.6,52.28-2.49,78.49-3.99Z"/>
      <path class="cls-19" d="M604.01,889c5.8-4,19.87-2.82,20.97,5.59.37,2.84-.15,5.86-3.46,6.41l-1.75-7.73c-4.2-3.72-14.08-2.47-16.24,2.76-1.67,4.03,1.4,9.19-3.04,11.97-3.4.72-2.59-7.48-2.47-9.49,1.55-25.02,16.16-77.17,29.78-98.21,2.58-3.99,4.73-2.12,4.02,1.97s-8.2,17.45-10.29,22.77c-8.12,20.67-14.86,41.79-17.52,63.97Z"/>
      <path class="cls-19" d="M778.01,333.02c44.99-25.54,32.04-85.52,53.12-126.39,2.63-5.1,5.72-4.38,4.69.64s-6.57,15-8.54,21.52c-10.05,33.31-7.26,75.03-35.76,100.24-2.86,2.53-12.63,11.06-13.52,3.99Z"/>
      <path class="cls-35" d="M623.99,754c1.75,1.73-13.26,29.09-15.17,33.32-10.93,24.12-15.67,45.63-24.36,69.64-.94,2.6-2,6.68-4.45,8.04,1.23-17.52,7.19-35.72,13.24-52.25s14.58-35.95,23.23-50.77c.98-1.68,5.28-10.19,7.51-7.98Z"/>
      <path class="cls-35" d="M732,816l1,1c-4.12,6.56-6.2,8.59-10.97,14.53-9.95,12.39-20.04,29.15-30.99,40.01-8.51,8.45-20.59,15.29-29.66,23.37l-2.38-1.43c-.24-.93.13-1.67.5-2.48,1.5-3.32,19.67-15.19,23.97-19.03,11.47-10.24,17.61-22.41,26.53-33.97,1.57-2.03,3.35-4.02,5-6,4.95-5.94,12.21-11.12,17-16Z"/>
      <path class="cls-35" d="M940.01,95v2.99c-27.55,1.93-54.03,27.54-69.96,48.55-4.6,6.07-10.88,18.8-15.06,22.94-3.32,3.29-3.32-1.42-2.2-4.21,5.7-14.23,29.09-39.92,41.21-49.79s29.01-22.18,46.02-20.48Z"/>
      <path class="cls-47" d="M520.99,889c-5.19,3.56-5.48-10.77,3.55-11.07,8.99-.3,10.78,15.73,14.98,16.13s13.15-10.54,21.23-11.81c3.07-.48,18.28-.07,18.29,4.25s-7.76.74-10.54.53c-3.02-.23-6.58-.3-9.51.45-8.43,2.15-15.75,17.82-24.52,8.57-4.24-4.47-8.8-24.04-13.47-7.05Z"/>
      <path class="cls-47" d="M351,764.01c-1.86,1.76,8.05,10.61,9.99,11.5-.56,5.31-8.04-.27-9.91-2.1-9.58-9.42-2.92-20.93,9.3-9.3,1.97,1.88,11.12,14.36,10.61,16.37-.19.75-2.1,2.28-3.02,1.04-2.18-1.83-13.62-20.69-16.98-17.52Z"/>
      <path class="cls-47" d="M434.01,786.01c1.95-.17.85,3.1.52,4.02-2.86,8-11.51,14.53-19.9,9.83-3.5-1.96-8.67-11.09-13.19-7.95-2.45,1.7-3.41,8.06-7.41,3.59,8.84-20.5,16.08-1.93,24.02.96,5.72,2.08,13.79-5.26,15.96-10.46Z"/>
      <path class="cls-34" d="M752,261.99c6.98-.33,12.75-13.36,16.98-15.51,1.49-.76,2.96.24,2.99,1.01.14,3.64-15.91,21.75-21.94,19.02-8.43-3.82,4.18-13.86,8.47-15.49,4.91,4.72-5.1,6.71-6.51,10.97Z"/>
      <path class="cls-20" d="M487.88,617.89c-.49.86-10.46,4.52-10.88,8.1,2.48.03,5-1.25,7.2-2.28,2.43-1.14,11.12-8.37,8.59-1.41-1.66,4.57-17.67,10.57-20.36,6.77-2.43-8.4,7.9-12.4,14.04-15.07,1.29.81,2.17,2.56,1.4,3.89Z"/>
      <path class="cls-47" d="M804.28,532.28c-1.3,1.38.07,4.9-5.27,3.72-.3-3.69.52-7.88,2.43-11.07,1.72-2.88,10.49-12.7,11.62-5.4.38,2.45-2.7,8.81-4.48,10.54-1.58,1.54-3.76,1.63-4.3,2.2Z"/>
      <path class="cls-35" d="M418.68,741.14l2.2,1.51c1.35,4.42-7.5,18.75-12.95,14.92-4.65-3.27,5.83-15.98,10.75-16.43Z"/>
      <path class="cls-44" d="M686,428.99c1.88,2.04,4.93-6.96,6.5-6.97,4.13-.04-.82,15.33-8.51,11.49-5.47-2.74.38-16.62,6.49-16.51,4.05,3.6-5.61,6.87-4.48,11.99Z"/>
      <path class="cls-34" d="M930.69,238.67c-.69.59-1.47.93-2.34,1.18l-2.31-1.45c.44-7.43-.67-13.59,8.31-16.26,6.17,1.16-.82,14.08-3.67,16.52Z"/>
      <path class="cls-44" d="M243.19,744.23c-.2.1-.95,3.22-3.28,2.31-6.56-1.71-3.38-9.91,6.93-6.86,9.2,2.72,10.09,12.82,3.85,11.23-2.86-.73-3.16-8.81-7.49-6.67Z"/>
      <path class="cls-20" d="M673.74,351.15l1.56-.05c8.62,5.53-3.53,15.53-9.36,11.46-5.08-3.54,4.62-10.21,7.8-11.41Z"/>
      <path class="cls-26" d="M619.99,396.01c2.49,2.45-8.02,6.1-3.53,10,3.25,2.82,10.18-3.52,10.5.49.27,3.39-11.86,8.16-15.23.23-2.31-5.44,1.63-12.48,8.25-10.72Z"/>
      <path class="cls-44" d="M619.99,367c-3.75.03-6.22-2.8-9.99-.98.34,3.12,6.59,2.81,6.99,4.5,1.32,5.47-16.45,1.93-10.06-7.09,2.9-4.1,14.89-3.61,13.06,3.57Z"/>
      <path class="cls-43" d="M422.99,895c-5.72-1.67-9.16-2.75-14.98-.48-1.45.56-7.06,5.65-8.01,1.97-1.7-6.64,22.14-11.76,22.99-1.49Z"/>
      <path class="cls-2" d="M931.99,292.01c2.91,4.29-3.82,18.08-9.04,14.54-4.18-2.83,6.95-16.08,9.04-14.54Z"/>
      <path class="cls-25" d="M439.01,694c.54.61,8.84-6.35,8.01-1.48-.76,4.47-7.87,7.45-11.58,4.55-2.05-2.94,1.3-13.35,5.05-12.05,3.19,2.44-3,5.42-1.48,8.98Z"/>
      <path class="cls-6" d="M733,817l-1-1c3.57-3.63,5.11-7.71,10-12,1.12-.99,2.68-1.89,4-3l5,2.49c-.5,2.08-15.58,9.68-18,13.51Z"/>
      <path class="cls-2" d="M726.72,275.73c-1.65,1.73-7.76,2.89-10.05,2.31-4.68-6.66,6.18-12.58,10.89-6.03.59,1.18,0,2.84-.84,3.72Z"/>
      <path class="cls-42" d="M663,219l-36.99,35.99c-.25-2.47.89-4.29,2.45-6.04,9.02-10.13,23.33-21.24,33.54-30.96l1,1Z"/>
      <path class="cls-26" d="M244.71,798.31c5.56.08,4.29,4.68,2.36,8.25-2.6,1.86-9.68-.41-10.1-4.05,0-3.07,5.34-4.23,7.74-4.19Z"/>
      <path class="cls-34" d="M648.92,382.12c.16.15-.1,1.62.45,2.48.27.43,1.52.46,1.65,1.1,1.36,6.72-10.24,10.73-10.12,3.79.05-2.78,5.4-9.75,8.02-7.37Z"/>
      <path class="cls-25" d="M372.96,750.98c-2.49,1.8-7.47-7.56-3.3-10.04,4.71-.59,7.49,2.39,10.33,5.58l-1.58,2.45-4.45-.54-1,2.55Z"/>
      <path class="cls-26" d="M568.36,820.33c4.92-7.01,10.3-4.49,6.89,3.42-2.91,6.75-12.66,4.82-6.89-3.42Z"/>
      <path class="cls-46" d="M799.97,435.03c2.6,3.96-4.16,13.38-8.02,10.54-3.21-5.46,2.21-11.39,8.02-10.54Z"/>
      <path class="cls-26" d="M894.7,408.68c-6.11,5.4-4.99-7.88-2.98-9.72,7.31-6.67,8.28,5.03,2.98,9.72Z"/>
      <path class="cls-44" d="M401.76,870.24c.98.95,1.29,3.36,1.24,4.76-.91,1.34-15.12-.52-13-5.99.88-1.25,10.47-.03,11.76,1.23Z"/>
      <path class="cls-46" d="M420.69,672.71c-1.82,2.22-5.21,2.66-7.59,1.19-1.05-12.59,14.11-9.14,7.59-1.19Z"/>
      <path class="cls-2" d="M499,909.01l-.99,4.99,3.5-3c4.95-1.1,1.15,9.22-5.87,6.89-3.58-1.19-1.75-10.37,3.35-8.89Z"/>
      <path class="cls-25" d="M469.01,722c-.84-4.69,2.74-8.63,6.5-10.97,4.84,2.76-3.63,13.85-6.5,10.97Z"/>
      <path class="cls-48" d="M477.02,773c-2.24-3.04.35-12.1,4.47-10.99,3.01.81-.45,13.66-4.47,10.99Z"/>
      <path class="cls-41" d="M560.65,861.13c4.74-1.28,3.25,4.74,1.36,7.37-5.79,8.05-7.7-5.65-1.36-7.37Z"/>
      <path class="cls-14" d="M452.99,639.01c2.05,2.01-5.86,7.55-7.32,8.18-1.23.54-2.33.9-2.67-.71-.73-3.44,6.48-8.57,9.99-7.48Z"/>
      <path class="cls-46" d="M469.99,819.01c.65.68-.47,7.81-1.49,9-.94,1.11-4.07,1.42-4.5.99-1.19-1.19,1.64-11.77,5.99-9.99Z"/>
      <path class="cls-41" d="M330.99,799l.07-3.93c13.38-3.85,13.76,5.92-.07,3.93Z"/>
      <path class="cls-17" d="M672.99,387.01c1.4,1.35-4.9,11.87-7.99,8.99-1.27-1.18,4-11.38,7.99-8.99Z"/>
      <path class="cls-43" d="M823.99,406c1.44,1.5-4.42,10.96-5.49,10.97-4.7.05,2.57-14.01,5.49-10.97Z"/>
      <path class="cls-46" d="M653.65,334.13c7.09-2.26,7.23,7.51,1.05,5.71-2.57-.75-4.07-4.74-1.05-5.71Z"/>
      <path class="cls-2" d="M513,873c.91,3.5-.59,9.51-5.04,6.55-2.9-1.93,1.15-8.28,5.04-6.55Z"/>
      <path class="cls-12" d="M604.01,824c-3.29-2.3,3.6-12.36,5.57-4.93-.09,2.22-3.4,6.44-5.57,4.93Z"/>
      <path class="cls-10" d="M841.01,381l1.08-6.9,3.96.36c2.91,1.91-1.15,8.29-5.04,6.54Z"/>
      <path class="cls-48" d="M267.71,776.14c2.73-.72,7.36,2.64,4.31,5.39-2.41,1.53-5.57-1.39-7-3.03.83-.75,1.55-2.05,2.69-2.36Z"/>
      <path class="cls-1" d="M592.13,876.15c1.86-.68,3.85.17,3.88,2.3.08,6.64-9.95,5.94-3.88-2.3Z"/>
      <polygon class="cls-22" points="926 252.01 923.02 257.57 919.45 256.01 922.02 251.43 926 252.01"/>
      <path class="cls-27" d="M859.96,356.96c-5.34.66-5.16-4.7-.46-6l2.48,1.53-2.02,4.47Z"/>
      <path class="cls-23" d="M388.01,766c2.76-1.89,7.01,5.07,3.48,5.99-3.84,1-4.85-5.05-3.48-5.99Z"/>
      <path class="cls-24" d="M545,342.01l3.45,1.06.97-1.98c8.35,3.61,8.28-4.46,10.07-10.08,3.84,2.28,2.79,16.83.01,16.97-2.99-2.68-3.9-1.54-6.53.51-8.7,6.8-10.76,24.25-24.51,23.58-3.62-.17-9.06-3.53-4.96-4.07,3.73-.49,4.96,4,12.82-1.16,5.15-3.38,16.28-19.81,8.67-24.83Z"/>
      <path class="cls-9" d="M742,804c-4.89,4.29-6.43,8.37-10,12-4.79,4.88-12.05,10.06-17,16l4.58-8.92c6.33-8.44,9.57-20.07,22.42-19.08Z"/>
      <path class="cls-24" d="M687,595.01c9.46-3.66,17.97-10.24,24.5-18.02.82-1.61,2.34-.25,2.5.52.26,1.32-7.33,7.17-8.96,9.02-1.95,2.2-10.26,15.51-11.53,15.45l-6.5-6.97Z"/>
      <path class="cls-39" d="M604.62,266.1c3.2-.83,14.08,1.94,16.75,4.03s5.16,7.36.63,8.39c-3.47-6.43-13.65-6.99-18.02-10.01-1.46-1.01-.53-2.11.64-2.41Z"/>
      <path class="cls-4" d="M484,407.01c-1.1,5.14-1.87,10.38-2.97,15.53-.3,1.39.85,2.89-1.51,2.45l-6.36-9.35c.77-1.69,9.61-9.88,10.84-8.64Z"/>
      <path class="cls-24" d="M583.99,607c-2.73-1.91-15.34-19.38-13.98-21,8.45,3.44,14.75,11.58,13.98,21Z"/>
      <path class="cls-39" d="M404,443.01c-1.57,3.9-4.1,7.46-7.67,9.82-1.4.93-12.4,6.21-12.31,2.67.03-1.18,19.05-13.35,19.98-12.49Z"/>
      <polygon class="cls-8" points="504.99 437 496.93 432.35 500.01 413.01 504.99 437"/>
      <path class="cls-45" d="M466,389.99c-2.36,2.12-7.11-6.24-7.56-7.97-.99-3.81.94-8.68-1.43-13.02,6.82,3.14,6.54,14.47,8.99,20.99Z"/>
      <path class="cls-11" d="M501.99,456c-5.22-6.23-10.17-9.49-5.98-18,7.25,2.11,5.56,11.93,5.98,18Z"/>
      <path class="cls-7" d="M466.52,458l16.46,10.5c.34,6.18-25.22-8.67-16.46-10.5Z"/>
      <path class="cls-28" d="M443,360.99c-7.51-.85-16.09-.29-23.41-1.08-.97-.1-3.76-.44-3.58-1.9,8.38-1.4,20.11-2.56,26.99,2.98Z"/>
      <path class="cls-36" d="M784,632.01c-4.67,3.05-8.22,9.43-11.99,12.5-.91.74-1.51,2.32-2.52.5-3.37-6.06,9.15-13.52,14.51-13Z"/>
      <path class="cls-39" d="M628.99,267.99c-1.26.97-5.93-4.51-7.75-4.73l-9.24-3.25c4.7.12,15.31-1.44,17.54,4.03.38.94-.35,3.8-.55,3.95Z"/>
      <path class="cls-45" d="M342,331.99c3-3.85,6.56-9.12,10.51-11.98,1.61-1.17,3.01-2.87,4.47-.51-.06,1.56-11.36,13.41-14.98,12.49Z"/>
      <path class="cls-7" d="M567,600.01l-6.5,11.97c-7.11-3.56,4.27-13.69,6.5-11.97Z"/>
      <path class="cls-30" d="M404,209.99c2.36-2.52,10.81-18.49,13.48-17.98,1.81.34,1.23,1.25.51,2.47-1.61,2.75-8.26,10.99-10.59,13.42-1.03,1.08-1.44,2.54-3.4,2.09Z"/>
      <path class="cls-3" d="M409,447c-1.98,4.19-8.52,10.7-12.68,12.82-3.09,1.58-11.65,5.11-13.32,1.19,8.84,1.64,21.96-7.04,25-15.01l1,1Z"/>
      <path class="cls-29" d="M498.99,466l-8.87-8.69c-.48-1.85,1.06-4.05,2.39-5.3,2.15,4.6,6.82,8.57,6.48,13.99Z"/>
      <path class="cls-39" d="M571,312c7.01-7.08,13.32-15.12,21.49-21.01,1.79,1.26-.41,2.12-1.17,2.83-6.49,5.97-13.05,12-19.32,18.18h-1Z"/>
      <path class="cls-40" d="M395.85,230.85c-4.79,2.92-7.7-4.49-4.91-6.41,5.42-3.71,7.85,4.61,4.91,6.41Z"/>
      <path class="cls-40" d="M616,931.99c4.45-5.79,9.19-11.47,14.99-15.99.33,3.42-13.19,17.66-14.99,15.99Z"/>
      <path class="cls-15" d="M389,257.99l-11.38-4.11-7.62-4.87c6.67.75,14.29,4.17,18.99,8.98Z"/>
      <path class="cls-21" d="M392.99,467.01c.65,2.34-.6,1.69-1.27,2.28-2.19,1.93-4.41,3.93-6.71,5.71l-1.02-6.99,9-1Z"/>
      <path class="cls-38" d="M456,526.5c.14-1.4,1.9-3.78.99-5.98h2.02s-3.02,25.48-3.02,25.48c.46-6.28-.64-13.33,0-19.5Z"/>
      <path class="cls-5" d="M409,447l-1-1,1.99-18.99c1.38,6.8,2.04,13.59-.99,19.99Z"/>
      <path class="cls-31" d="M625.01,495c.61-5.52,2.87-12.06,6.98-16-.95,5.4-2.81,12.18-6.98,16Z"/>
      <path class="cls-13" d="M327,557l-1-1c1.7-5.86,3.68-13.63,7.99-18-1.53,6.23-5.45,12.84-6.99,19Z"/>
      <path class="cls-5" d="M332,491.01c.56.51-8.16,10.52-9.99,10.99-.74-3.07,8.27-12.56,9.99-10.99Z"/>
      <path class="cls-38" d="M291.65,382.35c.61.6,4.28,5.12.86,4.64l-10.51-8.98c3.01.45,7.52,2.26,9.65,4.34Z"/>
      <path class="cls-32" d="M721.98,576c.38.38,4.26,8.53,4.01,10-1.73-1.23-5.08-3.81-5.78-5.71-.62-1.67-.31-6.36,1.77-4.29Z"/>
      <path class="cls-16" d="M315,470.01c-3.14,3.76-8.45,7.04-13,8.98,2.86-4.23,8-7.76,13-8.98Z"/>
      <path class="cls-49" d="M572,312c-4.29,4.23-8.07,9.96-13.49,13.01-1.27-.41,1.09-2.09,1.49-2.51,3.5-3.68,7.46-6.93,11-10.5h1Z"/>
      <path class="cls-47" d="M687.99,637.01l-.76,4.73-20.37,38.63-3.86,1.63c-2.14-2.18,13.48-30.53,15.82-34.67,1.01-1.78,6.5-13.03,9.17-10.32Z"/>
      <path class="cls-20" d="M652.99,574.01c1.78,1.79-5.66,9.88-6.8,11.69-4.6,7.28-8.05,15.28-12.69,22.29-2.1-1.44-1.59-3.12-1.28-5.24.76-5.25,12.45-24.15,16.74-27.28,1.37-1,2.01-1.89,4.04-1.45Z"/>
      <path class="cls-26" d="M618.65,528.12c1.85-.16,2.77,1.61,2.25,3.27-.15.47-5.85,4.88-7.31,6.7-3.42,4.28-4.05,8.5-6.38,12.62s-4.62,2-4.19-2.12c.47-4.5,11.04-20.08,15.64-20.47Z"/>
      <path class="cls-44" d="M662.01,654c-3.23-3.31,9.51-19.95,12.95-22.54,2.46-1.85,5.85-2.07,4.04,1.02-2.16,3.69-6.25,7.41-8.8,11.21-1.29,1.93-5.46,13.1-8.19,10.3Z"/>
      <path class="cls-35" d="M430,157c3.66-2.51,4.18-14.69,13.53-4.03,6.59,7.51,6.69,18.54,2.02,27.08-8.35,15.25-18.46-6.87-13.58-15.57,2.22-1.56,4.66-1.79,7.31-1.29,1.22.23,5.4,3.71,4.65.39-.46-2.05-4.21-9.78-6.45-9.54-2.46,2.24-3.13,8.58-7.5,6.45-.04-1.16.07-2.33,0-3.48ZM440.98,180c2.89-8.2,4.88-11.52-5.98-11.99l2.94,11.55,3.04.44Z"/>
      <path class="cls-34" d="M430,157c-1.41.97-2.49.43-3.91-.1-.2-3.46.31-6.9-1.32-10.18s-9.29-1.66-7.77-9.71c13.58.41,12.4,9.94,13,19.99Z"/>
      <path class="cls-25" d="M400.63,132.08c2.02-.6,8.71,2,10.31,3.47,3.16,2.91,2.5,7.98-1.93,5.93-1.07-.49-9.89-6.4-10.01-7l1.63-2.41Z"/>
      <path class="cls-7" d="M440.98,180l-3.04-.44-2.94-11.55c10.85.47,8.87,3.79,5.98,11.99Z"/>
    </g>
  </g>
</svg>