<?xml version="1.0" encoding="UTF-8"?>
<svg id="Capa_1" data-name="Capa 1" xmlns="http://www.w3.org/2000/svg" viewBox="0 0 595.28 490.82">
  <defs>
    <style>
      .cls-1 {
        fill: gray;
      }

      .cls-2 {
        fill: #ccc;
      }

      .cls-3 {
        fill: #4d4d4d;
      }

      .cls-4 {
        fill: #666;
      }

      .cls-5 {
        fill: #999;
      }
    </style>
  </defs>
  <path class="cls-5" d="M269.77.81c99.26-6.29,201.18,24.09,278.14,86.96,10.55,8.62,33.78,28.72,41.05,39.1,17.09,24.4-2.9,59.4-31.91,59.2-20.74-.14-27.66-15.12-40.95-26.43-134.64-114.48-305.28-112.44-439.09,1.82-6.36,5.43-13.58,15.87-20.55,19.53-36.91,19.38-73.7-23.97-47.76-56.87C63.57,54.57,183.04,6.31,269.77.81ZM551.75,108.52C423.53-4.78,229.39-17.78,86.31,76.04c-15.62,10.25-67.16,48.78-71.8,64.82-5.74,19.86,12.15,35.67,31.64,29.82,8.28-2.48,31.65-28.04,40.96-35.55,125.91-101.69,308.27-95.61,430.82,8.12,14.85,12.57,32.66,42.42,55.25,22.51,23.31-20.54-6.09-43.69-21.43-57.24Z"/>
  <path class="cls-3" d="M282.44,334.13c123.72-17.83,123.28,174.25.34,155.38-85.79-13.17-83.03-143.46-.34-155.38ZM289.67,385.09c-26.67,5.54-26.07,49.75,1.52,54.1,45.94,7.26,44.28-63.61-1.52-54.1Z"/>
  <path class="cls-1" d="M294.92,112.82c55.75-.43,114.29,17.36,160.57,47.94,13.84,9.15,54.8,41,59.05,55.73,8.34,28.88-14.16,50.71-43,44.82-11.91-2.43-31.19-25.31-42.62-33.89-80.42-60.43-188.61-59.03-267.44,3.39-20.39,16.14-35.69,43.31-65.69,27.34-20.23-10.77-22.55-35.51-9.09-52.94,42.71-55.32,139.91-91.85,208.23-92.38ZM99.38,211.45c-20.3,25.33,6.87,48.49,29.25,32.04,6.54-4.81,12.62-13.72,19.12-19.14,82.09-68.56,201.55-73.01,287.7-8.93,8.92,6.63,32.56,31.52,39.7,33.15,20.37,4.65,34.49-15.14,23.94-33.04-10.17-17.26-63.14-52.42-82.29-61.63-97.85-47.03-247-30.33-317.42,57.54Z"/>
  <path class="cls-4" d="M282.55,223.08c52.05-4.61,116.76,18.94,149.8,60.43,25.12,31.55-10.47,72.49-45.86,51.32-7.65-4.58-12.97-12.86-19.93-18.33-40.42-31.8-97.66-31.49-138.14,0-10.53,8.19-14.53,17.73-28.9,22.1-31.57,9.61-56.19-22.25-39.83-50.75,19.77-34.43,84.74-61.41,122.86-64.78ZM288.02,235.83c-35.71,2.72-76.08,19.01-102.52,43.22-12.19,11.17-29.75,33.69-7.1,45.26,18.85,9.63,29.63-9,42.73-18.74,46.98-34.92,105.7-34.81,152.71,0,13.01,9.64,35.54,37.78,50.11,11.53,8.83-15.91-1.99-26.23-12.65-36.24-30.94-29.05-80.71-48.28-123.29-45.04Z"/>
  <path class="cls-2" d="M551.73,108.51c15.34,13.55,44.73,36.71,21.43,57.24-22.59,19.91-40.4-9.94-55.25-22.51-122.55-103.73-304.91-109.81-430.82-8.12-9.3,7.51-32.68,33.07-40.96,35.55-19.49,5.84-37.39-9.97-31.64-29.82,4.64-16.04,56.17-54.58,71.8-64.82C229.37-17.79,423.51-4.79,551.73,108.51Z"/>
  <path class="cls-2" d="M281.13,352.55c101.4-21.06,105.08,135.85,3.36,119.79-61.09-9.65-62.4-107.53-3.36-119.79Z"/>
  <path class="cls-2" d="M99.19,211.49c70.42-87.87,219.57-104.57,317.42-57.54,19.15,9.2,72.12,44.37,82.29,61.63,10.55,17.9-3.58,37.69-23.94,33.04-7.14-1.63-30.78-26.52-39.7-33.15-86.15-64.08-205.61-59.63-287.7,8.93-6.49,5.42-12.58,14.33-19.12,19.14-22.38,16.45-49.55-6.71-29.25-32.04Z"/>
  <path class="cls-2" d="M287.97,235.67c42.57-3.24,92.34,15.99,123.29,45.04,10.66,10.01,21.48,20.33,12.65,36.24-14.56,26.25-37.09-1.9-50.11-11.53-47.01-34.81-105.73-34.92-152.71,0-13.1,9.74-23.88,28.37-42.73,18.74-22.65-11.57-5.09-34.09,7.1-45.26,26.44-24.21,66.8-40.51,102.52-43.22Z"/>
</svg>